<?xml version="1.0" encoding="UTF-8" standalone="no"?>
<!-- Created with Inkscape (http://www.inkscape.org/) -->

<svg
   xmlns:dc="http://purl.org/dc/elements/1.1/"
   xmlns:cc="http://creativecommons.org/ns#"
   xmlns:rdf="http://www.w3.org/1999/02/22-rdf-syntax-ns#"
   xmlns:svg="http://www.w3.org/2000/svg"
   xmlns="http://www.w3.org/2000/svg"
   xmlns:sodipodi="http://sodipodi.sourceforge.net/DTD/sodipodi-0.dtd"
   xmlns:inkscape="http://www.inkscape.org/namespaces/inkscape"
   width="487.25"
   height="551.78125"
   id="svg2"
   version="1.1"
   inkscape:version="0.48.4 r9939"
   sodipodi:docname="handbag-preview.svg"
   inkscape:export-filename="/home/marguerite/Public/openSUSE-zh-artwork/handbag/handbag-preview.png"
   inkscape:export-xdpi="90"
   inkscape:export-ydpi="90">
  <defs
     id="defs4" />
  <sodipodi:namedview
     id="base"
     pagecolor="#ffffff"
     bordercolor="#666666"
     borderopacity="1.0"
     inkscape:pageopacity="0.0"
     inkscape:pageshadow="2"
     inkscape:zoom="0.7"
     inkscape:cx="293.55353"
     inkscape:cy="359.2125"
     inkscape:document-units="px"
     inkscape:current-layer="layer1"
     showgrid="true"
     inkscape:window-width="1024"
     inkscape:window-height="718"
     inkscape:window-x="-2"
     inkscape:window-y="-3"
     inkscape:window-maximized="1"
     showguides="true"
     inkscape:guide-bbox="true"
     fit-margin-top="10"
     fit-margin-left="10"
     fit-margin-right="10"
     fit-margin-bottom="10" />
  <metadata
     id="metadata7">
    <rdf:RDF>
      <cc:Work
         rdf:about="">
        <dc:format>image/svg+xml</dc:format>
        <dc:type
           rdf:resource="http://purl.org/dc/dcmitype/StillImage" />
        <dc:title></dc:title>
      </cc:Work>
    </rdf:RDF>
  </metadata>
  <g
     inkscape:label="Layer 1"
     inkscape:groupmode="layer"
     id="layer1"
     transform="translate(-124.46875,-226.15625)">
    <g
       id="g4999">
      <path
         style="fill:#000000;fill-opacity:1;stroke:none"
         d="m 370.625,236.15625 c -31.52012,0 -57.0625,49.22877 -57.0625,109.9375 0,2.77673 0.0512,5.52504 0.15625,8.25 l 5.4375,0 c -0.1061,-2.72615 -0.1875,-5.4689 -0.1875,-8.25 0,-57.52389 23.12709,-104.15625 51.65625,-104.15625 28.52916,0 51.65625,46.63236 51.65625,104.15625 0,2.7811 -0.0814,5.52385 -0.1875,8.25 l 5.4375,0 c 0.10501,-2.72496 0.15625,-5.47327 0.15625,-8.25 0,-60.70873 -25.54239,-109.9375 -57.0625,-109.9375 z"
         id="path3597"
         inkscape:connector-curvature="0" />
      <path
         sodipodi:nodetypes="ccccc"
         inkscape:connector-curvature="0"
         id="path3344"
         d="m 155,317.36218 -20,430 355,20 -15,-450 z"
         style="fill:#1a1a1a;stroke:#000000;stroke-width:1px;stroke-linecap:butt;stroke-linejoin:miter;stroke-opacity:1" />
      <path
         inkscape:connector-curvature="0"
         id="path3546"
         d="m 489.22624,767.43927 110.85085,-20.00685 -35.75834,-430.14733 -89.39584,0 z"
         style="fill:#000000;stroke:#000000;stroke-width:0.84582019px;stroke-linecap:butt;stroke-linejoin:miter;stroke-opacity:1" />
      <path
         inkscape:connector-curvature="0"
         id="path3554"
         d="m 542.86375,727.42557 -53.63751,40.0137 110.85085,-20.00685 z"
         style="fill:#1a1a1a;stroke:#000000;stroke-width:0.84582019px;stroke-linecap:butt;stroke-linejoin:miter;stroke-opacity:1" />
      <path
         inkscape:connector-curvature="0"
         id="path3558"
         d="m 542.86375,727.42557 57.21334,20.00685 -35.75834,-430.14733 -46.48584,0 z"
         style="fill:#1a1a1a;stroke:#000000;stroke-width:0.84582019px;stroke-linecap:butt;stroke-linejoin:miter;stroke-opacity:1" />
      <path
         transform="matrix(0.52941179,0,0,0.52941179,231.52941,74.893118)"
         d="m 74.285714,517.36218 c 0,6.70632 -5.436542,12.14286 -12.142857,12.14286 -6.706315,0 -12.142858,-5.43654 -12.142858,-12.14286 0,-6.70631 5.436543,-12.14285 12.142858,-12.14285 6.706315,0 12.142857,5.43654 12.142857,12.14285 z"
         sodipodi:ry="12.142858"
         sodipodi:rx="12.142858"
         sodipodi:cy="517.36218"
         sodipodi:cx="62.142857"
         id="path3579"
         style="fill:#000000;fill-opacity:1;stroke:none"
         sodipodi:type="arc" />
      <path
         sodipodi:type="arc"
         style="fill:#000000;fill-opacity:1;stroke:none"
         id="path3581"
         sodipodi:cx="62.142857"
         sodipodi:cy="517.36218"
         sodipodi:rx="12.142858"
         sodipodi:ry="12.142858"
         d="m 74.285714,517.36218 c 0,6.70632 -5.436542,12.14286 -12.142857,12.14286 -6.706315,0 -12.142858,-5.43654 -12.142858,-12.14286 0,-6.70631 5.436543,-12.14285 12.142858,-12.14285 6.706315,0 12.142857,5.43654 12.142857,12.14285 z"
         transform="matrix(0.52941179,0,0,0.52941179,339.52941,74.89312)" />
      <path
         sodipodi:type="arc"
         style="fill:#333333;fill-opacity:1;stroke:none"
         id="path3583"
         sodipodi:cx="62.142857"
         sodipodi:cy="517.36218"
         sodipodi:rx="12.142858"
         sodipodi:ry="12.142858"
         d="m 74.285714,517.36218 c 0,6.70632 -5.436542,12.14286 -12.142857,12.14286 -6.706315,0 -12.142858,-5.43654 -12.142858,-12.14286 0,-6.70631 5.436543,-12.14285 12.142858,-12.14285 6.706315,0 12.142857,5.43654 12.142857,12.14285 z"
         transform="matrix(0.42647061,0,0,0.42647061,237.92647,128.15099)" />
      <path
         transform="matrix(0.42647061,0,0,0.42647061,345.92647,128.15099)"
         d="m 74.285714,517.36218 c 0,6.70632 -5.436542,12.14286 -12.142857,12.14286 -6.706315,0 -12.142858,-5.43654 -12.142858,-12.14286 0,-6.70631 5.436543,-12.14285 12.142858,-12.14285 6.706315,0 12.142857,5.43654 12.142857,12.14285 z"
         sodipodi:ry="12.142858"
         sodipodi:rx="12.142858"
         sodipodi:cy="517.36218"
         sodipodi:cx="62.142857"
         id="path3587"
         style="fill:#333333;fill-opacity:1;stroke:none"
         sodipodi:type="arc" />
      <path
         inkscape:connector-curvature="0"
         id="path3589"
         d="m 318.625,236.15625 c -31.52012,0 -57.0625,49.22877 -57.0625,109.9375 0,2.77673 0.0512,5.52504 0.15625,8.25 l 5.4375,0 c -0.1061,-2.72615 -0.1875,-5.4689 -0.1875,-8.25 0,-57.52389 23.12709,-104.15625 51.65625,-104.15625 28.52916,0 51.65625,46.63236 51.65625,104.15625 0,2.7811 -0.0814,5.52385 -0.1875,8.25 l 5.4375,0 c 0.10501,-2.72496 0.15625,-5.47327 0.15625,-8.25 0,-60.70873 -25.54239,-109.9375 -57.0625,-109.9375 z"
         style="fill:#000000;fill-opacity:1;stroke:none" />
      <path
         id="path3693"
         d="m 309.3125,520.15625 c -81.91567,0.2495 -151.71999,57.86582 -170.09375,136.625 l -3.0625,65.53125 c 1.18619,8.68449 2.98556,17.18226 5.375,25.4375 l 216.875,12.21875 c -32.0178,-2.88926 -89.74309,-36.28325 -95.9375,-39.90625 L 261.875,719.25 c -1.39291,-3.87496 -9.73106,-26.95848 -11.5,-31.8125 43.85208,32.36068 80.60449,50.89263 109.25,54.875 31.84909,4.41978 57.59806,-12.0573 68.625,-19.09375 2.15092,-1.33768 3.80334,-2.38134 4.46875,-2.59375 L 433.5,719.46875 c -1.23291,-11.46127 -15.4255,-67.32091 -27.4375,-81.15625 -3.33318,-3.79633 -5.97079,-7.45873 -11.46875,-11.09375 -44.46567,-29.18851 -152.295,-50.69126 -157.34375,-51.6875 l -0.84375,0.21875 -0.34375,0.71875 c 0,0 -1.49091,22.78202 -1.65625,25.3125 -3.66746,-1.42708 -15.04167,-5.79441 -31.375,-11.1875 22.87235,-26.00501 57.08318,-48.41978 115,-45.625 83.41519,4.02521 147.8825,75.73948 143.90625,160.15625 -1.01069,21.45716 -6.3618,41.66313 -15.125,59.8125 l 25.125,1.40625 c 7.67923,-18.58157 12.37249,-38.81029 13.375,-60.09375 4.61578,-97.99449 -70.16205,-181.23484 -166.96875,-185.90625 -3.02534,-0.14599 -6.0363,-0.19662 -9.03125,-0.1875 z m 42.65625,107.625 c 0.71889,-0.009 1.4331,0.007 2.15625,0.0312 0.77007,0.016 1.56758,0.0286 2.34375,0.0937 25.57603,2.16746 44.65914,25.00275 42.5625,50.875 -1.04522,12.51429 -6.80184,23.84828 -16.25,31.96875 -9.47529,8.16362 -21.47063,12.07081 -33.90625,11.0625 -25.53239,-2.20145 -44.64264,-25.0053 -42.59375,-50.84375 1.0294,-12.53413 6.84243,-23.94102 16.34375,-32.03125 8.31906,-7.17442 18.56046,-11.02001 29.34375,-11.15625 z m 0.28125,13.8125 c -7.48446,0.10015 -14.67738,2.84771 -20.4375,7.8125 -6.56412,5.66587 -10.65881,13.56942 -11.34375,22.3125 -1.4451,18.06089 11.83033,33.93674 29.65625,35.46875 8.66557,0.68818 17.03855,-1.97877 23.65625,-7.625 6.60325,-5.69375 10.66273,-13.66991 11.34375,-22.375 1.45069,-18.09032 -11.88695,-33.94139 -29.71875,-35.4375 -1.07743,-0.0921 -2.08851,-0.17034 -3.15625,-0.15625 z m 6.28125,16.8125 c 0.48606,-0.01 0.97115,-0.024 1.46875,0 7.93647,0.38298 14.12808,5.06451 13.875,10.4375 -0.25189,5.34747 -6.84478,9.44547 -14.78125,9.0625 -7.96157,-0.38419 -14.18898,-5.09849 -13.9375,-10.4375 0.23726,-5.03718 6.08404,-8.91391 13.375,-9.0625 z m 70.15625,84.8125 -3.46875,0.46875 c -10.99983,5.97424 -38.17011,17.02418 -63.25,16.46875 l 60.9375,3.4375 c 0.51102,-1.03626 0.99377,-2.10514 1.46875,-3.21875 l 0.9375,-2.1875 c 1.15213,-2.61046 2.91159,-8.25329 3.71875,-11.34375 0.35985,-1.35179 0.57831,-2.82157 -0.34375,-3.625 z"
         style="fill:#01ff02;fill-opacity:1;stroke:none"
         inkscape:connector-curvature="0" />
      <flowRoot
         transform="matrix(0.37562517,0.00466595,-0.00466595,0.37562517,174.92821,254.68236)"
         style="font-size:128px;font-style:normal;font-variant:normal;font-weight:normal;font-stretch:normal;line-height:125%;letter-spacing:0px;word-spacing:0px;fill:#01ff02;fill-opacity:1;stroke:none;font-family:'文泉驿微米黑';-inkscape-font-specification:'文泉驿微米黑'"
         id="flowRoot10003"
         xml:space="preserve"><flowRegion
           id="flowRegion10005"><rect
             style="fill:#01ff02;fill-opacity:1"
             y="319.52023"
             x="234.35539"
             height="359.61432"
             width="747.51288"
             id="rect10007" /></flowRegion><flowPara
           style="font-size:64px;fill:#01ff02;fill-opacity:1"
           id="flowPara10009">openSUSE</flowPara></flowRoot>    </g>
  </g>
</svg>
