<?xml version="1.0" encoding="UTF-8" standalone="no"?>
<!-- Created with Inkscape (http://www.inkscape.org/) -->

<svg
   xmlns:dc="http://purl.org/dc/elements/1.1/"
   xmlns:cc="http://creativecommons.org/ns#"
   xmlns:rdf="http://www.w3.org/1999/02/22-rdf-syntax-ns#"
   xmlns:svg="http://www.w3.org/2000/svg"
   xmlns="http://www.w3.org/2000/svg"
   xmlns:xlink="http://www.w3.org/1999/xlink"
   xmlns:sodipodi="http://sodipodi.sourceforge.net/DTD/sodipodi-0.dtd"
   xmlns:inkscape="http://www.inkscape.org/namespaces/inkscape"
   width="512"
   height="512"
   id="svg2"
   version="1.1"
   inkscape:version="0.48.4 r9939"
   sodipodi:docname="cloverleaf-logo.svg">
  <defs
     id="defs4">
    <linearGradient
       inkscape:collect="always"
       id="linearGradient10209">
      <stop
         style="stop-color:#ffffff;stop-opacity:1;"
         offset="0"
         id="stop10211" />
      <stop
         style="stop-color:#ffffff;stop-opacity:0;"
         offset="1"
         id="stop10213" />
    </linearGradient>
    <linearGradient
       id="linearGradient10070">
      <stop
         style="stop-color:#000000;stop-opacity:0;"
         offset="0"
         id="stop10072" />
      <stop
         style="stop-color:#ffffff;stop-opacity:1;"
         offset="1"
         id="stop10074" />
    </linearGradient>
    <inkscape:path-effect
       fuse_tolerance="0"
       vertical_pattern="false"
       prop_units="false"
       tang_offset="0"
       normal_offset="0"
       spacing="0"
       scale_y_rel="false"
       prop_scale="1"
       copytype="single_stretched"
       pattern="m -30,0 0,10 10,-5 z"
       is_visible="true"
       id="path-effect9818"
       effect="skeletal" />
    <inkscape:path-effect
       fuse_tolerance="0"
       vertical_pattern="false"
       prop_units="false"
       tang_offset="0"
       normal_offset="0"
       spacing="0"
       scale_y_rel="false"
       prop_scale="1"
       copytype="single_stretched"
       pattern="m -58,0 0,10 10,-5 z"
       is_visible="true"
       id="path-effect9814"
       effect="skeletal" />
    <inkscape:path-effect
       fuse_tolerance="0"
       vertical_pattern="false"
       prop_units="false"
       tang_offset="0"
       normal_offset="0"
       spacing="0"
       scale_y_rel="false"
       prop_scale="1"
       copytype="single_stretched"
       pattern="m -56,0 0,10 10,-5 z"
       is_visible="true"
       id="path-effect9810"
       effect="skeletal" />
    <inkscape:path-effect
       effect="skeletal"
       id="path-effect9806"
       is_visible="true"
       pattern="m 0,540.36218 0,10 10,-5 z"
       copytype="single_stretched"
       prop_scale="1"
       scale_y_rel="false"
       spacing="0"
       normal_offset="0"
       tang_offset="0"
       prop_units="false"
       vertical_pattern="false"
       fuse_tolerance="0" />
    <inkscape:path-effect
       effect="skeletal"
       id="path-effect9802"
       is_visible="true"
       pattern="m 0,540.36218 0,10 10,-5 z"
       copytype="single_stretched"
       prop_scale="1"
       scale_y_rel="false"
       spacing="0"
       normal_offset="0"
       tang_offset="0"
       prop_units="false"
       vertical_pattern="false"
       fuse_tolerance="0" />
    <inkscape:path-effect
       effect="skeletal"
       id="path-effect9798"
       is_visible="true"
       pattern="m 0,540.36218 0,10 10,-5 z"
       copytype="single_stretched"
       prop_scale="1"
       scale_y_rel="false"
       spacing="0"
       normal_offset="0"
       tang_offset="0"
       prop_units="false"
       vertical_pattern="false"
       fuse_tolerance="0" />
    <filter
       inkscape:collect="always"
       id="filter10066">
      <feGaussianBlur
         inkscape:collect="always"
         stdDeviation="7.2247665"
         id="feGaussianBlur10068" />
    </filter>
    <radialGradient
       inkscape:collect="always"
       xlink:href="#linearGradient10209"
       id="radialGradient10217"
       cx="264.9296"
       cy="246.66776"
       fx="264.9296"
       fy="246.66776"
       r="149.71252"
       gradientTransform="matrix(1,0,0,1.0006021,0,-0.14852002)"
       gradientUnits="userSpaceOnUse" />
    <radialGradient
       inkscape:collect="always"
       xlink:href="#linearGradient10209"
       id="radialGradient16389"
       gradientUnits="userSpaceOnUse"
       gradientTransform="matrix(1,0,0,1.0006021,0,540.21366)"
       cx="264.9296"
       cy="246.66776"
       fx="264.9296"
       fy="246.66776"
       r="149.71252" />
  </defs>
  <sodipodi:namedview
     id="base"
     pagecolor="#ffffff"
     bordercolor="#666666"
     borderopacity="1.0"
     inkscape:pageopacity="0.0"
     inkscape:pageshadow="2"
     inkscape:zoom="0.90509668"
     inkscape:cx="321.71389"
     inkscape:cy="250.23879"
     inkscape:document-units="px"
     inkscape:current-layer="layer1"
     showgrid="true"
     showguides="true"
     inkscape:guide-bbox="true"
     inkscape:window-width="1024"
     inkscape:window-height="718"
     inkscape:window-x="-2"
     inkscape:window-y="-3"
     inkscape:window-maximized="1" />
  <metadata
     id="metadata7">
    <rdf:RDF>
      <cc:Work
         rdf:about="">
        <dc:format>image/svg+xml</dc:format>
        <dc:type
           rdf:resource="http://purl.org/dc/dcmitype/StillImage" />
        <dc:title></dc:title>
      </cc:Work>
    </rdf:RDF>
  </metadata>
  <g
     inkscape:label="Layer 1"
     inkscape:groupmode="layer"
     id="layer1"
     transform="translate(0,-540.36218)">
    <g
       id="g16404">
      <path
         style="opacity:0.5;fill:#000000;fill-opacity:1;stroke:none;filter:url(#filter10066)"
         d="m 217.15625,102.34375 c -32.5,-0.35714 -37.40917,30.20406 -27.875,60 2.32243,7.258 15.75678,23.03717 30.65625,39.03125 -16.17612,-15.15385 -32.26597,-28.78653 -39.59375,-30.75 -30.21818,-8.09694 -60.35714,-4.625 -60,27.875 0.25119,22.85855 30.375,47.84375 30.375,47.84375 0,0 -30.12381,24.9852 -30.375,47.84375 -0.35714,32.5 30.20406,37.40917 60,27.875 8.71024,-2.78712 29.69683,-21.51684 48.59375,-39.65625 -18.13499,18.89308 -36.86986,39.88578 -39.65625,48.59375 -9.53417,29.79594 -4.625,60.35714 27.875,60 C 240.0148,390.74881 265,360.625 265,360.625 c 0,0 24.9852,30.12381 47.84375,30.375 32.5,0.35714 35.97194,-29.78182 27.875,-60 -1.85116,-6.90862 -14.09796,-21.57055 -28.1875,-36.78125 15.3319,14.22236 30.16489,26.63505 37.125,28.5 30.21818,8.09694 60.35714,4.625 60,-27.875 C 409.40506,271.9852 379.28125,247 379.28125,247 c 0,0 30.12381,-24.9852 30.375,-47.84375 0.35714,-32.5 -30.20406,-37.40917 -60,-27.875 -8.19475,2.62217 -27.25485,19.35885 -45.21875,36.4375 17.23524,-18.02252 34.08078,-37.16271 36.28125,-45.375 8.09694,-30.21818 4.625,-60.35714 -27.875,-60 C 289.9852,102.59494 265,132.71875 265,132.71875 c 0,0 -24.9852,-30.12381 -47.84375,-30.375 z"
         transform="matrix(0.64931,-0.76052385,0.76052385,0.64931,-94.666994,828.40636)"
         id="path10064"
         inkscape:connector-curvature="0" />
      <path
         inkscape:connector-curvature="0"
         id="path9923"
         d="m 322.77887,646.15764 c -24.48513,-21.37419 -48.06236,-1.31924 -60.1582,27.53191 -7.10967,16.95807 2.61776,113.54804 2.61776,113.54804 0,0 97.63479,-4.96043 112.55407,-15.21815 25.77888,-17.72423 42.70792,-42.89999 17.759,-63.73095 -17.54758,-14.65125 -56.10911,-7.96451 -56.10911,-7.96451 0,0 0.55785,-39.13302 -16.66352,-54.16634 z"
         style="fill:#bad400;fill-opacity:1;stroke:none"
         sodipodi:nodetypes="sscsscs" />
      <path
         sodipodi:nodetypes="sscsscs"
         style="fill:#7dba00;fill-opacity:1;stroke:none"
         d="m 124.16959,729.70667 c -21.37419,24.48513 -1.31924,48.06236 27.53192,60.1582 16.95806,7.10967 113.54804,-2.61776 113.54804,-2.61776 0,0 -4.96043,-97.63479 -15.21816,-112.55407 -17.72422,-25.77888 -42.89998,-42.70792 -63.73095,-17.759 -14.65125,17.54758 -7.96451,56.10911 -7.96451,56.10911 0,0 -39.13302,-0.55785 -54.16634,16.66352 z"
         id="path9782"
         inkscape:connector-curvature="0" />
      <path
         id="path3005"
         d="m 178.1847,711.96896 c 0.0705,0.4578 0.15123,1.07419 0.15123,1.07419 0,0 -0.12486,0.0106 -0.1321,0.0104 l 85.47015,74.45082 c 0.46348,-0.0757 1.57557,-0.25728 1.57557,-0.25728 0,0 0.007,-1.36662 0.009,-2.41677 L 178.1847,711.96896 z"
         style="fill:#ffffff;fill-opacity:1;stroke:none"
         inkscape:connector-curvature="0" />
      <path
         id="path9785"
         d="m 177.73942,713.06804 85.54145,74.51169 c 0.71654,-0.11593 1.96868,-0.33262 1.96868,-0.33262 0,0 0.0177,-1.27063 0.0198,-1.99648 l -87.0024,-72.80052 c 0.0232,0.14265 0.069,0.59304 0.069,0.59304 0,0 -0.45199,0.0255 -0.59651,0.0249 z"
         style="fill:#496d00;fill-opacity:1;stroke:none"
         inkscape:connector-curvature="0" />
      <path
         inkscape:connector-curvature="0"
         style="fill:#ffffff;fill-opacity:1;stroke:none"
         d="m 340.51658,700.17274 c -0.4578,0.0705 -1.07419,0.15124 -1.07419,0.15124 0,0 -0.0106,-0.12486 -0.0104,-0.13211 l -74.45082,85.47016 c 0.0757,0.46348 0.25728,1.57556 0.25728,1.57556 0,0 1.36662,0.007 2.41677,0.009 l 72.86138,-87.0737 z"
         id="path9925" />
      <path
         inkscape:connector-curvature="0"
         style="fill:#869900;fill-opacity:1;stroke:none"
         d="m 339.4175,699.72746 -74.51169,85.54146 c 0.11593,0.71653 0.33262,1.96867 0.33262,1.96867 0,0 1.27063,0.0177 1.99648,0.0198 l 72.80052,-87.0024 c -0.14265,0.0232 -0.59304,0.0689 -0.59304,0.0689 0,0 -0.0255,-0.452 -0.0249,-0.59652 z"
         id="path9927" />
      <path
         inkscape:connector-curvature="0"
         id="path9943"
         d="m 207.22824,927.89727 c 24.48513,21.37419 48.06236,1.31924 60.1582,-27.53191 7.10967,-16.95807 -2.61776,-113.54804 -2.61776,-113.54804 0,0 -97.63479,4.96043 -112.55407,15.21815 -25.77888,17.72423 -42.70792,42.89999 -17.759,63.73095 17.54758,14.65125 56.10911,7.96451 56.10911,7.96451 0,0 -0.55785,39.13302 16.66352,54.16634 z"
         style="fill:#01b394;fill-opacity:1;stroke:none"
         sodipodi:nodetypes="sscsscs" />
      <path
         inkscape:connector-curvature="0"
         style="fill:#ffffff;fill-opacity:1;stroke:none"
         d="m 189.49053,873.88217 c 0.4578,-0.0705 1.07419,-0.15124 1.07419,-0.15124 0,0 0.0106,0.12486 0.0104,0.13211 l 74.45082,-85.47016 c -0.0757,-0.46348 -0.25728,-1.57556 -0.25728,-1.57556 0,0 -1.36662,-0.007 -2.41677,-0.009 l -72.86138,87.0737 z"
         id="path9945" />
      <path
         inkscape:connector-curvature="0"
         style="fill:#008b73;fill-opacity:1;stroke:none"
         d="M 190.58961,874.32745 265.1013,788.786 c -0.11593,-0.71654 -0.33262,-1.96868 -0.33262,-1.96868 0,0 -1.27063,-0.0177 -1.99649,-0.0198 l -72.80051,87.0024 c 0.14265,-0.0232 0.59304,-0.069 0.59304,-0.069 0,0 0.0255,0.452 0.0249,0.59652 z"
         id="path9947" />
      <path
         inkscape:connector-curvature="0"
         id="path9963"
         d="m 343.69719,917.13204 c -20.83096,24.94892 -47.26106,8.83877 -63.73095,-17.759 -9.68063,-15.63357 -15.21815,-112.55406 -15.21815,-112.55406 0,0 97.20495,-10.40938 113.54804,-2.61777 28.23907,13.46305 48.9061,35.67307 27.53191,60.1582 -15.03332,17.22138 -54.16634,16.66353 -54.16634,16.66353 0,0 6.68674,38.56153 -7.96451,56.1091 z"
         style="fill:#008cce;fill-opacity:1;stroke:none"
         sodipodi:nodetypes="sscsscs" />
      <path
         inkscape:connector-curvature="0"
         style="fill:#ffffff;fill-opacity:1;stroke:none"
         d="m 352.74632,861.00387 c -0.46319,0.002 -1.08462,0.0191 -1.08462,0.0191 0,0 0.009,0.12496 0.0104,0.1321 L 264.74103,788.4154 c 0.002,-0.46962 0.007,-1.59642 0.007,-1.59642 0,0 1.34856,-0.22153 2.38548,-0.38767 l 85.61275,74.57256 z"
         id="path9965" />
      <path
         inkscape:connector-curvature="0"
         style="fill:#006d9f;fill-opacity:1;stroke:none"
         d="m 351.73065,861.61597 -87.0024,-72.80051 c 0.002,-0.72585 0.0198,-1.99648 0.0198,-1.99648 0,0 1.25214,-0.2167 1.96867,-0.33263 l 85.54146,74.5117 c -0.14454,-5.9e-4 -0.59652,0.0249 -0.59652,0.0249 0,0 0.0457,0.4504 0.069,0.59303 z"
         id="path9967" />
    </g>
  </g>
</svg>
