<?xml version="1.0" encoding="UTF-8" standalone="no"?>
<!-- Created with Inkscape (http://www.inkscape.org/) -->

<svg
   xmlns:dc="http://purl.org/dc/elements/1.1/"
   xmlns:cc="http://creativecommons.org/ns#"
   xmlns:rdf="http://www.w3.org/1999/02/22-rdf-syntax-ns#"
   xmlns:svg="http://www.w3.org/2000/svg"
   xmlns="http://www.w3.org/2000/svg"
   xmlns:xlink="http://www.w3.org/1999/xlink"
   xmlns:sodipodi="http://sodipodi.sourceforge.net/DTD/sodipodi-0.dtd"
   xmlns:inkscape="http://www.inkscape.org/namespaces/inkscape"
   width="24"
   height="24"
   id="svg3950"
   version="1.1"
   inkscape:version="0.48.3.1 r9886"
   sodipodi:docname="kdoubanfm.svg">
  <defs
     id="defs3952">
    <linearGradient
       id="linearGradient4523">
      <stop
         style="stop-color:#ffffff;stop-opacity:1;"
         offset="0"
         id="stop4525" />
      <stop
         id="stop4531"
         offset="0.25"
         style="stop-color:#ffffff;stop-opacity:0.78431374;" />
      <stop
         style="stop-color:#ffffff;stop-opacity:0.78431374;"
         offset="0.75"
         id="stop4535" />
      <stop
         style="stop-color:#ffffff;stop-opacity:1;"
         offset="1"
         id="stop4527" />
    </linearGradient>
    <linearGradient
       inkscape:collect="always"
       xlink:href="#linearGradient4523"
       id="linearGradient3937"
       gradientUnits="userSpaceOnUse"
       x1="289.55664"
       y1="524.33447"
       x2="466.65533"
       y2="524.33447" />
    <linearGradient
       inkscape:collect="always"
       xlink:href="#linearGradient4523"
       id="linearGradient3107"
       gradientUnits="userSpaceOnUse"
       x1="289.55664"
       y1="524.33447"
       x2="466.65533"
       y2="524.33447"
       gradientTransform="matrix(0.10683956,0,0,0.10683956,221.72709,584.297)" />
    <linearGradient
       inkscape:collect="always"
       xlink:href="#linearGradient4523"
       id="linearGradient3938"
       gradientUnits="userSpaceOnUse"
       gradientTransform="matrix(0.10683956,0,0,0.10683956,221.72709,584.297)"
       x1="289.55664"
       y1="524.33447"
       x2="466.65533"
       y2="524.33447" />
  </defs>
  <sodipodi:namedview
     id="base"
     pagecolor="#ffffff"
     bordercolor="#666666"
     borderopacity="1.0"
     inkscape:pageopacity="0.0"
     inkscape:pageshadow="2"
     inkscape:zoom="10"
     inkscape:cx="5.5551724"
     inkscape:cy="11.663043"
     inkscape:document-units="px"
     inkscape:current-layer="layer6"
     showgrid="false"
     showguides="true"
     inkscape:guide-bbox="true"
     fit-margin-top="0"
     fit-margin-left="0"
     fit-margin-right="0"
     fit-margin-bottom="0"
     inkscape:window-width="1024"
     inkscape:window-height="721"
     inkscape:window-x="-2"
     inkscape:window-y="-3"
     inkscape:window-maximized="1" />
  <metadata
     id="metadata3955">
    <rdf:RDF>
      <cc:Work
         rdf:about="">
        <dc:format>image/svg+xml</dc:format>
        <dc:type
           rdf:resource="http://purl.org/dc/dcmitype/StillImage" />
        <dc:title />
      </cc:Work>
    </rdf:RDF>
  </metadata>
  <g
     inkscape:label="Layer 1"
     inkscape:groupmode="layer"
     id="layer1"
     transform="translate(-250.12376,-628.31666)"
     style="display:inline" />
  <g
     inkscape:groupmode="layer"
     id="layer2"
     inkscape:label="1"
     style="display:inline"
     transform="translate(0,-231.96443)" />
  <g
     inkscape:groupmode="layer"
     id="layer3"
     inkscape:label="层"
     transform="translate(-250.12376,-628.31666)" />
  <g
     inkscape:groupmode="layer"
     id="layer6"
     inkscape:label="层#3"
     transform="translate(-250.12376,-628.31666)">
    <g
       id="kdoubanfm"
       transform="matrix(0.91256004,0,0,0.91256004,22.920081,55.989288)">
      <rect
         ry="1.8116702"
         y="630.13489"
         x="251.83099"
         height="20.363491"
         width="20.585554"
         id="rect3989"
         style="fill:#000000;fill-opacity:0.39215686" />
      <rect
         ry="1.2022362"
         y="630.97388"
         x="252.66319"
         height="18.685612"
         width="18.921146"
         id="rect3055"
         style="fill:url(#linearGradient3938);fill-opacity:1;display:inline" />
      <g
         style="fill:#000000;fill-opacity:0.39215686"
         transform="matrix(0.10683956,0,0,0.10683956,221.71909,584.297)"
         id="g3100">
        <path
           sodipodi:type="arc"
           style="fill:#000000;fill-opacity:0.39215686"
           id="path4169"
           sodipodi:cx="289.92993"
           sodipodi:cy="447.37094"
           sodipodi:rx="4.9912448"
           sodipodi:ry="4.9912448"
           d="m 294.92118,447.37094 c 0,2.75659 -2.23466,4.99125 -4.99125,4.99125 -2.75659,0 -4.99124,-2.23466 -4.99124,-4.99125 0,-2.75659 2.23465,-4.99124 4.99124,-4.99124 2.75659,0 4.99125,2.23465 4.99125,4.99124 z"
           transform="matrix(0.85096879,0,0,0.85096879,54.766557,66.6456)" />
        <path
           transform="matrix(0.85096879,0,0,0.85096879,71.797872,66.6456)"
           sodipodi:type="arc"
           style="fill:#000000;fill-opacity:0.39215686"
           id="path4169-8"
           sodipodi:cx="289.92993"
           sodipodi:cy="447.37094"
           sodipodi:rx="4.9912448"
           sodipodi:ry="4.9912448"
           d="m 294.92118,447.37094 c 0,2.75659 -2.23466,4.99125 -4.99125,4.99125 -2.75659,0 -4.99124,-2.23466 -4.99124,-4.99125 0,-2.75659 2.23465,-4.99124 4.99124,-4.99124 2.75659,0 4.99125,2.23465 4.99125,4.99124 z" />
        <path
           transform="matrix(0.85096879,0,0,0.85096879,88.969256,66.6456)"
           sodipodi:type="arc"
           style="fill:#000000;fill-opacity:0.39215686"
           id="path4169-1"
           sodipodi:cx="289.92993"
           sodipodi:cy="447.37094"
           sodipodi:rx="4.9912448"
           sodipodi:ry="4.9912448"
           d="m 294.92118,447.37094 c 0,2.75659 -2.23466,4.99125 -4.99125,4.99125 -2.75659,0 -4.99124,-2.23466 -4.99124,-4.99125 0,-2.75659 2.23465,-4.99124 4.99124,-4.99124 2.75659,0 4.99125,2.23465 4.99125,4.99124 z" />
        <path
           transform="matrix(0.85096879,0,0,0.85096879,105.8843,66.6456)"
           sodipodi:type="arc"
           style="fill:#000000;fill-opacity:0.39215686"
           id="path4169-3"
           sodipodi:cx="289.92993"
           sodipodi:cy="447.37094"
           sodipodi:rx="4.9912448"
           sodipodi:ry="4.9912448"
           d="m 294.92118,447.37094 c 0,2.75659 -2.23466,4.99125 -4.99125,4.99125 -2.75659,0 -4.99124,-2.23466 -4.99124,-4.99125 0,-2.75659 2.23465,-4.99124 4.99124,-4.99124 2.75659,0 4.99125,2.23465 4.99125,4.99124 z" />
        <path
           transform="matrix(0.85096879,0,0,0.85096879,123.02291,66.833519)"
           sodipodi:type="arc"
           style="fill:#000000;fill-opacity:0.39215686"
           id="path4169-5"
           sodipodi:cx="289.92993"
           sodipodi:cy="447.37094"
           sodipodi:rx="4.9912448"
           sodipodi:ry="4.9912448"
           d="m 294.92118,447.37094 c 0,2.75659 -2.23466,4.99125 -4.99125,4.99125 -2.75659,0 -4.99124,-2.23466 -4.99124,-4.99125 0,-2.75659 2.23465,-4.99124 4.99124,-4.99124 2.75659,0 4.99125,2.23465 4.99125,4.99124 z" />
        <path
           transform="matrix(0.85096879,0,0,0.85096879,139.71441,66.6456)"
           sodipodi:type="arc"
           style="fill:#000000;fill-opacity:0.39215686"
           id="path4169-4"
           sodipodi:cx="289.92993"
           sodipodi:cy="447.37094"
           sodipodi:rx="4.9912448"
           sodipodi:ry="4.9912448"
           d="m 294.92118,447.37094 c 0,2.75659 -2.23466,4.99125 -4.99125,4.99125 -2.75659,0 -4.99124,-2.23466 -4.99124,-4.99125 0,-2.75659 2.23465,-4.99124 4.99124,-4.99124 2.75659,0 4.99125,2.23465 4.99125,4.99124 z" />
        <path
           transform="matrix(0.85096879,0,0,0.85096879,157.07657,66.6456)"
           sodipodi:type="arc"
           style="fill:#000000;fill-opacity:0.39215686"
           id="path4169-12"
           sodipodi:cx="289.92993"
           sodipodi:cy="447.37094"
           sodipodi:rx="4.9912448"
           sodipodi:ry="4.9912448"
           d="m 294.92118,447.37094 c 0,2.75659 -2.23466,4.99125 -4.99125,4.99125 -2.75659,0 -4.99124,-2.23466 -4.99124,-4.99125 0,-2.75659 2.23465,-4.99124 4.99124,-4.99124 2.75659,0 4.99125,2.23465 4.99125,4.99124 z" />
        <path
           transform="matrix(0.85096879,0,0,0.85096879,173.84259,66.6456)"
           sodipodi:type="arc"
           style="fill:#000000;fill-opacity:0.39215686"
           id="path4169-2"
           sodipodi:cx="289.92993"
           sodipodi:cy="447.37094"
           sodipodi:rx="4.9912448"
           sodipodi:ry="4.9912448"
           d="m 294.92118,447.37094 c 0,2.75659 -2.23466,4.99125 -4.99125,4.99125 -2.75659,0 -4.99124,-2.23466 -4.99124,-4.99125 0,-2.75659 2.23465,-4.99124 4.99124,-4.99124 2.75659,0 4.99125,2.23465 4.99125,4.99124 z" />
        <path
           transform="matrix(0.85096879,0,0,0.85096879,190.98118,66.57108)"
           sodipodi:type="arc"
           style="fill:#000000;fill-opacity:0.39215686"
           id="path4169-7"
           sodipodi:cx="289.92993"
           sodipodi:cy="447.37094"
           sodipodi:rx="4.9912448"
           sodipodi:ry="4.9912448"
           d="m 294.92118,447.37094 c 0,2.75659 -2.23466,4.99125 -4.99125,4.99125 -2.75659,0 -4.99124,-2.23466 -4.99124,-4.99125 0,-2.75659 2.23465,-4.99124 4.99124,-4.99124 2.75659,0 4.99125,2.23465 4.99125,4.99124 z" />
        <path
           transform="matrix(0.85096879,0,0,0.85096879,208.04528,66.6456)"
           sodipodi:type="arc"
           style="fill:#000000;fill-opacity:0.39215686"
           id="path4169-79"
           sodipodi:cx="289.92993"
           sodipodi:cy="447.37094"
           sodipodi:rx="4.9912448"
           sodipodi:ry="4.9912448"
           d="m 294.92118,447.37094 c 0,2.75659 -2.23466,4.99125 -4.99125,4.99125 -2.75659,0 -4.99124,-2.23466 -4.99124,-4.99125 0,-2.75659 2.23465,-4.99124 4.99124,-4.99124 2.75659,0 4.99125,2.23465 4.99125,4.99124 z" />
        <path
           transform="matrix(0.85096879,0,0,0.85096879,54.766548,83.503955)"
           sodipodi:type="arc"
           style="fill:#000000;fill-opacity:0.39215686"
           id="path4169-14"
           sodipodi:cx="289.92993"
           sodipodi:cy="447.37094"
           sodipodi:rx="4.9912448"
           sodipodi:ry="4.9912448"
           d="m 294.92118,447.37094 c 0,2.75659 -2.23466,4.99125 -4.99125,4.99125 -2.75659,0 -4.99124,-2.23466 -4.99124,-4.99125 0,-2.75659 2.23465,-4.99124 4.99124,-4.99124 2.75659,0 4.99125,2.23465 4.99125,4.99124 z" />
        <path
           transform="matrix(0.85096879,0,0,0.85096879,71.797863,83.503955)"
           sodipodi:type="arc"
           style="fill:#000000;fill-opacity:0.39215686"
           id="path4169-8-0"
           sodipodi:cx="289.92993"
           sodipodi:cy="447.37094"
           sodipodi:rx="4.9912448"
           sodipodi:ry="4.9912448"
           d="m 294.92118,447.37094 c 0,2.75659 -2.23466,4.99125 -4.99125,4.99125 -2.75659,0 -4.99124,-2.23466 -4.99124,-4.99125 0,-2.75659 2.23465,-4.99124 4.99124,-4.99124 2.75659,0 4.99125,2.23465 4.99125,4.99124 z" />
        <path
           transform="matrix(0.85096879,0,0,0.85096879,88.969248,83.503955)"
           sodipodi:type="arc"
           style="fill:#000000;fill-opacity:0.39215686"
           id="path4169-1-4"
           sodipodi:cx="289.92993"
           sodipodi:cy="447.37094"
           sodipodi:rx="4.9912448"
           sodipodi:ry="4.9912448"
           d="m 294.92118,447.37094 c 0,2.75659 -2.23466,4.99125 -4.99125,4.99125 -2.75659,0 -4.99124,-2.23466 -4.99124,-4.99125 0,-2.75659 2.23465,-4.99124 4.99124,-4.99124 2.75659,0 4.99125,2.23465 4.99125,4.99124 z" />
        <path
           transform="matrix(0.85096879,0,0,0.85096879,105.8843,83.503955)"
           sodipodi:type="arc"
           style="fill:#000000;fill-opacity:0.39215686"
           id="path4169-3-7"
           sodipodi:cx="289.92993"
           sodipodi:cy="447.37094"
           sodipodi:rx="4.9912448"
           sodipodi:ry="4.9912448"
           d="m 294.92118,447.37094 c 0,2.75659 -2.23466,4.99125 -4.99125,4.99125 -2.75659,0 -4.99124,-2.23466 -4.99124,-4.99125 0,-2.75659 2.23465,-4.99124 4.99124,-4.99124 2.75659,0 4.99125,2.23465 4.99125,4.99124 z" />
        <path
           transform="matrix(0.85096879,0,0,0.85096879,123.02291,83.691874)"
           sodipodi:type="arc"
           style="fill:#000000;fill-opacity:0.39215686"
           id="path4169-5-8"
           sodipodi:cx="289.92993"
           sodipodi:cy="447.37094"
           sodipodi:rx="4.9912448"
           sodipodi:ry="4.9912448"
           d="m 294.92118,447.37094 c 0,2.75659 -2.23466,4.99125 -4.99125,4.99125 -2.75659,0 -4.99124,-2.23466 -4.99124,-4.99125 0,-2.75659 2.23465,-4.99124 4.99124,-4.99124 2.75659,0 4.99125,2.23465 4.99125,4.99124 z" />
        <path
           transform="matrix(0.85096879,0,0,0.85096879,139.71441,83.503955)"
           sodipodi:type="arc"
           style="fill:#000000;fill-opacity:0.39215686"
           id="path4169-4-7"
           sodipodi:cx="289.92993"
           sodipodi:cy="447.37094"
           sodipodi:rx="4.9912448"
           sodipodi:ry="4.9912448"
           d="m 294.92118,447.37094 c 0,2.75659 -2.23466,4.99125 -4.99125,4.99125 -2.75659,0 -4.99124,-2.23466 -4.99124,-4.99125 0,-2.75659 2.23465,-4.99124 4.99124,-4.99124 2.75659,0 4.99125,2.23465 4.99125,4.99124 z" />
        <path
           transform="matrix(0.85096879,0,0,0.85096879,157.07656,83.503955)"
           sodipodi:type="arc"
           style="fill:#000000;fill-opacity:0.39215686"
           id="path4169-12-6"
           sodipodi:cx="289.92993"
           sodipodi:cy="447.37094"
           sodipodi:rx="4.9912448"
           sodipodi:ry="4.9912448"
           d="m 294.92118,447.37094 c 0,2.75659 -2.23466,4.99125 -4.99125,4.99125 -2.75659,0 -4.99124,-2.23466 -4.99124,-4.99125 0,-2.75659 2.23465,-4.99124 4.99124,-4.99124 2.75659,0 4.99125,2.23465 4.99125,4.99124 z" />
        <path
           transform="matrix(0.85096879,0,0,0.85096879,173.84258,83.503955)"
           sodipodi:type="arc"
           style="fill:#000000;fill-opacity:0.39215686"
           id="path4169-2-8"
           sodipodi:cx="289.92993"
           sodipodi:cy="447.37094"
           sodipodi:rx="4.9912448"
           sodipodi:ry="4.9912448"
           d="m 294.92118,447.37094 c 0,2.75659 -2.23466,4.99125 -4.99125,4.99125 -2.75659,0 -4.99124,-2.23466 -4.99124,-4.99125 0,-2.75659 2.23465,-4.99124 4.99124,-4.99124 2.75659,0 4.99125,2.23465 4.99125,4.99124 z" />
        <path
           transform="matrix(0.85096879,0,0,0.85096879,190.98117,83.429436)"
           sodipodi:type="arc"
           style="fill:#000000;fill-opacity:0.39215686"
           id="path4169-7-0"
           sodipodi:cx="289.92993"
           sodipodi:cy="447.37094"
           sodipodi:rx="4.9912448"
           sodipodi:ry="4.9912448"
           d="m 294.92118,447.37094 c 0,2.75659 -2.23466,4.99125 -4.99125,4.99125 -2.75659,0 -4.99124,-2.23466 -4.99124,-4.99125 0,-2.75659 2.23465,-4.99124 4.99124,-4.99124 2.75659,0 4.99125,2.23465 4.99125,4.99124 z" />
        <path
           transform="matrix(0.85096879,0,0,0.85096879,208.04527,83.503955)"
           sodipodi:type="arc"
           style="fill:#000000;fill-opacity:0.39215686"
           id="path4169-79-8"
           sodipodi:cx="289.92993"
           sodipodi:cy="447.37094"
           sodipodi:rx="4.9912448"
           sodipodi:ry="4.9912448"
           d="m 294.92118,447.37094 c 0,2.75659 -2.23466,4.99125 -4.99125,4.99125 -2.75659,0 -4.99124,-2.23466 -4.99124,-4.99125 0,-2.75659 2.23465,-4.99124 4.99124,-4.99124 2.75659,0 4.99125,2.23465 4.99125,4.99124 z" />
        <path
           transform="matrix(0.85096879,0,0,0.85096879,54.724825,100.18956)"
           sodipodi:type="arc"
           style="fill:#000000;fill-opacity:0.39215686"
           id="path4169-6"
           sodipodi:cx="289.92993"
           sodipodi:cy="447.37094"
           sodipodi:rx="4.9912448"
           sodipodi:ry="4.9912448"
           d="m 294.92118,447.37094 c 0,2.75659 -2.23466,4.99125 -4.99125,4.99125 -2.75659,0 -4.99124,-2.23466 -4.99124,-4.99125 0,-2.75659 2.23465,-4.99124 4.99124,-4.99124 2.75659,0 4.99125,2.23465 4.99125,4.99124 z" />
        <path
           transform="matrix(0.85096879,0,0,0.85096879,71.75614,100.18956)"
           sodipodi:type="arc"
           style="fill:#000000;fill-opacity:0.39215686"
           id="path4169-8-1"
           sodipodi:cx="289.92993"
           sodipodi:cy="447.37094"
           sodipodi:rx="4.9912448"
           sodipodi:ry="4.9912448"
           d="m 294.92118,447.37094 c 0,2.75659 -2.23466,4.99125 -4.99125,4.99125 -2.75659,0 -4.99124,-2.23466 -4.99124,-4.99125 0,-2.75659 2.23465,-4.99124 4.99124,-4.99124 2.75659,0 4.99125,2.23465 4.99125,4.99124 z" />
        <path
           transform="matrix(0.85096879,0,0,0.85096879,88.927525,100.18956)"
           sodipodi:type="arc"
           style="fill:#000000;fill-opacity:0.39215686"
           id="path4169-1-45"
           sodipodi:cx="289.92993"
           sodipodi:cy="447.37094"
           sodipodi:rx="4.9912448"
           sodipodi:ry="4.9912448"
           d="m 294.92118,447.37094 c 0,2.75659 -2.23466,4.99125 -4.99125,4.99125 -2.75659,0 -4.99124,-2.23466 -4.99124,-4.99125 0,-2.75659 2.23465,-4.99124 4.99124,-4.99124 2.75659,0 4.99125,2.23465 4.99125,4.99124 z" />
        <path
           transform="matrix(0.85096879,0,0,0.85096879,105.84258,100.18956)"
           sodipodi:type="arc"
           style="fill:#000000;fill-opacity:0.39215686"
           id="path4169-3-2"
           sodipodi:cx="289.92993"
           sodipodi:cy="447.37094"
           sodipodi:rx="4.9912448"
           sodipodi:ry="4.9912448"
           d="m 294.92118,447.37094 c 0,2.75659 -2.23466,4.99125 -4.99125,4.99125 -2.75659,0 -4.99124,-2.23466 -4.99124,-4.99125 0,-2.75659 2.23465,-4.99124 4.99124,-4.99124 2.75659,0 4.99125,2.23465 4.99125,4.99124 z" />
        <path
           transform="matrix(0.85096879,0,0,0.85096879,122.98119,100.37748)"
           sodipodi:type="arc"
           style="fill:#000000;fill-opacity:0.39215686"
           id="path4169-5-5"
           sodipodi:cx="289.92993"
           sodipodi:cy="447.37094"
           sodipodi:rx="4.9912448"
           sodipodi:ry="4.9912448"
           d="m 294.92118,447.37094 c 0,2.75659 -2.23466,4.99125 -4.99125,4.99125 -2.75659,0 -4.99124,-2.23466 -4.99124,-4.99125 0,-2.75659 2.23465,-4.99124 4.99124,-4.99124 2.75659,0 4.99125,2.23465 4.99125,4.99124 z" />
        <path
           transform="matrix(0.85096879,0,0,0.85096879,139.67268,100.18956)"
           sodipodi:type="arc"
           style="fill:#000000;fill-opacity:0.39215686"
           id="path4169-4-9"
           sodipodi:cx="289.92993"
           sodipodi:cy="447.37094"
           sodipodi:rx="4.9912448"
           sodipodi:ry="4.9912448"
           d="m 294.92118,447.37094 c 0,2.75659 -2.23466,4.99125 -4.99125,4.99125 -2.75659,0 -4.99124,-2.23466 -4.99124,-4.99125 0,-2.75659 2.23465,-4.99124 4.99124,-4.99124 2.75659,0 4.99125,2.23465 4.99125,4.99124 z" />
        <path
           transform="matrix(0.85096879,0,0,0.85096879,157.03484,100.18956)"
           sodipodi:type="arc"
           style="fill:#000000;fill-opacity:0.39215686"
           id="path4169-12-3"
           sodipodi:cx="289.92993"
           sodipodi:cy="447.37094"
           sodipodi:rx="4.9912448"
           sodipodi:ry="4.9912448"
           d="m 294.92118,447.37094 c 0,2.75659 -2.23466,4.99125 -4.99125,4.99125 -2.75659,0 -4.99124,-2.23466 -4.99124,-4.99125 0,-2.75659 2.23465,-4.99124 4.99124,-4.99124 2.75659,0 4.99125,2.23465 4.99125,4.99124 z" />
        <path
           transform="matrix(0.85096879,0,0,0.85096879,173.80085,100.18956)"
           sodipodi:type="arc"
           style="fill:#000000;fill-opacity:0.39215686"
           id="path4169-2-88"
           sodipodi:cx="289.92993"
           sodipodi:cy="447.37094"
           sodipodi:rx="4.9912448"
           sodipodi:ry="4.9912448"
           d="m 294.92118,447.37094 c 0,2.75659 -2.23466,4.99125 -4.99125,4.99125 -2.75659,0 -4.99124,-2.23466 -4.99124,-4.99125 0,-2.75659 2.23465,-4.99124 4.99124,-4.99124 2.75659,0 4.99125,2.23465 4.99125,4.99124 z" />
        <path
           transform="matrix(0.85096879,0,0,0.85096879,190.93945,100.11504)"
           sodipodi:type="arc"
           style="fill:#000000;fill-opacity:0.39215686"
           id="path4169-7-4"
           sodipodi:cx="289.92993"
           sodipodi:cy="447.37094"
           sodipodi:rx="4.9912448"
           sodipodi:ry="4.9912448"
           d="m 294.92118,447.37094 c 0,2.75659 -2.23466,4.99125 -4.99125,4.99125 -2.75659,0 -4.99124,-2.23466 -4.99124,-4.99125 0,-2.75659 2.23465,-4.99124 4.99124,-4.99124 2.75659,0 4.99125,2.23465 4.99125,4.99124 z" />
        <path
           transform="matrix(0.85096879,0,0,0.85096879,208.00354,100.18956)"
           sodipodi:type="arc"
           style="fill:#000000;fill-opacity:0.39215686"
           id="path4169-79-3"
           sodipodi:cx="289.92993"
           sodipodi:cy="447.37094"
           sodipodi:rx="4.9912448"
           sodipodi:ry="4.9912448"
           d="m 294.92118,447.37094 c 0,2.75659 -2.23466,4.99125 -4.99125,4.99125 -2.75659,0 -4.99124,-2.23466 -4.99124,-4.99125 0,-2.75659 2.23465,-4.99124 4.99124,-4.99124 2.75659,0 4.99125,2.23465 4.99125,4.99124 z" />
        <path
           transform="matrix(0.85096879,0,0,0.85096879,54.915596,116.19851)"
           sodipodi:type="arc"
           style="fill:#000000;fill-opacity:0.39215686"
           id="path4169-50"
           sodipodi:cx="289.92993"
           sodipodi:cy="447.37094"
           sodipodi:rx="4.9912448"
           sodipodi:ry="4.9912448"
           d="m 294.92118,447.37094 c 0,2.75659 -2.23466,4.99125 -4.99125,4.99125 -2.75659,0 -4.99124,-2.23466 -4.99124,-4.99125 0,-2.75659 2.23465,-4.99124 4.99124,-4.99124 2.75659,0 4.99125,2.23465 4.99125,4.99124 z" />
        <path
           transform="matrix(0.85096879,0,0,0.85096879,71.946911,116.19851)"
           sodipodi:type="arc"
           style="fill:#000000;fill-opacity:0.39215686"
           id="path4169-8-5"
           sodipodi:cx="289.92993"
           sodipodi:cy="447.37094"
           sodipodi:rx="4.9912448"
           sodipodi:ry="4.9912448"
           d="m 294.92118,447.37094 c 0,2.75659 -2.23466,4.99125 -4.99125,4.99125 -2.75659,0 -4.99124,-2.23466 -4.99124,-4.99125 0,-2.75659 2.23465,-4.99124 4.99124,-4.99124 2.75659,0 4.99125,2.23465 4.99125,4.99124 z" />
        <path
           transform="matrix(0.85096879,0,0,0.85096879,89.118295,116.19851)"
           sodipodi:type="arc"
           style="fill:#000000;fill-opacity:0.39215686"
           id="path4169-1-9"
           sodipodi:cx="289.92993"
           sodipodi:cy="447.37094"
           sodipodi:rx="4.9912448"
           sodipodi:ry="4.9912448"
           d="m 294.92118,447.37094 c 0,2.75659 -2.23466,4.99125 -4.99125,4.99125 -2.75659,0 -4.99124,-2.23466 -4.99124,-4.99125 0,-2.75659 2.23465,-4.99124 4.99124,-4.99124 2.75659,0 4.99125,2.23465 4.99125,4.99124 z" />
        <path
           transform="matrix(0.85096879,0,0,0.85096879,106.03335,116.19851)"
           sodipodi:type="arc"
           style="fill:#000000;fill-opacity:0.39215686"
           id="path4169-3-3"
           sodipodi:cx="289.92993"
           sodipodi:cy="447.37094"
           sodipodi:rx="4.9912448"
           sodipodi:ry="4.9912448"
           d="m 294.92118,447.37094 c 0,2.75659 -2.23466,4.99125 -4.99125,4.99125 -2.75659,0 -4.99124,-2.23466 -4.99124,-4.99125 0,-2.75659 2.23465,-4.99124 4.99124,-4.99124 2.75659,0 4.99125,2.23465 4.99125,4.99124 z" />
        <path
           transform="matrix(0.85096879,0,0,0.85096879,123.17196,116.38643)"
           sodipodi:type="arc"
           style="fill:#000000;fill-opacity:0.39215686"
           id="path4169-5-4"
           sodipodi:cx="289.92993"
           sodipodi:cy="447.37094"
           sodipodi:rx="4.9912448"
           sodipodi:ry="4.9912448"
           d="m 294.92118,447.37094 c 0,2.75659 -2.23466,4.99125 -4.99125,4.99125 -2.75659,0 -4.99124,-2.23466 -4.99124,-4.99125 0,-2.75659 2.23465,-4.99124 4.99124,-4.99124 2.75659,0 4.99125,2.23465 4.99125,4.99124 z" />
        <path
           transform="matrix(0.85096879,0,0,0.85096879,139.86345,116.19851)"
           sodipodi:type="arc"
           style="fill:#000000;fill-opacity:0.39215686"
           id="path4169-4-6"
           sodipodi:cx="289.92993"
           sodipodi:cy="447.37094"
           sodipodi:rx="4.9912448"
           sodipodi:ry="4.9912448"
           d="m 294.92118,447.37094 c 0,2.75659 -2.23466,4.99125 -4.99125,4.99125 -2.75659,0 -4.99124,-2.23466 -4.99124,-4.99125 0,-2.75659 2.23465,-4.99124 4.99124,-4.99124 2.75659,0 4.99125,2.23465 4.99125,4.99124 z" />
        <path
           transform="matrix(0.85096879,0,0,0.85096879,157.2256,116.19851)"
           sodipodi:type="arc"
           style="fill:#000000;fill-opacity:0.39215686"
           id="path4169-12-2"
           sodipodi:cx="289.92993"
           sodipodi:cy="447.37094"
           sodipodi:rx="4.9912448"
           sodipodi:ry="4.9912448"
           d="m 294.92118,447.37094 c 0,2.75659 -2.23466,4.99125 -4.99125,4.99125 -2.75659,0 -4.99124,-2.23466 -4.99124,-4.99125 0,-2.75659 2.23465,-4.99124 4.99124,-4.99124 2.75659,0 4.99125,2.23465 4.99125,4.99124 z" />
        <path
           transform="matrix(0.85096879,0,0,0.85096879,173.99162,116.19851)"
           sodipodi:type="arc"
           style="fill:#000000;fill-opacity:0.39215686"
           id="path4169-2-5"
           sodipodi:cx="289.92993"
           sodipodi:cy="447.37094"
           sodipodi:rx="4.9912448"
           sodipodi:ry="4.9912448"
           d="m 294.92118,447.37094 c 0,2.75659 -2.23466,4.99125 -4.99125,4.99125 -2.75659,0 -4.99124,-2.23466 -4.99124,-4.99125 0,-2.75659 2.23465,-4.99124 4.99124,-4.99124 2.75659,0 4.99125,2.23465 4.99125,4.99124 z" />
        <path
           transform="matrix(0.85096879,0,0,0.85096879,191.13021,116.12399)"
           sodipodi:type="arc"
           style="fill:#000000;fill-opacity:0.39215686"
           id="path4169-7-3"
           sodipodi:cx="289.92993"
           sodipodi:cy="447.37094"
           sodipodi:rx="4.9912448"
           sodipodi:ry="4.9912448"
           d="m 294.92118,447.37094 c 0,2.75659 -2.23466,4.99125 -4.99125,4.99125 -2.75659,0 -4.99124,-2.23466 -4.99124,-4.99125 0,-2.75659 2.23465,-4.99124 4.99124,-4.99124 2.75659,0 4.99125,2.23465 4.99125,4.99124 z" />
        <path
           transform="matrix(0.85096879,0,0,0.85096879,208.19431,116.19851)"
           sodipodi:type="arc"
           style="fill:#000000;fill-opacity:0.39215686"
           id="path4169-79-2"
           sodipodi:cx="289.92993"
           sodipodi:cy="447.37094"
           sodipodi:rx="4.9912448"
           sodipodi:ry="4.9912448"
           d="m 294.92118,447.37094 c 0,2.75659 -2.23466,4.99125 -4.99125,4.99125 -2.75659,0 -4.99124,-2.23466 -4.99124,-4.99125 0,-2.75659 2.23465,-4.99124 4.99124,-4.99124 2.75659,0 4.99125,2.23465 4.99125,4.99124 z" />
        <path
           transform="matrix(0.85096879,0,0,0.85096879,54.915587,132.20745)"
           sodipodi:type="arc"
           style="fill:#000000;fill-opacity:0.39215686"
           id="path4169-0"
           sodipodi:cx="289.92993"
           sodipodi:cy="447.37094"
           sodipodi:rx="4.9912448"
           sodipodi:ry="4.9912448"
           d="m 294.92118,447.37094 c 0,2.75659 -2.23466,4.99125 -4.99125,4.99125 -2.75659,0 -4.99124,-2.23466 -4.99124,-4.99125 0,-2.75659 2.23465,-4.99124 4.99124,-4.99124 2.75659,0 4.99125,2.23465 4.99125,4.99124 z" />
        <path
           transform="matrix(0.85096879,0,0,0.85096879,71.946902,132.20745)"
           sodipodi:type="arc"
           style="fill:#000000;fill-opacity:0.39215686"
           id="path4169-8-00"
           sodipodi:cx="289.92993"
           sodipodi:cy="447.37094"
           sodipodi:rx="4.9912448"
           sodipodi:ry="4.9912448"
           d="m 294.92118,447.37094 c 0,2.75659 -2.23466,4.99125 -4.99125,4.99125 -2.75659,0 -4.99124,-2.23466 -4.99124,-4.99125 0,-2.75659 2.23465,-4.99124 4.99124,-4.99124 2.75659,0 4.99125,2.23465 4.99125,4.99124 z" />
        <path
           transform="matrix(0.85096879,0,0,0.85096879,89.118286,132.20745)"
           sodipodi:type="arc"
           style="fill:#000000;fill-opacity:0.39215686"
           id="path4169-1-98"
           sodipodi:cx="289.92993"
           sodipodi:cy="447.37094"
           sodipodi:rx="4.9912448"
           sodipodi:ry="4.9912448"
           d="m 294.92118,447.37094 c 0,2.75659 -2.23466,4.99125 -4.99125,4.99125 -2.75659,0 -4.99124,-2.23466 -4.99124,-4.99125 0,-2.75659 2.23465,-4.99124 4.99124,-4.99124 2.75659,0 4.99125,2.23465 4.99125,4.99124 z" />
        <path
           transform="matrix(0.85096879,0,0,0.85096879,106.03334,132.20745)"
           sodipodi:type="arc"
           style="fill:#000000;fill-opacity:0.39215686"
           id="path4169-3-0"
           sodipodi:cx="289.92993"
           sodipodi:cy="447.37094"
           sodipodi:rx="4.9912448"
           sodipodi:ry="4.9912448"
           d="m 294.92118,447.37094 c 0,2.75659 -2.23466,4.99125 -4.99125,4.99125 -2.75659,0 -4.99124,-2.23466 -4.99124,-4.99125 0,-2.75659 2.23465,-4.99124 4.99124,-4.99124 2.75659,0 4.99125,2.23465 4.99125,4.99124 z" />
        <path
           transform="matrix(0.85096879,0,0,0.85096879,123.17195,132.39537)"
           sodipodi:type="arc"
           style="fill:#000000;fill-opacity:0.39215686"
           id="path4169-5-9"
           sodipodi:cx="289.92993"
           sodipodi:cy="447.37094"
           sodipodi:rx="4.9912448"
           sodipodi:ry="4.9912448"
           d="m 294.92118,447.37094 c 0,2.75659 -2.23466,4.99125 -4.99125,4.99125 -2.75659,0 -4.99124,-2.23466 -4.99124,-4.99125 0,-2.75659 2.23465,-4.99124 4.99124,-4.99124 2.75659,0 4.99125,2.23465 4.99125,4.99124 z" />
        <path
           transform="matrix(0.85096879,0,0,0.85096879,139.86344,132.20745)"
           sodipodi:type="arc"
           style="fill:#000000;fill-opacity:0.39215686"
           id="path4169-4-67"
           sodipodi:cx="289.92993"
           sodipodi:cy="447.37094"
           sodipodi:rx="4.9912448"
           sodipodi:ry="4.9912448"
           d="m 294.92118,447.37094 c 0,2.75659 -2.23466,4.99125 -4.99125,4.99125 -2.75659,0 -4.99124,-2.23466 -4.99124,-4.99125 0,-2.75659 2.23465,-4.99124 4.99124,-4.99124 2.75659,0 4.99125,2.23465 4.99125,4.99124 z" />
        <path
           transform="matrix(0.85096879,0,0,0.85096879,157.2256,132.20745)"
           sodipodi:type="arc"
           style="fill:#000000;fill-opacity:0.39215686"
           id="path4169-12-21"
           sodipodi:cx="289.92993"
           sodipodi:cy="447.37094"
           sodipodi:rx="4.9912448"
           sodipodi:ry="4.9912448"
           d="m 294.92118,447.37094 c 0,2.75659 -2.23466,4.99125 -4.99125,4.99125 -2.75659,0 -4.99124,-2.23466 -4.99124,-4.99125 0,-2.75659 2.23465,-4.99124 4.99124,-4.99124 2.75659,0 4.99125,2.23465 4.99125,4.99124 z" />
        <path
           transform="matrix(0.85096879,0,0,0.85096879,173.99162,132.20745)"
           sodipodi:type="arc"
           style="fill:#000000;fill-opacity:0.39215686"
           id="path4169-2-4"
           sodipodi:cx="289.92993"
           sodipodi:cy="447.37094"
           sodipodi:rx="4.9912448"
           sodipodi:ry="4.9912448"
           d="m 294.92118,447.37094 c 0,2.75659 -2.23466,4.99125 -4.99125,4.99125 -2.75659,0 -4.99124,-2.23466 -4.99124,-4.99125 0,-2.75659 2.23465,-4.99124 4.99124,-4.99124 2.75659,0 4.99125,2.23465 4.99125,4.99124 z" />
        <path
           transform="matrix(0.85096879,0,0,0.85096879,191.13021,132.13293)"
           sodipodi:type="arc"
           style="fill:#000000;fill-opacity:0.39215686"
           id="path4169-7-48"
           sodipodi:cx="289.92993"
           sodipodi:cy="447.37094"
           sodipodi:rx="4.9912448"
           sodipodi:ry="4.9912448"
           d="m 294.92118,447.37094 c 0,2.75659 -2.23466,4.99125 -4.99125,4.99125 -2.75659,0 -4.99124,-2.23466 -4.99124,-4.99125 0,-2.75659 2.23465,-4.99124 4.99124,-4.99124 2.75659,0 4.99125,2.23465 4.99125,4.99124 z" />
        <path
           transform="matrix(0.85096879,0,0,0.85096879,208.19431,132.20745)"
           sodipodi:type="arc"
           style="fill:#000000;fill-opacity:0.39215686"
           id="path4169-79-4"
           sodipodi:cx="289.92993"
           sodipodi:cy="447.37094"
           sodipodi:rx="4.9912448"
           sodipodi:ry="4.9912448"
           d="m 294.92118,447.37094 c 0,2.75659 -2.23466,4.99125 -4.99125,4.99125 -2.75659,0 -4.99124,-2.23466 -4.99124,-4.99125 0,-2.75659 2.23465,-4.99124 4.99124,-4.99124 2.75659,0 4.99125,2.23465 4.99125,4.99124 z" />
      </g>
      <path
         transform="matrix(0.09091713,0,0,0.09091713,227.06467,592.50839)"
         d="m 421.05264,583.94116 c 0,15.36432 -12.45523,27.81955 -27.81955,27.81955 -15.36431,0 -27.81955,-12.45523 -27.81955,-27.81955 0,-15.36431 12.45524,-27.81955 27.81955,-27.81955 15.36432,0 27.81955,12.45524 27.81955,27.81955 z"
         sodipodi:ry="27.81955"
         sodipodi:rx="27.81955"
         sodipodi:cy="583.94116"
         sodipodi:cx="393.23309"
         id="path4376"
         style="opacity:0.5;fill:#000000;fill-opacity:0.39215686"
         sodipodi:type="arc" />
      <path
         d="m 421.05264,583.94116 c 0,15.36432 -12.45523,27.81955 -27.81955,27.81955 -15.36431,0 -27.81955,-12.45523 -27.81955,-27.81955 0,-15.36431 12.45524,-27.81955 27.81955,-27.81955 15.36432,0 27.81955,12.45524 27.81955,27.81955 z"
         sodipodi:ry="27.81955"
         sodipodi:rx="27.81955"
         sodipodi:cy="583.94116"
         sodipodi:cx="393.23309"
         id="path4376-8"
         style="opacity:0.5;fill:#000000;fill-opacity:0.39215686"
         sodipodi:type="arc"
         transform="matrix(0.09091713,0,0,0.09091713,232.71383,592.46054)" />
      <path
         transform="matrix(0.09678275,0,0,0.09971556,225.40946,587.01798)"
         d="m 398.49624,586.57269 c 0,6.4364 -5.21774,11.65414 -11.65414,11.65414 -6.4364,0 -11.65413,-5.21774 -11.65413,-11.65414 0,-6.4364 5.21773,-11.65413 11.65413,-11.65413 6.4364,0 11.65414,5.21773 11.65414,11.65413 z"
         sodipodi:ry="11.654136"
         sodipodi:rx="11.654136"
         sodipodi:cy="586.57269"
         sodipodi:cx="386.8421"
         id="path4397"
         style="opacity:0.7;fill:#000000;fill-opacity:0.49019608"
         sodipodi:type="arc" />
      <path
         inkscape:transform-center-x="26.315789"
         transform="matrix(0.09678275,0,0,0.09971556,231.03402,586.99474)"
         d="m 398.49624,586.57269 c 0,6.4364 -5.21774,11.65414 -11.65414,11.65414 -6.4364,0 -11.65413,-5.21774 -11.65413,-11.65414 0,-6.4364 5.21773,-11.65413 11.65413,-11.65413 6.4364,0 11.65414,5.21773 11.65414,11.65413 z"
         sodipodi:ry="11.654136"
         sodipodi:rx="11.654136"
         sodipodi:cy="586.57269"
         sodipodi:cx="386.8421"
         id="path4397-7"
         style="opacity:0.7;fill:#000000;fill-opacity:0.49019608"
         sodipodi:type="arc" />
    </g>
  </g>
  <g
     inkscape:groupmode="layer"
     id="layer5"
     inkscape:label="层#2"
     transform="translate(-250.12376,-628.31666)" />
  <g
     inkscape:groupmode="layer"
     id="layer4"
     inkscape:label="层#1"
     transform="translate(-250.12376,-628.31666)" />
</svg>
