<?xml version="1.0" encoding="UTF-8" standalone="no"?>
<!-- Created with Inkscape (http://www.inkscape.org/) -->

<svg
   xmlns:dc="http://purl.org/dc/elements/1.1/"
   xmlns:cc="http://creativecommons.org/ns#"
   xmlns:rdf="http://www.w3.org/1999/02/22-rdf-syntax-ns#"
   xmlns:svg="http://www.w3.org/2000/svg"
   xmlns="http://www.w3.org/2000/svg"
   xmlns:xlink="http://www.w3.org/1999/xlink"
   xmlns:sodipodi="http://sodipodi.sourceforge.net/DTD/sodipodi-0.dtd"
   xmlns:inkscape="http://www.inkscape.org/namespaces/inkscape"
   width="492.27032"
   height="524.45984"
   id="svg2"
   version="1.1"
   inkscape:version="0.48.4 r9939"
   sodipodi:docname="guard.svg">
  <defs
     id="defs4">
    <linearGradient
       id="linearGradient4935">
      <stop
         style="stop-color:#ffffff;stop-opacity:0.43921569;"
         offset="0"
         id="stop4937" />
      <stop
         style="stop-color:#ffffff;stop-opacity:0;"
         offset="1"
         id="stop4939" />
    </linearGradient>
    <linearGradient
       id="linearGradient4916">
      <stop
         id="stop4918"
         offset="0"
         style="stop-color:#ffffff;stop-opacity:1;" />
      <stop
         id="stop4920"
         offset="1"
         style="stop-color:#ffffff;stop-opacity:0;" />
    </linearGradient>
    <linearGradient
       id="linearGradient4868">
      <stop
         style="stop-color:#d40000;stop-opacity:0;"
         offset="0"
         id="stop4870" />
      <stop
         style="stop-color:#d40000;stop-opacity:1;"
         offset="1"
         id="stop4872" />
    </linearGradient>
    <linearGradient
       inkscape:collect="always"
       id="linearGradient4796">
      <stop
         style="stop-color:#000000;stop-opacity:1"
         offset="0"
         id="stop4798" />
      <stop
         style="stop-color:#ffffff;stop-opacity:1"
         offset="1"
         id="stop4800" />
    </linearGradient>
    <linearGradient
       id="linearGradient4747">
      <stop
         id="stop4749"
         offset="0"
         style="stop-color:#ff0000;stop-opacity:1" />
      <stop
         id="stop4751"
         offset="1"
         style="stop-color:#ff5555;stop-opacity:0;" />
    </linearGradient>
    <linearGradient
       id="linearGradient4741">
      <stop
         id="stop4743"
         offset="0"
         style="stop-color:#ff0000;stop-opacity:1" />
      <stop
         id="stop4745"
         offset="1"
         style="stop-color:#ff5555;stop-opacity:0;" />
    </linearGradient>
    <linearGradient
       inkscape:collect="always"
       id="linearGradient3778">
      <stop
         style="stop-color:#666666;stop-opacity:1"
         offset="0"
         id="stop3780" />
      <stop
         id="stop3786"
         offset="0.50483954"
         style="stop-color:#cccccc;stop-opacity:1" />
      <stop
         style="stop-color:#666666;stop-opacity:1"
         offset="1"
         id="stop3782" />
    </linearGradient>
    <linearGradient
       id="linearGradient4065-2">
      <stop
         style="stop-color:#008000;stop-opacity:1"
         offset="0"
         id="stop4067-2" />
      <stop
         style="stop-color:#00ff00;stop-opacity:1"
         offset="1"
         id="stop4069-1" />
    </linearGradient>
    <linearGradient
       id="linearGradient4610-4">
      <stop
         style="stop-color:#ffffff;stop-opacity:1;"
         offset="0"
         id="stop4612-9" />
      <stop
         style="stop-color:#999999;stop-opacity:1;"
         offset="1"
         id="stop4614-1" />
    </linearGradient>
    <linearGradient
       id="linearGradient4079-5-4">
      <stop
         style="stop-color:#000000;stop-opacity:1"
         offset="0"
         id="stop4081-7-2" />
      <stop
         style="stop-color:#333333;stop-opacity:1"
         offset="1"
         id="stop4083-1-3" />
    </linearGradient>
    <linearGradient
       id="linearGradient4133-0-9">
      <stop
         style="stop-color:#ffffff;stop-opacity:1;"
         offset="0"
         id="stop4135-8-1" />
      <stop
         style="stop-color:#ffffff;stop-opacity:0;"
         offset="1"
         id="stop4137-1-3" />
    </linearGradient>
    <linearGradient
       id="linearGradient4537">
      <stop
         style="stop-color:#ffffff;stop-opacity:1;"
         offset="0"
         id="stop4539" />
      <stop
         style="stop-color:#ffffff;stop-opacity:0;"
         offset="1"
         id="stop4541" />
    </linearGradient>
    <linearGradient
       id="linearGradient4544">
      <stop
         style="stop-color:#ffffff;stop-opacity:1;"
         offset="0"
         id="stop4546" />
      <stop
         style="stop-color:#999999;stop-opacity:1;"
         offset="1"
         id="stop4548" />
    </linearGradient>
    <linearGradient
       id="linearGradient4551">
      <stop
         style="stop-color:#000000;stop-opacity:1"
         offset="0"
         id="stop4553" />
      <stop
         style="stop-color:#333333;stop-opacity:1"
         offset="1"
         id="stop4555" />
    </linearGradient>
    <linearGradient
       id="linearGradient4558">
      <stop
         style="stop-color:#ffffff;stop-opacity:1;"
         offset="0"
         id="stop4560" />
      <stop
         style="stop-color:#ffffff;stop-opacity:0;"
         offset="1"
         id="stop4562" />
    </linearGradient>
    <radialGradient
       r="6.5659914"
       fy="279.09042"
       fx="306.5813"
       cy="279.09042"
       cx="306.5813"
       gradientUnits="userSpaceOnUse"
       id="radialGradient5234"
       xlink:href="#linearGradient4133-0-9"
       inkscape:collect="always" />
    <linearGradient
       id="linearGradient4565">
      <stop
         style="stop-color:#ffffff;stop-opacity:1;"
         offset="0"
         id="stop4567" />
      <stop
         style="stop-color:#ffffff;stop-opacity:0;"
         offset="1"
         id="stop4569" />
    </linearGradient>
    <filter
       inkscape:collect="always"
       id="filter4828"
       color-interpolation-filters="sRGB">
      <feGaussianBlur
         inkscape:collect="always"
         stdDeviation="1.7578515"
         id="feGaussianBlur4830" />
    </filter>
    <linearGradient
       inkscape:collect="always"
       xlink:href="#linearGradient4796"
       id="linearGradient4861"
       gradientUnits="userSpaceOnUse"
       gradientTransform="translate(-24.17074,-24)"
       x1="358.44754"
       y1="539.17615"
       x2="357.65353"
       y2="902.62903" />
    <linearGradient
       inkscape:collect="always"
       xlink:href="#linearGradient3778"
       id="linearGradient4864"
       gradientUnits="userSpaceOnUse"
       gradientTransform="translate(-24.17074,-24)"
       x1="171.29784"
       y1="718.78125"
       x2="549.0459"
       y2="718.78125" />
    <radialGradient
       inkscape:collect="always"
       xlink:href="#linearGradient4868"
       id="radialGradient4876"
       cx="336.0011"
       cy="694.78125"
       fx="336.0011"
       fy="694.78125"
       r="168.60152"
       gradientTransform="matrix(1,0,0,1.0852143,0,-59.205283)"
       gradientUnits="userSpaceOnUse" />
    <radialGradient
       inkscape:collect="always"
       xlink:href="#linearGradient4868-0"
       id="radialGradient4876-2"
       cx="336.0011"
       cy="694.78125"
       fx="336.0011"
       fy="694.78125"
       r="168.60152"
       gradientTransform="matrix(1,0,0,1.0852143,0,-59.205283)"
       gradientUnits="userSpaceOnUse" />
    <linearGradient
       id="linearGradient4868-0">
      <stop
         style="stop-color:#d40000;stop-opacity:0;"
         offset="0"
         id="stop4870-3" />
      <stop
         style="stop-color:#d40000;stop-opacity:1;"
         offset="1"
         id="stop4872-2" />
    </linearGradient>
    <radialGradient
       inkscape:collect="always"
       xlink:href="#linearGradient4935"
       id="radialGradient4941"
       cx="461.60214"
       cy="507.74817"
       fx="461.60214"
       fy="507.74817"
       r="168.59801"
       gradientTransform="matrix(-1.9107911,0.44381767,-0.27952709,-1.2034624,1485.5568,949.92303)"
       gradientUnits="userSpaceOnUse" />
    <filter
       inkscape:collect="always"
       id="filter6914"
       x="-0.12511285"
       width="1.2502257"
       y="-0.11528862"
       height="1.2305772"
       color-interpolation-filters="sRGB">
      <feGaussianBlur
         inkscape:collect="always"
         stdDeviation="19.69214"
         id="feGaussianBlur6916" />
    </filter>
  </defs>
  <sodipodi:namedview
     id="base"
     pagecolor="#ffffff"
     bordercolor="#666666"
     borderopacity="1.0"
     inkscape:pageopacity="0.0"
     inkscape:pageshadow="2"
     inkscape:zoom="0.35355339"
     inkscape:cx="261.13817"
     inkscape:cy="95.636814"
     inkscape:document-units="px"
     inkscape:current-layer="layer1"
     showgrid="false"
     showguides="true"
     inkscape:guide-bbox="true"
     inkscape:window-width="1024"
     inkscape:window-height="718"
     inkscape:window-x="-2"
     inkscape:window-y="-3"
     inkscape:window-maximized="1"
     fit-margin-top="10"
     fit-margin-left="10"
     fit-margin-right="10"
     fit-margin-bottom="10" />
  <metadata
     id="metadata7">
    <rdf:RDF>
      <cc:Work
         rdf:about="">
        <dc:format>image/svg+xml</dc:format>
        <dc:type
           rdf:resource="http://purl.org/dc/dcmitype/StillImage" />
        <dc:title></dc:title>
      </cc:Work>
    </rdf:RDF>
  </metadata>
  <g
     inkscape:label="Layer 1"
     inkscape:groupmode="layer"
     id="layer1"
     transform="translate(-89.865955,-432.55136)">
    <g
       id="g6918">
      <path
         style="opacity:0.7;fill:#000000;fill-opacity:1;stroke:none;filter:url(#filter6914)"
         d="m 201.77832,522.65625 c -27.92975,11.42857 -47.89203,21.42857 -53.21199,30 -5.31995,8.57143 5.33657,81.42411 11.98652,114.28125 6.64993,32.85714 1.32998,94.28125 0,114.28125 49.72797,66.91275 120.80173,98.413 175.46283,118.5313 54.28974,-18.91614 123.84091,-48.96907 175.43369,-118.5313 -1.32998,-20 -6.64993,-81.42411 0,-114.28125 6.64995,-32.85714 17.30647,-105.70982 11.98652,-114.28125 -5.31995,-8.57143 -25.28224,-18.57143 -53.21199,-30 -43.87502,-14.3035 -80.8136,-32.39219 -134.20822,-32.84375 -57.10468,0.27971 -91.45624,16.42775 -134.23736,32.84375 z"
         id="path6900"
         inkscape:connector-curvature="0"
         sodipodi:nodetypes="csscccssccc" />
      <path
         sodipodi:nodetypes="csscccssccc"
         inkscape:connector-curvature="0"
         id="path2995"
         d="m 201.77832,522.65625 c -27.92975,11.42857 -47.89203,21.42857 -53.21199,30 -5.31995,8.57143 5.33657,81.42411 11.98652,114.28125 6.64993,32.85714 1.32998,94.28125 0,114.28125 49.72797,66.91275 120.80173,98.413 175.46283,118.5313 54.28974,-18.91614 123.84091,-48.96907 175.43369,-118.5313 -1.32998,-20 -6.64993,-81.42411 0,-114.28125 6.64995,-32.85714 17.30647,-105.70982 11.98652,-114.28125 -5.31995,-8.57143 -25.28224,-18.57143 -53.21199,-30 -43.87502,-14.3035 -80.8136,-32.39219 -134.20822,-32.84375 -57.10468,0.27971 -91.45624,16.42775 -134.23736,32.84375 z"
         style="fill:url(#linearGradient4864);fill-opacity:1;stroke:none" />
      <path
         style="fill:url(#linearGradient4861);stroke:none;filter:url(#filter4828)"
         d="m 216.18492,541.13102 c -24.93196,10.2019 -42.75162,19.12857 -47.50057,26.78 -4.74894,7.65142 4.76378,72.68458 10.69997,102.01505 5.93617,29.33047 1.18723,84.16172 0,102.01505 44.39049,59.73078 107.83566,87.85 156.6298,105.80893 48.46264,-16.88581 110.54863,-43.71305 156.60379,-105.80893 -1.18723,-17.85333 -5.93617,-72.68458 0,-102.01505 5.93618,-29.33047 15.4489,-94.36363 10.69996,-102.01505 -4.74893,-7.65143 -22.5686,-16.5781 -47.50056,-26.78 -39.16576,-12.76826 -72.1396,-28.91543 -119.80319,-29.31852 -50.97544,0.24969 -81.63993,14.6645 -119.8292,29.31852 z"
         id="path3000"
         inkscape:connector-curvature="0"
         sodipodi:nodetypes="csscccssccc" />
      <path
         sodipodi:nodetypes="csscccssccc"
         inkscape:connector-curvature="0"
         id="path4794"
         d="m 216.18492,541.13102 c -24.93196,10.2019 -42.75162,19.12857 -47.50057,26.78 -4.74894,7.65142 4.76378,72.68458 10.69997,102.01505 5.93617,29.33047 1.18723,84.16172 0,102.01505 44.39049,59.73078 107.83566,87.85 156.6298,105.80893 48.46264,-16.88581 110.54863,-43.71305 156.60379,-105.80893 -1.18723,-17.85333 -5.93617,-72.68458 0,-102.01505 5.93618,-29.33047 15.4489,-94.36363 10.69996,-102.01505 -4.74893,-7.65143 -22.5686,-16.5781 -47.50056,-26.78 -39.16576,-12.76826 -72.1396,-28.91543 -119.80319,-29.31852 -50.97544,0.24969 -81.63993,14.6645 -119.8292,29.31852 z"
         style="fill:#d40000;stroke:none" />
      <path
         sodipodi:nodetypes="csccscscsc"
         inkscape:connector-curvature="0"
         id="path4832"
         d="m 178,662.375 c 0,0 4.5692,33.40671 3.67105,46.52177 -0.74502,10.87927 58.47068,4.87355 72.79887,3.36478 55.01546,-4.18643 107.73813,-3.14688 162.73969,0 14.3282,1.50877 73.54389,7.51449 72.79887,-3.36478 -0.89814,-13.11506 3.67106,-46.52177 3.67106,-46.52177 -35.50028,14.80401 -62.62194,12.42099 -75.90993,12.24 -13.88018,-0.18905 -81.78689,-0.14621 -81.78689,-0.14621 0,0 -68.19261,-0.0428 -82.07279,0.14621 -13.28799,0.18099 -40.40966,2.56401 -75.90993,-12.24 z"
         style="fill:#ffcc00;stroke:none" />
      <path
         sodipodi:nodetypes="cssssccssscc"
         inkscape:connector-curvature="0"
         id="path4841"
         d="m 335.27626,511.8125 c 0,0 -26.5168,0.47601 -34.49501,2.84375 -6.43097,1.90856 10.69914,49.1618 11.90625,128.375 0.3234,21.22252 1.75429,77.4124 0.71875,95.46875 -0.91341,15.92689 -14.16271,124.78315 -12.03125,125.84375 3.39743,1.69053 34.57229,13.79206 34.625,13.8125 4e-5,2e-5 0.0312,0 0.0312,0 0.0527,-0.0204 31.22757,-12.12197 34.625,-13.8125 2.13146,-1.0606 -11.11784,-109.91686 -12.03125,-125.84375 -1.03554,-18.05635 0.39535,-74.24623 0.71875,-95.46875 1.20711,-79.2132 18.52021,-125.50368 12.15625,-127.625 -10.78661,-3.07654 -36.22369,-3.59375 -36.22369,-3.59375 z"
         style="fill:#ffcc00;stroke:none" />
      <path
         style="fill:url(#radialGradient4876);fill-opacity:1;stroke:none"
         d="m 216.18492,541.13102 c -24.93196,10.2019 -42.75162,19.12857 -47.50057,26.78 -4.74894,7.65142 4.76378,72.68458 10.69997,102.01505 5.93617,29.33047 1.18723,84.16172 0,102.01505 44.39049,59.73078 107.83566,87.85 156.6298,105.80893 48.46264,-16.88581 110.54863,-43.71305 156.60379,-105.80893 -1.18723,-17.85333 -5.93617,-72.68458 0,-102.01505 5.93618,-29.33047 15.4489,-94.36363 10.69996,-102.01505 -4.74893,-7.65143 -22.5686,-16.5781 -47.50056,-26.78 -39.16576,-12.76826 -72.1396,-28.91543 -119.80319,-29.31852 -50.97544,0.24969 -81.63993,14.6645 -119.8292,29.31852 z"
         id="path4866"
         inkscape:connector-curvature="0"
         sodipodi:nodetypes="csscccssccc" />
      <path
         inkscape:connector-curvature="0"
         id="path4866-8"
         d="m 335.63296,511.46875 c -50.97544,0.24969 -81.65448,14.65848 -119.84375,29.3125 -24.93196,10.2019 -42.75105,19.12982 -47.5,26.78125 -3.88706,6.26278 1.77824,50.95745 7.21875,83.0625 48.63183,28.2207 146.43907,72.19427 315.25,99.375 -1.50857,-24.27831 -2.85527,-59.04136 1.46875,-80.40625 5.93618,-29.33047 15.43644,-94.37983 10.6875,-102.03125 -4.74893,-7.65143 -22.56804,-16.57935 -47.5,-26.78125 -39.16576,-12.76826 -72.11766,-28.90941 -119.78125,-29.3125 z"
         style="fill:url(#radialGradient4941);fill-opacity:1;stroke:none" />
    </g>
  </g>
</svg>
