<?xml version="1.0" encoding="UTF-8" standalone="no"?>
<!-- Created with Inkscape (http://www.inkscape.org/) -->

<svg
   xmlns:dc="http://purl.org/dc/elements/1.1/"
   xmlns:cc="http://creativecommons.org/ns#"
   xmlns:rdf="http://www.w3.org/1999/02/22-rdf-syntax-ns#"
   xmlns:svg="http://www.w3.org/2000/svg"
   xmlns="http://www.w3.org/2000/svg"
   xmlns:xlink="http://www.w3.org/1999/xlink"
   xmlns:sodipodi="http://sodipodi.sourceforge.net/DTD/sodipodi-0.dtd"
   xmlns:inkscape="http://www.inkscape.org/namespaces/inkscape"
   width="550"
   height="550"
   id="svg2"
   version="1.1"
   inkscape:version="0.48.4 r9939"
   sodipodi:docname="manager-female.svg"
   inkscape:export-filename="/home/marguerite/Public/openSUSE-zh-artwork/forum/manager-female.svg.png"
   inkscape:export-xdpi="83.779999"
   inkscape:export-ydpi="83.779999">
  <defs
     id="defs4">
    <linearGradient
       id="linearGradient4491">
      <stop
         style="stop-color:#000000;stop-opacity:0;"
         offset="0"
         id="stop4493" />
      <stop
         id="stop4499"
         offset="0.50446433"
         style="stop-color:#ffffff;stop-opacity:1" />
      <stop
         style="stop-color:#000000;stop-opacity:0;"
         offset="1"
         id="stop4495" />
    </linearGradient>
    <linearGradient
       id="linearGradient4477">
      <stop
         style="stop-color:#000000;stop-opacity:0;"
         offset="0"
         id="stop4479" />
      <stop
         id="stop4485"
         offset="0.49413297"
         style="stop-color:#ffffff;stop-opacity:1" />
      <stop
         style="stop-color:#000000;stop-opacity:0;"
         offset="1"
         id="stop4481" />
    </linearGradient>
    <linearGradient
       id="linearGradient4435">
      <stop
         style="stop-color:#ffffff;stop-opacity:0;"
         offset="0"
         id="stop4437" />
      <stop
         id="stop4443"
         offset="0.5089286"
         style="stop-color:#ffffff;stop-opacity:1" />
      <stop
         style="stop-color:#ffffff;stop-opacity:0;"
         offset="1"
         id="stop4439" />
    </linearGradient>
    <linearGradient
       id="linearGradient4347">
      <stop
         style="stop-color:#cccccc;stop-opacity:1"
         offset="0"
         id="stop4349" />
      <stop
         style="stop-color:#ffffff;stop-opacity:0;"
         offset="1"
         id="stop4351" />
    </linearGradient>
    <linearGradient
       id="linearGradient4313">
      <stop
         style="stop-color:#999999;stop-opacity:1;"
         offset="0"
         id="stop4315" />
      <stop
         style="stop-color:#e6e6e6;stop-opacity:0.56470591;"
         offset="1"
         id="stop4317" />
    </linearGradient>
    <linearGradient
       id="linearGradient4303">
      <stop
         style="stop-color:#808080;stop-opacity:1;"
         offset="0"
         id="stop4305" />
      <stop
         style="stop-color:#ffffff;stop-opacity:0;"
         offset="1"
         id="stop4307" />
    </linearGradient>
    <linearGradient
       id="linearGradient4291">
      <stop
         style="stop-color:#ffffff;stop-opacity:1;"
         offset="0"
         id="stop4293" />
      <stop
         style="stop-color:#ffffff;stop-opacity:0;"
         offset="1"
         id="stop4295" />
    </linearGradient>
    <linearGradient
       id="linearGradient4277">
      <stop
         style="stop-color:#b3b3b3;stop-opacity:1"
         offset="0"
         id="stop4279" />
      <stop
         style="stop-color:#ffffff;stop-opacity:0;"
         offset="1"
         id="stop4281" />
    </linearGradient>
    <linearGradient
       inkscape:collect="always"
       id="linearGradient4265">
      <stop
         style="stop-color:#cccccc;stop-opacity:1"
         offset="0"
         id="stop4267" />
      <stop
         style="stop-color:#ffffff;stop-opacity:0;"
         offset="1"
         id="stop4269" />
    </linearGradient>
    <linearGradient
       id="linearGradient4237">
      <stop
         style="stop-color:#e6e6e6;stop-opacity:1"
         offset="0"
         id="stop4239" />
      <stop
         style="stop-color:#ffffff;stop-opacity:1"
         offset="1"
         id="stop4241" />
    </linearGradient>
    <linearGradient
       id="linearGradient4219">
      <stop
         style="stop-color:#b3b3b3;stop-opacity:1"
         offset="0"
         id="stop4221" />
      <stop
         style="stop-color:#ffffff;stop-opacity:0;"
         offset="1"
         id="stop4223" />
    </linearGradient>
    <linearGradient
       id="linearGradient4199">
      <stop
         style="stop-color:#ffffff;stop-opacity:1;"
         offset="0"
         id="stop4201" />
      <stop
         id="stop4211"
         offset="0.58576232"
         style="stop-color:#ffffff;stop-opacity:0.39215687;" />
      <stop
         style="stop-color:#000000;stop-opacity:1;"
         offset="1"
         id="stop4203" />
    </linearGradient>
    <linearGradient
       id="linearGradient4092">
      <stop
         style="stop-color:#e70099;stop-opacity:1;"
         offset="0"
         id="stop4094" />
      <stop
         id="stop4102"
         offset="0.78584969"
         style="stop-color:#fce5f4;stop-opacity:1;" />
      <stop
         style="stop-color:#ffffff;stop-opacity:0;"
         offset="1"
         id="stop4096" />
    </linearGradient>
    <linearGradient
       id="linearGradient4028">
      <stop
         style="stop-color:#e70099;stop-opacity:1;"
         offset="0"
         id="stop4030" />
      <stop
         id="stop4040"
         offset="0.81206894"
         style="stop-color:#fce5f4;stop-opacity:1;" />
      <stop
         id="stop4038"
         offset="1"
         style="stop-color:#ffffff;stop-opacity:1;" />
      <stop
         style="stop-color:#ffffff;stop-opacity:0;"
         offset="1"
         id="stop4032" />
    </linearGradient>
    <linearGradient
       id="linearGradient3978">
      <stop
         style="stop-color:#ffffff;stop-opacity:1;"
         offset="0"
         id="stop3980" />
      <stop
         id="stop3990"
         offset="0.45372751"
         style="stop-color:#ffffff;stop-opacity:0.39607844;" />
      <stop
         id="stop3986"
         offset="0.48561189"
         style="stop-color:#f400a1;stop-opacity:0.33725491;" />
      <stop
         id="stop3992"
         offset="0.51598817"
         style="stop-color:#ffffff;stop-opacity:0.33725491;" />
      <stop
         style="stop-color:#ffffff;stop-opacity:0;"
         offset="1"
         id="stop3982" />
    </linearGradient>
    <linearGradient
       id="linearGradient3948">
      <stop
         style="stop-color:#ffffff;stop-opacity:1"
         offset="0"
         id="stop3950" />
      <stop
         style="stop-color:#ffffff;stop-opacity:0;"
         offset="1"
         id="stop3952" />
    </linearGradient>
    <linearGradient
       id="linearGradient3940">
      <stop
         style="stop-color:#ffffff;stop-opacity:1"
         offset="0"
         id="stop3942" />
      <stop
         style="stop-color:#ffffff;stop-opacity:0;"
         offset="1"
         id="stop3944" />
    </linearGradient>
    <linearGradient
       id="linearGradient3860">
      <stop
         style="stop-color:#f400a1;stop-opacity:1;"
         offset="0"
         id="stop3862" />
      <stop
         id="stop3868"
         offset="0.39959988"
         style="stop-color:#f400a1;stop-opacity:0.97647059;" />
      <stop
         style="stop-color:#c50082;stop-opacity:1;"
         offset="1"
         id="stop3864" />
    </linearGradient>
    <linearGradient
       id="linearGradient3842">
      <stop
         style="stop-color:#f400a1;stop-opacity:1;"
         offset="0"
         id="stop3844" />
      <stop
         id="stop3858"
         offset="0.52941185"
         style="stop-color:#f400a1;stop-opacity:0.97647059;" />
      <stop
         style="stop-color:#c50082;stop-opacity:0.94117647;"
         offset="1"
         id="stop3846" />
    </linearGradient>
    <radialGradient
       inkscape:collect="always"
       xlink:href="#linearGradient3842"
       id="radialGradient3848"
       cx="260"
       cy="592.375"
       fx="260"
       fy="592.375"
       r="110"
       gradientTransform="matrix(1.5454545,-5.2590909e-7,1.0558658e-6,3.1028034,-141.81881,-1245.648)"
       gradientUnits="userSpaceOnUse" />
    <radialGradient
       inkscape:collect="always"
       xlink:href="#linearGradient3860"
       id="radialGradient3866"
       cx="450"
       cy="587.375"
       fx="450"
       fy="587.375"
       r="100"
       gradientTransform="matrix(1.7769735,0,0,3.3786996,-349.63806,-1397.1887)"
       gradientUnits="userSpaceOnUse" />
    <filter
       inkscape:collect="always"
       id="filter3876"
       color-interpolation-filters="sRGB">
      <feGaussianBlur
         inkscape:collect="always"
         stdDeviation="3.5"
         id="feGaussianBlur3878" />
    </filter>
    <filter
       inkscape:collect="always"
       id="filter3882"
       color-interpolation-filters="sRGB">
      <feGaussianBlur
         inkscape:collect="always"
         stdDeviation="3.35"
         id="feGaussianBlur3884" />
    </filter>
    <filter
       inkscape:collect="always"
       id="filter3916"
       x="-0.60000002"
       width="2.2"
       y="-0.60000002"
       height="2.2"
       color-interpolation-filters="sRGB">
      <feGaussianBlur
         inkscape:collect="always"
         stdDeviation="2.5"
         id="feGaussianBlur3918" />
    </filter>
    <linearGradient
       inkscape:collect="always"
       xlink:href="#linearGradient3948"
       id="linearGradient3954"
       x1="376.86707"
       y1="798.72614"
       x2="357.37021"
       y2="803.95032"
       gradientUnits="userSpaceOnUse" />
    <filter
       inkscape:collect="always"
       id="filter3960"
       color-interpolation-filters="sRGB">
      <feGaussianBlur
         inkscape:collect="always"
         stdDeviation="0.58178588"
         id="feGaussianBlur3962" />
    </filter>
    <linearGradient
       inkscape:collect="always"
       xlink:href="#linearGradient3978"
       id="linearGradient3984"
       x1="170.20305"
       y1="366.00037"
       x2="212.75232"
       y2="504.53918"
       gradientUnits="userSpaceOnUse" />
    <filter
       inkscape:collect="always"
       id="filter4002"
       color-interpolation-filters="sRGB">
      <feGaussianBlur
         inkscape:collect="always"
         stdDeviation="4.4066908"
         id="feGaussianBlur4004" />
    </filter>
    <linearGradient
       inkscape:collect="always"
       xlink:href="#linearGradient3978"
       id="linearGradient4008"
       gradientUnits="userSpaceOnUse"
       x1="170.20305"
       y1="366.00037"
       x2="212.75232"
       y2="504.53918" />
    <radialGradient
       inkscape:collect="always"
       xlink:href="#linearGradient4028"
       id="radialGradient4036"
       cx="281.8934"
       cy="636.91962"
       fx="281.8934"
       fy="636.91962"
       r="69.475601"
       gradientTransform="matrix(3.2824045,1.1206398,-0.63140758,1.8494213,-238.32211,-855.10034)"
       gradientUnits="userSpaceOnUse" />
    <filter
       inkscape:collect="always"
       id="filter4056"
       x="-0.1772541"
       width="1.3545082"
       y="-0.090702549"
       height="1.1814051"
       color-interpolation-filters="sRGB">
      <feGaussianBlur
         inkscape:collect="always"
         stdDeviation="10.262362"
         id="feGaussianBlur4058" />
    </filter>
    <radialGradient
       inkscape:collect="always"
       xlink:href="#linearGradient4028"
       id="radialGradient4062"
       gradientUnits="userSpaceOnUse"
       gradientTransform="matrix(-3.2824045,1.1206398,0.63140758,1.8494213,938.32211,-855.10034)"
       cx="281.8934"
       cy="636.91962"
       fx="281.8934"
       fy="636.91962"
       r="69.475601" />
    <filter
       inkscape:collect="always"
       id="filter4068"
       x="-0.1772541"
       width="1.3545082"
       y="-0.090702549"
       height="1.1814051"
       color-interpolation-filters="sRGB">
      <feGaussianBlur
         inkscape:collect="always"
         stdDeviation="10.262362"
         id="feGaussianBlur4070" />
    </filter>
    <filter
       inkscape:collect="always"
       id="filter4086"
       x="-0.19846153"
       width="1.3969231"
       y="-0.086000003"
       height="1.1720001"
       color-interpolation-filters="sRGB">
      <feGaussianBlur
         inkscape:collect="always"
         stdDeviation="10.75"
         id="feGaussianBlur4088" />
    </filter>
    <radialGradient
       inkscape:collect="always"
       xlink:href="#linearGradient4092"
       id="radialGradient4100"
       cx="285"
       cy="502.36218"
       fx="285"
       fy="502.36218"
       r="65"
       gradientTransform="matrix(2.2017202,0.35961456,-0.37692331,2.307692,-153.13825,-759.42519)"
       gradientUnits="userSpaceOnUse" />
    <radialGradient
       inkscape:collect="always"
       xlink:href="#linearGradient4092"
       id="radialGradient4106"
       gradientUnits="userSpaceOnUse"
       gradientTransform="matrix(-2.2017202,0.35961456,0.37692331,2.307692,853.13825,-759.42519)"
       cx="285"
       cy="502.36218"
       fx="285"
       fy="502.36218"
       r="65" />
    <filter
       inkscape:collect="always"
       id="filter4112"
       x="-0.19846153"
       width="1.3969231"
       y="-0.086000003"
       height="1.1720001"
       color-interpolation-filters="sRGB">
      <feGaussianBlur
         inkscape:collect="always"
         stdDeviation="10.75"
         id="feGaussianBlur4114" />
    </filter>
    <radialGradient
       inkscape:collect="always"
       xlink:href="#linearGradient4199"
       id="radialGradient4207"
       cx="350.40762"
       cy="395.82849"
       fx="350.40762"
       fy="395.82849"
       r="69.592392"
       gradientTransform="matrix(1.3389424,4.8497196e-8,0,1.5558111,-118.76801,-213.47218)"
       gradientUnits="userSpaceOnUse" />
    <filter
       inkscape:collect="always"
       id="filter4251"
       color-interpolation-filters="sRGB">
      <feGaussianBlur
         inkscape:collect="always"
         stdDeviation="3.6030458"
         id="feGaussianBlur4253" />
    </filter>
    <linearGradient
       inkscape:collect="always"
       xlink:href="#linearGradient4265"
       id="linearGradient4271"
       x1="350"
       y1="322.36218"
       x2="350"
       y2="490.36218"
       gradientUnits="userSpaceOnUse" />
    <linearGradient
       inkscape:collect="always"
       xlink:href="#linearGradient4277"
       id="linearGradient4283"
       x1="350"
       y1="489.17178"
       x2="350"
       y2="401.31464"
       gradientUnits="userSpaceOnUse" />
    <linearGradient
       inkscape:collect="always"
       xlink:href="#linearGradient4291"
       id="linearGradient4297"
       x1="350"
       y1="328.88608"
       x2="350"
       y2="364.67941"
       gradientUnits="userSpaceOnUse" />
    <linearGradient
       inkscape:collect="always"
       xlink:href="#linearGradient4303"
       id="linearGradient4309"
       x1="350"
       y1="322.04062"
       x2="350"
       y2="339.89774"
       gradientUnits="userSpaceOnUse" />
    <linearGradient
       inkscape:collect="always"
       xlink:href="#linearGradient4313"
       id="linearGradient4319"
       x1="262"
       y1="469.72391"
       x2="253.53572"
       y2="447.9382"
       gradientUnits="userSpaceOnUse" />
    <filter
       inkscape:collect="always"
       id="filter4321"
       color-interpolation-filters="sRGB">
      <feGaussianBlur
         inkscape:collect="always"
         stdDeviation="0.63709698"
         id="feGaussianBlur4323" />
    </filter>
    <linearGradient
       inkscape:collect="always"
       xlink:href="#linearGradient4313"
       id="linearGradient4327"
       gradientUnits="userSpaceOnUse"
       x1="262"
       y1="469.72391"
       x2="253.53572"
       y2="447.9382"
       gradientTransform="matrix(-1,0,0,1,700,-0.29536172)" />
    <filter
       inkscape:collect="always"
       id="filter4333"
       color-interpolation-filters="sRGB">
      <feGaussianBlur
         inkscape:collect="always"
         stdDeviation="0.63498726"
         id="feGaussianBlur4335" />
    </filter>
    <filter
       inkscape:collect="always"
       id="filter4417"
       color-interpolation-filters="sRGB">
      <feGaussianBlur
         inkscape:collect="always"
         stdDeviation="0.75"
         id="feGaussianBlur4419" />
    </filter>
    <filter
       inkscape:collect="always"
       id="filter4421"
       x="-0.012896955"
       width="1.0257939"
       y="-0.17254317"
       height="1.3450863"
       color-interpolation-filters="sRGB">
      <feGaussianBlur
         inkscape:collect="always"
         stdDeviation="0.21494925"
         id="feGaussianBlur4423" />
    </filter>
    <linearGradient
       inkscape:collect="always"
       xlink:href="#linearGradient4435"
       id="linearGradient4441"
       x1="340"
       y1="544.23718"
       x2="360"
       y2="544.23718"
       gradientUnits="userSpaceOnUse" />
    <filter
       inkscape:collect="always"
       id="filter4445"
       color-interpolation-filters="sRGB">
      <feGaussianBlur
         inkscape:collect="always"
         stdDeviation="0.45535725"
         id="feGaussianBlur4447" />
    </filter>
    <filter
       inkscape:collect="always"
       id="filter4469"
       x="-0.12"
       width="1.24"
       y="-0.039999999"
       height="1.08"
       color-interpolation-filters="sRGB">
      <feGaussianBlur
         inkscape:collect="always"
         stdDeviation="2"
         id="feGaussianBlur4471" />
    </filter>
    <linearGradient
       inkscape:collect="always"
       xlink:href="#linearGradient4477"
       id="linearGradient4483"
       x1="330"
       y1="612.36218"
       x2="370"
       y2="612.36218"
       gradientUnits="userSpaceOnUse" />
    <linearGradient
       inkscape:collect="always"
       xlink:href="#linearGradient4491"
       id="linearGradient4497"
       x1="330"
       y1="542.36218"
       x2="370"
       y2="542.36218"
       gradientUnits="userSpaceOnUse" />
    <filter
       inkscape:collect="always"
       id="filter4512"
       color-interpolation-filters="sRGB">
      <feGaussianBlur
         inkscape:collect="always"
         stdDeviation="1.4351287"
         id="feGaussianBlur4514" />
    </filter>
    <radialGradient
       inkscape:collect="always"
       xlink:href="#linearGradient4199"
       id="radialGradient4523"
       gradientUnits="userSpaceOnUse"
       gradientTransform="matrix(1.3389424,4.8497196e-8,0,1.5558111,-118.76801,-213.47218)"
       cx="350.40762"
       cy="395.82849"
       fx="350.40762"
       fy="395.82849"
       r="69.592392" />
    <linearGradient
       inkscape:collect="always"
       xlink:href="#linearGradient4277"
       id="linearGradient4526"
       gradientUnits="userSpaceOnUse"
       x1="350"
       y1="489.17178"
       x2="350"
       y2="401.31464" />
    <linearGradient
       inkscape:collect="always"
       xlink:href="#linearGradient4291"
       id="linearGradient4529"
       gradientUnits="userSpaceOnUse"
       x1="350"
       y1="328.88608"
       x2="350"
       y2="364.67941" />
    <linearGradient
       inkscape:collect="always"
       xlink:href="#linearGradient4303"
       id="linearGradient4532"
       gradientUnits="userSpaceOnUse"
       x1="350"
       y1="322.04062"
       x2="350"
       y2="339.89774" />
    <linearGradient
       inkscape:collect="always"
       xlink:href="#linearGradient4265"
       id="linearGradient4536"
       gradientUnits="userSpaceOnUse"
       x1="350"
       y1="322.36218"
       x2="350"
       y2="490.36218" />
    <radialGradient
       inkscape:collect="always"
       xlink:href="#linearGradient4028"
       id="radialGradient4541"
       gradientUnits="userSpaceOnUse"
       gradientTransform="matrix(-3.2824045,1.1206398,0.63140758,1.8494213,938.32211,-855.10034)"
       cx="281.8934"
       cy="636.91962"
       fx="281.8934"
       fy="636.91962"
       r="69.475601" />
    <radialGradient
       inkscape:collect="always"
       xlink:href="#linearGradient4092"
       id="radialGradient4546"
       gradientUnits="userSpaceOnUse"
       gradientTransform="matrix(-2.2017202,0.35961456,0.37692331,2.307692,853.13825,-759.42519)"
       cx="285"
       cy="502.36218"
       fx="285"
       fy="502.36218"
       r="65" />
    <radialGradient
       inkscape:collect="always"
       xlink:href="#linearGradient4028"
       id="radialGradient4550"
       gradientUnits="userSpaceOnUse"
       gradientTransform="matrix(3.2824045,1.1206398,-0.63140758,1.8494213,-238.32211,-855.10034)"
       cx="281.8934"
       cy="636.91962"
       fx="281.8934"
       fy="636.91962"
       r="69.475601" />
    <radialGradient
       inkscape:collect="always"
       xlink:href="#linearGradient4092"
       id="radialGradient4555"
       gradientUnits="userSpaceOnUse"
       gradientTransform="matrix(2.2017202,0.35961456,-0.37692331,2.307692,-153.13825,-759.42519)"
       cx="285"
       cy="502.36218"
       fx="285"
       fy="502.36218"
       r="65" />
    <radialGradient
       inkscape:collect="always"
       xlink:href="#linearGradient3842"
       id="radialGradient4564"
       gradientUnits="userSpaceOnUse"
       gradientTransform="matrix(1.5454545,-5.2590909e-7,1.0558658e-6,3.1028034,-141.81881,-1245.648)"
       cx="260"
       cy="592.375"
       fx="260"
       fy="592.375"
       r="110" />
    <radialGradient
       inkscape:collect="always"
       xlink:href="#linearGradient3860"
       id="radialGradient4569"
       gradientUnits="userSpaceOnUse"
       gradientTransform="matrix(1.7769735,0,0,3.3786996,-349.63806,-1397.1887)"
       cx="450"
       cy="587.375"
       fx="450"
       fy="587.375"
       r="100" />
    <linearGradient
       inkscape:collect="always"
       xlink:href="#linearGradient4491"
       id="linearGradient4580"
       gradientUnits="userSpaceOnUse"
       x1="330"
       y1="542.36218"
       x2="370"
       y2="542.36218" />
    <linearGradient
       inkscape:collect="always"
       xlink:href="#linearGradient4477"
       id="linearGradient4587"
       gradientUnits="userSpaceOnUse"
       x1="330"
       y1="612.36218"
       x2="370"
       y2="612.36218" />
    <linearGradient
       inkscape:collect="always"
       xlink:href="#linearGradient4491"
       id="linearGradient4590"
       gradientUnits="userSpaceOnUse"
       x1="330"
       y1="542.36218"
       x2="370"
       y2="542.36218"
       gradientTransform="translate(0,-32)" />
    <linearGradient
       inkscape:collect="always"
       xlink:href="#linearGradient3948"
       id="linearGradient4595"
       gradientUnits="userSpaceOnUse"
       x1="376.86707"
       y1="798.72614"
       x2="357.37021"
       y2="803.95032" />
    <linearGradient
       inkscape:collect="always"
       xlink:href="#linearGradient3978"
       id="linearGradient4597"
       gradientUnits="userSpaceOnUse"
       x1="170.20305"
       y1="366.00037"
       x2="212.75232"
       y2="504.53918" />
    <linearGradient
       inkscape:collect="always"
       xlink:href="#linearGradient3978"
       id="linearGradient4599"
       gradientUnits="userSpaceOnUse"
       x1="170.20305"
       y1="366.00037"
       x2="212.75232"
       y2="504.53918" />
    <linearGradient
       inkscape:collect="always"
       xlink:href="#linearGradient4313"
       id="linearGradient4601"
       gradientUnits="userSpaceOnUse"
       x1="262"
       y1="469.72391"
       x2="253.53572"
       y2="447.9382" />
    <linearGradient
       inkscape:collect="always"
       xlink:href="#linearGradient4313"
       id="linearGradient4603"
       gradientUnits="userSpaceOnUse"
       gradientTransform="matrix(-1,0,0,1,700,-0.29536172)"
       x1="262"
       y1="469.72391"
       x2="253.53572"
       y2="447.9382" />
    <radialGradient
       inkscape:collect="always"
       xlink:href="#linearGradient3860"
       id="radialGradient4650"
       gradientUnits="userSpaceOnUse"
       gradientTransform="matrix(1.7769735,0,0,3.3786996,-349.63806,-1397.1887)"
       cx="450"
       cy="587.375"
       fx="450"
       fy="587.375"
       r="100" />
    <radialGradient
       inkscape:collect="always"
       xlink:href="#linearGradient3842"
       id="radialGradient4652"
       gradientUnits="userSpaceOnUse"
       gradientTransform="matrix(1.5454545,-5.2590909e-7,1.0558658e-6,3.1028034,-141.81881,-1245.648)"
       cx="260"
       cy="592.375"
       fx="260"
       fy="592.375"
       r="110" />
    <linearGradient
       inkscape:collect="always"
       xlink:href="#linearGradient3948"
       id="linearGradient4654"
       gradientUnits="userSpaceOnUse"
       x1="376.86707"
       y1="798.72614"
       x2="357.37021"
       y2="803.95032" />
    <linearGradient
       inkscape:collect="always"
       xlink:href="#linearGradient3978"
       id="linearGradient4656"
       gradientUnits="userSpaceOnUse"
       x1="170.20305"
       y1="366.00037"
       x2="212.75232"
       y2="504.53918" />
    <linearGradient
       inkscape:collect="always"
       xlink:href="#linearGradient3978"
       id="linearGradient4658"
       gradientUnits="userSpaceOnUse"
       x1="170.20305"
       y1="366.00037"
       x2="212.75232"
       y2="504.53918" />
    <radialGradient
       inkscape:collect="always"
       xlink:href="#linearGradient4092"
       id="radialGradient4660"
       gradientUnits="userSpaceOnUse"
       gradientTransform="matrix(2.2017202,0.35961456,-0.37692331,2.307692,-153.13825,-759.42519)"
       cx="285"
       cy="502.36218"
       fx="285"
       fy="502.36218"
       r="65" />
    <radialGradient
       inkscape:collect="always"
       xlink:href="#linearGradient4028"
       id="radialGradient4662"
       gradientUnits="userSpaceOnUse"
       gradientTransform="matrix(3.2824045,1.1206398,-0.63140758,1.8494213,-238.32211,-855.10034)"
       cx="281.8934"
       cy="636.91962"
       fx="281.8934"
       fy="636.91962"
       r="69.475601" />
    <radialGradient
       inkscape:collect="always"
       xlink:href="#linearGradient4092"
       id="radialGradient4664"
       gradientUnits="userSpaceOnUse"
       gradientTransform="matrix(-2.2017202,0.35961456,0.37692331,2.307692,853.13825,-759.42519)"
       cx="285"
       cy="502.36218"
       fx="285"
       fy="502.36218"
       r="65" />
    <radialGradient
       inkscape:collect="always"
       xlink:href="#linearGradient4028"
       id="radialGradient4666"
       gradientUnits="userSpaceOnUse"
       gradientTransform="matrix(-3.2824045,1.1206398,0.63140758,1.8494213,938.32211,-855.10034)"
       cx="281.8934"
       cy="636.91962"
       fx="281.8934"
       fy="636.91962"
       r="69.475601" />
    <linearGradient
       inkscape:collect="always"
       xlink:href="#linearGradient4265"
       id="linearGradient4668"
       gradientUnits="userSpaceOnUse"
       x1="350"
       y1="322.36218"
       x2="350"
       y2="490.36218" />
    <linearGradient
       inkscape:collect="always"
       xlink:href="#linearGradient4303"
       id="linearGradient4670"
       gradientUnits="userSpaceOnUse"
       x1="350"
       y1="322.04062"
       x2="350"
       y2="339.89774" />
    <linearGradient
       inkscape:collect="always"
       xlink:href="#linearGradient4291"
       id="linearGradient4672"
       gradientUnits="userSpaceOnUse"
       x1="350"
       y1="328.88608"
       x2="350"
       y2="364.67941" />
    <linearGradient
       inkscape:collect="always"
       xlink:href="#linearGradient4277"
       id="linearGradient4674"
       gradientUnits="userSpaceOnUse"
       x1="350"
       y1="489.17178"
       x2="350"
       y2="401.31464" />
    <radialGradient
       inkscape:collect="always"
       xlink:href="#linearGradient4199"
       id="radialGradient4676"
       gradientUnits="userSpaceOnUse"
       gradientTransform="matrix(1.3389424,4.8497196e-8,0,1.5558111,-118.76801,-213.47218)"
       cx="350.40762"
       cy="395.82849"
       fx="350.40762"
       fy="395.82849"
       r="69.592392" />
    <linearGradient
       inkscape:collect="always"
       xlink:href="#linearGradient4313"
       id="linearGradient4678"
       gradientUnits="userSpaceOnUse"
       x1="262"
       y1="469.72391"
       x2="253.53572"
       y2="447.9382" />
    <linearGradient
       inkscape:collect="always"
       xlink:href="#linearGradient4313"
       id="linearGradient4680"
       gradientUnits="userSpaceOnUse"
       gradientTransform="matrix(-1,0,0,1,700,-0.29536172)"
       x1="262"
       y1="469.72391"
       x2="253.53572"
       y2="447.9382" />
    <linearGradient
       inkscape:collect="always"
       xlink:href="#linearGradient4477"
       id="linearGradient4682"
       gradientUnits="userSpaceOnUse"
       x1="330"
       y1="612.36218"
       x2="370"
       y2="612.36218" />
    <linearGradient
       inkscape:collect="always"
       xlink:href="#linearGradient4491"
       id="linearGradient4684"
       gradientUnits="userSpaceOnUse"
       gradientTransform="translate(0,-32)"
       x1="330"
       y1="542.36218"
       x2="370"
       y2="542.36218" />
  </defs>
  <sodipodi:namedview
     id="base"
     pagecolor="#555555"
     bordercolor="#666666"
     borderopacity="1.0"
     inkscape:pageopacity="0"
     inkscape:pageshadow="2"
     inkscape:zoom="0.7"
     inkscape:cx="519.62514"
     inkscape:cy="293.9335"
     inkscape:document-units="px"
     inkscape:current-layer="g4130"
     showgrid="false"
     inkscape:window-width="1024"
     inkscape:window-height="719"
     inkscape:window-x="0"
     inkscape:window-y="0"
     inkscape:window-maximized="1"
     showguides="true"
     inkscape:guide-bbox="true" />
  <metadata
     id="metadata7">
    <rdf:RDF>
      <cc:Work
         rdf:about="">
        <dc:format>image/svg+xml</dc:format>
        <dc:type
           rdf:resource="http://purl.org/dc/dcmitype/StillImage" />
        <dc:title></dc:title>
      </cc:Work>
    </rdf:RDF>
  </metadata>
  <g
     inkscape:label="Layer 1"
     inkscape:groupmode="layer"
     id="layer1"
     transform="translate(0,-502.36218)">
    <g
       id="g4130">
      <g
         id="g4605"
         transform="translate(-75,200.11083)">
        <path
           style="fill:#ffffff;stroke:none"
           d="m 350,352.36218 c 0,0 -80,90.93414 -80,150 0,59.06587 80,270 80,270 0,0 80,-216.93893 80,-270 0,-53.06107 -84.28571,-150 -80,-150 z"
           id="path4128"
           inkscape:connector-curvature="0" />
        <path
           inkscape:connector-curvature="0"
           id="path3902"
           d="m 365,822.36218 5,10 5,-10 z"
           style="fill:#000000;fill-opacity:1;stroke:none;filter:url(#filter3916)" />
        <path
           id="path3880"
           d="m 350,352.375 c 0,0 80,100 80,150 0,25 -48.09375,180 -48.09375,180 -15.13307,38.90245 -31.90625,90 -31.90625,90 l 0,50 150,0 c 20,0 50,-0.0893 50,-20 l 0,-380 c 0,-16.46447 -30,-20 -30,-20 l -170,-50 z"
           style="fill:#000000;fill-opacity:1;stroke:none;filter:url(#filter3882)"
           inkscape:connector-curvature="0" />
        <path
           style="fill:url(#radialGradient4650);fill-opacity:1;stroke:none"
           d="m 350,352.375 c 0,0 80,100 80,150 0,25 -48.09375,180 -48.09375,180 -15.13307,38.90245 -31.90625,90 -31.90625,90 l 0,50 150,0 c 20,0 50,-0.0893 50,-20 l 0,-380 c 0,-16.46447 -30,-20 -30,-20 l -170,-50 z"
           id="path3044"
           inkscape:connector-curvature="0" />
        <path
           style="fill:#790050;fill-opacity:1;stroke:none"
           d="m 365,822.36218 5,10 5,-10 z"
           id="path3896"
           inkscape:connector-curvature="0" />
        <path
           id="path3872"
           d="m 350,352.375 -170,50 c 0,0 -30,3.53553 -30,20 l 0,380 c 0,19.91072 30,30 50,30 l 170,0 c 0,0 0,-30 -20,-60 0,0 -16.77318,-51.09755 -31.90625,-90 0,0 -48.09375,-155 -48.09375,-180 0,-50 80,-150 80,-150 z"
           style="fill:#000000;fill-opacity:1;stroke:none;filter:url(#filter3876)"
           inkscape:connector-curvature="0" />
        <path
           style="fill:url(#radialGradient4652);fill-opacity:1;stroke:none"
           d="m 350,352.375 -170,50 c 0,0 -30,3.53553 -30,20 l 0,380 c 0,19.91072 30,30 50,30 l 170,0 c 0,0 0,-30 -20,-60 0,0 -16.77318,-51.09755 -31.90625,-90 0,0 -48.09375,-155 -48.09375,-180 0,-50 80,-150 80,-150 z"
           id="path3040"
           inkscape:connector-curvature="0" />
        <path
           style="opacity:0.7;fill:url(#linearGradient4654);stroke:none;filter:url(#filter3960)"
           d="m 338.38325,832.36218 c 0,0 14.2684,0 31.49048,0 0,0 -0.72979,-32.25891 -19.74745,-60 -1.78733,-2.60718 -33.15032,-6.50208 -33.02866,0 0.67374,36.00878 18.95908,60.83756 21.28563,60 z"
           id="path3930"
           inkscape:connector-curvature="0"
           sodipodi:nodetypes="csssc" />
        <path
           style="opacity:0.6;fill:url(#linearGradient4656);stroke:none;filter:url(#filter4002)"
           d="m 350,352.36218 -170,50 c 0,0 -30,2.91006 -30,20 0,19.86786 19.20055,70.88057 45.96959,81.99225 C 222.73864,515.4661 350,352.36218 350,352.36218 z"
           id="path3976"
           inkscape:connector-curvature="0"
           sodipodi:nodetypes="ccssc" />
        <path
           sodipodi:nodetypes="ccssc"
           inkscape:connector-curvature="0"
           id="path4006"
           d="m 350,352.36218 -170,50 c 0,0 -30,2.91006 -30,20 0,19.86786 19.20055,70.88057 45.96959,81.99225 C 222.73864,515.4661 350,352.36218 350,352.36218 z"
           style="opacity:0.6;fill:url(#linearGradient4658);stroke:none;filter:url(#filter4002)"
           transform="matrix(-1,0,0,1,700,0)" />
        <path
           inkscape:connector-curvature="0"
           id="path4084"
           d="m 350,352.36218 c 0,0 -130,96.91342 -130,148.45671 0,51.54329 89.5,151.54329 89.5,151.54329 0,0 -39.5,-120.22856 -39.5,-151.54329 0,-31.31473 49.17249,-113.06565 80,-148.45671 z"
           style="opacity:0.5;fill:#000000;fill-opacity:1;stroke:none;filter:url(#filter4086)" />
        <path
           style="opacity:0.5;fill:#000000;fill-opacity:1;stroke:none;filter:url(#filter4112)"
           d="m 350,352.36218 c 0,0 130,96.91342 130,148.45671 0,51.54329 -89.5,151.54329 -89.5,151.54329 0,0 39.5,-120.22856 39.5,-151.54329 0,-31.31473 -49.17249,-113.06565 -80,-148.45671 z"
           id="path4110"
           inkscape:connector-curvature="0" />
        <path
           style="fill:#e70099;fill-opacity:1;stroke:none"
           d="m 350,352.36218 c 0,0 -130,96.91342 -130,148.45671 0,51.54329 89.5,151.54329 89.5,151.54329 0,0 -39.5,-120.22856 -39.5,-151.54329 0,-31.31473 49.17249,-113.06565 80,-148.45671 z"
           id="path4082"
           inkscape:connector-curvature="0" />
        <path
           inkscape:connector-curvature="0"
           id="path4090"
           d="m 350,352.36218 c 0,0 -130,96.91342 -130,148.45671 0,51.54329 89.5,151.54329 89.5,151.54329 0,0 -39.5,-120.22856 -39.5,-151.54329 0,-31.31473 49.17249,-113.06565 80,-148.45671 z"
           style="opacity:0.4;fill:url(#radialGradient4660);fill-opacity:1;stroke:none" />
        <path
           sodipodi:nodetypes="cscc"
           inkscape:connector-curvature="0"
           id="path4046"
           d="m 270,500.81889 c 0,0 -18.89853,64.49263 -50,101.54329 -50.62453,60.30816 130,170 130,170 0,0 -80,-225.0973 -80,-271.54329 z"
           style="opacity:0.5;fill:#000000;fill-opacity:1;stroke:none;filter:url(#filter4056)" />
        <path
           sodipodi:nodetypes="cscc"
           inkscape:connector-curvature="0"
           id="path4044"
           d="m 270,500.81889 c 0,0 -18.89853,64.49263 -50,101.54329 -50.62453,60.30816 130,170 130,170 0,0 -80,-225.0973 -80,-271.54329 z"
           style="fill:#e70099;fill-opacity:1;stroke:none" />
        <path
           style="opacity:0.4;fill:url(#radialGradient4662);fill-opacity:1;stroke:none"
           d="m 270,500.81889 c 0,0 -18.89853,64.49263 -50,101.54329 -50.62453,60.30816 130,170 130,170 0,0 -80,-225.0973 -80,-271.54329 z"
           id="path4026"
           inkscape:connector-curvature="0"
           sodipodi:nodetypes="cscc" />
        <path
           inkscape:connector-curvature="0"
           id="path4108"
           d="m 350,352.36218 c 0,0 130,96.91342 130,148.45671 0,51.54329 -89.5,151.54329 -89.5,151.54329 0,0 39.5,-120.22856 39.5,-151.54329 0,-31.31473 -49.17249,-113.06565 -80,-148.45671 z"
           style="fill:#e70099;fill-opacity:1;stroke:none" />
        <path
           style="opacity:0.4;fill:url(#radialGradient4664);fill-opacity:1;stroke:none"
           d="m 350,352.36218 c 0,0 130,96.91342 130,148.45671 0,51.54329 -89.5,151.54329 -89.5,151.54329 0,0 39.5,-120.22856 39.5,-151.54329 0,-31.31473 -49.17249,-113.06565 -80,-148.45671 z"
           id="path4104"
           inkscape:connector-curvature="0" />
        <path
           style="opacity:0.5;fill:#000000;fill-opacity:1;stroke:none;filter:url(#filter4068)"
           d="m 430,500.81889 c 0,0 18.89853,64.49263 50,101.54329 50.62453,60.30816 -130,170 -130,170 0,0 80,-225.0973 80,-271.54329 z"
           id="path4066"
           inkscape:connector-curvature="0"
           sodipodi:nodetypes="cscc" />
        <path
           style="fill:#e70099;fill-opacity:1;stroke:none"
           d="m 430,500.81889 c 0,0 18.89853,64.49263 50,101.54329 50.62453,60.30816 -130,170 -130,170 0,0 80,-225.0973 80,-271.54329 z"
           id="path4064"
           inkscape:connector-curvature="0"
           sodipodi:nodetypes="cscc" />
        <path
           sodipodi:nodetypes="cscc"
           inkscape:connector-curvature="0"
           id="path4060"
           d="m 430,500.81889 c 0,0 18.89853,64.49263 50,101.54329 50.62453,60.30816 -130,170 -130,170 0,0 80,-225.0973 80,-271.54329 z"
           style="opacity:0.4;fill:url(#radialGradient4666);fill-opacity:1;stroke:none" />
        <path
           style="opacity:0.5;fill:#000000;stroke:none;filter:url(#filter4251)"
           d="m 350,322.375 c -39.20988,0.78816 -52.84073,2.84073 -80,30 -33.32028,32.8152 -60,130 -60,130 80.18606,-80.18606 127.01097,-3.82724 140,40.4061 12.98903,-44.23334 60.45533,-119.95077 140,-40.4061 0,0 -26.67972,-97.1848 -60,-130 -27.15927,-27.15927 -40.79012,-29.21184 -80,-30 z"
           id="path4249"
           inkscape:connector-curvature="0"
           sodipodi:nodetypes="ccccccc" />
        <g
           transform="translate(0,-31.819805)"
           id="g4516">
          <path
             inkscape:connector-curvature="0"
             id="path4506"
             d="m 349.65625,479.59375 c -11.13504,0.13919 -27.93734,7.21731 -29.4375,20.71875 -1.51523,13.63706 10.09375,31.8125 10.09375,31.8125 6.88675,3.44338 18.84053,2.57886 19.46875,2.53125 0,0 0.20143,-10e-4 0.21875,0 0.63726,0.0483 12.58478,0.91074 19.46875,-2.53125 0,0 11.60898,-18.17544 10.09375,-31.8125 -1.50016,-13.50144 -18.30246,-20.57956 -29.4375,-20.71875 -0.11185,-10e-4 -0.23307,0 -0.34375,0 -0.0428,0 -0.0829,-0.002 -0.125,0 z"
             style="fill:#4d4d4d;stroke:none;filter:url(#filter4512)" />
          <path
             inkscape:connector-curvature="0"
             style="fill:#4d4d4d;stroke:none"
             d="m 349.65625,479.59375 c -11.13504,0.13919 -27.93734,7.21731 -29.4375,20.71875 -1.51523,13.63706 10.09375,31.8125 10.09375,31.8125 6.88675,3.44338 18.84053,2.57886 19.46875,2.53125 0,0 0.20143,-10e-4 0.21875,0 0.63726,0.0483 12.58478,0.91074 19.46875,-2.53125 0,0 11.60898,-18.17544 10.09375,-31.8125 -1.50016,-13.50144 -18.30246,-20.57956 -29.4375,-20.71875 -0.11185,-10e-4 -0.23307,0 -0.34375,0 -0.0428,0 -0.0829,-0.002 -0.125,0 z"
             id="path4501" />
        </g>
        <path
           sodipodi:nodetypes="ccccccc"
           inkscape:connector-curvature="0"
           id="path4172"
           d="m 350,322.375 c -39.20988,0.78816 -52.84073,2.84073 -80,30 -33.32028,32.8152 -60,130 -60,130 80.18606,-80.18606 127.01097,-3.82724 140,40.4061 12.98903,-44.23334 60.45533,-119.95077 140,-40.4061 0,0 -26.67972,-97.1848 -60,-130 -27.15927,-27.15927 -40.79012,-29.21184 -80,-30 z"
           style="fill:#ffffff;stroke:none" />
        <path
           style="fill:url(#linearGradient4668);stroke:none"
           d="m 350,322.375 c -39.20988,0.78816 -52.84073,2.84073 -80,30 -33.32028,32.8152 -60,130 -60,130 80.18606,-80.18606 127.01097,-3.82724 140,40.4061 12.98903,-44.23334 60.45533,-119.95077 140,-40.4061 0,0 -26.67972,-97.1848 -60,-130 -27.15927,-27.15927 -40.79012,-29.21184 -80,-30 z"
           id="path4263"
           inkscape:connector-curvature="0"
           sodipodi:nodetypes="ccccccc" />
        <path
           style="opacity:0.7;fill:#ffffff;fill-opacity:1;stroke:none"
           d="m 350,322.39418 c 0,0 -72.21874,-9.52094 -73.10616,58.65768 C 276.07143,444.23599 350,489.99798 350,489.99798 349.0033,485.99051 424.64286,448.69787 424.64286,381.05186 424.64286,313.40586 350,322.39418 350,322.39418 z"
           id="path4255"
           inkscape:connector-curvature="0"
           sodipodi:nodetypes="csssc" />
        <path
           sodipodi:nodetypes="csssc"
           inkscape:connector-curvature="0"
           id="path4301"
           d="m 350,322.39418 c 0,0 -72.21874,-9.52094 -73.10616,58.65768 C 276.07143,444.23599 350,489.99798 350,489.99798 349.0033,485.99051 424.64286,448.69787 424.64286,381.05186 424.64286,313.40586 350,322.39418 350,322.39418 z"
           style="opacity:0.7;fill:url(#linearGradient4670);fill-opacity:1;stroke:none" />
        <path
           style="opacity:0.7;fill:url(#linearGradient4672);fill-opacity:1;stroke:none"
           d="m 350,328.42762 c 0,0 -68.35518,-4.20145 -69.17759,54.44624 C 280,441.52156 350,483.99798 350,483.99798 c -0.9967,-3.71975 70,-38.33489 70,-101.12412 0,-62.78923 -70,-54.44624 -70,-54.44624 z"
           id="path4287"
           inkscape:connector-curvature="0"
           sodipodi:nodetypes="csssc" />
        <path
           style="opacity:0.7;fill:url(#linearGradient4674);fill-opacity:1;stroke:none"
           d="m 350,334.42762 c 0,0 -68.35518,-4.20145 -69.17759,54.44624 C 280,447.52156 350,489.99798 350,489.99798 c -0.9967,-3.71975 70,-38.33489 70,-101.12412 0,-62.78923 -70,-54.44624 -70,-54.44624 z"
           id="path4275"
           inkscape:connector-curvature="0"
           sodipodi:nodetypes="csssc" />
        <path
           sodipodi:nodetypes="csssc"
           inkscape:connector-curvature="0"
           id="path4197"
           d="m 350,334.42762 c 0,0 -68.35518,-4.20145 -69.17759,54.44624 C 280,447.52156 350,489.99798 350,489.99798 c -0.9967,-3.71975 70,-38.33489 70,-101.12412 0,-62.78923 -70,-54.44624 -70,-54.44624 z"
           style="opacity:0.7;fill:url(#radialGradient4676);fill-opacity:1;stroke:none" />
        <path
           sodipodi:nodetypes="cscc"
           inkscape:connector-curvature="0"
           id="path4311"
           d="m 210,482.36218 c 0,0 14.82143,-19.82143 36.25,-31.25 21.42857,-11.42857 50.17857,-1.96428 54.46429,1.96429 C 264.25803,438.16682 240.80647,454.40723 210,482.36218 z"
           style="opacity:0.9;fill:url(#linearGradient4678);stroke:none;filter:url(#filter4321)" />
        <path
           style="opacity:0.9;fill:url(#linearGradient4680);stroke:none;filter:url(#filter4333)"
           d="m 490,482.06682 c 0,0 -14.82143,-19.82143 -36.25,-31.25 -21.42857,-11.42857 -50,-1.07142 -54.28572,2.85715 34.69933,-15.60228 59.55068,0.4379 90.53572,28.39285 z"
           id="path4325"
           inkscape:connector-curvature="0"
           sodipodi:nodetypes="cscc" />
        <g
           transform="matrix(1.2914723,0,0,1.6937004,-102.39412,-416.58143)"
           id="g4582">
          <path
             inkscape:connector-curvature="0"
             id="path4467"
             d="m 340,552.36218 -10,90 20,30 20,-30 -10,-90 z"
             style="fill:#333333;stroke:none;filter:url(#filter4469)" />
          <path
             style="fill:#333333;stroke:none"
             d="m 340,552.36218 -10,90 20,30 20,-30 -10,-90 z"
             id="path4465"
             inkscape:connector-curvature="0" />
          <path
             inkscape:connector-curvature="0"
             id="path4475"
             d="m 340,552.36218 -10,90 20,30 20,-30 -10,-90 z"
             style="opacity:0.15;fill:url(#linearGradient4682);stroke:none" />
        </g>
        <path
           style="fill:#4d4d4d;stroke:none;filter:url(#filter4417)"
           d="m 330,500.36218 c 0,0 2.54644,20 10,20 5.54474,0 13.82392,0 20,0 7.45356,0 10,-20 10,-20 0,0 -13.30008,2 -20,2 -6.69992,0 -20,-2 -20,-2 z"
           id="path4415"
           inkscape:connector-curvature="0"
           sodipodi:nodetypes="csscac" />
        <path
           sodipodi:nodetypes="csscac"
           inkscape:connector-curvature="0"
           id="path4411"
           d="m 330,500.36218 c 0,0 2.54644,20 10,20 5.54474,0 13.82392,0 20,0 7.45356,0 10,-20 10,-20 0,0 -13.30008,2 -20,2 -6.69992,0 -20,-2 -20,-2 z"
           style="fill:#4d4d4d;stroke:none" />
        <path
           style="opacity:0.15;fill:url(#linearGradient4684);stroke:none"
           d="m 330,500.36218 c 0,0 2.54644,20 10,20 5.54474,0 13.82392,0 20,0 7.45356,0 10,-20 10,-20 0,0 -13.30008,2 -20,2 -6.69992,0 -20,-2 -20,-2 z"
           id="path4489"
           inkscape:connector-curvature="0"
           sodipodi:nodetypes="csscac" />
        <path
           sodipodi:nodetypes="csccc"
           inkscape:connector-curvature="0"
           id="path4413"
           d="m 330,500.85645 c 0,0 14.92509,2.98985 20,2.98985 4.94235,0 20,-2.98985 20,-2.98985 l -20,1.49492 z"
           style="opacity:0.6;fill:#ffffff;stroke:none;filter:url(#filter4421)" />
      </g>
    </g>
  </g>
</svg>
