<?xml version="1.0" encoding="UTF-8" standalone="no"?>
<!-- Created with Inkscape (http://www.inkscape.org/) -->

<svg
   xmlns:dc="http://purl.org/dc/elements/1.1/"
   xmlns:cc="http://creativecommons.org/ns#"
   xmlns:rdf="http://www.w3.org/1999/02/22-rdf-syntax-ns#"
   xmlns:svg="http://www.w3.org/2000/svg"
   xmlns="http://www.w3.org/2000/svg"
   xmlns:sodipodi="http://sodipodi.sourceforge.net/DTD/sodipodi-0.dtd"
   xmlns:inkscape="http://www.inkscape.org/namespaces/inkscape"
   width="159.6875"
   height="159.6875"
   id="svg4589"
   sodipodi:version="0.32"
   inkscape:version="0.48.4 r9939"
   version="1.0"
   sodipodi:docname="openSUSE-TC-G+.svg"
   inkscape:output_extension="org.inkscape.output.svg.inkscape"
   inkscape:export-filename="/home/marguerite/文档/suse.org.cn/tc.png"
   inkscape:export-xdpi="13.53"
   inkscape:export-ydpi="13.53">
  <defs
     id="defs4591" />
  <sodipodi:namedview
     id="base"
     pagecolor="#ffffff"
     bordercolor="#d8d8d8"
     borderopacity="1"
     gridtolerance="10000"
     guidetolerance="10"
     objecttolerance="10"
     inkscape:pageopacity="0.0"
     inkscape:pageshadow="2"
     inkscape:zoom="1"
     inkscape:cx="47.696619"
     inkscape:cy="123.38435"
     inkscape:document-units="px"
     inkscape:current-layer="layer1"
     width="200px"
     height="200px"
     borderlayer="true"
     inkscape:showpageshadow="false"
     inkscape:window-width="1024"
     inkscape:window-height="718"
     inkscape:window-x="-2"
     inkscape:window-y="-3"
     showgrid="false"
     showguides="true"
     inkscape:guide-bbox="true"
     fit-margin-top="10"
     fit-margin-left="10"
     fit-margin-bottom="10"
     fit-margin-right="10"
     inkscape:window-maximized="1">
    <sodipodi:guide
       orientation="1,0"
       position="9.9,80.6"
       id="guide2989" />
    <sodipodi:guide
       orientation="0,1"
       position="20.7,80"
       id="guide2991" />
    <sodipodi:guide
       orientation="1,0"
       position="80,89.7"
       id="guide2993" />
    <sodipodi:guide
       orientation="0,1"
       position="74.3,149.8"
       id="guide2995" />
  </sodipodi:namedview>
  <metadata
     id="metadata4594">
    <rdf:RDF>
      <cc:Work
         rdf:about="">
        <dc:format>image/svg+xml</dc:format>
        <dc:type
           rdf:resource="http://purl.org/dc/dcmitype/StillImage" />
        <dc:title></dc:title>
      </cc:Work>
    </rdf:RDF>
  </metadata>
  <g
     inkscape:label="Layer 1"
     inkscape:groupmode="layer"
     id="layer1"
     transform="translate(-20.15625,-20.15625)">
    <g
       id="g3005">
      <path
         inkscape:connector-curvature="0"
         id="path2445"
         d="m 100,30.15625 c -38.57068,0 -69.84375,31.269508 -69.84375,69.84375 0,38.57424 31.273072,69.84375 69.84375,69.84375 38.57068,0 69.84374,-31.26951 69.84375,-69.84375 0,-38.57424 -31.27307,-69.84375 -69.84375,-69.84375 z m 0.33443,9.672652 c 33.23352,0 60.19682,26.941143 60.19682,60.171098 0,33.23353 -26.96686,60.1711 -60.19682,60.1711 -17.944821,0 -34.047203,-7.86473 -45.070445,-20.32286 4.532491,-3.51775 12.115629,-2.65954 21.454765,-1.59496 4.475525,0.50915 9.577453,1.09159 14.843405,1.20908 14.711895,0.0855 30.541335,-2.5996 40.311295,-6.86861 6.31629,-2.77006 10.36035,-4.59427 12.88829,-6.89434 0.91149,-0.7477 1.39015,-1.99679 1.87794,-3.29281 l 0.33442,-0.87466 c 0.40946,-1.04678 0.99706,-3.29926 1.26053,-4.52762 0.1175,-0.53764 0.17517,-1.1158 -0.2058,-1.41489 l -1.36343,0.25726 c -4.28682,2.57066 -14.99713,7.4667 -25.03056,7.66609 -12.43319,0.25991 -37.492093,-12.51643 -40.105489,-13.86585 l -0.257252,-0.3087 c -0.626644,-1.49541 -4.376768,-10.39808 -5.170752,-12.270896 18.037389,11.877766 32.991863,18.452076 44.453043,19.473926 12.74296,1.13224 22.683,-5.82499 26.93421,-8.79799 0.8296,-0.56612 1.46367,-1.01005 1.72359,-1.10618 l 0.28298,-0.46306 c -0.70498,-4.47909 -7.39073,-26.153517 -12.42525,-31.35894 -1.39571,-1.427752 -2.50536,-2.81725 -4.75915,-4.141747 C 114.08824,60.052429 70.821318,53.655843 68.795407,53.360325 l -0.334426,0.1029 -0.128626,0.282977 c 0,0 -0.162274,8.984421 -0.180076,9.981353 -1.484722,-0.491344 -6.088485,-1.998597 -12.682493,-3.80732 8.603733,-10.645844 21.789033,-20.091332 44.864644,-20.091333 z m 15.89813,31.847721 c 0.30705,-0.0046 0.61701,-0.01024 0.92611,0 10.20789,0.366729 18.22788,8.964457 17.87897,19.165228 -0.18159,4.934825 -2.26212,9.494349 -5.86533,12.862569 -3.6139,3.38602 -8.31087,5.1509 -13.27417,4.99068 -10.1901,-0.38097 -18.2101,-8.978697 -17.878976,-19.165231 0.174464,-4.941948 2.266486,-9.530764 5.891056,-12.888294 3.38468,-3.174391 7.71664,-4.895833 12.32234,-4.964952 z m -0.48878,5.453729 c -2.97293,0.180743 -5.77842,1.387872 -7.97479,3.447169 -2.50301,2.349915 -3.97993,5.531532 -4.0903,8.978073 -0.23499,7.120959 5.33713,13.113596 12.45097,13.377076 3.45722,0.10681 6.73667,-1.10438 9.26105,-3.447173 2.51726,-2.360599 3.98349,-5.571496 4.0903,-9.003798 0.23855,-7.131643 -5.35929,-13.102113 -12.47669,-13.351347 -0.43082,-0.01602 -0.83583,-0.02582 -1.26054,0 z m 3.39572,6.45701 c 3.16171,0 5.71099,1.718121 5.71098,3.833045 0,2.104248 -2.54927,3.833044 -5.71098,3.833046 -3.17239,0 -5.7367,-1.732365 -5.7367,-3.833046 0,-2.114922 2.56431,-3.833043 5.7367,-3.833045 z"
         style="font-size:20.48839951px;fill:#d81e05;fill-opacity:1;fill-rule:evenodd;stroke:none;font-family:TrebuchetMS-Bold" />
      <path
         transform="translate(20.15625,20.15625)"
         id="path2997"
         d="M 79.84375 10 C 41.32544 10 10.084764 41.185487 10 79.6875 L 57.125 79.6875 C 56.711646 78.707758 56.117603 77.331069 55.9375 76.90625 C 57.407853 77.874489 58.852091 78.789879 60.28125 79.6875 L 80 79.6875 L 80 78.59375 C 78.545631 75.839287 77.766999 72.697488 77.875 69.375 C 77.975081 66.540058 78.710566 63.843009 80 61.40625 L 80 39.3125 C 64.332464 35.531093 49.779122 33.387101 48.625 33.21875 L 48.3125 33.3125 L 48.1875 33.59375 C 48.1875 33.59375 48.017802 42.565568 48 43.5625 C 46.515278 43.071156 41.906508 41.558723 35.3125 39.75 C 43.892853 29.133085 57.040661 19.738635 80 19.6875 L 80 10 C 79.947657 9.9998848 79.89612 10 79.84375 10 z "
         style="font-size:20.48839951000000070px;fill:#ffffff;fill-opacity:1;fill-rule:evenodd;stroke:none;font-family:TrebuchetMS-Bold" />
      <path
         id="path3825"
         d="m 100,30.15625 c -38.51831,0 -69.758986,31.185487 -69.84375,69.6875 l 47.125,0 c -0.413354,-0.979742 -1.007397,-2.356431 -1.1875,-2.78125 1.470353,0.968239 2.914591,1.883629 4.34375,2.78125 l 19.71875,0 0,-1.09375 c -1.454369,-2.754463 -2.233001,-5.896262 -2.125,-9.21875 0.100081,-2.834942 0.835566,-5.531991 2.125,-7.96875 l 0,-22.09375 C 88.978811,56.771042 78.582602,54.970643 73,54.0625 L 72.34375,56.5 C 71.865548,56.109102 71.364758,55.725098 70.8125,55.40625 70.26024,55.087403 69.702627,54.843686 69.125,54.625 l 1.03125,-1.03125 c -0.420965,-0.06372 -1.250493,-0.200588 -1.375,-0.21875 l -0.3125,0.09375 -0.125,0.28125 c 0,0 -0.02389,1.204353 -0.03125,1.59375 4.237207,1.327943 7.3125,5.287102 7.3125,9.96875 0,5.774755 -4.662745,10.46875 -10.4375,10.46875 -5.774755,0 -10.46875,-4.693995 -10.46875,-10.46875 0,-1.908548 0.511244,-3.681312 1.40625,-5.21875 -0.232215,-0.06432 -0.418835,-0.122377 -0.65625,-0.1875 1.285266,-1.590326 2.679644,-3.148076 4.1875,-4.65625 -0.180441,0.09166 -0.356616,0.180425 -0.53125,0.28125 -0.552258,0.318848 -1.053048,0.671602 -1.53125,1.0625 l -1.875,-7 4.8125,4.8125 C 61.576976,53.406025 62.680857,52.437663 63.84375,51.5 L 65.03125,47.09375 65.8125,50 c 8.135335,-5.920675 19.057673,-10.122205 34.34375,-10.15625 l 0,-9.6875 c -0.0523,-1.15e-4 -0.10388,0 -0.15625,0 z m -19.09375,26.0625 -5.125,5.125 C 75.562564,60.766121 75.318847,60.17726 75,59.625 74.681153,59.07274 74.297147,58.571953 73.90625,58.09375 l 7,-1.875 z m -31.78125,0.0625 6.96875,1.875 c -0.390898,0.478201 -0.743652,0.97899 -1.0625,1.53125 -0.318846,0.552259 -0.593813,1.109873 -0.8125,1.6875 L 49.125,56.28125 z m 4.5,7.3125 c -0.09942,0.609584 -0.15625,1.237306 -0.15625,1.875 0,0.637694 0.05682,1.265416 0.15625,1.875 l -6.96875,-1.875 6.96875,-1.875 z m 22.75,0 7,1.875 -7,1.875 c 0.09942,-0.609584 0.1875,-1.237306 0.1875,-1.875 0,-0.637694 -0.08808,-1.265416 -0.1875,-1.875 z M 75.84375,69.5 l 5.125,5.125 -7,-1.875 c 0.390898,-0.478202 0.774902,-1.010241 1.09375,-1.5625 0.318846,-0.552259 0.562563,-1.109872 0.78125,-1.6875 z m -21.5625,0.15625 c 0.218687,0.577628 0.462404,1.166491 0.78125,1.71875 0.318848,0.552259 0.702852,1.053048 1.09375,1.53125 l -7,1.875 5.125,-5.125 z m 3.28125,4.625 c 0.478202,0.390896 0.978991,0.774903 1.53125,1.09375 0.55226,0.318847 1.141122,0.562564 1.71875,0.78125 l -5.125,5.125 1.875,-7 z m 14.84375,0.0625 1.875,7 -5.09375,-5.125 c 0.577628,-0.218686 1.13524,-0.462403 1.6875,-0.78125 0.55226,-0.318848 1.053048,-0.702852 1.53125,-1.09375 z M 63.125,76.875 c 0.609584,0.09942 1.237306,0.15625 1.875,0.15625 0.637694,0 1.265417,-0.05683 1.875,-0.15625 l -1.875,7 -1.875,-7 z"
         style="font-size:20.48839951px;fill:#0c1cbc;fill-opacity:1;fill-rule:evenodd;stroke:none;font-family:TrebuchetMS-Bold"
         inkscape:connector-curvature="0" />
    </g>
  </g>
</svg>
