<?xml version="1.0" encoding="UTF-8" standalone="no"?>
<!-- Created with Inkscape (http://www.inkscape.org/) -->

<svg
   xmlns:dc="http://purl.org/dc/elements/1.1/"
   xmlns:cc="http://creativecommons.org/ns#"
   xmlns:rdf="http://www.w3.org/1999/02/22-rdf-syntax-ns#"
   xmlns:svg="http://www.w3.org/2000/svg"
   xmlns="http://www.w3.org/2000/svg"
   xmlns:sodipodi="http://sodipodi.sourceforge.net/DTD/sodipodi-0.dtd"
   xmlns:inkscape="http://www.inkscape.org/namespaces/inkscape"
   width="497.14285"
   height="340"
   id="svg2"
   version="1.1"
   inkscape:version="0.48.4 r9939"
   sodipodi:docname="Get_it.svg"
   inkscape:export-filename="/home/marguerite/Get_it.png"
   inkscape:export-xdpi="36.259998"
   inkscape:export-ydpi="36.259998">
  <defs
     id="defs4" />
  <sodipodi:namedview
     id="base"
     pagecolor="#ffffff"
     bordercolor="#666666"
     borderopacity="1.0"
     inkscape:pageopacity="0.0"
     inkscape:pageshadow="2"
     inkscape:zoom="0.70710678"
     inkscape:cx="249.60319"
     inkscape:cy="221.71679"
     inkscape:document-units="px"
     inkscape:current-layer="layer1"
     showgrid="false"
     showguides="true"
     inkscape:guide-bbox="true"
     inkscape:window-width="1024"
     inkscape:window-height="718"
     inkscape:window-x="-2"
     inkscape:window-y="-3"
     inkscape:window-maximized="1"
     fit-margin-top="0"
     fit-margin-left="0"
     fit-margin-right="0"
     fit-margin-bottom="0" />
  <metadata
     id="metadata7">
    <rdf:RDF>
      <cc:Work
         rdf:about="">
        <dc:format>image/svg+xml</dc:format>
        <dc:type
           rdf:resource="http://purl.org/dc/dcmitype/StillImage" />
        <dc:title></dc:title>
      </cc:Work>
    </rdf:RDF>
  </metadata>
  <g
     inkscape:label="Layer 1"
     inkscape:groupmode="layer"
     id="layer1"
     transform="translate(-126.29497,-604.19049)">
    <flowRoot
       xml:space="preserve"
       id="flowRoot3832"
       style="font-size:12px;font-style:normal;font-variant:normal;font-weight:normal;font-stretch:normal;line-height:125%;letter-spacing:0px;word-spacing:0px;fill:#000000;fill-opacity:1;stroke:none;font-family:'文泉驿微米黑';-inkscape-font-specification:'文泉驿微米黑'"><flowRegion
         id="flowRegion3834"><rect
           id="rect3836"
           width="86.375"
           height="50.75"
           x="433.875"
           y="873.73718" /></flowRegion><flowPara
         id="flowPara3838"
         style="font-size:48px">VDdvd</flowPara></flowRoot>    <rect
       style="fill:#669900;fill-opacity:1;stroke:none"
       id="rect2985"
       width="497.14285"
       height="340"
       x="126.29497"
       y="604.19049"
       ry="2"
       rx="2" />
    <path
       style="fill:#000000;fill-opacity:0.94117647;stroke:none"
       d="m 213.78829,658.18753 c -26.49191,0.003 -47.94642,21.44559 -47.96875,47.9375 -0.0217,25.65109 20.0576,46.64712 45.375,48 l 0,-25.4375 8.3125,0 0,0.0625 c 1.83824,-0.17046 6.49502,-0.17445 9.71875,3.40625 l -1.09375,-3.46875 8.625,0 3.21875,10.4375 2.84375,-10.4375 9.9375,0 -2.9375,9.25 c 1.02864,-1.17131 1.99001,-2.38977 2.90625,-3.65625 l 0,19.90625 5.71875,0 c 1.74999,0 3.31249,-0.26042 4.6875,-0.75 1.3854,-0.48958 2.55207,-1.21875 3.5,-2.1875 0.9479,-0.97916 1.68748,-2.17708 2.1875,-3.625 0.49998,-1.45833 0.74998,-3.16666 0.75,-5.09375 -2e-5,-1.83332 -0.25002,-3.4479 -0.75,-4.84375 -0.4896,-1.39582 -1.21877,-2.56248 -2.125,-3.5 -0.90627,-0.9479 -1.9896,-1.64581 -3.28125,-2.125 -1.29168,-0.47914 -2.75001,-0.71873 -4.34375,-0.71875 l -4.375,0 c 4.51156,-7.3087 7.11723,-15.90758 7.125,-25.125 0.0224,-26.50967 -21.45909,-48.0089 -47.96875,-48.03125 l -0.0625,0 z m 117.65625,0 c -1.108,0 -2,0.892 -2,2 l 0,76.875 c 0,1.108 0.892,2 2,2 l 4,0 0,13.125 c 0,1.108 0.892,2 2,2 l 34,0 c 1.108,0 2,-0.892 2,-2 l 0,-13.125 4,0 c 1.108,0 2,-0.892 2,-2 l 0,-76.875 c 0,-1.108 -0.892,-2 -2,-2 l -46,0 z m 107.125,0 c -0.74907,0 -1.34375,0.59467 -1.34375,1.34375 l 0,50.03125 c 0,0.74908 0.59468,1.34375 1.34375,1.34375 l 25.21875,0 0,10.46875 -7.84375,0 c -0.74907,0 -1.34375,0.59469 -1.34375,1.34375 l 0,8.53125 c 0,0.74908 0.59468,1.375 1.34375,1.375 l 28.125,0 c 0.74907,0 1.375,-0.62592 1.375,-1.375 l 0,-8.53125 c 0,-0.74906 -0.62593,-1.34375 -1.375,-1.34375 l -7.84375,0 0,-10.46875 25.21875,0 c 0.74906,0 1.34375,-0.59467 1.34375,-1.34375 l 0,-50.03125 c 0,-0.74908 -0.59469,-1.34375 -1.34375,-1.34375 l -62.875,0 z m 81.125,0 c -0.74907,0 -1.34375,0.59467 -1.34375,1.34375 l 0,50.03125 c 0,0.74908 0.59468,1.34375 1.34375,1.34375 l 25.21875,0 0,10.46875 -7.84375,0 c -0.74907,0 -1.34375,0.59469 -1.34375,1.34375 l 0,8.53125 c 0,0.74908 0.59468,1.375 1.34375,1.375 l 28.125,0 c 0.74908,0 1.375,-0.62592 1.375,-1.375 l 0,-8.53125 c 0,-0.74906 -0.62592,-1.34375 -1.375,-1.34375 l -7.84375,0 0,-10.46875 25.21875,0 c 0.74907,0 1.34375,-0.59467 1.34375,-1.34375 l 0,-50.03125 c 0,-0.74908 -0.59468,-1.34375 -1.34375,-1.34375 l -62.875,0 z m -71.21875,8.4375 c 0.06,-0.0122 0.12387,0 0.1875,0 l 42.71875,0 c 0.50899,0 0.90625,0.39727 0.90625,0.90625 l 0,34 c 0,0.50898 -0.39726,0.9375 -0.90625,0.9375 l -42.71875,0 c -0.50899,0 -0.9375,-0.42852 -0.9375,-0.9375 l 0,-34 c 0,-0.44537 0.33059,-0.82088 0.75,-0.90625 z m -94.1875,9.78125 c 3.6963,0.003 6.6905,3.02245 6.6875,6.71875 -0.003,3.04849 -2.02383,5.60055 -4.8125,6.40625 l 0,1.8125 c 0.22268,0.24686 7.8282,8.71776 7.8125,12.75 -0.006,1.53183 -0.002,4.11005 0,5.53125 1.00495,0.59579 1.65707,1.68456 1.65625,2.9375 -0.002,1.88747 -1.51877,3.40825 -3.40625,3.40625 -1.88747,-0.002 -3.4395,-1.51878 -3.4375,-3.40625 10e-4,-1.3008 0.77347,-2.39221 1.84375,-2.96875 -0.003,-1.31594 -0.01,-3.54623 0,-5.5 0.0117,-2.29866 -4.01184,-6.66475 -4.46875,-7.15625 l 0,22.65625 c 0,0.0791 -0.0206,0.14275 -0.0312,0.21875 l 2.71875,0 -4.5625,5.8125 -4.53125,-5.8125 2.71875,0 c -0.0107,-0.0761 -0.0312,-0.13965 -0.0312,-0.21875 l 0,-18.5625 c -0.78535,0.85722 -4.3236,4.82472 -4.3125,7 0.009,1.7428 0.003,3.40665 0,4.90625 l 1.375,0 0,6.25 -6.25,0 0,-6.25 1.53125,0 c 0.002,-1.62845 0.005,-3.55254 0,-4.90625 -0.0152,-3.90307 6.99321,-11.82167 7.65625,-12.5625 l 0,-5.90625 c -2.80275,-0.80056 -4.8145,-3.40929 -4.8125,-6.46875 0.003,-3.69383 2.96243,-6.68711 6.65625,-6.6875 z m -140.5,10.375 0.0312,0 c 10.723,0.009 19.41529,8.71449 19.40625,19.4375 -0.009,10.72301 -8.71449,19.38404 -19.4375,19.375 -10.723,-0.009 -19.38404,-8.71449 -19.375,-19.4375 0.009,-10.71583 8.65917,-19.37388 19.375,-19.375 z m 0,5.65625 c -7.59038,5.4e-4 -13.71236,6.12838 -13.71875,13.71875 -0.006,7.59547 6.12329,13.77485 13.71875,13.78125 7.59547,0.006 13.77485,-6.15454 13.78125,-13.75 0.006,-7.59547 -6.15454,-13.7436 -13.75,-13.75 l -0.0312,0 z m 0,4.84375 0.0312,0 c 4.91471,0.004 8.91039,3.99153 8.90625,8.90625 -0.004,4.91471 -4.02278,8.91039 -8.9375,8.90625 -4.91471,-0.004 -8.87914,-4.02278 -8.875,-8.9375 0.004,-4.91142 3.96358,-8.87449 8.875,-8.875 z m -1,34.0625 0,22.84375 5.71875,0 c 1.74999,0 3.31249,-0.26042 4.6875,-0.75 1.3854,-0.48958 2.55207,-1.21875 3.5,-2.1875 0.9479,-0.97916 1.68748,-2.17708 2.1875,-3.625 0.49998,-1.45833 0.74998,-3.16666 0.75,-5.09375 -2e-5,-1.83332 -0.25002,-3.4479 -0.75,-4.84375 -0.4896,-1.39582 -1.18752,-2.56248 -2.09375,-3.5 -0.90627,-0.9479 -2.02085,-1.64581 -3.3125,-2.125 -1.29168,-0.47914 -2.71876,-0.71873 -4.3125,-0.71875 l -6.375,0 z m 18.21875,0 7.625,22.84375 2.90625,0 7.65625,-22.84375 -3.125,0 -4.5625,14.375 c -0.32293,1.01042 -0.60418,1.95834 -0.84375,2.84375 -0.23959,0.875 -0.43751,1.69792 -0.59375,2.46875 -0.17709,-0.77083 -0.37501,-1.59375 -0.59375,-2.46875 -0.21876,-0.88541 -0.47917,-1.80208 -0.78125,-2.75 l -4.625,-14.46875 -3.0625,0 z m -15.3125,2.46875 3.15625,0 c 1.21874,2e-5 2.29166,0.1771 3.25,0.53125 0.95832,0.34377 1.78124,0.87502 2.4375,1.59375 0.65623,0.71877 1.15623,1.63543 1.5,2.75 0.34373,1.10418 0.49998,2.41668 0.5,3.9375 -2e-5,2.98959 -0.69793,5.26042 -2.09375,6.78125 -1.39585,1.52084 -3.46876,2.28125 -6.21875,2.28125 l -2.53125,0 0,-17.875 z m 39.9375,0 3.125,0 c 1.21874,2e-5 2.32291,0.1771 3.28125,0.53125 0.95832,0.34377 1.74999,0.87502 2.40625,1.59375 0.65623,0.71877 1.15623,1.63543 1.5,2.75 0.34373,1.10418 0.53123,2.41668 0.53125,3.9375 -2e-5,2.98959 -0.69793,5.26042 -2.09375,6.78125 -1.39585,1.52084 -3.46876,2.28125 -6.21875,2.28125 l -2.53125,0 0,-17.875 z m 209.5625,2.8125 c -0.59874,0.12567 -1.0625,0.68832 -1.0625,1.34375 l 0,6.0625 -25.59375,0 c -0.72728,0 -1.3125,0.62594 -1.3125,1.375 l 0,7.4375 c 0,0.74908 0.58522,1.34375 1.3125,1.34375 l 144.0625,0 c 0.72727,0 1.3125,-0.59467 1.3125,-1.34375 l 0,-7.4375 c 0,-0.74906 -0.58523,-1.375 -1.3125,-1.375 l -27.5625,0 0,-6.0625 c 0,-0.74906 -0.58521,-1.34375 -1.3125,-1.34375 l -9.53125,0 c -0.72729,0 -1.28125,0.59469 -1.28125,1.34375 l 0,6.0625 -66.625,0 0,-6.0625 c 0,-0.74906 -0.61646,-1.34375 -1.34375,-1.34375 l -9.5,0 c -0.0909,0 -0.16447,-0.018 -0.25,0 z m -246.1875,0.0937 c -0.71981,0.0412 -1.21875,0.1875 -1.21875,0.1875 l 0,11.78125 c 0,0 6.34375,1.47195 6.34375,-5.6875 0,-5.02708 -2.47931,-6.144 -4.34375,-6.28125 -0.27967,-0.0206 -0.54131,-0.0137 -0.78125,0 z m 13.5625,5.84375 c 0.005,0.21638 0,0.43316 0,0.65625 0,3.0751 -0.93605,5.75232 -2.4375,8.09375 1.56901,-0.56684 3.10641,-1.22037 4.59375,-1.9375 l -2.15625,-6.8125 z"
       id="path3757"
       inkscape:connector-curvature="0" />
    <flowRoot
       xml:space="preserve"
       id="flowRoot3967"
       style="font-size:12px;font-style:normal;font-variant:normal;font-weight:normal;font-stretch:normal;line-height:125%;letter-spacing:0px;word-spacing:0px;fill:#000000;fill-opacity:1;stroke:none;font-family:'文泉驿微米黑';-inkscape-font-specification:'文泉驿微米黑'"
       transform="translate(-21.461728,2.3e-5)"><flowRegion
         id="flowRegion3969"><rect
           id="rect3971"
           width="378.04163"
           height="133.41422"
           x="210"
           y="781.36218" /></flowRegion><flowPara
         id="flowPara3973"
         style="font-size:96px">Grab Me</flowPara></flowRoot>  </g>
</svg>
