<?xml version="1.0" encoding="UTF-8" standalone="no"?>
<!-- Created with Inkscape (http://www.inkscape.org/) -->

<svg
   xmlns:dc="http://purl.org/dc/elements/1.1/"
   xmlns:cc="http://creativecommons.org/ns#"
   xmlns:rdf="http://www.w3.org/1999/02/22-rdf-syntax-ns#"
   xmlns:svg="http://www.w3.org/2000/svg"
   xmlns="http://www.w3.org/2000/svg"
   xmlns:sodipodi="http://sodipodi.sourceforge.net/DTD/sodipodi-0.dtd"
   xmlns:inkscape="http://www.inkscape.org/namespaces/inkscape"
   width="358.94403"
   height="247.1162"
   id="svg2"
   version="1.1"
   inkscape:version="0.48.4 r9939"
   sodipodi:docname="chameleon.svg"
   inkscape:export-filename="/home/marguerite/Public/openSUSE-zh-artwork/bento-wordpress/chameleon.png"
   inkscape:export-xdpi="10.78"
   inkscape:export-ydpi="10.78">
  <defs
     id="defs4" />
  <sodipodi:namedview
     id="base"
     pagecolor="#ffffff"
     bordercolor="#666666"
     borderopacity="1.0"
     inkscape:pageopacity="0.0"
     inkscape:pageshadow="2"
     inkscape:zoom="4"
     inkscape:cx="202.49421"
     inkscape:cy="185.73705"
     inkscape:document-units="px"
     inkscape:current-layer="layer1"
     showgrid="false"
     fit-margin-top="0"
     fit-margin-left="0"
     fit-margin-right="0"
     fit-margin-bottom="0"
     inkscape:window-width="1024"
     inkscape:window-height="721"
     inkscape:window-x="-2"
     inkscape:window-y="-3"
     inkscape:window-maximized="1" />
  <metadata
     id="metadata7">
    <rdf:RDF>
      <cc:Work
         rdf:about="">
        <dc:format>image/svg+xml</dc:format>
        <dc:type
           rdf:resource="http://purl.org/dc/dcmitype/StillImage" />
        <dc:title></dc:title>
      </cc:Work>
    </rdf:RDF>
  </metadata>
  <g
     inkscape:label="Layer 1"
     inkscape:groupmode="layer"
     id="layer1"
     transform="translate(-169.95771,-488.71406)">
    <path
       style="fill:#8bbd23;fill-opacity:1;stroke:none"
       d="M 264.875 0 L 270.71875 15.625 C 270.71875 15.625 262.15322 12.26566 257.71875 11.0625 C 247.90956 8.40105 237.89769 6.19912 227.78125 5.21875 C 215.91058 4.06839 203.84424 3.82228 192 5.21875 C 181.81461 6.41964 171.60986 8.55033 162.09375 12.375 C 152.53519 16.21671 143.82935 22.03781 135.40625 27.96875 C 126.848 33.99484 118.86051 40.8411 111.34375 48.125 C 99.65309 59.4535 89.0891 71.93722 78.8125 84.5625 C 69.61349 95.86391 60.76855 107.4791 52.8125 119.6875 C 34.14827 148.32735 13.50651 176.9255 2.0625 208.8125 C -1.97611 222.9545 0.34671 232.72367 5.3125 238.09375 C 6.12269 239.58098 7.23488 240.94849 8.5625 242 C 17.93568 249.05551 25.99512 248.14345 33.9375 243.28125 C 38.88826 239.28963 38.19176 236.41662 39.15625 232.25 C 39.96449 222.49323 36.99977 219.39025 31.34375 217.28125 C 25.85287 216.64412 16.9439 221.72663 15.71875 228.34375 C 19.81615 232.40919 20.75622 227.49814 25.46875 225.09375 C 30.48321 224.09504 31.82072 226.41245 32 231.59375 C 31.32421 238.33589 25.91949 240.40335 19.3125 239.40625 C 8.84571 235.85613 5.05055 222.88067 9.21875 208.8125 C 19.40566 188.47954 31.40268 170.26139 44.34375 152.21875 C 49.91032 144.45778 55.85879 136.89665 62.5625 130.09375 C 73.49509 119.07451 96.81534 95.20164 113.3125 94.96875 C 120.72088 98.10925 116.35387 111.58893 119.15625 118.40625 C 120.41468 121.46762 124.3156 123.65385 127.625 123.59375 C 129.97012 123.55113 133.50335 122.03274 133.46875 119.6875 C 133.43866 117.64204 129.358 118.15712 128.25 116.4375 C 126.47269 113.67909 126.61468 109.94976 126.96875 106.6875 C 128.14838 96.86736 139.46245 85.57329 150.375 87.8125 C 155.33262 94.78283 137.0436 101.11381 137.375 109.9375 C 137.67359 117.88733 141.919 127.41872 144.53125 132.71875 C 145.99456 135.6877 149.87467 139.27735 152.96875 137.90625 C 157.40528 135.94024 152.77276 132.24582 156.875 131.40625 C 160.36727 130.69154 160.94591 134.83845 162.75 135.3125 C 166.22151 136.22472 168.40469 134.66645 169.90625 131.40625 C 171.6009 127.72681 168.8881 123.06817 166.65625 119.6875 C 163.59636 115.05259 156.40194 114.09102 153.625 109.28125 C 151.10144 104.91027 179.61951 95.67271 185.5 83.28125 C 186.0308 79.87045 185.3026 77.47039 182.90625 75.46875 C 194.9082 71.96563 201.99705 71.8523 208.9375 74.8125 C 213.14504 76.60706 201.50813 84.90432 204.375 88.46875 C 217.54784 104.84691 242.74554 106.95202 260.3125 122.3125 C 263.55268 125.14572 264.69736 130.70314 268.78125 132.0625 C 273.62386 133.6744 282.06959 133.63177 283.75 128.8125 C 284.76469 125.90244 276.90514 124.66425 277.875 121 C 279.68447 116.87619 283.5676 124.24805 288.9375 126.1875 C 292.0526 126.7018 297.37997 126.67635 298.0625 123.59375 C 299.92342 115.18894 286.78381 109.13681 278.53125 106.6875 C 272.44567 104.88133 265.70512 110.90083 259.65625 109.28125 C 252.013 107.23481 238.80893 99.03278 232.34375 88.46875 C 231.16201 86.53778 232.78795 83.64237 234.3125 81.96875 C 240.9289 74.70543 251.85065 69.90876 261.625 70.90625 C 264.73617 71.22376 267.81163 73.45353 269.4375 76.125 C 271.47921 79.4797 270.71875 87.8125 270.71875 87.8125 L 283.09375 89.125 L 281.125 69.59375 C 281.125 69.59375 329.67063 79.28889 350.75 69.59375 C 354.38256 67.92302 357.17529 64.25002 358.5625 60.5 C 359.31482 58.46628 358.80423 56.1549 358.5625 54 C 358.01699 49.13834 357.23923 44.17076 355.28125 39.6875 C 353.28331 35.1127 350.30876 30.90618 346.84375 27.3125 C 342.53907 22.84795 337.27875 19.29334 331.875 16.25 C 323.91042 11.76442 315.32293 8.23352 306.5 5.84375 C 292.97301 2.17984 264.875 0 264.875 0 z M 310.40625 25.8125 C 311.28995 25.809383 312.15667 25.88539 313 26.03125 C 318.46009 26.97561 324.07447 29.97214 327.3125 34.46875 C 329.12676 36.98821 329.83316 40.5385 329.28125 43.59375 C 328.4579 48.15172 325.75507 52.90181 321.78125 55.28125 C 318.14276 57.45991 313.17111 57.44764 309.09375 56.28125 C 304.69465 55.02283 300.64563 51.90169 298.0625 48.125 C 296.41441 45.71538 295.36585 42.57711 295.78125 39.6875 C 296.43214 35.15977 299.17963 30.57688 302.9375 27.96875 C 305.04682 26.504795 307.75516 25.82185 310.40625 25.8125 z M 309.84375 29.9375 C 309.52059 29.933253 309.19755 29.951479 308.875 29.96875 C 306.72463 30.083888 304.61514 30.677925 302.9375 31.875 C 300.52858 33.5939 298.92351 36.73763 298.6875 39.6875 C 299.23714 45.75232 303.72125 49.9071 309.75 52.375 C 312.12738 53.12766 314.96651 53.37705 317.25 52.375 C 320.62269 50.89501 323.75465 47.8047 324.71875 44.25 C 325.38673 41.78706 324.56219 38.83709 323.09375 36.75 C 320.73947 33.40388 316.69994 31.04971 312.6875 30.25 C 311.77797 30.068732 310.81322 29.95024 309.84375 29.9375 z M 307.84375 38.875 C 308.44017 38.867692 309.02026 39.009239 309.4375 39.34375 C 310.70919 40.36328 310.90525 43.10021 309.75 44.25 C 308.6714 45.32349 306.25576 45.01998 305.21875 43.90625 C 304.33213 42.95407 304.37158 40.98745 305.21875 40 C 305.79909 39.323556 306.84971 38.88718 307.84375 38.875 z "
       transform="translate(169.95771,488.71406)"
       id="path3050" />
    <path
       style="fill:#506d14;stroke:none;stroke-width:1px;stroke-linecap:butt;stroke-linejoin:miter;stroke-opacity:1;fill-opacity:1"
       d="m 352.75128,564.19077 c 0,0 -5.59379,-8.2447 -13.58714,-11.59603"
       id="path3853"
       inkscape:connector-curvature="0" />
    <path
       style="fill:#506d14;stroke:none;stroke-width:1px;stroke-linecap:butt;stroke-linejoin:miter;stroke-opacity:1;fill-opacity:1"
       d="m 380.17903,564.64009 c 0,0 0.30202,-4.74039 10.30736,-12.36966"
       id="path3855"
       inkscape:connector-curvature="0" />
  </g>
</svg>
