<?xml version="1.0" encoding="UTF-8" standalone="no"?>
<!-- Created with Inkscape (http://www.inkscape.org/) -->

<svg
   xmlns:dc="http://purl.org/dc/elements/1.1/"
   xmlns:cc="http://creativecommons.org/ns#"
   xmlns:rdf="http://www.w3.org/1999/02/22-rdf-syntax-ns#"
   xmlns:svg="http://www.w3.org/2000/svg"
   xmlns="http://www.w3.org/2000/svg"
   xmlns:sodipodi="http://sodipodi.sourceforge.net/DTD/sodipodi-0.dtd"
   xmlns:inkscape="http://www.inkscape.org/namespaces/inkscape"
   width="400"
   height="300"
   id="svg2"
   version="1.1"
   inkscape:version="0.48.4 r9939"
   sodipodi:docname="新建文档 1">
  <defs
     id="defs4" />
  <sodipodi:namedview
     id="base"
     pagecolor="#ffffff"
     bordercolor="#666666"
     borderopacity="1.0"
     inkscape:pageopacity="0.0"
     inkscape:pageshadow="2"
     inkscape:zoom="1.979899"
     inkscape:cx="196.01222"
     inkscape:cy="136.53288"
     inkscape:document-units="px"
     inkscape:current-layer="layer1"
     showgrid="false"
     showguides="true"
     inkscape:guide-bbox="true"
     inkscape:window-width="1024"
     inkscape:window-height="718"
     inkscape:window-x="-2"
     inkscape:window-y="-3"
     inkscape:window-maximized="1" />
  <metadata
     id="metadata7">
    <rdf:RDF>
      <cc:Work
         rdf:about="">
        <dc:format>image/svg+xml</dc:format>
        <dc:type
           rdf:resource="http://purl.org/dc/dcmitype/StillImage" />
        <dc:title></dc:title>
      </cc:Work>
    </rdf:RDF>
  </metadata>
  <g
     inkscape:label="Layer 1"
     inkscape:groupmode="layer"
     id="layer1"
     transform="translate(0,-752.36218)">
    <rect
       style="fill:#484537;fill-opacity:1;stroke:none"
       id="rect3012"
       width="400"
       height="300"
       x="0"
       y="752.36218" />
    <path
       style="fill:#ccff00;fill-opacity:1;stroke:none"
       d="m -200.43397,875.34631 c -1.01448,-0.11342 -0.0781,3.0624 -0.0781,3.0624 -1.96129,1.22022 -2.92101,2.80971 -2.92373,4.55259 -0.003,1.74869 1.0329,3.1983 3.00186,4.42181 0,0 3.12873,28.5559 -1.87494,41.44978 -3.30766,8.52346 -17.5678,8.74113 -17.5678,21.06378 0,11.86607 5.7521,13.71251 14.24564,16.99364 -0.0935,2.9569 -0.35059,3.9178 -3.30849,4.3475 0,0 -1.7287,3.0297 0,3.033 l 32.70208,0.062 c 1.42299,0 0,-3.0946 0,-3.0946 -2.78187,-0.4531 -3.21776,-1.3906 -3.30848,-4.3339 8.48198,-3.27497 14.23164,-5.2207 14.24564,-16.96623 0.015,-12.6327 -14.27145,-12.56569 -17.5678,-21.10479 -4.98029,-12.90125 -1.76772,-41.44978 -1.76772,-41.44978 1.96342,-1.22046 2.89191,-2.66409 2.89463,-4.40814 0.003,-1.74821 -0.87764,-3.34287 -2.84561,-4.56626 0,0 0.77945,-3.18164 -0.23437,-3.0624 -4.25079,0.49993 -11.14102,0.49993 -15.61278,0 z"
       id="path2987"
       inkscape:connector-curvature="0"
       sodipodi:nodetypes="scscasccssccsacscss" />
    <g
       id="g3060"
       transform="matrix(2.7362242,0,0,2.7362242,-344.0052,-1539.6258)">
      <path
         style="fill:#66ff00;stroke:none"
         d="m 181.2616,918.32191 6.31655,-13.80014 21.67726,-11.31609 -6.23444,13.75726 z"
         id="path3028"
         inkscape:connector-curvature="0" />
      <path
         style="fill:#55d400;stroke:none"
         d="m 192.95716,879.95956 -4.78844,4.57851 10.07043,0.0579 4.94455,-4.5776 -10.22654,-0.0588 z"
         id="path3052"
         inkscape:connector-curvature="0" />
      <path
         inkscape:connector-curvature="0"
         id="path3026"
         d="m 201.44105,864.25388 -6.30432,14.66684 7.31664,28.865 6.33203,-14.5575 z"
         style="fill:#44aa00;stroke:none" />
      <path
         inkscape:connector-curvature="0"
         id="path3030"
         d="m 181.72593,918.76334 40.91118,13.38452 -35.1028,-26.76904 z"
         style="fill:#55d400;stroke:none" />
      <rect
         transform="matrix(0.73665264,-0.67627131,0.67627131,0.73665264,0,0)"
         y="761.01984"
         x="-450.76163"
         height="15.788474"
         width="15.788474"
         id="rect3032"
         style="fill:#55d400;fill-opacity:1;stroke:none" />
      <path
         inkscape:connector-curvature="0"
         id="path3048"
         d="m 193.96905,867.44251 4.78844,4.57851 -10.07043,0.0579 -4.94455,-4.5776 10.22654,-0.0588 z"
         style="fill:#ff0000;stroke:none" />
      <path
         sodipodi:open="true"
         sodipodi:end="10.99547"
         sodipodi:start="4.713232"
         transform="translate(5.2039527,753.42465)"
         d="m 189.06495,105.71429 c 1.60261,0.001 2.90069,1.30162 2.89933,2.90423 -0.001,1.60261 -1.30161,2.90069 -2.90423,2.89934 -1.60261,-0.001 -2.90069,-1.30162 -2.89933,-2.90423 0.001,-1.60154 1.29994,-2.89917 2.90148,-2.89934"
         sodipodi:ry="2.9017856"
         sodipodi:rx="2.9017856"
         sodipodi:cy="108.61607"
         sodipodi:cx="189.0625"
         id="path3050"
         style="fill:#ff0000;fill-opacity:1;stroke:none"
         sodipodi:type="arc" />
      <path
         inkscape:connector-curvature="0"
         id="path3054"
         d="m 193.9044,889.05709 0.75819,6.58156 6.12699,-7.99231 -0.66321,-6.70545 -6.22196,8.1162 z"
         style="fill:#55d400;stroke:none" />
      <path
         style="fill:#55d400;stroke:none"
         d="m 199.61924,904.94863 -6.61979,-0.26489 6.95288,7.28522 6.72757,0.37783 -7.06066,-7.39815 z"
         id="path3056"
         inkscape:connector-curvature="0" />
    </g>
  </g>
</svg>
