<?xml version="1.0" encoding="UTF-8" standalone="no"?>
<!-- Created with Inkscape (http://www.inkscape.org/) -->
<svg xmlns:dc="http://purl.org/dc/elements/1.1/" xmlns:cc="http://creativecommons.org/ns#" xmlns:rdf="http://www.w3.org/1999/02/22-rdf-syntax-ns#" xmlns:svg="http://www.w3.org/2000/svg" xmlns="http://www.w3.org/2000/svg" xmlns:xlink="http://www.w3.org/1999/xlink" xmlns:sodipodi="http://sodipodi.sourceforge.net/DTD/sodipodi-0.dtd" xmlns:inkscape="http://www.inkscape.org/namespaces/inkscape" width="128" height="128" id="svg2755" sodipodi:version="0.32" inkscape:version="0.46" version="1.0" sodipodi:docname="chakra2.svg" inkscape:output_extension="org.inkscape.output.svg.inkscape">
  <defs id="defs2757">
    <radialGradient inkscape:collect="always" xlink:href="#linearGradient7251" id="radialGradient8142" gradientUnits="userSpaceOnUse" gradientTransform="matrix(1,0,0,1.0092053,0,-2.6182989)" cx="-349.68817" cy="284.43408" fx="-349.68817" fy="284.43408" r="174.46933"/>
    <radialGradient inkscape:collect="always" xlink:href="#linearGradient7251" id="radialGradient8140" gradientUnits="userSpaceOnUse" gradientTransform="matrix(1,0,0,1.0092053,0,-2.6182989)" cx="-349.68817" cy="284.43408" fx="-349.68817" fy="284.43408" r="174.46933"/>
    <radialGradient inkscape:collect="always" xlink:href="#linearGradient7251" id="radialGradient8138" gradientUnits="userSpaceOnUse" gradientTransform="matrix(1,0,0,1.0092053,0,-2.6182989)" cx="-349.68817" cy="284.43408" fx="-349.68817" fy="284.43408" r="174.46933"/>
    <radialGradient inkscape:collect="always" xlink:href="#linearGradient7251" id="radialGradient8136" gradientUnits="userSpaceOnUse" gradientTransform="matrix(1,0,0,1.0092053,0,-2.6182989)" cx="-349.68817" cy="284.43408" fx="-349.68817" fy="284.43408" r="174.46933"/>
    <radialGradient inkscape:collect="always" xlink:href="#linearGradient7251" id="radialGradient8134" gradientUnits="userSpaceOnUse" gradientTransform="matrix(1,0,0,1.0092053,0,-2.6182989)" cx="-349.68817" cy="284.43408" fx="-349.68817" fy="284.43408" r="174.46933"/>
    <linearGradient id="linearGradient7251">
      <stop style="stop-color:#ffffff;stop-opacity:1;" offset="0" id="stop7253"/>
      <stop id="stop7259" offset="0.5" style="stop-color:#ffffff;stop-opacity:1;"/>
      <stop style="stop-color:#ffffff;stop-opacity:0.68115944;" offset="1" id="stop7255"/>
    </linearGradient>
    <radialGradient inkscape:collect="always" xlink:href="#linearGradient7251" id="radialGradient8144" gradientUnits="userSpaceOnUse" gradientTransform="matrix(1,0,0,1.0092053,0,-2.6182989)" cx="-349.68817" cy="284.43408" fx="-349.68817" fy="284.43408" r="174.46933"/>
    <linearGradient inkscape:collect="always" xlink:href="#linearGradient5302" id="linearGradient8132" gradientUnits="userSpaceOnUse" x1="-496.24405" y1="318.50903" x2="-541.07269" y2="554.16187"/>
    <linearGradient inkscape:collect="always" xlink:href="#linearGradient5302" id="linearGradient8130" gradientUnits="userSpaceOnUse" x1="-496.24405" y1="318.50903" x2="-541.07269" y2="554.16187"/>
    <linearGradient inkscape:collect="always" xlink:href="#linearGradient5302" id="linearGradient8128" gradientUnits="userSpaceOnUse" gradientTransform="matrix(-4.4930371e-2,-0.2739224,0.2354945,-3.8627222e-2,-1464.5666,4.1764922)" x1="-496.24405" y1="318.50903" x2="-541.07269" y2="554.16187"/>
    <linearGradient inkscape:collect="always" xlink:href="#linearGradient5302" id="linearGradient8126" gradientUnits="userSpaceOnUse" gradientTransform="matrix(-6.0282137e-2,0.475013,-0.4083745,-5.1825265e-2,-1312.8771,411.99851)" x1="-565.5" y1="308.36218" x2="-565.5" y2="451.05267"/>
    <linearGradient inkscape:collect="always" xlink:href="#linearGradient5302" id="linearGradient8124" gradientUnits="userSpaceOnUse" gradientTransform="matrix(0.2548163,0.4053887,-0.3485176,0.2190687,-1065.4826,330.76914)" x1="-565.5" y1="308.36218" x2="-555.90619" y2="408.81128"/>
    <linearGradient inkscape:collect="always" xlink:href="#linearGradient5302" id="linearGradient8122" gradientUnits="userSpaceOnUse" x1="-565.5" y1="292.51492" x2="-565.5" y2="383.82712"/>
    <linearGradient inkscape:collect="always" xlink:href="#linearGradient5302" id="linearGradient8120" gradientUnits="userSpaceOnUse" gradientTransform="matrix(0.4473599,-0.1707058,0.1467579,0.3846007,-1235.1634,-89.239873)" x1="-565.5" y1="308.36218" x2="-565.5" y2="451.05267"/>
    <linearGradient inkscape:collect="always" xlink:href="#linearGradient5302" id="linearGradient8118" gradientUnits="userSpaceOnUse" x1="-565.5" y1="292.51492" x2="-565.5" y2="383.82712"/>
    <radialGradient inkscape:collect="always" xlink:href="#linearGradient5302" id="radialGradient8116" gradientUnits="userSpaceOnUse" cx="-565.5" cy="476.86218" fx="-565.5" fy="476.86218" r="168.5"/>
    <filter height="1.5147198" y="-0.25735995" width="1.5147198" x="-0.25735995" id="filter5518" inkscape:collect="always">
      <feGaussianBlur id="feGaussianBlur5520" stdDeviation="36.137626" inkscape:collect="always"/>
    </filter>
    <linearGradient inkscape:collect="always" xlink:href="#linearGradient5302" id="linearGradient8114" gradientUnits="userSpaceOnUse" x1="-565.5" y1="308.36218" x2="-565.5" y2="549.75562"/>
    <filter id="filter5598" inkscape:collect="always">
      <feGaussianBlur id="feGaussianBlur5600" stdDeviation="2.7815881" inkscape:collect="always"/>
    </filter>
    <linearGradient id="linearGradient5302">
      <stop style="stop-color:#ffffff;stop-opacity:1;" offset="0" id="stop5304"/>
      <stop style="stop-color:#ffffff;stop-opacity:0;" offset="1" id="stop5306"/>
    </linearGradient>
    <linearGradient inkscape:collect="always" xlink:href="#linearGradient5302" id="linearGradient8112" gradientUnits="userSpaceOnUse" x1="-565.5" y1="308.36218" x2="-565.5" y2="451.05267"/>
    <filter id="filter5917" inkscape:collect="always">
      <feGaussianBlur id="feGaussianBlur5919" stdDeviation="8.3209877" inkscape:collect="always"/>
    </filter>
    <linearGradient id="linearGradient5903">
      <stop id="stop5905" offset="0" style="stop-color:#429dff;stop-opacity:1;"/>
      <stop id="stop5907" offset="1" style="stop-color:#d3eaff;stop-opacity:0;"/>
    </linearGradient>
    <linearGradient inkscape:collect="always" xlink:href="#linearGradient5903" id="linearGradient8110" gradientUnits="userSpaceOnUse" x1="-734" y1="476.86218" x2="-508.27383" y2="476.86218"/>
    <filter height="1.8987654" y="-0.44938272" width="1.8987654" x="-0.44938272" id="filter5410" inkscape:collect="always">
      <feGaussianBlur id="feGaussianBlur5412" stdDeviation="63.100823" inkscape:collect="always"/>
    </filter>
    <linearGradient id="linearGradient5320">
      <stop style="stop-color:#0060f4;stop-opacity:1;" offset="0" id="stop5322"/>
      <stop style="stop-color:#c0d9ff;stop-opacity:1;" offset="1" id="stop5324"/>
    </linearGradient>
    <radialGradient inkscape:collect="always" xlink:href="#linearGradient5320" id="radialGradient8108" gradientUnits="userSpaceOnUse" cx="-565.5" cy="534.96564" fx="-565.5" fy="534.96564" r="168.5"/>
    <filter id="filter5578" inkscape:collect="always">
      <feGaussianBlur id="feGaussianBlur5580" stdDeviation="4.8539095" inkscape:collect="always"/>
    </filter>
    <linearGradient inkscape:collect="always" xlink:href="#linearGradient5290" id="linearGradient8106" gradientUnits="userSpaceOnUse" x1="-556.37891" y1="322.28384" x2="-556.37891" y2="640.08734"/>
    <radialGradient inkscape:collect="always" xlink:href="#linearGradient5290" id="radialGradient8104" gradientUnits="userSpaceOnUse" cx="-565.5" cy="534.96564" fx="-565.5" fy="534.96564" r="168.5"/>
    <linearGradient id="linearGradient5290">
      <stop id="stop5292" offset="0" style="stop-color:#0060f4;stop-opacity:1;"/>
      <stop id="stop5294" offset="1" style="stop-color:#083884;stop-opacity:1;"/>
    </linearGradient>
    <radialGradient inkscape:collect="always" xlink:href="#linearGradient5290" id="radialGradient8102" gradientUnits="userSpaceOnUse" cx="-565.5" cy="534.96564" fx="-565.5" fy="534.96564" r="168.5"/>
    <filter inkscape:collect="always" id="filter7213">
      <feGaussianBlur inkscape:collect="always" stdDeviation="7.627572" id="feGaussianBlur7215"/>
    </filter>
    <linearGradient inkscape:collect="always" id="linearGradient7197">
      <stop style="stop-color:#000000;stop-opacity:1;" offset="0" id="stop7199"/>
      <stop style="stop-color:#000000;stop-opacity:0;" offset="1" id="stop7201"/>
    </linearGradient>
    <linearGradient inkscape:collect="always" xlink:href="#linearGradient7197" id="linearGradient8100" gradientUnits="userSpaceOnUse" x1="-601.24463" y1="308.36218" x2="-601.24463" y2="530.68481"/>
    <inkscape:perspective sodipodi:type="inkscape:persp3d" inkscape:vp_x="0 : 526.18109 : 1" inkscape:vp_y="0 : 1000 : 0" inkscape:vp_z="744.09448 : 526.18109 : 1" inkscape:persp3d-origin="372.04724 : 350.78739 : 1" id="perspective2763"/>
  </defs>
  <sodipodi:namedview id="base" pagecolor="#ffffff" bordercolor="#666666" borderopacity="1.0" inkscape:pageopacity="0.0" inkscape:pageshadow="2" inkscape:zoom="1.4" inkscape:cx="54.457247" inkscape:cy="107.19235" inkscape:document-units="px" inkscape:current-layer="layer1" showgrid="false" inkscape:window-width="1045" inkscape:window-height="716" inkscape:window-x="141" inkscape:window-y="98"/>
  <metadata id="metadata2760">
    <rdf:RDF>
      <cc:Work rdf:about="">
        <dc:format>image/svg+xml</dc:format>
        <dc:type rdf:resource="http://purl.org/dc/dcmitype/StillImage"/>
      </cc:Work>
    </rdf:RDF>
  </metadata>
  <g inkscape:label="Ebene 1" inkscape:groupmode="layer" id="layer1">
    <g id="g7529" transform="matrix(0.3209574,0,0,0.3116675,248.56086,-87.878788)">
      <path sodipodi:type="arc" style="fill:url(#linearGradient8100);fill-opacity:1;stroke:none;stroke-width:10;stroke-linecap:round;stroke-miterlimit:4;stroke-dasharray:none;stroke-opacity:1;filter:url(#filter7213)" id="path7193" sodipodi:cx="-565.5" sodipodi:cy="476.86218" sodipodi:rx="168.5" sodipodi:ry="168.5" d="M -397,476.86218 A 168.5,168.5 0 1 1 -734,476.86218 A 168.5,168.5 0 1 1 -397,476.86218 z" transform="matrix(1.1834031,0,0,-1.1834031,94.182176,1057.5741)"/>
      <path transform="matrix(1.1834031,0,0,-1.1834031,94.182176,1045.6869)" d="M -397,476.86218 A 168.5,168.5 0 1 1 -734,476.86218 A 168.5,168.5 0 1 1 -397,476.86218 z" sodipodi:ry="168.5" sodipodi:rx="168.5" sodipodi:cy="476.86218" sodipodi:cx="-565.5" id="path7027" style="fill:url(#radialGradient8102);fill-opacity:1;stroke:none;stroke-width:10;stroke-linecap:round;stroke-miterlimit:4;stroke-dasharray:none;stroke-opacity:1" sodipodi:type="arc"/>
      <path sodipodi:type="arc" style="fill:url(#radialGradient8104);fill-opacity:1;stroke:none;stroke-width:10;stroke-linecap:round;stroke-miterlimit:4;stroke-dasharray:none;stroke-opacity:1" id="path7029" sodipodi:cx="-565.5" sodipodi:cy="476.86218" sodipodi:rx="168.5" sodipodi:ry="168.5" d="M -397,476.86218 A 168.5,168.5 0 1 1 -734,476.86218 A 168.5,168.5 0 1 1 -397,476.86218 z" transform="matrix(1.0120793,0,0,1.0120793,-2.7014221,-1.2555798)"/>
      <path sodipodi:type="arc" style="fill:url(#linearGradient8106);fill-opacity:1;stroke:none;stroke-width:10;stroke-linecap:round;stroke-miterlimit:4;stroke-dasharray:none;stroke-opacity:1;filter:url(#filter5578)" id="path7031" sodipodi:cx="-565.5" sodipodi:cy="476.86218" sodipodi:rx="168.5" sodipodi:ry="168.5" d="M -397,476.86218 A 168.5,168.5 0 1 1 -734,476.86218 A 168.5,168.5 0 1 1 -397,476.86218 z" transform="matrix(1.1136046,0,0,-1.1136046,54.711081,1012.4027)"/>
      <path transform="matrix(0.8407555,0,0,0.8407555,-99.585019,80.442252)" d="M -397,476.86218 A 168.5,168.5 0 1 1 -734,476.86218 A 168.5,168.5 0 1 1 -397,476.86218 z" sodipodi:ry="168.5" sodipodi:rx="168.5" sodipodi:cy="476.86218" sodipodi:cx="-565.5" id="path7033" style="fill:url(#radialGradient8108);fill-opacity:1;stroke:none;stroke-width:10;stroke-linecap:round;stroke-miterlimit:4;stroke-dasharray:none;stroke-opacity:1;filter:url(#filter5410)" sodipodi:type="arc"/>
      <path sodipodi:type="arc" style="opacity:1;fill:url(#linearGradient8110);fill-opacity:1;stroke:none;stroke-width:10;stroke-linecap:round;stroke-miterlimit:4;stroke-dasharray:none;stroke-opacity:1;filter:url(#filter5917)" id="path7035" sodipodi:cx="-565.5" sodipodi:cy="476.86218" sodipodi:rx="168.5" sodipodi:ry="168.5" d="M -397,476.86218 A 168.5,168.5 0 1 1 -734,476.86218 A 168.5,168.5 0 1 1 -397,476.86218 z" transform="matrix(0,-1.1077123,-1.1077123,0,-46.806229,-145.0445)"/>
      <path transform="matrix(0.9853306,0,0,0.847101,-17.827756,38.925667)" d="M -397,476.86218 A 168.5,168.5 0 1 1 -734,476.86218 A 168.5,168.5 0 1 1 -397,476.86218 z" sodipodi:ry="168.5" sodipodi:rx="168.5" sodipodi:cy="476.86218" sodipodi:cx="-565.5" id="path7037" style="opacity:0.58995816;fill:url(#linearGradient8112);fill-opacity:1;stroke:none;stroke-width:10;stroke-linecap:round;stroke-miterlimit:4;stroke-dasharray:none;stroke-opacity:1;filter:url(#filter5598)" sodipodi:type="arc"/>
      <path sodipodi:type="arc" style="fill:url(#linearGradient8114);fill-opacity:1;stroke:none;stroke-width:10;stroke-linecap:round;stroke-miterlimit:4;stroke-dasharray:none;stroke-opacity:1;filter:url(#filter5518)" id="path7039" sodipodi:cx="-565.5" sodipodi:cy="476.86218" sodipodi:rx="168.5" sodipodi:ry="168.5" d="M -397,476.86218 A 168.5,168.5 0 1 1 -734,476.86218 A 168.5,168.5 0 1 1 -397,476.86218 z" transform="matrix(0.7176994,0,0,0.6281871,-169.17329,129.9525)"/>
      <path sodipodi:type="arc" style="opacity:0.29707115;fill:url(#radialGradient8116);fill-opacity:1;stroke:none;stroke-width:10;stroke-linecap:round;stroke-miterlimit:4;stroke-dasharray:none;stroke-opacity:1" id="path7041" sodipodi:cx="-565.5" sodipodi:cy="476.86218" sodipodi:rx="168.5" sodipodi:ry="168.5" d="M -397,476.86218 A 168.5,168.5 0 1 1 -734,476.86218 A 168.5,168.5 0 1 1 -397,476.86218 z" transform="matrix(-1.0174614,0,0,-0.9105541,-1150.4067,949.78956)"/>
      <path sodipodi:type="arc" style="fill:url(#linearGradient8118);fill-opacity:1;stroke:none;stroke-width:10;stroke-linecap:round;stroke-miterlimit:4;stroke-dasharray:none;stroke-opacity:1" id="path7043" sodipodi:cx="-565.5" sodipodi:cy="476.86218" sodipodi:rx="168.5" sodipodi:ry="168.5" d="M -397,476.86218 A 168.5,168.5 0 1 1 -734,476.86218 A 168.5,168.5 0 1 1 -397,476.86218 z" transform="matrix(0.9486465,0,0,0.815563,-38.572667,48.038126)"/>
      <path style="opacity:0.42677822;fill:url(#linearGradient8120);fill-opacity:1;stroke:none;stroke-width:10;stroke-linecap:round;stroke-miterlimit:4;stroke-dasharray:none;stroke-opacity:1" d="M -1411.625,119.78125 C -1421.8942,119.94137 -1432.5038,121.90558 -1442.9062,125.875 C -1465.9389,134.66392 -1483.1407,151.46197 -1491.625,170.75 C -1479.1996,212.24149 -1440.7361,242.5 -1395.2188,242.5 C -1384.4427,242.5 -1374.0483,240.79633 -1364.3125,237.65625 C -1342.2483,217.5105 -1332.801,188.09222 -1342.7812,161.9375 C -1353.0189,135.10814 -1380.8173,119.30089 -1411.625,119.78125 z" transform="matrix(1.9812055,0,0,1.9812055,2189.1528,200.33619)" id="path7045"/>
      <path transform="matrix(0.9486465,0,0,-0.815563,-38.572667,909.07105)" d="M -397,476.86218 A 168.5,168.5 0 1 1 -734,476.86218 A 168.5,168.5 0 1 1 -397,476.86218 z" sodipodi:ry="168.5" sodipodi:rx="168.5" sodipodi:cy="476.86218" sodipodi:cx="-565.5" id="path7219" style="fill:url(#linearGradient8122);fill-opacity:1;stroke:none;stroke-width:10;stroke-linecap:round;stroke-miterlimit:4;stroke-dasharray:none;stroke-opacity:1" sodipodi:type="arc"/>
      <path style="opacity:0.31799167;fill:url(#linearGradient8124);fill-opacity:1;stroke:none;stroke-width:10;stroke-linecap:round;stroke-miterlimit:4;stroke-dasharray:none;stroke-opacity:1" d="M -1385.5312,128.34375 C -1397.1582,128.31409 -1408.5886,131.31999 -1418.7188,137.6875 C -1448.0008,156.09342 -1456.6109,196.31634 -1440.5312,231.71875 C -1426.9045,238.61093 -1411.5239,242.5 -1395.2188,242.5 C -1357.3077,242.5 -1324.2871,221.4902 -1307.125,190.5 C -1309.4344,183.18929 -1312.7249,175.96319 -1317.0625,169.0625 C -1333.3569,143.13962 -1359.952,128.40899 -1385.5312,128.34375 z" transform="matrix(1.9812055,0,0,1.9812055,2189.1528,200.33619)" id="path7047"/>
      <path style="opacity:0.23012552;fill:url(#linearGradient8126);fill-opacity:1;stroke:none;stroke-width:10;stroke-linecap:round;stroke-miterlimit:4;stroke-dasharray:none;stroke-opacity:1" d="M -1435.5312,49.625 C -1471.0345,65.179842 -1495.8438,100.62208 -1495.8438,141.84375 C -1495.8437,163.14291 -1489.2096,182.88479 -1477.9062,199.15625 C -1442.1783,200.23345 -1410.0398,169.33552 -1404.7188,127.40625 C -1400.628,95.172099 -1413.515,65.30326 -1435.5312,49.625 z" transform="matrix(1.9812055,0,0,1.9812055,2189.1528,200.33619)" id="path7049"/>
      <path style="opacity:0.44351466;fill:url(#linearGradient8128);fill-opacity:1;stroke:none;stroke-width:10;stroke-linecap:round;stroke-miterlimit:4;stroke-dasharray:none;stroke-opacity:1" d="M -1328.3125,94.03125 C -1330.3397,94.003936 -1332.384,94.163176 -1334.4375,94.5 C -1356.3413,98.092795 -1370.7103,121.67818 -1366.5312,147.15625 C -1362.3522,172.63432 -1341.185,190.40529 -1319.2812,186.8125 C -1312.4512,185.6922 -1306.3456,182.64798 -1301.3125,178.1875 C -1296.943,166.91532 -1294.5625,154.65313 -1294.5625,141.84375 C -1294.5625,129.3462 -1296.8308,117.38787 -1301,106.34375 C -1308.4775,98.752099 -1318.1488,94.168196 -1328.3125,94.03125 z" transform="matrix(1.9812055,0,0,1.9812055,2189.1528,200.33619)" id="path7051"/>
      <path transform="matrix(-0.4137975,-0.3622363,0.311419,-0.3557468,-881.65422,371.53755)" d="M -397,476.86218 A 168.5,168.5 0 1 1 -734,476.86218 A 168.5,168.5 0 1 1 -397,476.86218 z" sodipodi:ry="168.5" sodipodi:rx="168.5" sodipodi:cy="476.86218" sodipodi:cx="-565.5" id="path7053" style="opacity:0.23012552;fill:url(#linearGradient8130);fill-opacity:1;stroke:none;stroke-width:10;stroke-linecap:round;stroke-miterlimit:4;stroke-dasharray:none;stroke-opacity:1" sodipodi:type="arc"/>
      <path transform="matrix(-0.4644914,0.2944337,-0.2531283,-0.3993289,-809.97733,767.20191)" d="M -397,476.86218 A 168.5,168.5 0 1 1 -734,476.86218 A 168.5,168.5 0 1 1 -397,476.86218 z" sodipodi:ry="168.5" sodipodi:rx="168.5" sodipodi:cy="476.86218" sodipodi:cx="-565.5" id="path7067" style="opacity:0.46443517;fill:url(#linearGradient8132);fill-opacity:1;stroke:none;stroke-width:10;stroke-linecap:round;stroke-miterlimit:4;stroke-dasharray:none;stroke-opacity:1" sodipodi:type="arc"/>
      <g style="opacity:1;fill:url(#radialGradient8144);fill-opacity:1" transform="matrix(-0.8016682,-0.1866796,-0.1866796,0.8016682,-798.75196,184.2597)" id="g7239">
        <path sodipodi:nodetypes="cscz" style="fill:url(#radialGradient8134);fill-opacity:1;fill-rule:evenodd;stroke:none;stroke-width:1px;stroke-linecap:butt;stroke-linejoin:miter;stroke-opacity:1" d="M -506.25366,308.19843 C -545.73566,262.72844 -510.14436,272.9466 -492.50486,219.08476 C -475.65845,167.64433 -376.19101,409.47886 -328.70948,305.68744 C -354.31081,397.22965 -466.39649,354.1004 -506.25366,308.19843 z" id="path7241"/>
        <path id="path7243" d="M -371.78643,452.23948 C -427.23157,475.73809 -406.5152,445.04634 -452.28995,411.62595 C -496.0069,379.70806 -235.27144,359.83988 -319.31034,282.60895 C -240.15977,335.24536 -315.81451,428.51751 -371.78643,452.23948 z" style="fill:url(#radialGradient8136);fill-opacity:1;fill-rule:evenodd;stroke:none;stroke-width:1px;stroke-linecap:butt;stroke-linejoin:miter;stroke-opacity:1" sodipodi:nodetypes="cscz"/>
        <path sodipodi:nodetypes="cscz" style="fill:url(#radialGradient8138);fill-opacity:1;fill-rule:evenodd;stroke:none;stroke-width:1px;stroke-linecap:butt;stroke-linejoin:miter;stroke-opacity:1" d="M -193.23008,368.86226 C -188.01507,428.85519 -210.80295,399.66848 -256.7328,432.87539 C -300.59779,464.58948 -238.92187,210.47574 -338.3423,266.53582 C -263.82323,207.5247 -198.49474,308.29931 -193.23008,368.86226 z" id="path7245"/>
        <path id="path7247" d="M -217.36156,173.28976 C -158.69337,186.86882 -193.49342,199.5222 -176.10489,253.46558 C -159.49801,304.98386 -382.11564,167.80111 -359.52193,279.67906 C -392.61719,190.57179 -276.58723,159.58176 -217.36156,173.28976 z" style="fill:url(#radialGradient8140);fill-opacity:1;fill-rule:evenodd;stroke:none;stroke-width:1px;stroke-linecap:butt;stroke-linejoin:miter;stroke-opacity:1" sodipodi:nodetypes="cscz"/>
        <path sodipodi:nodetypes="cscz" style="fill:url(#radialGradient8142);fill-opacity:1;fill-rule:evenodd;stroke:none;stroke-width:1px;stroke-linecap:butt;stroke-linejoin:miter;stroke-opacity:1" d="M -410.80165,135.79109 C -379.75773,84.190483 -378.47746,121.19741 -321.8009,121.32934 C -267.6723,121.4553 -466.93348,290.78543 -353.54938,303.86974 C -448.52243,307.80953 -442.14046,187.88204 -410.80165,135.79109 z" id="path7249"/>
      </g>
    </g>
  </g>
</svg>