<?xml version="1.0" encoding="UTF-8" standalone="no"?>
<!-- Created with Inkscape (http://www.inkscape.org/) -->

<svg
   xmlns:dc="http://purl.org/dc/elements/1.1/"
   xmlns:cc="http://creativecommons.org/ns#"
   xmlns:rdf="http://www.w3.org/1999/02/22-rdf-syntax-ns#"
   xmlns:svg="http://www.w3.org/2000/svg"
   xmlns="http://www.w3.org/2000/svg"
   xmlns:xlink="http://www.w3.org/1999/xlink"
   xmlns:sodipodi="http://sodipodi.sourceforge.net/DTD/sodipodi-0.dtd"
   xmlns:inkscape="http://www.inkscape.org/namespaces/inkscape"
   width="512"
   height="512"
   id="svg2"
   version="1.1"
   inkscape:version="0.48.4 r9939"
   sodipodi:docname="earth.svg">
  <defs
     id="defs4">
    <linearGradient
       id="linearGradient4049">
      <stop
         id="stop4051"
         offset="0"
         style="stop-color:#ffffff;stop-opacity:1" />
      <stop
         style="stop-color:#ffffff;stop-opacity:0.33333334;"
         offset="0.17492291"
         id="stop4055" />
      <stop
         id="stop4057"
         offset="0.20202152"
         style="stop-color:#ffffff;stop-opacity:0;" />
      <stop
         style="stop-color:#ffffff;stop-opacity:0.13333334;"
         offset="0.69924182"
         id="stop4059" />
      <stop
         id="stop4053"
         offset="1"
         style="stop-color:#ffffff;stop-opacity:0;" />
    </linearGradient>
    <linearGradient
       id="linearGradient3926">
      <stop
         style="stop-color:#9dedf7;stop-opacity:1;"
         offset="0"
         id="stop3928" />
      <stop
         id="stop3942"
         offset="0.51691014"
         style="stop-color:#20579a;stop-opacity:1;" />
      <stop
         id="stop3938"
         offset="0.63843888"
         style="stop-color:#164c95;stop-opacity:1;" />
      <stop
         id="stop3934"
         offset="0.84308362"
         style="stop-color:#358ed2;stop-opacity:1;" />
      <stop
         style="stop-color:#49b9e8;stop-opacity:1;"
         offset="1"
         id="stop3930" />
    </linearGradient>
    <linearGradient
       id="linearGradient3862">
      <stop
         id="stop3864"
         offset="0"
         style="stop-color:#ffffff;stop-opacity:0;" />
      <stop
         style="stop-color:#203475;stop-opacity:0.69411767;"
         offset="0.4436852"
         id="stop4003" />
      <stop
         style="stop-color:#163165;stop-opacity:1;"
         offset="0.63918453"
         id="stop3870" />
      <stop
         style="stop-color:#2e7cd4;stop-opacity:1;"
         offset="0.75990731"
         id="stop3868" />
      <stop
         id="stop3866"
         offset="1"
         style="stop-color:#ffffff;stop-opacity:1;" />
    </linearGradient>
    <linearGradient
       id="linearGradient3812">
      <stop
         style="stop-color:#ffffff;stop-opacity:1"
         offset="0"
         id="stop3814" />
      <stop
         style="stop-color:#ffffff;stop-opacity:0;"
         offset="1"
         id="stop3816" />
    </linearGradient>
    <linearGradient
       id="linearGradient3027">
      <stop
         style="stop-color:#418cca;stop-opacity:1;"
         offset="0"
         id="stop3029" />
      <stop
         style="stop-color:#1c326e;stop-opacity:1;"
         offset="1"
         id="stop3031" />
    </linearGradient>
    <radialGradient
       inkscape:collect="always"
       xlink:href="#linearGradient3027"
       id="radialGradient3846"
       gradientUnits="userSpaceOnUse"
       gradientTransform="matrix(0.14159301,1.0044249,-0.99020952,0.13958909,925.23152,262.03377)"
       cx="284.6311"
       cy="675.66864"
       fx="284.6311"
       fy="675.66864"
       r="114.14724" />
    <radialGradient
       inkscape:collect="always"
       xlink:href="#linearGradient3926"
       id="radialGradient3932"
       cx="528.46667"
       cy="679.16394"
       fx="528.46667"
       fy="679.16394"
       r="114.71066"
       gradientTransform="matrix(-0.67067986,1.2007735,-1.5052906,-0.84076483,1711.4218,439.66195)"
       gradientUnits="userSpaceOnUse" />
    <radialGradient
       inkscape:collect="always"
       xlink:href="#linearGradient3862"
       id="radialGradient3946"
       cx="300.03342"
       cy="665.34546"
       fx="300.03342"
       fy="665.34546"
       r="114.14724"
       gradientTransform="matrix(0.11462705,1.4354674,-1.5871398,0.12673862,1321.4909,138.0158)"
       gradientUnits="userSpaceOnUse" />
    <filter
       inkscape:collect="always"
       id="filter3980"
       color-interpolation-filters="sRGB">
      <feGaussianBlur
         inkscape:collect="always"
         stdDeviation="0.22805081"
         id="feGaussianBlur3982" />
    </filter>
    <radialGradient
       inkscape:collect="always"
       xlink:href="#linearGradient3027"
       id="radialGradient4013"
       gradientUnits="userSpaceOnUse"
       gradientTransform="matrix(0.14159301,1.0044249,-0.99020952,0.13958909,925.23152,262.03377)"
       cx="284.6311"
       cy="675.66864"
       fx="284.6311"
       fy="675.66864"
       r="114.14724" />
    <radialGradient
       inkscape:collect="always"
       xlink:href="#linearGradient3027-0"
       id="radialGradient4013-5"
       gradientUnits="userSpaceOnUse"
       gradientTransform="matrix(0.14159301,1.0044249,-0.99020952,0.13958909,925.23152,262.03377)"
       cx="284.6311"
       cy="675.66864"
       fx="284.6311"
       fy="675.66864"
       r="114.14724" />
    <linearGradient
       id="linearGradient3027-0">
      <stop
         style="stop-color:#ffffff;stop-opacity:0.94117647;"
         offset="0"
         id="stop3029-8" />
      <stop
         style="stop-color:#1c326e;stop-opacity:1;"
         offset="1"
         id="stop3031-1" />
    </linearGradient>
    <radialGradient
       r="114.14724"
       fy="673.03888"
       fx="286.41885"
       cy="673.03888"
       cx="286.41885"
       gradientTransform="matrix(0.14159301,1.0044249,-0.99020952,0.13958909,925.23152,262.03377)"
       gradientUnits="userSpaceOnUse"
       id="radialGradient4030"
       xlink:href="#linearGradient4049"
       inkscape:collect="always" />
    <radialGradient
       inkscape:collect="always"
       xlink:href="#linearGradient3862"
       id="radialGradient4061"
       gradientUnits="userSpaceOnUse"
       gradientTransform="matrix(0.11462705,1.4354674,-1.5871398,0.12673862,1321.4909,138.0158)"
       cx="300.03342"
       cy="665.34546"
       fx="300.03342"
       fy="665.34546"
       r="114.14724" />
    <filter
       inkscape:collect="always"
       id="filter4063"
       color-interpolation-filters="sRGB">
      <feGaussianBlur
         inkscape:collect="always"
         stdDeviation="3.4244172"
         id="feGaussianBlur4065" />
    </filter>
    <radialGradient
       inkscape:collect="always"
       xlink:href="#linearGradient3027"
       id="radialGradient4073"
       gradientUnits="userSpaceOnUse"
       gradientTransform="matrix(0.14159301,1.0044249,-0.99020952,0.13958909,925.23152,262.03377)"
       cx="284.6311"
       cy="675.66864"
       fx="284.6311"
       fy="675.66864"
       r="114.14724" />
    <radialGradient
       inkscape:collect="always"
       xlink:href="#linearGradient3926"
       id="radialGradient4075"
       gradientUnits="userSpaceOnUse"
       gradientTransform="matrix(-0.67067986,1.2007735,-1.5052906,-0.84076483,1711.4218,439.66195)"
       cx="528.46667"
       cy="679.16394"
       fx="528.46667"
       fy="679.16394"
       r="114.71066" />
    <radialGradient
       inkscape:collect="always"
       xlink:href="#linearGradient3862"
       id="radialGradient4077"
       gradientUnits="userSpaceOnUse"
       gradientTransform="matrix(0.11462705,1.4354674,-1.5871398,0.12673862,1321.4909,138.0158)"
       cx="300.03342"
       cy="665.34546"
       fx="300.03342"
       fy="665.34546"
       r="114.14724" />
    <radialGradient
       inkscape:collect="always"
       xlink:href="#linearGradient4049"
       id="radialGradient4079"
       gradientUnits="userSpaceOnUse"
       gradientTransform="matrix(0.14159301,1.0044249,-0.99020952,0.13958909,925.23152,262.03377)"
       cx="286.41885"
       cy="673.03888"
       fx="286.41885"
       fy="673.03888"
       r="114.14724" />
    <filter
       inkscape:collect="always"
       id="filter4087"
       x="-0.11608696"
       width="1.2321739"
       y="-0.4005"
       height="1.801"
       color-interpolation-filters="sRGB">
      <feGaussianBlur
         inkscape:collect="always"
         stdDeviation="4.7678571"
         id="feGaussianBlur4089" />
    </filter>
    <radialGradient
       inkscape:collect="always"
       xlink:href="#linearGradient3027"
       id="radialGradient4099"
       gradientUnits="userSpaceOnUse"
       gradientTransform="matrix(0.14159301,1.0044249,-0.99020952,0.13958909,925.23152,262.03377)"
       cx="284.6311"
       cy="675.66864"
       fx="284.6311"
       fy="675.66864"
       r="114.14724" />
    <radialGradient
       inkscape:collect="always"
       xlink:href="#linearGradient3926"
       id="radialGradient4101"
       gradientUnits="userSpaceOnUse"
       gradientTransform="matrix(-0.67067986,1.2007735,-1.5052906,-0.84076483,1711.4218,439.66195)"
       cx="528.46667"
       cy="679.16394"
       fx="528.46667"
       fy="679.16394"
       r="114.71066" />
    <radialGradient
       inkscape:collect="always"
       xlink:href="#linearGradient3862"
       id="radialGradient4103"
       gradientUnits="userSpaceOnUse"
       gradientTransform="matrix(0.11462705,1.4354674,-1.5871398,0.12673862,1321.4909,138.0158)"
       cx="300.03342"
       cy="665.34546"
       fx="300.03342"
       fy="665.34546"
       r="114.14724" />
    <radialGradient
       inkscape:collect="always"
       xlink:href="#linearGradient4049"
       id="radialGradient4105"
       gradientUnits="userSpaceOnUse"
       gradientTransform="matrix(0.14159301,1.0044249,-0.99020952,0.13958909,925.23152,262.03377)"
       cx="286.41885"
       cy="673.03888"
       fx="286.41885"
       fy="673.03888"
       r="114.14724" />
    <radialGradient
       inkscape:collect="always"
       xlink:href="#linearGradient3027"
       id="radialGradient4119"
       gradientUnits="userSpaceOnUse"
       gradientTransform="matrix(0.14159301,1.0044249,-0.99020952,0.13958909,925.23152,262.03377)"
       cx="284.6311"
       cy="675.66864"
       fx="284.6311"
       fy="675.66864"
       r="114.14724" />
    <radialGradient
       inkscape:collect="always"
       xlink:href="#linearGradient3926"
       id="radialGradient4121"
       gradientUnits="userSpaceOnUse"
       gradientTransform="matrix(-0.67067986,1.2007735,-1.5052906,-0.84076483,1711.4218,439.66195)"
       cx="528.46667"
       cy="679.16394"
       fx="528.46667"
       fy="679.16394"
       r="114.71066" />
    <radialGradient
       inkscape:collect="always"
       xlink:href="#linearGradient3862"
       id="radialGradient4123"
       gradientUnits="userSpaceOnUse"
       gradientTransform="matrix(0.11462705,1.4354674,-1.5871398,0.12673862,1321.4909,138.0158)"
       cx="300.03342"
       cy="665.34546"
       fx="300.03342"
       fy="665.34546"
       r="114.14724" />
    <radialGradient
       inkscape:collect="always"
       xlink:href="#linearGradient4049"
       id="radialGradient4125"
       gradientUnits="userSpaceOnUse"
       gradientTransform="matrix(0.14159301,1.0044249,-0.99020952,0.13958909,925.23152,262.03377)"
       cx="286.41885"
       cy="673.03888"
       fx="286.41885"
       fy="673.03888"
       r="114.14724" />
  </defs>
  <sodipodi:namedview
     id="base"
     pagecolor="#ffffff"
     bordercolor="#666666"
     borderopacity="1.0"
     inkscape:pageopacity="0.0"
     inkscape:pageshadow="2"
     inkscape:zoom="0.49497475"
     inkscape:cx="512.69454"
     inkscape:cy="482.86812"
     inkscape:document-units="px"
     inkscape:current-layer="layer1"
     showgrid="false"
     inkscape:window-width="1024"
     inkscape:window-height="718"
     inkscape:window-x="-2"
     inkscape:window-y="-3"
     inkscape:window-maximized="1" />
  <metadata
     id="metadata7">
    <rdf:RDF>
      <cc:Work
         rdf:about="">
        <dc:format>image/svg+xml</dc:format>
        <dc:type
           rdf:resource="http://purl.org/dc/dcmitype/StillImage" />
        <dc:title></dc:title>
      </cc:Work>
    </rdf:RDF>
  </metadata>
  <g
     inkscape:label="Layer 1"
     inkscape:groupmode="layer"
     id="layer1"
     transform="translate(0,-540.36218)">
    <g
       id="g4109"
       transform="matrix(0.98062047,0,0,0.98062047,-99.779077,161.05611)">
      <g
         transform="matrix(2.0173743,0,0,2.0173743,-845.77222,-757.8292)"
         id="g4091">
        <path
           sodipodi:type="arc"
           style="fill:#000000;fill-opacity:1;stroke:none;filter:url(#filter4087)"
           id="path4081"
           sodipodi:cx="582.85712"
           sodipodi:cy="800.93359"
           sodipodi:rx="49.285713"
           sodipodi:ry="14.285714"
           d="m 582.89867,786.64788 c 27.21973,0.007 49.26709,6.40798 49.24414,14.29776 -0.0229,7.88978 -22.1075,14.28031 -49.32724,14.27366 -27.21974,-0.007 -49.2671,-6.40797 -49.24415,-14.29775 0.0229,-7.88449 22.07904,-14.27285 49.28056,-14.27367"
           sodipodi:start="4.713232"
           sodipodi:end="10.99547"
           sodipodi:open="true"
           transform="matrix(0.85885674,0,0,0.8195447,91.45648,137.747)" />
        <g
           id="g4067"
           transform="translate(220,163.57143)">
          <path
             transform="translate(49.303497,-158.99066)"
             sodipodi:open="true"
             sodipodi:end="10.99547"
             sodipodi:start="4.713232"
             d="m 322.83997,571.02455 c 63.04176,0.0532 114.10412,51.20167 114.05097,114.24343 -0.0531,63.04176 -51.20167,114.10412 -114.24342,114.05097 -63.04176,-0.0531 -114.10412,-51.20167 -114.05098,-114.24343 0.0531,-62.99953 51.13574,-114.04444 114.1353,-114.05101"
             sodipodi:ry="114.14724"
             sodipodi:rx="114.14724"
             sodipodi:cy="685.17175"
             sodipodi:cx="322.74374"
             id="path3025"
             style="fill:url(#radialGradient4119);fill-opacity:1;stroke:none"
             sodipodi:type="arc" />
          <path
             inkscape:connector-curvature="0"
             id="path3909"
             d="m 372.28915,412.34159 c -10.71748,0.0331 -20.80127,1.35477 -30.1875,3.78125 0.0935,0.46386 1.14031,5.35784 2.84375,5.1875 1.78572,-0.17857 4.28125,-1.76786 5.53125,-0.875 1.25,0.89286 2.49554,3.72321 1.78125,4.4375 -0.71429,0.71429 -3.22768,-0.86607 -4.65625,0.5625 -4.6242,4.87768 -8.73856,12.56518 -15.34375,13.75 -6.60519,1.18482 -13.37497,2.30643 -19.125,6.59375 -2.5,1.96429 -4.82143,4.9866 -6.25,5.34375 -1.42857,0.35715 -2.67411,-2.3125 -0.53125,-4.8125 2.14286,-2.5 2.5,-5.54464 6.25,-7.6875 3.75,-2.14286 9.83929,-7.84822 14.125,-9.8125 4.28572,-1.96429 6.23661,-3.39286 6.59375,-5 0.35715,-1.60714 -5.87946,0.19643 -9.09375,2.875 -3.21428,2.67857 -3.95089,4.4509 -4.84375,4.09375 -0.89285,-0.35714 0.0223,-2.15178 -1.40625,-1.4375 -1.42857,0.71429 -1.7991,1.4375 -3.40625,2.6875 -1.60714,1.25 -3.56696,1.78125 -4.28125,1.78125 -0.71429,0 0.5491,1.25 2.15625,1.25 1.60714,0 0.50893,1.62053 -1.8125,2.15625 -2.32143,0.53571 -3.75,0.53125 -3.75,0.53125 0,0 0.89286,2.33036 0,2.6875 -0.89285,0.35714 -6.25,0.15625 -6.25,0.15625 0,0 0.82663,2.28056 -0.15625,4.125 -0.98288,1.84444 -5.53125,3.75 -6.78125,5 -1.25,1.25 -1.42857,7.30357 -2.5,8.375 -1.07143,1.07143 -4.65625,3.59375 -4.65625,3.59375 l 0,6.0625 -3.75,3.5625 -0.1875,-6.0625 3.59375,-4.78125 c 0,0 -1.79018,-2.19643 -3.21875,-1.125 -1.42857,1.07143 -1.4375,6.25 -1.4375,6.25 0,0 -1.42411,-0.16518 -1.78125,0.90625 -0.35715,1.07143 -0.53125,2.5 -0.53125,2.5 l -3.9375,0.53125 -3.9375,3.53125 c -10.4667,20.18601 -15.10493,43.30564 -13.03125,65.9375 8.56824,53.07456 43.42893,91.46742 96.125,99.90625 12.37437,2.39911 35.125,0.1875 35.125,0.1875 -3.93556,-3.46921 -7.70916,-9.04145 -11.625,-9.03125 -0.85152,-0.65723 -1.64666,-1.5631 -1.25,-3.15625 0.39666,-1.59315 4.24882,-2.37321 4.90625,-4.1875 0.65743,-1.81429 -0.36992,-3.76855 -0.875,-5.03125 -0.50508,-1.2627 -2.87233,-4.41032 -4.28125,-5.1875 -1.40892,-0.77718 -1.39921,0.33186 -2.90625,-0.375 -1.50704,-0.70686 -4.55615,-2.88721 -5.1875,-4.78125 -0.63135,-1.89404 0.95386,-3.30279 1.5,-4.5625 0.54614,-1.25971 1.81713,-1.82749 1.65625,-3.03125 -0.16088,-1.20376 -0.99368,-2.34645 -2.65625,-2.78125 -1.66257,-0.4348 -4.39416,2.10294 -6.1875,1.90625 -1.79334,-0.19669 -2.39229,-0.89356 -3.78125,-2.15625 -1.38896,-1.26269 -5.04806,-4.02871 -9.59375,-4.28125 -4.54569,-0.25254 -5.00067,2.83255 -6.4375,2.90625 -1.43683,0.0737 -4.26737,0.80085 -5.8125,-0.78125 -2.0341,-0.94868 -11.36738,-0.50254 -12.125,-0.25 -0.75762,0.25254 -10.63014,-6.3322 -12.125,-9.59375 -1.49486,-3.26155 1.54714,-4.16056 0.25,-6.0625 -1.29714,-1.90194 -4.29431,-1.3076 -7.3125,-2.5 -3.01819,-1.1924 -4.86531,-6.82564 -4.1875,-11 0.75523,-1.54312 3.02591,-0.97475 3.9375,-2.40625 0.91159,-1.4315 1.49784,-4.30173 0.625,-5.5625 -0.87284,-1.26077 -4.04461,-5.06747 -2.65625,-8.3125 1.28298,-1.85822 6.33279,-8.34528 9.71875,-12.625 1.68956,-1.54627 5.0758,-1.71564 6.3125,-3.9375 1.2367,-2.22186 -1.16249,-5.30048 0,-7.8125 1.16249,-2.51202 4.85966,-5.0162 6.6875,-5.6875 1.82784,-0.6713 2.17129,0.50277 2.90625,0 0.73496,-0.50277 0.96775,-1.30233 0.90625,-2.28125 -0.0615,-0.97892 -0.70044,-2.69817 -1.65625,-3.03125 -0.95581,-0.33308 -3.52027,-0.91532 -5.1875,-1.5 -0.45925,-0.70108 0.6435,-1.92258 0.53125,-2.78125 -0.11225,-0.85867 -1.2065,-1.22643 -1.03125,-2.15625 0.17525,-0.92982 1.77982,-1.06586 2.40625,-2.25 0.62643,-1.18414 0.8139,-3.31316 0.75,-4.6875 -0.0639,-1.37434 -1.32961,-2.2951 -0.875,-3.40625 0.45461,-1.11115 0.79482,-1.42555 3.15625,-1.90625 2.36143,-0.4807 8.795,2.72078 10.6875,1.5 2.32285,-1.55072 2.67145,-5.70227 2.21875,-8.375 -0.4527,-2.67272 -4.4375,-3.21875 -4.4375,-3.21875 l 0,-2.28125 c 0,0 1.93643,-0.6957 2.65625,-1.375 0.71982,-0.6793 1.67582,-1.78649 1.5,-2.53125 -0.17582,-0.74476 -0.76145,-0.8604 -1.375,-0.875 -0.61355,-0.0146 -1.78125,1 -1.78125,1 l -1.125,-0.125 c 0.57583,-2.15938 1.49439,-5.12038 2.625,-6.1875 1.13061,-1.06712 2.53125,-2.65625 2.53125,-2.65625 l -2.78125,-2.25 -0.375,-3.9375 c 0,0 -1.52288,0.35212 -2,-0.125 -0.28965,-1.59885 0.45862,-3.19756 1.875,-3.78125 1.41638,-0.58369 1.65625,1.78125 1.65625,1.78125 l 3.15625,-2.40625 0.125,5.03125 c 0,0 -0.96905,-0.41017 -1.28125,0.53125 -0.3122,0.94142 0.84708,2.86952 2.40625,3.90625 1.55917,1.03675 6.5625,1 6.5625,1 0,0 1.28638,1.76724 2.40625,2.03125 1.5298,0.27921 5.49908,-1.04191 6.1875,-2.15625 0.62553,-1.16827 -4.11695,-3.68848 -2.65625,-6.4375 0.82083,-2.16573 6.49194,-1.69254 6.0625,1.78125 2.71921,-1.59067 0.30134,-7.36607 -3.65625,-6.1875 0,0 -6.05362,1.00174 -6.9375,-2.28125 -0.88388,-3.283 5.25925,-7.77468 7.4375,-8.71875 2.17825,-0.94407 2.78125,0.125 2.78125,0.125 -0.61558,-8.81594 5.07424,-11.84172 10.59375,-13.25 5.51951,-1.40828 4.8125,2.28125 4.8125,2.28125 l 10.09375,-0.125 0.5,1.25 c -1.52042,1.01362 -3.8897,1.52571 -4.78125,1.65625 -1.81049,2.2204 0.33546,4.74167 3.90625,4.15625 1.89403,-0.50508 0.37119,-2.27871 0.75,-2.53125 0.37881,-0.25254 3.03252,-1.76476 2.90625,-3.40625 -0.0947,-1.23113 -0.531,-1.54806 -0.75,-1.625 0.35908,0.0517 4.35394,0.59295 5.1875,-0.28125 0.866,-0.99491 -0.81899,-3.49652 -1.28125,-4.15625 -0.46226,-0.65973 -3.39356,0.25381 -4.65625,-0.125 -1.26269,-0.37881 -4.3125,-3.90625 -4.3125,-3.90625 0,0 -0.91452,-5.39535 0,-4.4375 0.91452,0.95785 7.71875,6.9375 7.71875,6.9375 2.3975,0.60728 5.52021,1.78204 6.9375,-0.5 0.1652,-0.87775 -0.78089,-1.86683 -1.75,-2.5 -0.96911,-0.63317 -3.8125,-0.78125 -3.8125,-0.78125 -0.1609,-7.77703 -7.5566,-8.21877 -14.3125,-6.96875 l 0.3125,-1.59375 c 0,0 7.75,-0.61739 7.75,-1.375 0,-0.75762 -4.65625,-3.53125 -4.65625,-3.53125 -3.88383,-0.30996 -7.67577,-0.44901 -11.40625,-0.4375 z m 3.75,7.21875 c -0.32501,0.99004 3.68699,1.36604 -0.5625,2.09375 -0.32373,0.60222 -1.83915,3.59485 -3.71875,0.9375 -0.58751,-1.42828 1.39831,-2.51876 4.28125,-3.03125 z m -11.28125,3.625 c 0.81076,-0.003 1.75,0.21875 1.75,0.21875 0,0 6e-4,1.0855 -0.0625,1.90625 -0.0631,0.82075 1.02935,0.68115 1.21875,1.3125 0.1894,0.63135 -0.39737,0.90685 -1.28125,0.84375 -0.88388,-0.0631 -1.37119,-1.28379 -1.75,-1.03125 -0.37881,0.25254 0.80536,1.84121 -1.59375,2.09375 -2.39911,0.25254 -3.02136,-1.71317 -3.15625,-2.65625 -0.13489,-0.94308 0.11738,-1.50191 0.875,-1.3125 0.75762,0.18941 2.4643,-0.33677 2.90625,-1.03125 0.16573,-0.26043 0.60729,-0.3419 1.09375,-0.34375 z m -34.875,19.8125 c 0.98919,0.10876 -0.0692,1.5625 0.59375,1.5625 0.75761,0 5.05361,-0.75761 5.9375,0 0.88388,0.75762 0.63515,2.02237 -0.375,2.90625 -1.01015,0.88388 -2.67861,-0.25635 -3.5625,0.375 -0.88388,0.63134 -0.7335,1.52872 -2.375,1.78125 -1.6415,0.25254 -2.67862,-1.6499 -3.5625,-2.28125 -0.88388,-0.63134 0.26222,-0.87754 2.15625,-0.625 1.89404,0.25253 1.53125,-1 1.53125,-1 0,0 -1.64483,-0.15245 -2.78125,-0.53125 -1.13642,-0.37881 1.875,-2.125 1.875,-2.125 0.23675,-0.0474 0.42119,-0.078 0.5625,-0.0625 z m 44.03125,0.4375 c 0,0 -2.02745,0.36945 -2.40625,4.03125 -0.37881,3.6618 -1.40625,1 -1.40625,1 0,0 -2.00635,0.12706 -1.375,3.03125 0.63134,2.90419 3.02618,4.93876 3.53125,4.8125 0.50508,-0.12627 -0.89229,1.52871 -2.28125,1.78125 -1.38896,0.25254 -1.50761,2.90498 -0.75,3.03125 0.75762,0.12627 2.41641,1.11611 1.40625,2 -2.62404,0.76386 -4.87365,1.44393 -6.4375,3.15625 -6.2728,6.90489 -0.18663,1.74216 1.625,1.78125 1.6415,0.12627 2.26856,1.38135 3.53125,0.75 1.26269,-0.63135 0.64102,-2.15371 2.15625,-2.40625 1.51523,-0.25254 1.26602,2.16006 2.78125,1.78125 1.51523,-0.37881 3.24123,-0.50044 3.28125,-2.15625 0.04,-1.65581 -2.3691,-7.25419 1.3125,-5.6875 2.15587,0.0152 0.77292,-2.56462 -0.6875,-2.90625 -1.13642,-0.25254 -0.64277,-1.11484 1.125,-2.125 1.76777,-1.01015 3.55234,-0.52998 4.5625,-0.65625 1.01015,-0.12627 2.00634,-0.86612 1.375,-1.75 -0.63135,-0.88388 -3.40625,-1.28125 -3.40625,-1.28125 -1.86554,1.67257 -4.96136,3.64695 -7.0625,2.40625 -0.96371,-0.5956 -1.3517,-1.90639 -1.53125,-3.03125 -0.17955,-1.12486 -0.0403,-2.52863 0.53125,-3.40625 0.57158,-0.87762 2.001,-0.683 2.375,-1.5 0.374,-0.817 -0.375,-2.53125 -0.375,-2.53125 l -1.875,-0.125 z m -43.3125,24 0.75,0 0.125,1.125 1.53125,0.25 0.625,-1.125 c 0,0 0.60977,-0.25 2.125,-0.25 1.51523,0 1.78379,1.36104 1.53125,2.75 -0.25254,1.38896 -1.88849,2.54473 -3.65625,4.3125 -1.76777,1.76777 -4.0625,1.75 -4.0625,1.75 -0.75762,-2.02031 1.03125,-2.78125 1.03125,-2.78125 l 0,-6.03125 z m 79.09375,10.3125 c -1.70332,0.082 -4.14063,2.10938 -3.59375,3.125 0.625,1.16072 0.70982,1.87946 1.15625,1.96875 0.44643,0.0893 0.79464,1.68303 -0.1875,2.21875 -0.98215,0.53571 -2.13393,0.98214 -2.9375,0.625 -0.80357,-0.35714 -1.24553,-1.33929 -0.53125,-1.875 0.71429,-0.53572 1.78572,-1.23214 1.25,-1.5 -0.53572,-0.26786 -3.85714,0.35714 -4.125,0 -0.26786,-0.35714 -0.44643,-1.08036 -1.25,-0.8125 -0.80357,0.26786 -1.25446,4.09375 -1.34375,5.34375 -0.0893,1.25 0.17858,2.96428 0,3.5 -0.17858,0.53572 -1.75893,-0.54464 -1.9375,0.4375 -0.17857,0.98215 -0.89732,3.39732 0.53125,3.84375 1.42857,0.44643 3.19643,-0.004 2.75,1.15625 -0.44643,1.16072 -2.39732,1.97768 -2.21875,2.78125 0.17857,0.80357 0.33929,1.14286 1.5,0.875 1.16072,-0.26786 2.875,-2.83928 2.875,-3.375 0,-0.53571 2.85714,-0.1875 3.125,-0.8125 0.38261,-3.60135 1.58661,-4.95629 4.09375,-4.5625 1.91794,0.86019 1.25286,4.03162 6.09375,2.15625 2.94643,-1.16072 1.95535,-2.23661 3.5625,-2.59375 1.60715,-0.35714 2.67411,0.62054 3.65625,-0.71875 0.98214,-1.33929 -1.50591,-3.66571 -3.75,-4.1875 -2.24409,-0.52179 -6.30679,-1.32636 -8.5625,-1.875 -0.60155,-0.62193 -0.44968,-1.45199 -0.0937,-1.875 1.60477,-0.82418 2.15827,-3.09332 0.625,-3.75 -0.20165,-0.0765 -0.44417,-0.10552 -0.6875,-0.0937 z m -42.34375,11.78125 c -1.38896,0.25254 -2.03887,1.38975 -1.28125,3.03125 0.75761,1.6415 3.41592,5.17861 5.5625,6.0625 2.14658,0.88389 4.04727,2.3712 5.5625,2.75 1.51522,0.37881 2.78505,0.1461 2.40625,1.15625 -0.37881,1.01016 -2.40117,0.125 -2.90625,0.125 -0.50508,0 -0.50508,1.52109 0,2.53125 0.50508,1.01015 0.625,3.65625 0.625,3.65625 0,0 -1.02364,-0.50508 -1.78125,0 -0.75762,0.50507 -1.63008,2.14483 -1.125,3.28125 0.50507,1.13643 -1.02364,1.75254 -1.78125,1.5 -0.75762,-0.25254 -3.90752,-1.11358 -3.78125,-2.25 0.12627,-1.13642 2.91974,-0.7673 4.6875,-2.15625 1.76777,-1.38896 2.50507,-3.39864 2,-4.15625 -0.50508,-0.75762 -4.17354,-4.43623 -5.5625,-4.5625 -1.38896,-0.12627 -3.03125,0.375 -3.03125,0.375 0,0 -4.65625,-3.01221 -4.65625,-4.90625 0,-1.89403 -1.26476,-3.03759 -2.90625,-2.40625 -1.6415,0.63135 -3.01602,3.40372 -4.53125,3.65625 -1.51523,0.25254 -1.91974,-1.87754 -3.6875,-1.625 -1.76777,0.25253 -3.27998,0.98223 -3.40625,2.75 -0.12627,1.76776 0,2.78125 0,2.78125 0,0 -1.5211,-0.88388 -2.53125,0 -1.01015,0.88389 -1.49112,3.93243 -2.375,4.4375 -0.88388,0.50508 -2.28759,0.76729 -1.65625,2.15625 0.63135,1.38896 1.28125,1.625 1.28125,1.625 0,0 -0.64482,1.65371 -1.78125,1.90625 -1.13642,0.25254 -3.53125,1.375 -3.53125,1.375 l -0.5,1.90625 c 0,0 -3.42862,-0.0249 -4.3125,-0.65625 -0.88389,-0.63134 -2.50635,0.26602 -1.875,1.78125 0,0 4.57736,3.11076 6.0625,3.65625 1.41756,0.52067 4.15323,-2.7711 7.5625,-3.78125 3.40926,-1.01015 5.44083,-1.62881 8.21875,-1.25 2.77792,0.37881 2.27316,0.35264 6.1875,-0.53125 3.91434,-0.88388 5.43242,-1.8704 5.9375,0.78125 0.50508,2.65165 2.25761,3.14483 1.5,4.28125 -0.75762,1.13643 -3.15879,0.26221 -2.90625,2.15625 0.25254,1.89403 1.76602,1.74747 3.28125,2 1.51522,0.25254 1.01856,1.27871 2.28125,1.53125 1.26269,0.25254 7.58867,-1.01523 8.09375,0.5 0.50508,1.51523 -1.27284,3.02871 1,3.28125 2.27285,0.25254 4.03712,-0.009 6.5625,0.875 2.52538,0.88388 4.4164,1.65165 3.40625,-1 -1.01015,-2.65165 -2.38642,-2.76729 -1.25,-4.15625 1.13642,-1.38896 3.28585,-2.27998 5.9375,-2.40625 2.65165,-0.12627 3.25587,1.02364 5.78125,1.78125 2.52538,0.75762 8.10596,1.38261 10,0.625 1.89403,-0.75762 2.13848,-2.7749 3.90625,-3.40625 1.76776,-0.63134 5.17481,0.63516 6.4375,-0.375 1.26269,-1.01015 0.50889,-15.93116 -0.375,-16.5625 -0.88388,-0.63135 -5.55362,1.89356 -6.4375,3.15625 -0.88388,1.26269 -1.89103,0.63135 -3.40625,0 -1.51523,-0.63134 -1.03125,2.15625 -1.03125,2.15625 l -2.625,0.125 -2.03125,-2.03125 -0.75,2.78125 c 0,0 0.35898,0.50762 -1.15625,-0.25 -1.51523,-0.75761 -4.77744,-6.69845 -5.15625,-8.71875 -0.37881,-2.02031 -3.80996,-3.1415 -4.0625,-1.5 -0.25254,1.6415 1.2703,1.90244 -0.75,2.28125 -2.02031,0.37881 -3.16767,0.86865 -2.03125,1.5 1.13642,0.63135 3.30743,-1.27665 3.8125,1.375 0.50508,2.65165 0.75,4.8125 0.75,4.8125 0,0 -1.7711,-2.52998 -2.78125,-2.65625 -1.01016,-0.12627 -1.50888,0.64229 -0.625,2.03125 0.88389,1.38896 1.64102,3.15118 3.15625,3.65625 1.51523,0.50508 5.56123,-0.25635 5.6875,0.375 0.12627,0.63134 0.36024,1.27871 -1.28125,1.53125 -1.6415,0.25254 -2.26602,0.38008 -3.78125,-0.125 -1.51522,-0.50508 -6.05869,-4.54981 -6.4375,-5.8125 -0.37881,-1.26269 -1.87898,0.35906 -2.65625,-0.625 -0.77727,-0.98406 0,-4.8125 0,-4.8125 0,0 -2.51575,-0.56594 -3.28125,-1.65625 -0.7655,-1.09031 -0.5,-4.28125 -0.5,-4.28125 0,0 -5.05488,-0.24366 -5.8125,-0.875 -0.75762,-0.63135 -6.17354,-6.81504 -7.5625,-6.5625 z m -6.84375,7.8125 c 0.10519,-0.0189 0.2055,-0.0104 0.3125,0 0.71334,0.0697 1.42267,0.78815 1.34375,1.65625 -0.12627,1.38896 -0.34883,3.30996 0.15625,3.5625 0.50508,0.25253 0.1626,3.29727 -0.46875,4.8125 -1.37659,3.08452 -4.37168,0.73537 -3.59375,-4.59375 0.12627,-1.76777 1.24439,-0.0204 1.625,-0.875 0.3806,-0.85459 -0.88198,-2.51729 -0.1875,-3.90625 0.19532,-0.39064 0.49694,-0.59963 0.8125,-0.65625 z m -12.1875,7.84375 0.0312,0 c 0.6625,6.8e-4 1.18806,0.63553 1.1875,1.4375 -5.6e-4,0.80197 -0.55625,1.46943 -1.21875,1.46875 -0.6625,-6.8e-4 -1.18806,-0.66678 -1.1875,-1.46875 5.6e-4,-0.80143 0.52545,-1.43742 1.1875,-1.4375 z m 122.5625,1.15625 c -5.25146,-0.10742 -6.40624,6.6875 -10,7.46875 -4.10715,0.89286 -8.02232,0.35714 -10.34375,-2.5 -2.32143,-2.85714 -3.92411,0.19196 -3.03125,2.15625 0.89286,1.96429 5.16964,2.49554 6.0625,4.28125 0.89286,1.78571 0.18303,3.20089 1.96875,4.09375 1.78572,0.89286 2.3125,1.44196 3.5625,-0.34375 1.25,-1.78571 1.26339,-3.92857 2.15625,-5 0.89286,-1.07143 -0.90179,-2.1384 2.3125,-0.53125 6.74067,3.31579 4.2506,4.96607 3.75,11.40625 -0.5006,6.44018 -6.76786,20.19196 -10.875,23.40625 -4.10714,3.21429 -3.92857,4.46429 -6.25,3.75 -2.32143,-0.71429 -2.50446,-5.54018 -4.46875,-6.96875 -1.96429,-1.42857 -5.5491,-4.64286 -7.15625,-5 -1.60715,-0.35714 -0.17411,-2.84821 -1.78125,-6.0625 -1.60714,-3.21429 -6.7991,-7.33482 -8.40625,-8.40625 -1.60715,-1.07143 -3.84115,-0.84226 -4.625,0.1875 -0.92726,3.17788 9.50044,14.19245 11.78125,15.1875 2.28081,0.99505 -1.0759,3.91071 0.53125,5.875 1.60715,1.96429 9.10714,7.32143 11.25,7.5 2.14286,0.17857 -0.0934,0.92709 2.15625,3.21875 2.24964,2.29166 7.56263,-5.66444 9.8125,-6.78125 2.24987,-1.11681 1.25446,-2.30804 3.21875,-1.59375 1.96429,0.71429 2.50585,3.58511 0.53125,8.75 -1.9746,5.16489 -5.52678,8.19643 -9.8125,17.125 -4.28572,8.92857 -8.05803,14.30357 -9.84375,16.625 -1.78572,2.32143 -1.76785,10.87946 -2.125,12.84375 -0.35715,1.96429 -0.375,3.5625 -2.875,4.8125 -2.5,1.25 -3.73661,0.55803 -5.34375,2.34375 -1.60714,1.78572 -4.83482,6.77679 -8.40625,9.8125 -3.57143,3.03571 -11.125,8.75 -11.125,8.75 0,0 11.30135,-4.25435 22.9375,-12.0625 10.51431,-7.05536 20.50893,-17.59822 23.1875,-20.8125 14.94232,-18.3013 25.45174,-40.81337 26.625,-70.15625 0,0 -3.39285,-3.59375 -3.75,-7.34375 -0.35715,-3.75 -1.625,-12.85268 -9.125,-15.53125 -0.9375,-0.33482 -1.74979,-0.48465 -2.5,-0.5 z m -159.6875,24.8125 c 0.0977,-0.0108 0.18953,0.004 0.28125,0.0312 0.73382,0.22349 0.96521,1.65251 0.5,3.1875 -0.46521,1.53499 -1.45368,2.59849 -2.1875,2.375 -0.73382,-0.22349 -0.93396,-1.65251 -0.46875,-3.1875 0.40679,-1.34222 1.1912,-2.33046 1.875,-2.40625 z m -5.96875,0.40625 c 0.69736,7.6e-4 1.25059,0.74968 1.25,1.65625 -5.9e-4,0.90657 -0.55264,1.62576 -1.25,1.625 -0.69736,-7.6e-4 -1.28184,-0.71843 -1.28125,-1.625 5.9e-4,-0.90597 0.58435,-1.65616 1.28125,-1.65625 z m 161.03125,12.65625 c 0.0858,-0.002 0.16774,0.0366 0.25,0.0625 0.65817,0.20834 0.93508,1.23092 0.59375,2.3125 -0.34133,1.08158 -1.15433,1.80209 -1.8125,1.59375 -0.65817,-0.20834 -0.93508,-1.26217 -0.59375,-2.34375 0.29846,-0.94574 0.96206,-1.61353 1.5625,-1.625 z m -10.03125,50.53125 c 0.51303,0.0787 0.71094,0.96874 0.59375,2.375 -0.17857,2.14286 -1.54876,2.20402 -2.75,4.8125 -1.20124,2.60848 -10.70482,13.05 -13.5625,10.65625 0.36817,-1.5129 4.34271,-1.86092 4.125,-4.65625 0,-1.42857 0.54464,-1.87053 2.6875,-3.65625 2.14286,-1.78571 1.41072,-1.27679 3.375,-3.0625 1.96429,-1.78571 3.21875,-4.625 4.46875,-5.875 0.3125,-0.3125 0.58421,-0.50382 0.8125,-0.5625 0.0856,-0.022 0.17671,-0.0426 0.25,-0.0312 z m -90.03125,3.53125 c 0.071,-1.6e-4 0.12294,0.005 0.1875,0.0312 0.51645,0.211 0.6082,1.21656 0.1875,2.25 -0.4207,1.03344 -1.17105,1.711 -1.6875,1.5 -0.51645,-0.211 -0.6082,-1.21656 -0.1875,-2.25 0.36786,-0.90365 1.00295,-1.53013 1.5,-1.53125 z m -4.40625,5.25 c 0.69736,6.5e-4 1.25059,0.63915 1.25,1.40625 -5.9e-4,0.7671 -0.55264,1.37565 -1.25,1.375 -0.69736,-6.5e-4 -1.28184,-0.6079 -1.28125,-1.375 5.9e-4,-0.76659 0.58435,-1.40617 1.28125,-1.40625 z"
             style="fill:url(#radialGradient4121);fill-opacity:1;stroke:#66a3d7;stroke-width:1;stroke-miterlimit:4;stroke-opacity:1;stroke-dasharray:none;filter:url(#filter3980)" />
          <path
             sodipodi:type="arc"
             style="opacity:0.3;fill:url(#radialGradient4123);fill-opacity:1;stroke:none"
             id="path3848"
             sodipodi:cx="322.74374"
             sodipodi:cy="685.17175"
             sodipodi:rx="114.14724"
             sodipodi:ry="114.14724"
             d="m 322.83997,571.02455 c 63.04176,0.0532 114.10412,51.20167 114.05097,114.24343 -0.0531,63.04176 -51.20167,114.10412 -114.24342,114.05097 -63.04176,-0.0531 -114.10412,-51.20167 -114.05098,-114.24343 0.0531,-62.99953 51.13574,-114.04444 114.1353,-114.05101"
             sodipodi:start="4.713232"
             sodipodi:end="10.99547"
             sodipodi:open="true"
             transform="translate(49.303497,-158.99066)" />
          <path
             transform="translate(49.303497,-158.99066)"
             sodipodi:open="true"
             sodipodi:end="10.99547"
             sodipodi:start="4.713232"
             d="m 322.83997,571.02455 c 63.04176,0.0532 114.10412,51.20167 114.05097,114.24343 -0.0531,63.04176 -51.20167,114.10412 -114.24342,114.05097 -63.04176,-0.0531 -114.10412,-51.20167 -114.05098,-114.24343 0.0531,-62.99953 51.13574,-114.04444 114.1353,-114.05101"
             sodipodi:ry="114.14724"
             sodipodi:rx="114.14724"
             sodipodi:cy="685.17175"
             sodipodi:cx="322.74374"
             id="path3025-1"
             style="fill:url(#radialGradient4125);fill-opacity:1;stroke:none;filter:url(#filter4063)"
             sodipodi:type="arc" />
        </g>
      </g>
      <path
         sodipodi:nodetypes="ccccccc"
         inkscape:connector-curvature="0"
         id="path4107"
         d="M 622.25397,502.8392 355.57369,676.58544 446.48742,723.05246 294.96454,908.92052 561.64481,712.95092 466.69047,676.58544 z"
         style="fill:#ffff00;stroke:none" />
    </g>
  </g>
</svg>
