<?xml version="1.0" encoding="UTF-8" standalone="no"?>
<!-- Created with Inkscape (http://www.inkscape.org/) -->

<svg
   xmlns:dc="http://purl.org/dc/elements/1.1/"
   xmlns:cc="http://creativecommons.org/ns#"
   xmlns:rdf="http://www.w3.org/1999/02/22-rdf-syntax-ns#"
   xmlns:svg="http://www.w3.org/2000/svg"
   xmlns="http://www.w3.org/2000/svg"
   xmlns:sodipodi="http://sodipodi.sourceforge.net/DTD/sodipodi-0.dtd"
   xmlns:inkscape="http://www.inkscape.org/namespaces/inkscape"
   width="789.93549"
   height="481.32797"
   id="svg2"
   version="1.1"
   inkscape:version="0.48.4 r9939"
   inkscape:export-filename="/home/marguerite/fcitx-skin-howto2.png"
   inkscape:export-xdpi="33.68"
   inkscape:export-ydpi="33.68"
   sodipodi:docname="新建文档 1">
  <defs
     id="defs4" />
  <sodipodi:namedview
     id="base"
     pagecolor="#ffffff"
     bordercolor="#666666"
     borderopacity="1.0"
     inkscape:pageopacity="0.0"
     inkscape:pageshadow="2"
     inkscape:zoom="0.5"
     inkscape:cx="371.37968"
     inkscape:cy="217.8557"
     inkscape:document-units="px"
     inkscape:current-layer="layer1"
     showgrid="false"
     showguides="true"
     inkscape:guide-bbox="true"
     fit-margin-top="10"
     fit-margin-left="10"
     fit-margin-right="10"
     fit-margin-bottom="10"
     inkscape:window-width="1024"
     inkscape:window-height="721"
     inkscape:window-x="-2"
     inkscape:window-y="-3"
     inkscape:window-maximized="1">
    <sodipodi:guide
       orientation="1,0"
       position="-440.87601,667.27828"
       id="guide2991" />
    <sodipodi:guide
       orientation="1,0"
       position="1283.1239,695.27828"
       id="guide2993" />
  </sodipodi:namedview>
  <metadata
     id="metadata7">
    <rdf:RDF>
      <cc:Work
         rdf:about="">
        <dc:format>image/svg+xml</dc:format>
        <dc:type
           rdf:resource="http://purl.org/dc/dcmitype/StillImage" />
        <dc:title></dc:title>
      </cc:Work>
    </rdf:RDF>
  </metadata>
  <g
     inkscape:label="Layer 1"
     inkscape:groupmode="layer"
     id="layer1"
     transform="translate(21.123991,-304.3125)">
    <flowRoot
       xml:space="preserve"
       id="flowRoot3044"
       style="font-size:40px;font-style:normal;font-weight:normal;line-height:125%;letter-spacing:0px;word-spacing:0px;fill:#000000;fill-opacity:1;stroke:none;font-family:Sans"><flowRegion
         id="flowRegion3046"><rect
           id="rect3048"
           width="157.33333"
           height="45.333332"
           x="199.33333"
           y="331.02884" /></flowRegion><flowPara
         id="flowPara3050"></flowPara></flowRoot>    <rect
       style="fill:#ffff00;fill-opacity:1;stroke:none"
       id="rect3127"
       width="769.93549"
       height="458"
       x="-11.123991"
       y="317.64047" />
    <path
       inkscape:connector-curvature="0"
       style="fill:#ff6600;fill-opacity:1;stroke:none"
       d="m 85.71875,396.65625 c -23.742855,0 -42.875,19.10089 -42.875,42.84375 l 0,45.71875 88.59375,0 0,-88.5625 -45.71875,0 z"
       id="rect2985" />
    <path
       style="fill:#2a7fff;fill-opacity:1;stroke:none"
       d="m 131.4375,396.65625 0,88.5625 486.71875,0 0,-88.5625 -486.71875,0 z"
       id="path3009"
       inkscape:connector-curvature="0" />
    <path
       id="path3020"
       d="m 663.57554,396.25015 c 23.9606,0 43.26821,19.70734 43.26821,44.20404 l 0,47.17031 -89.40625,0 0,-91.37435 46.13804,0 z"
       style="fill:#ff6600;fill-opacity:1;stroke:none"
       inkscape:connector-curvature="0" />
    <path
       id="path3022"
       d="m 42.859375,668.35937 c 0,23.74286 19.10089,42.875 42.84375,42.875 l 45.718745,0 0,-88.59375 -88.562495,0 0,45.71875 z"
       style="fill:#ff6600;fill-opacity:1;stroke:none"
       inkscape:connector-curvature="0" />
    <path
       inkscape:connector-curvature="0"
       style="fill:#ff6600;fill-opacity:1;stroke:none"
       d="m 706.8278,668.85653 c 0,23.69242 -19.49166,42.78392 -43.72027,42.78392 l -46.65408,0 0,-88.40554 90.37435,0 0,45.62162 z"
       id="path3024" />
    <path
       inkscape:connector-curvature="0"
       id="path3026"
       d="m 131.4375,622.65625 0,88.5625 485.71875,0 0,-88.5625 -485.71875,0 z"
       style="fill:#0066ff;fill-opacity:1;stroke:none" />
    <rect
       style="fill:#d40000;fill-opacity:1;stroke:none"
       id="rect3028"
       width="488.71429"
       height="140.25792"
       x="131.42857"
       y="485.14291"
       ry="0" />
    <path
       inkscape:connector-curvature="0"
       id="path3030"
       d="m 131.57812,485.07812 -88.5625,0 0,140.25996 88.56251,0 -10e-6,-140.25996 z"
       style="fill:#2a7fff;fill-opacity:1;stroke:none" />
    <path
       style="fill:#2a7fff;fill-opacity:1;stroke:none"
       d="m 706.57812,485.53691 -88.5625,0 0,140.25996 88.56251,0 -10e-6,-140.25996 z"
       id="path3032"
       inkscape:connector-curvature="0" />
    <text
       xml:space="preserve"
       style="font-size:40px;font-style:normal;font-weight:normal;line-height:125%;letter-spacing:0px;word-spacing:0px;fill:#000000;fill-opacity:1;stroke:none;font-family:Sans"
       x="201.33333"
       y="409.69553"
       id="text3052"
       sodipodi:linespacing="125%"><tspan
         sodipodi:role="line"
         id="tspan3054"
         x="201.33333"
         y="409.69553">边距</tspan></text>
    <path
       id="path3057"
       d="m 169.15603,316.97917 -13.29499,23.07247 8.94282,0 0,121.74158 8.70434,0 0,-121.74158 8.94282,0 -13.29499,-23.07247 z m -13.9508,145.05253 13.29499,23.07247 13.35461,-23.07247 -26.6496,0 z"
       style="fill:#000000;fill-opacity:1;stroke:none"
       inkscape:connector-curvature="0" />
    <text
       xml:space="preserve"
       style="font-size:40px;font-style:normal;font-weight:normal;line-height:125%;letter-spacing:0px;word-spacing:0px;fill:#000000;fill-opacity:1;stroke:none;font-family:Sans"
       x="128"
       y="518.36218"
       id="text3063"
       sodipodi:linespacing="125%"><tspan
         sodipodi:role="line"
         id="tspan3065"
         x="128"
         y="518.36218"
         style="fill:#ffff00">我能吞玻璃不伤身体哦</tspan><tspan
         sodipodi:role="line"
         x="128"
         y="568.36218"
         style="fill:#ffff00"
         id="tspan3149" /><tspan
         sodipodi:role="line"
         x="128"
         y="618.36218"
         id="tspan3067"
         style="fill:#ffff00">1. 我能 2. 吞玻璃 3 不伤</tspan></text>
    <path
       inkscape:connector-curvature="0"
       style="fill:#000000;fill-opacity:1;stroke:none"
       d="m 128.87601,317.625 0,458 4,0 0,-458 -4,0 z"
       id="rect3195" />
    <path
       inkscape:connector-curvature="0"
       style="fill:#000000;fill-opacity:1;stroke:none"
       d="m -11.123991,483.625 0,4 769.937501,0 0,-4 -769.937501,0 z"
       id="rect3199" />
    <path
       id="path3247"
       d="m -11.123991,623.625 0,4 769.937501,0 0,-4 -769.937501,0 z"
       style="fill:#000000;fill-opacity:1;stroke:none"
       inkscape:connector-curvature="0" />
    <path
       id="path3249"
       d="m 614.87601,317.625 0,458 4,0 0,-458 -4,0 z"
       style="fill:#000000;fill-opacity:1;stroke:none"
       inkscape:connector-curvature="0" />
  </g>
</svg>
