<?xml version="1.0" encoding="UTF-8" standalone="no"?>
<!-- Created with Inkscape (http://www.inkscape.org/) -->

<svg
   xmlns:dc="http://purl.org/dc/elements/1.1/"
   xmlns:cc="http://creativecommons.org/ns#"
   xmlns:rdf="http://www.w3.org/1999/02/22-rdf-syntax-ns#"
   xmlns:svg="http://www.w3.org/2000/svg"
   xmlns="http://www.w3.org/2000/svg"
   xmlns:xlink="http://www.w3.org/1999/xlink"
   xmlns:sodipodi="http://sodipodi.sourceforge.net/DTD/sodipodi-0.dtd"
   xmlns:inkscape="http://www.inkscape.org/namespaces/inkscape"
   width="594.6626"
   height="622.50458"
   id="svg2"
   sodipodi:version="0.32"
   inkscape:version="0.48.4 r9939"
   sodipodi:docname="Gentoo-logo.svg"
   version="1.0">
  <defs
     id="defs4">
    <linearGradient
       id="linearGradient2096">
      <stop
         style="stop-color:#7e3615;stop-opacity:1.0000000;"
         offset="0.0000000"
         id="stop2098" />
      <stop
         id="stop2100"
         offset="0.50000000"
         style="stop-color:#7e3615;stop-opacity:1.0000000;" />
      <stop
         style="stop-color:#ed5b1a;stop-opacity:1.0000000;"
         offset="1.0000000"
         id="stop2102" />
    </linearGradient>
    <linearGradient
       id="linearGradient2085">
      <stop
         style="stop-color:#7f3615;stop-opacity:1.0000000;"
         offset="0.0000000"
         id="stop2087" />
      <stop
         id="stop2089"
         offset="0.50000000"
         style="stop-color:#ef743d;stop-opacity:1.0000000;" />
      <stop
         style="stop-color:#ef743d;stop-opacity:1.0000000;"
         offset="1.0000000"
         id="stop2091" />
    </linearGradient>
    <linearGradient
       id="linearGradient2077">
      <stop
         id="stop2079"
         offset="0.0000000"
         style="stop-color:#ed5b1a;stop-opacity:1.0000000;" />
      <stop
         style="stop-color:#ed5b1a;stop-opacity:1.0000000;"
         offset="0.50000000"
         id="stop2083" />
      <stop
         id="stop2081"
         offset="1.0000000"
         style="stop-color:#7e3615;stop-opacity:1.0000000;" />
    </linearGradient>
    <linearGradient
       inkscape:collect="always"
       id="linearGradient3560">
      <stop
         style="stop-color:#ffffff;stop-opacity:1;"
         offset="0"
         id="stop3562" />
      <stop
         style="stop-color:#ffffff;stop-opacity:0;"
         offset="1"
         id="stop3564" />
    </linearGradient>
    <linearGradient
       inkscape:collect="always"
       id="linearGradient3539">
      <stop
         style="stop-color:#ffffff;stop-opacity:1;"
         offset="0"
         id="stop3541" />
      <stop
         style="stop-color:#ffffff;stop-opacity:0;"
         offset="1"
         id="stop3543" />
    </linearGradient>
    <linearGradient
       id="linearGradient3004">
      <stop
         id="stop3006"
         offset="0"
         style="stop-color:#ffffff;stop-opacity:1;" />
      <stop
         style="stop-color:#ffffff;stop-opacity:1;"
         offset="0.34214258"
         id="stop7609" />
      <stop
         style="stop-color:#bebdf3;stop-opacity:1;"
         offset="0.51998252"
         id="stop7599" />
      <stop
         id="stop7611"
         offset="0.75408828"
         style="stop-color:#8f82f9;stop-opacity:1;" />
      <stop
         style="stop-color:#9f99c7;stop-opacity:1;"
         offset="0.8711412"
         id="stop7613" />
      <stop
         id="stop3008"
         offset="1"
         style="stop-color:#524c76;stop-opacity:1;" />
    </linearGradient>
    <linearGradient
       id="linearGradient2988">
      <stop
         style="stop-color:#c9491c;stop-opacity:1.0000000;"
         offset="0.0000000"
         id="stop2990" />
      <stop
         style="stop-color:#6b2e26;stop-opacity:1.0000000;"
         offset="1.0000000"
         id="stop2992" />
    </linearGradient>
    <linearGradient
       id="linearGradient2980">
      <stop
         style="stop-color:#e76226;stop-opacity:1.0000000;"
         offset="0.0000000"
         id="stop2982" />
      <stop
         style="stop-color:#7e3615;stop-opacity:1.0000000;"
         offset="1.0000000"
         id="stop2984" />
    </linearGradient>
    <linearGradient
       id="linearGradient2127">
      <stop
         style="stop-color:#cc0045;stop-opacity:1.0000000;"
         offset="0.0000000"
         id="stop2129" />
      <stop
         style="stop-color:#ff794d;stop-opacity:1.0000000;"
         offset="1.0000000"
         id="stop2131" />
    </linearGradient>
    <linearGradient
       inkscape:collect="always"
       xlink:href="#linearGradient3004"
       id="linearGradient2986"
       x1="464.01675"
       y1="697.43707"
       x2="368.62137"
       y2="269.70941"
       gradientUnits="userSpaceOnUse"
       gradientTransform="matrix(1.237124,0,0,1.237124,-161.0905,-377.3414)" />
    <linearGradient
       inkscape:collect="always"
       xlink:href="#linearGradient3004"
       id="linearGradient2994"
       x1="783.86316"
       y1="-313.5238"
       x2="1099.6853"
       y2="1340.5599"
       gradientUnits="userSpaceOnUse"
       gradientTransform="matrix(1.237124,0,0,1.237124,-1037.425,-1010.413)" />
    <linearGradient
       inkscape:collect="always"
       xlink:href="#linearGradient3004"
       id="linearGradient2786"
       gradientUnits="userSpaceOnUse"
       x1="142.8909"
       y1="560.31262"
       x2="305.19791"
       y2="560.31262" />
    <radialGradient
       inkscape:collect="always"
       xlink:href="#linearGradient3004"
       id="radialGradient2788"
       gradientUnits="userSpaceOnUse"
       gradientTransform="matrix(-2.182864e-2,-1.020879,1.918033,-4.101524e-2,-759.031,896.8714)"
       cx="298.04648"
       cy="512.46417"
       fx="298.04648"
       fy="512.46417"
       r="218.02184" />
    <linearGradient
       inkscape:collect="always"
       xlink:href="#linearGradient3004"
       id="linearGradient2801"
       gradientUnits="userSpaceOnUse"
       x1="34.285702"
       y1="185.21933"
       x2="-32.857155"
       y2="205.21933"
       gradientTransform="matrix(0.413051,0,0,0.413051,209.7551,299.5351)" />
    <radialGradient
       inkscape:collect="always"
       xlink:href="#linearGradient3539"
       id="radialGradient3553"
       cx="278.19101"
       cy="365.99103"
       fx="278.19101"
       fy="365.99103"
       r="22.023195"
       gradientTransform="matrix(-1.335307,0.232165,-0.156016,-0.897333,707.4359,624.6685)"
       gradientUnits="userSpaceOnUse" />
    <radialGradient
       inkscape:collect="always"
       xlink:href="#linearGradient3560"
       id="radialGradient3566"
       cx="281.96429"
       cy="374.32648"
       fx="281.96429"
       fy="374.32648"
       r="30.535715"
       gradientTransform="matrix(1.586984,6.491459e-2,-3.791318e-3,0.906694,-164.0892,16.62349)"
       gradientUnits="userSpaceOnUse" />
    <radialGradient
       inkscape:collect="always"
       xlink:href="#linearGradient2085"
       id="radialGradient2075"
       cx="616.66583"
       cy="357.7851"
       fx="616.66583"
       fy="357.7851"
       r="77.994896"
       gradientTransform="matrix(-0.784367,2.082605,-1.36893,-0.515577,1619.589,-726.3586)"
       gradientUnits="userSpaceOnUse" />
    <radialGradient
       inkscape:collect="always"
       xlink:href="#linearGradient3004"
       id="radialGradient3228"
       gradientUnits="userSpaceOnUse"
       gradientTransform="matrix(-6.60395e-2,4.190266,-3.573754,-5.626827e-2,2168.154,-1171.421)"
       cx="332.72311"
       cy="590.5899"
       fx="332.72311"
       fy="590.5899"
       r="218.02184" />
    <radialGradient
       inkscape:collect="always"
       xlink:href="#linearGradient3004"
       id="radialGradient5851"
       cx="49.529819"
       cy="320.08572"
       fx="49.529819"
       fy="320.08572"
       r="31.94874"
       gradientTransform="matrix(3.287367,0,0,2.519654,111.6891,-642.7214)"
       gradientUnits="userSpaceOnUse" />
  </defs>
  <sodipodi:namedview
     id="base"
     pagecolor="#ffffff"
     bordercolor="#666666"
     borderopacity="1.0"
     inkscape:pageopacity="0.0"
     inkscape:pageshadow="2"
     inkscape:zoom="0.5"
     inkscape:cx="357.31553"
     inkscape:cy="150.89946"
     inkscape:document-units="px"
     inkscape:current-layer="layer5"
     inkscape:window-width="1020"
     inkscape:window-height="711"
     inkscape:window-x="0"
     inkscape:window-y="0"
     showgrid="false"
     inkscape:window-maximized="0" />
  <metadata
     id="metadata7">
    <rdf:RDF>
      <cc:Work
         rdf:about="">
        <dc:format>image/svg+xml</dc:format>
        <dc:type
           rdf:resource="http://purl.org/dc/dcmitype/StillImage" />
      </cc:Work>
    </rdf:RDF>
  </metadata>
  <g
     inkscape:groupmode="layer"
     id="layer2"
     inkscape:label="back"
     style="display:inline"
     transform="translate(-25.69105,-25.5213)" />
  <g
     inkscape:groupmode="layer"
     id="layer4"
     inkscape:label="mid"
     style="display:inline"
     transform="translate(-25.69105,-25.5213)" />
  <g
     inkscape:groupmode="layer"
     id="layer5"
     inkscape:label="top"
     style="display:inline"
     transform="translate(-25.69105,-25.5213)">
    <g
       id="g3035">
      <path
         inkscape:connector-curvature="0"
         sodipodi:nodetypes="cscssssssssssscss"
         d="M 25.756851,521.91391 C 25.825031,495.65357 48.148853,458.98977 79.868697,425.68116 101.06675,403.42137 122.59556,383.88231 169.52585,343.86782 137.06358,326.05537 86.575337,304.5643 61.242464,276.41883 51.868932,266.00461 34.879101,242.4107 38.174477,210.88878 44.890902,146.64282 124.18914,49.142619 236.90525,28.529375 c 37.50415,-6.858661 80.56354,-1.907781 116.00271,14.024919 111.18036,49.984243 247.14797,174.162266 263.8771,234.794926 5.88837,21.34165 4.75656,55.36025 -5.39475,74.31982 -12.58141,23.49823 -56.1358,71.22495 -115.72484,120.47315 -93.4994,77.2739 -224.52102,160.24847 -322.35291,174.21052 -31.611,4.51135 -63.90775,-0.19399 -86.572466,-12.98278 C 51.279241,613.36083 39.508186,586.6468 35.370326,578.63961 24.367104,557.34729 25.73287,530.37254 25.756851,521.91391 z M 288.89937,226.87362 c 1.20738,-14.88942 59.59326,-0.0658 55.90415,11.72547 -3.89197,12.43966 -57.28926,5.35537 -55.90415,-11.72547 z"
         style="display:inline;fill:url(#linearGradient2994);fill-opacity:1;fill-rule:evenodd;stroke:none"
         id="path2973" />
      <path
         inkscape:connector-curvature="0"
         sodipodi:nodetypes="csssssssccssss"
         d="M 201.12502,319.26488 C 170.40092,345.206 149.97273,362.69737 124.3619,386.10521 62.686019,442.47585 20.779962,485.38384 42.384986,544.03745 67.307886,611.6985 121.94112,608.26771 186.00654,595.69143 351.14346,563.12161 622.59855,354.43165 608.76251,277.34931 597.56708,214.97818 445.90819,90.975251 356.11423,46.84913 328.062,33.063819 295.73224,25.934162 263.30502,27.459889 139.83437,33.287522 43.410732,145.70192 48.3364,206.6102 53.12843,265.866 202.89233,317.49757 201.12502,319.26488 z M 182.59146,112.40184 c -37.15326,41.33629 -13.39873,121.3113 48.21486,164.90276 72.09526,51.00721 188.8443,60.24272 212.0774,20.90556 43.33515,-73.37278 -3.98029,-150.9555 -74.61054,-185.56335 -69.7954,-34.198724 -162.52227,-26.01189 -185.68172,-0.24497 z"
         style="display:inline;fill:url(#linearGradient2986);fill-opacity:1;fill-rule:evenodd;stroke:none"
         id="path2975" />
      <path
         inkscape:connector-curvature="0"
         sodipodi:nodetypes="csssscss"
         d="m 309.29559,275.57053 c 52.15894,7.24994 97.11719,-13.63858 104.1475,-65.14342 5.35537,-39.2337 -54.68938,-82.09994 -90.78995,-91.98681 -30.14631,-8.25614 -95.59547,2.36034 -100.00778,59.37779 -4.58678,59.27202 56.23678,93.52508 86.65023,97.75244 z m -25.54268,-98.581 c -34.27878,53.10396 49.77027,69.43027 62.63837,59.7456 55.47708,-41.75261 -47.53597,-83.14191 -62.63837,-59.7456 z"
         style="display:inline;fill:url(#radialGradient5851);fill-opacity:1;fill-rule:evenodd;stroke:none"
         id="path4976" />
      <path
         inkscape:connector-curvature="0"
         sodipodi:nodetypes="cssssssssssscsscsss"
         id="path2977"
         d="M 253.35285,41.570018 C 192.71898,47.959829 181.10644,55.76371 126.17687,97.322591 107.767,111.25125 73.883463,145.14202 65.201668,185.34831 c -3.306505,15.31275 0.601944,28.53259 11.630184,37.80412 35.312998,29.68796 94.416058,53.77395 142.904478,77.05704 14.20232,6.81964 4.79874,19.18504 -18.10392,39.01252 -57.79173,50.03186 -135.926941,110.93446 -141.3817,157.34203 -2.570415,21.86837 4.916125,51.5832 31.459397,66.7898 31.006723,17.76369 95.372133,6.16955 138.351373,-9.835 62.80599,-23.38762 145.30781,-75.00368 210.80628,-125.74104 68.11013,-52.76042 131.43764,-119.77326 134.57017,-130.70294 3.84668,-13.42147 3.46325,-25.81795 -3.96035,-40.07068 C 559.81983,234.62227 544.23417,217.99109 527.49924,199.37578 482.59667,152.03725 435.087,110.44129 378.2447,78.565883 337.19672,55.547464 301.08129,36.540217 253.35285,41.570018 z m 89.06787,106.129442 c 43.80514,21.17863 88.78971,76.80693 -0.39035,108.8248 -24.25015,8.70642 -101.15792,-21.38222 -98.80358,-62.4438 3.43316,-60.65568 45.70723,-72.24041 99.19393,-46.381 z"
         style="fill:url(#radialGradient3228);fill-opacity:1;fill-rule:evenodd;stroke:none" />
    </g>
  </g>
</svg>
