<?xml version="1.0" encoding="UTF-8" standalone="no"?>
<!-- Created with Inkscape (http://www.inkscape.org/) -->

<svg
   xmlns:dc="http://purl.org/dc/elements/1.1/"
   xmlns:cc="http://creativecommons.org/ns#"
   xmlns:rdf="http://www.w3.org/1999/02/22-rdf-syntax-ns#"
   xmlns:svg="http://www.w3.org/2000/svg"
   xmlns="http://www.w3.org/2000/svg"
   xmlns:sodipodi="http://sodipodi.sourceforge.net/DTD/sodipodi-0.dtd"
   xmlns:inkscape="http://www.inkscape.org/namespaces/inkscape"
   width="594.28571"
   height="365.71429"
   id="svg2"
   version="1.1"
   inkscape:version="0.48.4 r9939"
   inkscape:export-filename="/home/marguerite/harddisk.png"
   inkscape:export-xdpi="75.720001"
   inkscape:export-ydpi="75.720001"
   sodipodi:docname="harddisk.svg">
  <defs
     id="defs4" />
  <sodipodi:namedview
     id="base"
     pagecolor="#ffffff"
     bordercolor="#666666"
     borderopacity="1.0"
     inkscape:pageopacity="0.0"
     inkscape:pageshadow="2"
     inkscape:zoom="0.7"
     inkscape:cx="537.09464"
     inkscape:cy="90.86382"
     inkscape:document-units="px"
     inkscape:current-layer="layer1"
     showgrid="false"
     showguides="true"
     inkscape:guide-bbox="true"
     fit-margin-top="0"
     fit-margin-left="0"
     fit-margin-right="0"
     fit-margin-bottom="0"
     inkscape:window-width="1024"
     inkscape:window-height="718"
     inkscape:window-x="-2"
     inkscape:window-y="-3"
     inkscape:window-maximized="1" />
  <metadata
     id="metadata7">
    <rdf:RDF>
      <cc:Work
         rdf:about="">
        <dc:format>image/svg+xml</dc:format>
        <dc:type
           rdf:resource="http://purl.org/dc/dcmitype/StillImage" />
        <dc:title></dc:title>
      </cc:Work>
    </rdf:RDF>
  </metadata>
  <g
     inkscape:label="Layer 1"
     inkscape:groupmode="layer"
     id="layer1"
     transform="translate(-54.285713,-295.21933)">
    <rect
       style="fill:#2e3436;fill-opacity:1;stroke:none"
       id="rect2985"
       width="594.28571"
       height="365.71429"
       x="54.285713"
       y="295.21933"
       rx="2"
       ry="2" />
    <path
       sodipodi:type="arc"
       style="fill:#e35001;fill-opacity:1;stroke:none"
       id="path3755"
       sodipodi:cx="453.57144"
       sodipodi:cy="470.21933"
       sodipodi:rx="147.85715"
       sodipodi:ry="147.85715"
       d="m 453.69609,322.36224 a 147.85715,147.85715 0 1 1 -0.14007,-6e-5"
       sodipodi:start="4.713232"
       sodipodi:end="10.99547"
       sodipodi:open="true"
       transform="matrix(1.1352657,0,0,1.1352657,-47.066943,-55.747401)" />
    <path
       inkscape:connector-curvature="0"
       style="fill:#8c0000;fill-opacity:1;stroke:none"
       d="m 467.84375,423.0625 c -30.35532,0.003 -54.97441,24.61344 -55,54.96875 -0.0256,30.37565 24.5931,55.00564 54.96875,55.03125 30.37565,0.0256 55.00564,-24.56185 55.03125,-54.9375 0.0256,-30.37565 -24.56185,-55.03689 -54.9375,-55.0625 l -0.0625,0 z m 0,6.8125 0.0312,0 c 4.83249,0.004 8.72282,3.91751 8.71875,8.75 -0.004,4.83249 -3.91751,8.75407 -8.75,8.75 -4.83249,-0.004 -8.75407,-3.94876 -8.75,-8.78125 0.004,-4.82925 3.92074,-8.71825 8.75,-8.71875 z m -39.28125,39.4375 0.0312,0 c 4.83249,0.004 8.72282,3.94876 8.71875,8.78125 -0.004,4.83249 -3.91751,8.72282 -8.75,8.71875 -4.83249,-0.004 -8.75407,-3.91751 -8.75,-8.75 0.004,-4.82925 3.92074,-8.7495 8.75,-8.75 z m 78.9375,0 c 4.83249,0.004 8.75407,3.94876 8.75,8.78125 -0.004,4.83249 -3.91751,8.72282 -8.75,8.71875 -4.83249,-0.004 -8.75407,-3.91751 -8.75,-8.75 0.004,-4.82925 3.92074,-8.7495 8.75,-8.75 z m -39.65625,40.1875 0.0312,0 c 4.83249,0.004 8.72282,3.91751 8.71875,8.75 -0.004,4.83249 -3.91751,8.75407 -8.75,8.75 -4.83249,-0.004 -8.75407,-3.91751 -8.75,-8.75 0.004,-4.82925 3.92074,-8.7495 8.75,-8.75 z"
       id="path3757" />
    <path
       transform="matrix(0.52941175,0,0,0.52941175,220.54624,225.73348)"
       sodipodi:open="true"
       sodipodi:end="10.99547"
       sodipodi:start="4.713232"
       d="m 467.1838,428.07648 a 48.57143,48.57143 0 1 1 -0.046,-2e-5"
       sodipodi:ry="48.57143"
       sodipodi:rx="48.57143"
       sodipodi:cy="476.64789"
       sodipodi:cx="467.14285"
       id="path3759"
       style="fill:#ffffff;fill-opacity:1;stroke:none"
       sodipodi:type="arc" />
    <path
       style="fill:#227808;fill-opacity:1;stroke:none"
       d="m 252.62855,369.45827 c -105.85357,0.21181 -191.561333,86.14228 -191.449757,191.99602 0.0037,3.479 0.104883,6.93824 0.291431,10.37144 l 129.445666,-0.24556 c -0.55297,-3.34408 -0.87637,-6.77951 -0.88006,-10.27975 -0.0366,-34.74589 28.09126,-62.96104 62.83708,-63.03058 l 0.0453,-4e-5 c 4.50689,-0.005 8.89753,0.43838 13.13737,1.33386 l -0.24609,-129.71748 c -4.2946,-0.28275 -8.63268,-0.43286 -12.99977,-0.42825 l -0.18118,3.8e-4 z"
       id="path3771"
       inkscape:connector-curvature="0" />
    <path
       style="fill:#94d006;fill-opacity:1;stroke:none"
       d="m 236.35209,509.34599 c -28.41461,10.05822 -43.91632,41.55886 -34.68609,70.90392 9.23958,29.37459 39.80466,45.56819 68.59651,36.59363 0.01,-0.003 0.0191,-0.007 0.0289,-0.01 0.0684,-0.0217 0.13406,-0.0457 0.20259,-0.0674 l -0.0188,-0.0595 151.5147,-108.70443 -185.37824,1.35552 -0.0281,-0.0891 c -0.0678,0.0236 -0.13487,0.0438 -0.20259,0.0674 l -0.0289,0.01 z m 4.8482,13.03727 0.0289,-0.01 c 21.38079,-7.09576 44.30563,4.94517 51.21367,26.90709 6.908,21.96193 -4.81431,45.50987 -26.1951,52.60567 -21.3808,7.09576 -44.33457,-4.93554 -51.24261,-26.89746 -6.90345,-21.94719 4.83518,-45.49382 26.1951,-52.60566 z"
       id="path3782"
       inkscape:connector-curvature="0" />
    <path
       transform="matrix(1.2597033,0,0,1.2597033,-75.943852,-31.84325)"
       sodipodi:open="true"
       sodipodi:end="10.99547"
       sodipodi:start="4.713232"
       d="m 263.24139,443.79077 a 27.50392,27.50392 0 1 1 -0.0261,-1e-5"
       sodipodi:ry="27.50392"
       sodipodi:rx="27.50392"
       sodipodi:cy="471.29468"
       sodipodi:cx="263.2182"
       id="path3796"
       style="fill:#94d006;fill-opacity:1;stroke:none"
       sodipodi:type="arc" />
    <rect
       style="fill:#ffffff;fill-opacity:0.94117647;stroke:none"
       id="rect3801"
       width="25.714285"
       height="25.714285"
       x="242.77585"
       y="548.99109"
       rx="5.9285712"
       ry="5.9285712" />
    <flowRoot
       xml:space="preserve"
       id="flowRoot3803"
       style="font-size:12px;font-style:normal;font-variant:normal;font-weight:normal;font-stretch:normal;line-height:125%;letter-spacing:0px;word-spacing:0px;fill:#000000;fill-opacity:1;stroke:none;font-family:'文泉驿微米黑';-inkscape-font-specification:'文泉驿微米黑'"
       transform="matrix(3.9690722,0,0,3.9690722,-1171.5309,-1034.6697)"><flowRegion
         id="flowRegion3805"><rect
           id="rect3807"
           width="134.3503"
           height="50.507626"
           x="393.9595"
           y="346.26556" /></flowRegion><flowPara
         id="flowPara3809">盘面</flowPara></flowRoot>    <flowRoot
       xml:space="preserve"
       id="flowRoot3811"
       style="font-size:12px;font-style:normal;font-variant:normal;font-weight:normal;font-stretch:normal;line-height:125%;letter-spacing:0px;word-spacing:0px;fill:#000000;fill-opacity:1;stroke:none;font-family:'文泉驿微米黑';-inkscape-font-specification:'文泉驿微米黑'"
       transform="matrix(1.8643457,0,0,1.8643457,-391.72996,-396.78162)"><flowRegion
         id="flowRegion3813"><rect
           id="rect3815"
           width="41.416256"
           height="30.304577"
           x="449.51788"
           y="461.42294" /></flowRegion><flowPara
         id="flowPara3817">主轴</flowPara></flowRoot>    <flowRoot
       xml:space="preserve"
       id="flowRoot3819"
       style="font-size:12px;font-style:normal;font-variant:normal;font-weight:normal;font-stretch:normal;line-height:125%;letter-spacing:0px;word-spacing:0px;fill:#000000;fill-opacity:1;stroke:none;font-family:'文泉驿微米黑';-inkscape-font-specification:'文泉驿微米黑'"
       transform="matrix(1.923568,0,0,1.923568,-312.38246,-463.35525)"><flowRegion
         id="flowRegion3821"><rect
           id="rect3823"
           width="51.51778"
           height="35.355339"
           x="357.59399"
           y="503.84937" /></flowRegion><flowPara
         id="flowPara3825">磁头</flowPara></flowRoot>    <flowRoot
       xml:space="preserve"
       id="flowRoot3827"
       style="font-size:12px;font-style:normal;font-variant:normal;font-weight:normal;font-stretch:normal;line-height:125%;letter-spacing:0px;word-spacing:0px;fill:#000000;fill-opacity:1;stroke:none;font-family:'文泉驿微米黑';-inkscape-font-specification:'文泉驿微米黑'"
       transform="matrix(2.3329848,0,0,2.3329848,-395.33413,-693.46203)"><flowRegion
         id="flowRegion3829"><rect
           id="rect3831"
           width="48.487324"
           height="30.304577"
           x="295.9747"
           y="517.99152" /></flowRegion><flowPara
         id="flowPara3833">动臂</flowPara></flowRoot>    <flowRoot
       xml:space="preserve"
       id="flowRoot3835"
       style="font-size:12px;font-style:normal;font-variant:normal;font-weight:normal;font-stretch:normal;line-height:125%;letter-spacing:0px;word-spacing:0px;fill:#000000;fill-opacity:1;stroke:none;font-family:'文泉驿微米黑';-inkscape-font-specification:'文泉驿微米黑'"
       transform="matrix(3.2849189,0,0,3.2849189,-356.84006,-980.79715)"><flowRegion
         id="flowRegion3837"><rect
           id="rect3839"
           width="65.659912"
           height="38.385796"
           x="155.56349"
           y="427.07776" /></flowRegion><flowPara
         id="flowPara3841">泊区</flowPara></flowRoot>    <rect
       style="fill:#ffffff;fill-opacity:0.94117647;stroke:none"
       id="rect3873"
       width="111.78571"
       height="32"
       x="523.21429"
       y="464.29077"
       rx="5.9285712"
       ry="5.7739129" />
    <rect
       style="fill:#ff0000;fill-opacity:0.94117647000000004;stroke:none"
       id="rect3875"
       width="27.142857"
       height="32"
       x="527.32147"
       y="464.29077"
       rx="0"
       ry="0" />
    <rect
       ry="0"
       rx="0"
       y="464.29077"
       x="555.89288"
       height="32"
       width="27.142857"
       id="rect3877"
       style="fill:#ff5555;fill-opacity:0.94117647000000004;stroke:none" />
    <rect
       style="fill:#ff5555;fill-opacity:0.94117647000000004;stroke:none"
       id="rect3879"
       width="27.142857"
       height="32"
       x="585.17859"
       y="464.29077"
       rx="0"
       ry="0" />
    <rect
       ry="0"
       rx="0"
       y="464.29077"
       x="614.82147"
       height="32"
       width="14.642858"
       id="rect3881"
       style="fill:#ff5555;fill-opacity:0.94117647000000004;stroke:none" />
    <flowRoot
       xml:space="preserve"
       id="flowRoot3883"
       style="font-size:12px;font-style:normal;font-variant:normal;font-weight:normal;font-stretch:normal;line-height:125%;letter-spacing:0px;word-spacing:0px;fill:#000000;fill-opacity:1;stroke:none;font-family:'文泉驿微米黑';-inkscape-font-specification:'文泉驿微米黑'"
       transform="translate(60.643877,296.5319)"><flowRegion
         id="flowRegion3885"><rect
           id="rect3887"
           width="20.714285"
           height="17.857143"
           x="476.42856"
           y="176.07144" /></flowRegion><flowPara
         id="flowPara3889">C</flowPara></flowRoot>    <rect
       style="fill:#ff2a2a;fill-opacity:0.94117647000000004;stroke:none"
       id="rect3915"
       width="23.571428"
       height="32"
       x="555.89288"
       y="464.29077"
       rx="0"
       ry="0" />
    <flowRoot
       xml:space="preserve"
       id="flowRoot3891"
       style="font-size:12px;font-style:normal;font-variant:normal;font-weight:normal;font-stretch:normal;line-height:125%;letter-spacing:0px;word-spacing:0px;fill:#000000;fill-opacity:1;stroke:none;font-family:'文泉驿微米黑';-inkscape-font-specification:'文泉驿微米黑'"
       transform="translate(58.361773,297.24772)"><flowRegion
         id="flowRegion3893"><rect
           id="rect3895"
           width="18.214285"
           height="18.571428"
           x="506.78571"
           y="175.35715" /></flowRegion><flowPara
         id="flowPara3897">D</flowPara></flowRoot>    <flowRoot
       xml:space="preserve"
       id="flowRoot3899"
       style="font-size:12px;font-style:normal;font-variant:normal;font-weight:normal;font-stretch:normal;line-height:125%;letter-spacing:0px;word-spacing:0px;fill:#000000;fill-opacity:1;stroke:none;font-family:'文泉驿微米黑';-inkscape-font-specification:'文泉驿微米黑'"
       transform="translate(57.860369,297.24772)"><flowRegion
         id="flowRegion3901"><rect
           id="rect3903"
           width="17.142857"
           height="18.571428"
           x="537.5"
           y="175.35715" /></flowRegion><flowPara
         id="flowPara3905">E</flowPara></flowRoot>  </g>
</svg>
