<?xml version="1.0" encoding="UTF-8" standalone="no"?>
<!-- Created with Inkscape (http://www.inkscape.org/) -->

<svg
   xmlns:dc="http://purl.org/dc/elements/1.1/"
   xmlns:cc="http://creativecommons.org/ns#"
   xmlns:rdf="http://www.w3.org/1999/02/22-rdf-syntax-ns#"
   xmlns:svg="http://www.w3.org/2000/svg"
   xmlns="http://www.w3.org/2000/svg"
   xmlns:sodipodi="http://sodipodi.sourceforge.net/DTD/sodipodi-0.dtd"
   xmlns:inkscape="http://www.inkscape.org/namespaces/inkscape"
   id="svg4566"
   version="1.1"
   inkscape:version="0.48.4 r9939"
   width="600"
   height="478"
   sodipodi:docname="backtrack-logo-trace.jpg">
  <metadata
     id="metadata4572">
    <rdf:RDF>
      <cc:Work
         rdf:about="">
        <dc:format>image/svg+xml</dc:format>
        <dc:type
           rdf:resource="http://purl.org/dc/dcmitype/StillImage" />
        <dc:title></dc:title>
      </cc:Work>
    </rdf:RDF>
  </metadata>
  <defs
     id="defs4570" />
  <sodipodi:namedview
     pagecolor="#ffffff"
     bordercolor="#666666"
     borderopacity="1"
     objecttolerance="10"
     gridtolerance="10"
     guidetolerance="10"
     inkscape:pageopacity="0"
     inkscape:pageshadow="2"
     inkscape:window-width="1024"
     inkscape:window-height="718"
     id="namedview4568"
     showgrid="false"
     inkscape:zoom="0.69823096"
     inkscape:cx="492.46025"
     inkscape:cy="347.27315"
     inkscape:window-x="-2"
     inkscape:window-y="-3"
     inkscape:window-maximized="1"
     inkscape:current-layer="svg4566" />
  <path
     style="fill:#000000"
     d="m 544.06867,452.09322 c -0.60573,-2.24428 -1.74512,-6.52881 -2.53197,-9.52118 -0.78685,-2.99238 -2.92567,-9.92924 -4.75292,-15.41526 -11.49578,-34.51405 -27.56961,-60.69062 -51.02149,-83.08959 -40.20423,-38.39918 -54.77696,-45.2478 -107.72675,-50.6274 -23.41132,-2.37855 -35.17858,-4.89552 -48.72201,-10.42144 -12.0546,-4.91847 -20.56605,-10.47582 -29.83087,-19.47741 -7.67665,-7.45852 -9.52891,-9.87795 -13.23436,-17.2867 -14.29124,-28.5742 -10.61509,-60.86764 9.7768,-85.88491 5.34874,-6.56197 14.67792,-15.1079 21.22013,-19.43853 2.52313,-1.6702 4.59828,-3.3951 4.61146,-3.83312 0.0132,-0.43802 -1.19632,-2.88633 -2.68778,-5.44068 -7.68432,-13.16064 -16.4302,-40.084057 -19.07075,-58.707677 -0.58714,-4.141043 -0.66772,-4.223319 -6.82664,-6.969991 C 238.56108,41.580331 147.20258,27.525621 31.069141,25.641784 c -10.89653,-0.176756 -11.44171,-0.270012 -8.82654,-1.509818 7.71638,-3.658206 105.739149,-1.075798 155.161409,4.087725 53.96049,5.637666 94.05848,14.878256 125.57593,28.939 l 7.48355,3.338607 0.53376,12.855165 c 1.11525,26.859677 8.57582,40.515287 26.72226,48.911547 8.82821,4.08478 15.87079,5.73953 32.03271,7.52654 18.35123,2.02907 33.27024,5.91007 44.97897,11.70073 5.58854,2.76386 5.63514,2.76786 5.63514,0.4833 0,-2.59261 0.8636,-2.29107 5.57507,1.94665 5.1039,4.59068 11.10538,8.93471 12.34372,8.93471 0.54987,0 0.68902,-1.61616 0.34813,-4.04344 -0.74578,-5.31029 0.57156,-4.81714 6.49229,2.43041 4.49906,5.5073 10.74227,10.68083 12.8892,10.68083 0.84665,0 0.92893,-1.07295 0.32443,-4.23093 -0.44544,-2.327 -0.59088,-4.44467 -0.32319,-4.70592 0.78408,-0.76524 9.55666,8.03088 13.66077,13.69744 l 3.77632,5.21398 6.49901,0 c 7.47497,0 6.07534,-1.15561 16.01577,13.2235 7.15438,10.349 7.77207,11.6818 5.78613,12.48479 -1.59226,0.64381 8.56408,10.04841 13.5122,12.51208 2.13779,1.0644 5.98227,2.63252 8.5433,3.48471 l 4.65641,1.54944 -4.64555,2.38056 c -5.73996,2.94136 -7.12457,4.01954 -9.24489,7.19885 l -1.6724,2.50765 -6.70191,-6.64779 c -6.90707,-6.85131 -15.85562,-13.19552 -24.70355,-17.51396 -13.65697,-6.66561 -16.67575,-9.91152 -16.67575,-17.93047 l 0,-4.15876 -6.27149,-3.0781 c -39.72503,-19.49738 -87.64692,-32.69102 -107.49831,-29.59597 -25.06246,3.90752 -48.75028,27.11127 -53.12666,52.04103 -1.16049,6.61061 -1.22391,9.45613 -0.35367,15.86864 4.91222,36.1967 28.32147,53.2525 83.55094,60.87457 34.05112,4.6993 40.4251,5.68196 53.50311,8.24838 18.94285,3.71734 44.67241,10.05745 54.8175,13.50779 27.22198,9.25816 45.47467,23.41169 63.16706,48.9811 9.17407,13.25856 15.45941,27.87864 18.60482,43.27594 0.99228,4.85738 -0.81277,3.31619 -2.66273,-2.27351 -13.28451,-40.13932 -49.52109,-71.11675 -97.22679,-83.11591 -5.36562,-1.34959 -10.59186,-2.67972 -11.61388,-2.95584 -1.02202,-0.27613 0.0232,0.83744 2.32277,2.47461 36.39399,25.91068 64.46515,65.88797 76.59479,109.0818 4.1008,14.60299 6.63687,32.24071 5.4308,37.76978 l -0.8901,4.08051 -1.10133,-4.08051 z m -50.94693,-262.1254 c -1.32694,-2.20284 -1.74828,-2.45279 -2.01178,-1.1934 -0.18333,0.87614 0.41921,2.13004 1.33896,2.78641 2.43992,1.74124 2.5394,1.5057 0.67282,-1.59301 z M 74.42577,167.46374 c 2.20898,-3.29285 4.84535,-4.85082 25.31327,-14.95891 26.74749,-13.20928 41.75121,-19.98818 60.94099,-27.53406 35.69388,-14.03567 67.72188,-23.17007 99.27531,-28.313337 16.68729,-2.72006 40.25077,-5.15567 41.17282,-4.25578 0.29618,0.28905 1.28654,3.15841 2.20083,6.37633 l 1.66232,5.850767 -6.18882,0.50873 c -3.40384,0.2798 -9.95171,0.74822 -14.5508,1.04093 -43.1957,2.74918 -95.15405,15.16735 -145.87031,34.86332 -13.26548,5.15174 -28.43079,11.85487 -46.92006,20.73887 -9.96471,4.788 -18.42899,8.85245 -18.80951,9.03212 -0.38051,0.17969 0.41777,-1.32736 1.77396,-3.34898 z m 397.04163,-7.21449 c -19.68466,-19.81894 -50.25616,-38.35473 -91.41659,-55.42675 -2.49962,-1.03677 -4.35756,-2.06774 -4.12875,-2.29105 0.69636,-0.67962 7.16899,1.33588 19.16489,5.96772 22.44071,8.66479 46.54279,21.63843 64.7897,34.87495 11.46185,8.31455 26.85441,22.15111 25.79374,23.18629 -0.43393,0.4235 -2.0302,0.96578 -3.54726,1.20507 -2.47112,0.38978 -3.58053,-0.39276 -10.65573,-7.51623 z M 16.203381,100.40331 c 0,-0.440397 1.60517,-1.886377 3.56705,-3.213287 3.95166,-2.67269 11.01923,-4.08685 52.644119,-10.533691 50.29613,-7.789835 87.74539,-11.913777 132.39821,-14.579794 15.63274,-0.93336 92.57126,-1.525522 93.29074,-0.718017 0.16693,0.187348 0.52433,3.150746 0.79421,6.58533 l 0.49071,6.244698 -10.3557,-0.575979 c -5.69563,-0.316789 -26.45253,-0.833649 -46.12644,-1.148578 -55.19462,-0.883524 -99.48301,1.669334 -160.27151,9.238321 -18.2121,2.26765 -60.097449,8.16626 -64.340889,9.060957 -1.14978,0.24243 -2.0905,0.0804 -2.0905,-0.35996 z"
     id="path4612"
     inkscape:connector-curvature="0" />
</svg>
