<?xml version="1.0" encoding="UTF-8" standalone="no"?>
<!-- Created with Inkscape (http://www.inkscape.org/) -->

<svg
   xmlns:dc="http://purl.org/dc/elements/1.1/"
   xmlns:cc="http://creativecommons.org/ns#"
   xmlns:rdf="http://www.w3.org/1999/02/22-rdf-syntax-ns#"
   xmlns:svg="http://www.w3.org/2000/svg"
   xmlns="http://www.w3.org/2000/svg"
   xmlns:sodipodi="http://sodipodi.sourceforge.net/DTD/sodipodi-0.dtd"
   xmlns:inkscape="http://www.inkscape.org/namespaces/inkscape"
   width="585.79999"
   height="104.25"
   id="svg2"
   version="1.1"
   inkscape:version="0.48.4 r9939"
   sodipodi:docname="新建文档 1">
  <defs
     id="defs4" />
  <sodipodi:namedview
     id="base"
     pagecolor="#ffffff"
     bordercolor="#666666"
     borderopacity="1.0"
     inkscape:pageopacity="0.0"
     inkscape:pageshadow="2"
     inkscape:zoom="1"
     inkscape:cx="254.97077"
     inkscape:cy="19.632556"
     inkscape:document-units="px"
     inkscape:current-layer="layer1"
     showgrid="false"
     showguides="true"
     inkscape:guide-bbox="true"
     fit-margin-top="0"
     fit-margin-left="0"
     fit-margin-right="0"
     fit-margin-bottom="0"
     inkscape:window-width="1024"
     inkscape:window-height="721"
     inkscape:window-x="-2"
     inkscape:window-y="-3"
     inkscape:window-maximized="1" />
  <metadata
     id="metadata7">
    <rdf:RDF>
      <cc:Work
         rdf:about="">
        <dc:format>image/svg+xml</dc:format>
        <dc:type
           rdf:resource="http://purl.org/dc/dcmitype/StillImage" />
        <dc:title></dc:title>
      </cc:Work>
    </rdf:RDF>
  </metadata>
  <g
     inkscape:label="Layer 1"
     inkscape:groupmode="layer"
     id="layer1"
     transform="translate(-69.375,-413.26564)">
    <flowRoot
       xml:space="preserve"
       id="flowRoot2985"
       style="font-size:40px;font-style:normal;font-weight:normal;line-height:125%;letter-spacing:0px;word-spacing:0px;fill:#000000;fill-opacity:1;stroke:none;font-family:Sans"><flowRegion
         id="flowRegion2987"><rect
           id="rect2989"
           width="542.85712"
           height="262.85715"
           x="100"
           y="306.64789" /></flowRegion><flowPara
         id="flowPara2991"></flowPara></flowRoot>    <flowRoot
       xml:space="preserve"
       id="flowRoot2993"
       style="font-size:40px;font-style:normal;font-weight:normal;line-height:125%;letter-spacing:0px;word-spacing:0px;fill:#000000;fill-opacity:1;stroke:none;font-family:Sans"
       transform="matrix(3.161153,0,0,3.161153,-150.55997,-882.76403)"><flowRegion
         id="flowRegion2995"><rect
           id="rect2997"
           width="640"
           height="280"
           x="68.571426"
           y="392.36218" /></flowRegion><flowPara
         id="flowPara2999"
         style="font-size:48px;font-style:normal;font-variant:normal;font-weight:normal;font-stretch:normal;font-family:Coolvetica;-inkscape-font-specification:Coolvetica"><flowSpan
           style="fill:#e6e6e6"
           id="flowSpan3001" /></flowPara></flowRoot>    <g
       id="g3801">
      <path
         inkscape:connector-curvature="0"
         id="flowRoot3781"
         d="m 156.84375,413.26564 0,84.28125 9.15625,-7.5625 -9.15625,10.09375 0,14 19.5,0 0,-100.8125 -19.5,0 z m -87.46875,1.21875 0,67.65625 c 0,23.99998 15.131274,35.375 39.28125,35.375 26.09997,0 40.96875,-12.44377 40.96875,-36.59375 l 0,-66.4375 -21.3125,0 0,66.4375 c 0,13.04999 -6.58751,19.34375 -19.9375,19.34375 -11.249989,0 -17.84375,-7.79376 -17.84375,-20.09375 l 0,-65.6875 -21.15625,0 z m 114.6875,5.84375 0,66 c 0,15.89998 8.55627,29.6875 30.15625,29.6875 20.84998,0 29.84375,-13.93127 29.84375,-29.53125 l 0,-21 -18.125,0 0,19.1875 c 0,9.14999 -3.60626,14.40625 -11.40625,14.40625 -7.94999,0 -11.25,-5.38751 -11.25,-14.6875 l 0,-30.3125 40.78125,0 0,-13.8125 -40.78125,0 0,-2.375 -9.78125,8.09375 9.78125,-10.78125 0,-14.875 -19.21875,0 z m 107.3125,18 c -7.94999,0 -15.45626,0.91251 -21.90625,10.8125 l 0,-8.875 -18.3125,0 0,73.8125 19.5,0 0,-38.40625 c 0,-11.84999 5.84376,-17.84375 17.84375,-17.84375 1.8,0 3.60625,0.1375 5.40625,0.4375 l 0,-19.9375 -2.53125,0 z m 37.09375,0 c -23.69998,0 -32.075,10.63752 -32.375,25.9375 l 18.125,0 c 0.9,-6.59999 4.52501,-10.9375 13.375,-10.9375 7.64999,0 12.4375,2.85625 12.4375,7.65625 0,5.09999 -2.68751,7.05625 -12.4375,8.40625 -19.64998,2.7 -33.90625,5.07502 -33.90625,26.375 0,11.99999 7.79377,20.25 24.59375,20.25 9.89999,0 17.69375,-3.43126 22.34375,-8.53125 0.15,2.25 0.61875,4.79375 1.21875,6.59375 l 18.125,0 0,-46.65625 c 0,-18.59998 -8.10002,-29.09375 -31.5,-29.09375 z m 12,39.59375 -0.125,8.09375 c -0.15,8.69999 -7.66876,16.0625 -17.71875,16.0625 -6.14999,0 -9.4375,-2.70001 -9.4375,-8.25 0,-6.29999 3.58751,-9.4625 14.6875,-11.5625 7.19999,-1.35 10.64375,-2.39375 12.59375,-4.34375 z"
         style="font-size:40px;font-style:normal;font-weight:normal;line-height:125%;letter-spacing:0px;word-spacing:0px;fill:#ffffff;fill-opacity:1;stroke:none;font-family:Sans" />
      <flowRoot
         transform="matrix(1.03276,0,0,1.0466867,-15.783374,-81.679786)"
         style="font-size:40px;font-style:normal;font-weight:normal;line-height:125%;letter-spacing:0px;word-spacing:0px;fill:#1793d1;fill-opacity:1;stroke:none;font-family:Sans"
         id="flowRoot3789"
         xml:space="preserve"><flowRegion
           id="flowRegion3791"><rect
             style="fill:#1793d1;fill-opacity:1"
             y="421.36218"
             x="371.5"
             height="169.5"
             width="326.5"
             id="rect3793" /></flowRegion><flowPara
           style="font-size:150px;font-style:normal;font-variant:normal;font-weight:normal;font-stretch:normal;fill:#1793d1;fill-opacity:1;font-family:Coolvetica;-inkscape-font-specification:Coolvetica"
           id="flowPara3795">KVM</flowPara></flowRoot>    </g>
  </g>
</svg>
