<?xml version="1.0" encoding="UTF-8" standalone="no"?>
<!-- Created with Inkscape (http://www.inkscape.org/) -->
<svg xmlns:dc="http://purl.org/dc/elements/1.1/" xmlns:cc="http://creativecommons.org/ns#" xmlns:rdf="http://www.w3.org/1999/02/22-rdf-syntax-ns#" xmlns:svg="http://www.w3.org/2000/svg" xmlns="http://www.w3.org/2000/svg" xmlns:sodipodi="http://sodipodi.sourceforge.net/DTD/sodipodi-0.dtd" xmlns:inkscape="http://www.inkscape.org/namespaces/inkscape" width="744.09448819" height="1052.3622047" id="svg2" version="1.1" inkscape:version="0.48.2 r9819" sodipodi:docname="Yast.svg">
  <defs id="defs4">
    <inkscape:path-effect effect="skeletal" id="path-effect3981" is_visible="true" pattern="M 0,5 10,10 10,0 z" copytype="single_stretched" prop_scale="1" scale_y_rel="false" spacing="0" normal_offset="0" tang_offset="0" prop_units="false" vertical_pattern="false" fuse_tolerance="0"/>
  </defs>
  <sodipodi:namedview id="base" pagecolor="#ffffff" bordercolor="#666666" borderopacity="1.0" inkscape:pageopacity="0.0" inkscape:pageshadow="2" inkscape:zoom="0.5" inkscape:cx="368.20852" inkscape:cy="474.55155" inkscape:document-units="px" inkscape:current-layer="layer1" showgrid="false" inkscape:window-width="1920" inkscape:window-height="1094" inkscape:window-x="1279" inkscape:window-y="19" inkscape:window-maximized="1"/>
  <metadata id="metadata7">
    <rdf:RDF>
      <cc:Work rdf:about="">
        <dc:format>image/svg+xml</dc:format>
        <dc:type rdf:resource="http://purl.org/dc/dcmitype/StillImage"/>
        <dc:title/>
      </cc:Work>
    </rdf:RDF>
  </metadata>
  <g inkscape:label="Layer 1" inkscape:groupmode="layer" id="layer1">
    <g id="g4581" transform="matrix(1.7521365,0,0,1.7644764,-1424.8564,600.26405)">
      <path style="fill:none;stroke:none" d="m 969.61163,-66.84349 -36.79333,6.80213 -67.40291,32.77389 c -8.16162,-0.54552 -16.69799,-5.79069 -20.49955,-9.86944 -5.94378,-8.80791 -15.33029,-16.41334 -9.80084,-30.63414 3.0345,-4.84023 8.71275,-7.47733 13.91345,-10.51238 1.4645,-0.59167 2.81692,-1.85586 4.63781,-0.30919 l 34.01065,-26.28095 c 4.67817,-12.34733 10.6319,-24.05688 21.33394,-33.39227 8.50258,-4.96182 17.91086,-8.88855 29.06364,-10.82157 l -30.30039,-35.86576 -18.86044,-62.7651 62.76509,60.2916 19.16963,28.44526 c 3.27887,3.56426 6.22339,8.17934 12.05832,3.71025 l 25.9718,-25.66257 c 12.1771,-11.78689 26.6013,-19.40035 42.6679,-25.35339 25.3533,-9.47202 50.7067,-19.24452 76.0601,-25.0442 -14.0776,20.68339 -28.4458,41.28375 -45.1414,61.21915 -6.0647,5.16312 -11.7315,10.57489 -20.7156,13.91345 -10.0213,2.76601 -18.209,5.04075 -27.7337,9.99228 -6.9832,3.63217 -12.3598,10.72113 -15.5525,18.1438 16.0579,-7.27393 32.5836,-13.14431 49.7792,-17.00533 15.3563,-3.01953 30.7126,-7.00279 46.069,-1.23675 17.3235,6.72804 32.859,17.92606 47.924,30.30039 12.0003,10.38126 22.1639,23.43413 29.9912,39.88521 3.2859,8.42734 4.3064,20.84757 5.2562,33.39227 4.8977,48.56785 10.3091,97.05011 18.8605,145.00901 l -14.841,0.61837 -9.5848,6.80213 -5.2562,-4.63781 -8.6573,0 -19.4788,11.13075 1.2367,-11.43994 -21.9523,0.92756 6.1838,8.03888 -29.0637,1.54594 -14.2226,6.18375 -45.4506,-20.71557 -116.87292,8.96644 4.63782,-3.71025 19.47882,-32.4647 c 1.26772,-47.40302 0.66691,-95.84411 7.11131,-140.3712 z" id="path4480" inkscape:connector-curvature="0" sodipodi:nodetypes="ccccccccccccccccccccccccccccccccccccccccccc"/>
      <path style="fill:none;stroke:none" d="m 877.33699,-62.61626 c 0.50448,9.12531 -1.16536,15.79515 -5.30084,19.59702 -4.75175,2.78636 -9.70004,4.00036 -15.09934,1.60632 -5.78019,-4.03873 -10.85644,-9.40213 -12.00477,-15.46319 -0.62701,-3.90468 -0.95516,-8.06849 2.04563,-10.55909 3.33979,-2.63707 6.93986,-2.67127 10.60166,-2.08821 5.23954,1.35023 9.64422,3.95274 14.13556,6.42526 -4.17054,-3.80788 -8.74359,-7.01435 -13.81429,-9.47725 l 25.54038,-19.75766 c 6.21747,-4.88597 12.56986,-9.72433 15.58124,-15.74187 l 9.31661,-16.38439 c 3.04899,-5.99291 8.57857,-8.97367 14.29619,-11.72609 10.17772,-3.85075 20.97766,-7.07928 33.09006,-8.99535 l -37.4271,-42.40667 -15.25998,-35.66016 c 9.18513,9.76829 18.30866,20.54335 28.43175,29.87743 8.79666,7.81739 14.81943,15.63478 20.56081,23.45217 4.30346,7.00758 9.21383,13.81286 15.25997,20.23955 3.70905,3.28479 9.28629,7.35272 17.34818,3.052 5.86559,-3.08542 10.32113,-7.42423 14.45682,-12.04735 9.68857,-10.61413 19.20887,-20.86275 28.91367,-27.46796 25.9238,-15.18712 51.9897,-22.7843 78.0668,-32.2869 -9.5721,16.17255 -27.5926,39.32144 -38.8728,46.58309 -9.9757,5.5004 -20.4908,9.65213 -31.0018,13.81429 -11.6826,4.47022 -17.4446,10.66726 -22.6491,17.02692 -5.7594,9.17119 -9.2393,17.70125 -6.2646,24.41596 1.8513,4.01578 4.3265,8.03157 7.5497,12.04735 4.9169,5.57769 10.1071,10.8821 16.3844,15.09935 3.8419,1.9854 7.5183,0.9206 11.0836,-0.32126 -5.16,0.40256 -10.4092,-0.37306 -13.3324,-3.21263 -9.3092,-7.81581 -14.7675,-14.38764 -18.8968,-21.11296 17.5267,-8.3502 33.6399,-13.87319 49.2561,-18.40235 17.6438,-5.72557 33.8637,-8.30374 49.7957,-6.42525 29.1567,6.89758 49.7014,31.52887 59.7548,43.0492 8.6331,10.94234 16.6202,27.63682 16.8663,37.10583 2.3417,49.68863 11.0706,99.37725 17.6695,149.06588 l -6.9072,0.32126 -3.5339,10.11977 -2.4094,-8.03156 -4.9796,0.96378 0,-9.47725 -1.6063,9.31662 -5.3008,-1.60631 -7.0678,6.26462 0.8031,-7.7103 -3.3732,-0.16063 1.6063,-7.06778 -3.6945,5.78272 -9.4773,2.08821 14.4568,-18.79386 0.978,-1.24715 -4.5118,3.17472 -6.104,-35.17826 -17.9907,-32.2869 11.2441,-13.17176 c 0,0 -10.2804,10.2804 -10.2804,9.63788 0,-0.64253 7.871,-19.59703 7.871,-19.59703 l -1.2851,-12.8505 -0.8031,12.68987 -9.156,20.56081 -14.1356,5.1402 0.3213,-3.05199 -17.9907,-13.3324 -8.9954,-19.59702 2.4095,-19.11513 -4.6583,16.38439 -4.3371,-19.91828 0.9638,23.13091 12.3686,17.50882 -11.4048,-11.56546 12.0474,16.06313 15.5812,12.20798 -13.493,79.83377 11.5654,16.54503 -6.4252,1.28505 -11.7261,-14.13556 6.7465,16.22377 -9.9591,-0.64253 -6.4253,-15.58124 0.8032,12.52925 -26.9861,-9.15599 20.3199,-81.92198 c 0,0 -3.3733,4.49768 -3.4536,4.17642 -0.08,-0.32126 -19.5167,-23.69312 -19.5167,-23.69312 l -8.3528,-2.73073 6.9071,3.77483 8.3528,9.79851 c 0,0 -54.454,-18.4726 -54.7753,-18.23165 -0.3212,0.24094 -15.2599,16.86629 -15.2599,16.86629 0,0 13.8143,90.51575 13.8143,90.19449 0,-0.32126 -44.81617,2.65041 -44.81617,2.65041 l 6.82683,-14.61745 -9.31662,12.20798 -8.7544,0.32127 12.8505,-19.03482 0.16064,-75.4164 7.38904,-77.98651 c 5.44451,-1.61486 10.05434,-4.77983 13.49303,-10.11978 l 4.0961,-8.67409 c -5.08442,7.77968 -11.12883,13.98847 -19.35608,16.62534 -13.25324,4.10061 -31.56787,5.05222 -43.29669,8.05747 -11.51121,2.67249 -55.01949,24.2704 -55.30242,25.35254 -0.52533,2.00921 0.14487,-15.5773 -2.83957,-15.01772 z" id="path4482" inkscape:connector-curvature="0" sodipodi:nodetypes="cccccccccccccccccccccccccccccccccccccccccccccccccccccccscccccccccccccccccccccccccccccccscscccccccccccsc"/>
      <path inkscape:connector-curvature="0" style="fill:#000000;stroke:none" d="m 888.90625,-247.71875 18.875,62.75 30.28125,35.875 c -11.15278,1.93302 -20.55992,5.85068 -29.0625,10.8125 -10.70204,9.33539 -16.63433,21.05892 -21.3125,33.40625 l -34.03125,26.28125 c -1.82089,-1.54667 -3.1605,-0.27917 -4.625,0.3125 -5.2007,3.03505 -10.87175,5.65977 -13.90625,10.5 -5.52945,14.2208 3.83747,21.84834 9.78125,30.65625 3.80156,4.07875 12.33838,9.29823 20.5,9.84375 l 67.40625,-32.75 36.8125,-6.8125 c -6.4444,44.52709 -5.85728,92.97198 -7.125,140.375 L 943.03125,106 l -4.65625,3.6875 116.875,-8.9375 45.4687,20.6875 14.2188,-6.15625 29.0625,-1.5625 -6.1875,-8.03125 21.9375,-0.9375 -1.2187,11.4375 19.4687,-11.125 8.6562,0 5.25,4.625 9.5938,-6.78125 14.8437,-0.625 c -8.5514,-47.9589 -13.9772,-96.43215 -18.875,-145 -0.9498,-12.5447 -1.9641,-24.97891 -5.25,-33.40625 -7.8273,-16.45108 -17.9684,-29.49374 -29.9687,-39.875 -15.065,-12.37433 -30.614,-23.58446 -47.9375,-30.3125 -15.3563,-5.76604 -30.7062,-1.76953 -46.0625,1.25 -17.1956,3.86102 -33.7233,9.72607 -49.7813,17 3.1928,-7.42267 8.5793,-14.52408 15.5625,-18.15625 9.5247,-4.95153 17.6975,-7.20274 27.7188,-9.96875 8.984,-3.33856 14.654,-8.77438 20.7187,-13.9375 16.6956,-19.9354 31.0474,-40.53536 45.125,-61.21875 -25.3533,5.79968 -50.7091,15.59048 -76.0625,25.0625 -16.0665,5.95304 -30.4791,13.55686 -42.6562,25.34375 l -25.96875,25.65625 c -5.83493,4.46909 -8.78363,-0.12324 -12.0625,-3.6875 L 951.6875,-187.4375 888.90625,-247.71875 z M 1020.6562,0.125 l 21.1875,7.1875 18.9063,34.375 -18.25,33.59375 -17.4688,9.9375 c 0,0 -12.3708,-77.58023 -11.7187,-77.90625 0.652,-0.32603 7.3437,-7.1875 7.3437,-7.1875 z m 117.8438,17.28125 15.8125,30.6875 3.4063,28.125 -22.1876,26.5625 c 0,0 -15.3327,-16.24079 -14.875,-17.15625 0.4578,-0.91546 11.9063,-66.84375 11.9063,-66.84375 l 5.9375,-1.375 z" id="path4484"/>
      <path inkscape:connector-curvature="0" style="fill:#ffffff;stroke:none" d="m 903.03125,-223.25 15.28125,35.65625 37.40625,42.40625 c -12.1124,1.91607 -22.91603,5.14925 -33.09375,9 -5.71762,2.75242 -11.23226,5.72584 -14.28125,11.71875 l -9.3125,16.40625 c -3.01138,6.01754 -9.37628,10.83278 -15.59375,15.71875 l -25.53125,19.78125 c 5.0707,2.4629 9.64196,5.66087 13.8125,9.46875 -4.49134,-2.47252 -8.88546,-5.08727 -14.125,-6.4375 -3.6618,-0.58306 -7.28521,-0.54332 -10.625,2.09375 -3.00079,2.4906 -2.65826,6.65782 -2.03125,10.5625 1.14833,6.06106 6.21981,11.43002 12,15.46875 5.3993,2.39404 10.342,1.16136 15.09375,-1.625 4.13548,-3.80187 5.81698,-10.46844 5.3125,-19.59375 2.98444,-0.55958 2.31842,17.04046 2.84375,15.03125 0.28293,-1.08214 43.77004,-22.67126 55.28125,-25.34375 11.72882,-3.00525 30.05926,-3.96189 43.3125,-8.0625 8.22725,-2.63687 14.25933,-8.84532 19.34375,-16.625 l -4.09375,8.65625 c -3.43869,5.33995 -8.05549,8.51014 -13.5,10.125 l -7.375,78 L 973,74.5625 l -12.84375,19.03125 8.75,-0.3125 9.3125,-12.21875 -6.84375,14.625 c 0,0 44.8125,-2.97751 44.8125,-2.65625 0,0.32126 -13.8125,-90.1875 -13.8125,-90.1875 0,0 14.96,-16.63406 15.2812,-16.875 0.3213,-0.24095 54.7813,18.25 54.7813,18.25 l -8.375,-9.8125 -6.9063,-3.78125 8.375,2.75 c 0,0 19.4198,23.36624 19.5,23.6875 0.08,0.32126 3.4688,-4.1875 3.4688,-4.1875 l -20.3438,81.9375 27,9.15625 -0.8125,-12.53125 6.4375,15.5625 9.9375,0.65625 L 1104,91.4375 l 11.7187,14.125 6.4063,-1.28125 -11.5625,-16.53125 13.5,-79.84375 -15.5625,-12.21875 -12.0625,-16.0625 11.4062,11.5625 -12.375,-17.5 -0.9687,-23.125 4.3437,19.90625 4.6563,-16.375 -2.4063,19.125 9,19.59375 18,13.3125 -0.3437,3.0625 14.1562,-5.15625 9.1563,-20.53125 0.7813,-12.71875 1.3125,12.875 c 0,0 -7.875,18.95122 -7.875,19.59375 0,0.64252 10.2812,-9.65625 10.2812,-9.65625 l -11.25,13.1875 18,32.28125 6.0937,35.1875 4.5,-3.1875 -0.9687,1.25 -14.4687,18.78125 9.4999,-2.0625 3.6875,-5.78125 -1.625,7.0625 3.375,0.15625 -0.7812,7.71875 7.0625,-6.28125 5.2812,1.625 1.625,-9.34375 0,9.5 4.9688,-0.96875 2.4062,8.03125 3.5313,-10.125 6.9062,-0.3125 C 1196.8074,40.62387 1188.0916,-9.06137 1185.75,-58.75 c -0.2462,-9.46901 -8.2419,-26.18266 -16.875,-37.125 -10.0535,-11.52033 -30.5933,-36.13367 -59.75,-43.03125 -15.932,-1.87849 -32.1374,0.68068 -49.7813,6.40625 -15.6162,4.52916 -31.7545,10.05605 -49.2812,18.40625 4.1293,6.72532 9.5971,13.30919 18.9062,21.125 2.9233,2.83957 8.1839,3.62131 13.3438,3.21875 -3.5653,1.24186 -7.2519,2.2979 -11.0938,0.3125 -6.2773,-4.21725 -11.4581,-9.51606 -16.375,-15.09375 -3.2231,-4.01578 -5.7112,-8.04672 -7.5625,-12.0625 -2.9747,-6.71471 0.5218,-15.23506 6.2813,-24.40625 5.2045,-6.35966 10.9424,-12.56103 22.625,-17.03125 10.511,-4.16216 21.0556,-8.3121 31.0312,-13.8125 11.2802,-7.26165 29.2717,-30.4212 38.8438,-46.59375 -26.077,9.5026 -52.1386,17.09413 -78.0625,32.28125 -9.7047,6.60521 -19.2177,16.85462 -28.90625,27.46875 -4.13569,4.62312 -8.60316,8.97708 -14.46875,12.0625 -8.06189,4.30072 -13.6347,0.22229 -17.34375,-3.0625 -6.04614,-6.42669 -10.94654,-13.21117 -15.25,-20.21875 -5.74138,-7.81739 -11.76584,-15.65136 -20.5625,-23.46875 -10.12309,-9.33408 -19.25237,-20.10671 -28.4375,-29.875 z M 1068,-197.625 l -22.9688,27.6875 15.5938,-5.375 -31.375,15.28125 38.75,-37.59375 z m -108.96875,57.8125 c 2.0163,-0.0414 4.03327,0.0159 6,0.21875 -12.7023,0.95487 -18.50232,3.13375 -29.53125,8.75 4.04915,-3.06503 6.31611,-5.33799 13.59375,-7.8125 3.18559,-0.68396 6.57699,-1.08724 9.9375,-1.15625 z m 3.53125,17.40625 c 6.27178,0.11118 10.53125,2.84375 10.53125,2.84375 -13.90673,-3.72212 -21.54461,-0.61532 -27.5,8.40625 -0.71464,-0.5615 3.94951,-8.41629 10.125,-10.28125 2.45462,-0.74128 4.75316,-1.00581 6.84375,-0.96875 z m -1.0625,4.625 c 1.29532,-0.0524 2.58773,0.069 3.9375,0.34375 2.59897,0.90184 3.79184,2.82459 5.0625,4.65625 -2.69496,-2.3835 -5.50142,-4.24887 -8.875,-3.375 3.82791,0.40359 5.26192,2.8028 5.8125,5.9375 0.45816,4.19496 -3.16898,6.68279 -5.59375,7.03125 -2.42745,0.34885 -5.5347,-0.26014 -7.3125,-2.84375 -0.53009,-1.05536 -1.88528,-4.9416 0.28125,-7.71875 -2.41041,0.899 -4.46624,2.38556 -6.40625,4.0625 1.6281,-2.37081 3.62858,-4.2278 6.65625,-6.21875 2.16544,-1.19901 4.27864,-1.78759 6.4375,-1.875 z m -102.65625,54.875 c 3.24558,3.82848 6.41994,7.5 7.96875,12.5625 0.20707,4.69481 -1.87529,4.58454 -3.90625,4.5625 -1.71936,-0.0187 -4.94162,-1.93665 -3.90625,-3.5 0.82919,-1.25201 1.58841,-4.86029 1.25,-6.5625 l -1.40625,-7.0625 z M 846.9375,-61.75 c 2.54584,2.67298 5.04476,4.43662 5.53125,8.15625 0.17956,0.88568 0.36068,3.09077 -1.40625,2.75 -5.1484,-4.83024 -2.05518,-4.31565 -4.125,-10.90625 z" id="path4486"/>
      <path style="fill:#d5e2f2;fill-opacity:1;stroke:none" d="m 886.48386,-54.55446 c 3.93135,-3.91567 5.71261,-9.0961 5.3736,-15.52374 16.29749,3.13446 42.95648,-8.00754 61.6969,-13.33449 -28.40103,10.20944 -51.66853,18.05216 -67.0705,28.85823 z" id="path4488" inkscape:connector-curvature="0" sodipodi:nodetypes="cccc"/>
      <path style="fill:#d5e2f2;fill-opacity:1;stroke:none" d="m 1102.7426,-32.75705 -0.6619,5.73613 9.0455,19.08367 17.8702,13.56815 -0.2206,1.98559 11.9135,-4.63303 8.4939,-19.30429 c 2.8306,-17.14577 3.5809,-33.4775 -0.3309,-47.98494 -13.1171,14.07035 -29.6413,22.34847 -45.5581,31.65903 z" id="path4490" inkscape:connector-curvature="0" sodipodi:nodetypes="cccccccccc"/>
      <path style="fill:#d5e2f2;fill-opacity:1;stroke:none" d="m 1157.7973,-6.27313 -11.5483,13.11658 17.3937,31.50831 5.7028,33.36175 3.992,-2.70886 0.8555,3.27914 -13.6869,16.68087 5.4177,-0.998 5.988,-8.41172 -0.2851,9.12458 11.6908,0.28514 2.4238,-8.12657 2.1385,8.55429 13.5443,-0.85543 -8.2691,-61.59091 c -7.3793,10.31395 -15.2967,4.64785 -19.2472,-0.85543 -7.3155,-10.19089 -12.4706,-21.35954 -16.1106,-32.36374 z" id="path4492" inkscape:connector-curvature="0" sodipodi:nodetypes="cccccccccccccccsc"/>
      <path style="fill:#d5e2f2;fill-opacity:1;stroke:none" d="m 1070.2583,93.09924 11.5483,-46.47833 c 9.1583,18.59005 18.6621,34.30726 33.7895,3.27915 l -4.99,28.94202 c -14.4031,-1.20924 -27.4406,6.11685 -40.3478,14.25716 z" id="path4494" inkscape:connector-curvature="0" sodipodi:nodetypes="ccccc"/>
      <path style="fill:#d5e2f2;fill-opacity:1;stroke:none" d="m 974.73538,74.70751 0.14257,-59.30977 c 14.41743,23.71668 23.06374,26.03215 28.37175,15.96802 l 9.1246,51.75347 c -11.7774,-5.3031 -22.96188,-12.53274 -37.63892,-8.41172 z" id="path4496" inkscape:connector-curvature="0" sodipodi:nodetypes="ccccc"/>
      <path style="fill:#d5e2f2;fill-opacity:1;stroke:none" d="m 980.86595,-30.93801 0.85543,-47.47633 c 5.1572,-1.0209 8.66101,-3.69519 11.5483,-6.986 37.67892,21.96744 67.81312,55.50354 100.22782,85.54293 -12.8314,-4.2298 -25.2677,-10.43506 -38.4943,-12.68887 l 2.1385,4.41972 6.4157,3.56429 5.5603,6.13057 -48.7594,-16.5383 c -2.7095,-1.06128 -4.4972,-0.1375 -5.988,1.42572 l -9.98,11.69087 c -6.47355,-18.41538 -14.01553,-30.01933 -23.52435,-29.0846 z" id="path4498" inkscape:connector-curvature="0" sodipodi:nodetypes="cccccccccccc"/>
      <path style="fill:#d5e2f2;fill-opacity:1;stroke:none" d="m 888.78778,-84.61508 c 9.28018,-9.95324 18.72218,-19.82556 26.90867,-30.32564 5.68666,-6.99292 12.55267,-11.62712 19.6476,-15.80351 -12.64647,16.81253 -29.43252,31.55526 -46.55627,46.12915 z" id="path4500" inkscape:connector-curvature="0" sodipodi:nodetypes="cccc"/>
      <path inkscape:connector-curvature="0" style="fill:#d5e2f2;fill-opacity:1;stroke:none" d="m 1095.9375,-206.65625 c -41.6914,3.45396 -87.1446,51.69175 -106.46875,66.1875 l 0.65625,4.59375 c 5.30261,26.27551 -0.44164,37.9196 -7.8125,51.25 5.5778,-3.8518 11.29845,-7.32595 15.5,-15.03125 l 2.25,4.46875 12.5937,-9.71875 c -4.1587,-4.17362 -6.9343,-9.787 -7.8125,-13.5625 -0.3962,-6.91185 0.7209,-13.38866 4.4063,-19.53125 6.7404,-9.15698 15.6223,-17.3715 27.2187,-21.5625 12.2114,-4.59474 25.5433,-9.65242 34.9063,-16.875 10.1144,-9.66025 19.3896,-19.71528 24.5625,-30.21875 z m -27.4063,8.59375 -22.9687,27.6875 15.5937,-5.375 -31.375,15.28125 38.75,-37.59375 z" id="path4502"/>
    </g>
  </g>
</svg>