<?xml version="1.0" encoding="UTF-8" standalone="no"?>
<!-- Created with Inkscape (http://www.inkscape.org/) -->

<svg
   xmlns:dc="http://purl.org/dc/elements/1.1/"
   xmlns:cc="http://creativecommons.org/ns#"
   xmlns:rdf="http://www.w3.org/1999/02/22-rdf-syntax-ns#"
   xmlns:svg="http://www.w3.org/2000/svg"
   xmlns="http://www.w3.org/2000/svg"
   xmlns:xlink="http://www.w3.org/1999/xlink"
   xmlns:sodipodi="http://sodipodi.sourceforge.net/DTD/sodipodi-0.dtd"
   xmlns:inkscape="http://www.inkscape.org/namespaces/inkscape"
   version="1.1"
   width="482.21808"
   height="258.14655"
   id="svg559"
   inkscape:version="0.48.4 r9939"
   sodipodi:docname="贴纸1.svg"
   inkscape:export-filename="/home/marguerite/贴纸1.png"
   inkscape:export-xdpi="83.989998"
   inkscape:export-ydpi="83.989998">
  <sodipodi:namedview
     pagecolor="#ffffff"
     bordercolor="#666666"
     borderopacity="1"
     objecttolerance="10"
     gridtolerance="10"
     guidetolerance="10"
     inkscape:pageopacity="1"
     inkscape:pageshadow="2"
     inkscape:window-width="1024"
     inkscape:window-height="721"
     id="namedview3199"
     showgrid="false"
     inkscape:zoom="1.4142136"
     inkscape:cx="330.52754"
     inkscape:cy="110.14551"
     inkscape:window-x="-2"
     inkscape:window-y="-3"
     inkscape:window-maximized="1"
     inkscape:current-layer="svg559"
     fit-margin-top="20"
     fit-margin-left="20"
     fit-margin-right="20"
     fit-margin-bottom="20"
     showguides="true"
     inkscape:guide-bbox="true">
    <sodipodi:guide
       orientation="0,1"
       position="76.135377,937.90134"
       id="guide3364" />
    <sodipodi:guide
       orientation="0,1"
       position="-0.055378952,238.04244"
       id="guide3366" />
    <sodipodi:guide
       orientation="1,0"
       position="19.944621,-461.95756"
       id="guide3368" />
    <sodipodi:guide
       orientation="0,1"
       position="4.010485,139.0832"
       id="guide3370" />
    <sodipodi:guide
       orientation="1,0"
       position="130.5826,175.67598"
       id="guide3372" />
    <sodipodi:guide
       orientation="1,0"
       position="149.94462,196.66744"
       id="guide3426" />
    <sodipodi:guide
       orientation="1,0"
       position="240.27254,158.26348"
       id="guide3428" />
    <sodipodi:guide
       orientation="0,1"
       position="86.194621,159.79244"
       id="guide3430" />
    <sodipodi:guide
       orientation="1,0"
       position="259.94462,202.01571"
       id="guide3432" />
    <sodipodi:guide
       orientation="1,0"
       position="354.11673,153.22534"
       id="guide3750" />
    <sodipodi:guide
       orientation="1,0"
       position="373.91572,206.16996"
       id="guide3752" />
    <sodipodi:guide
       orientation="1,0"
       position="472.19462,175.29244"
       id="guide4084" />
    <sodipodi:guide
       orientation="0,1"
       position="357.69462,147.79244"
       id="guide4086" />
    <sodipodi:guide
       orientation="0,1"
       position="29.944621,119.04244"
       id="guide4104" />
    <sodipodi:guide
       orientation="0,1"
       position="122.00893,20.024097"
       id="guide4449" />
    <sodipodi:guide
       orientation="0,1"
       position="92.319621,28.854937"
       id="guide4756" />
    <sodipodi:guide
       orientation="1,0"
       position="268.02648,197.59629"
       id="guide5036" />
    <sodipodi:guide
       orientation="1,0"
       position="383.19462,147.79244"
       id="guide5488" />
  </sodipodi:namedview>
  <metadata
     id="metadata2189">
    <rdf:RDF>
      <cc:Work
         rdf:about="">
        <dc:format>image/svg+xml</dc:format>
        <dc:type
           rdf:resource="http://purl.org/dc/dcmitype/StillImage" />
        <dc:title></dc:title>
      </cc:Work>
    </rdf:RDF>
  </metadata>
  <defs
     id="defs561">
    <linearGradient
       id="linearGradient3088">
      <stop
         style="stop-color:#73d216;stop-opacity:1;"
         offset="0"
         id="stop3090" />
      <stop
         style="stop-color:#62b312;stop-opacity:1;"
         offset="1"
         id="stop3092" />
    </linearGradient>
    <linearGradient
       id="linearGradient3509">
      <stop
         id="stop3511"
         style="stop-color:#ffffff;stop-opacity:1"
         offset="0" />
      <stop
         id="stop3513"
         style="stop-color:#ffffff;stop-opacity:0"
         offset="1" />
    </linearGradient>
    <linearGradient
       id="linearGradient3262">
      <stop
         id="stop3264"
         style="stop-color:#ffffff;stop-opacity:1"
         offset="0" />
      <stop
         id="stop3274"
         style="stop-color:#ffffff;stop-opacity:0.74901962"
         offset="0.15000001" />
      <stop
         id="stop3270"
         style="stop-color:#ffffff;stop-opacity:0.49803922"
         offset="0.34999999" />
      <stop
         id="stop3272"
         style="stop-color:#ffffff;stop-opacity:0.24705882"
         offset="0.60000002" />
      <stop
         id="stop3266"
         style="stop-color:#ffffff;stop-opacity:0"
         offset="1" />
    </linearGradient>
    <clipPath
       id="clipPath3307">
      <path
         d="m 381.9375,173.625 c -4.21332,42.13349 -10.03577,69.83124 -25.84375,78.53125 -17.27681,-5.22916 -28.69236,-31.13179 -41.53125,-71.5 4.55458,41.77797 4.61095,69.96794 -8.75,81.90625 -17.78835,-1.97776 -34.12725,-24.95431 -54.71875,-61.53125 13.0555,40.28403 18.83303,67.99943 7.84375,82.3125 -17.92384,2.14967 -38.78383,-16.95958 -66.75,-48.78125 21.06376,36.64714 32.42682,62.49985 24.71875,78.78125 -17.09049,5.60535 -41.41105,-8.8058 -75.1875,-34.09375 29.644,33.20511 46.34805,56.93535 39.59375,74.78125 10.6708,-14.25291 11.8868,-15.56615 17.875,-22.09375 5.58938,-6.09263 7.37985,-7.9614 18.34375,-17.78125 11.25046,-9.85812 13.26854,-11.37709 20.03125,-16.21875 6.9067,-4.94451 8.83177,-6.27851 22.5625,-14.1875 12.33451,-6.91037 14.78922,-8.04241 22.25,-11.3125 7.67774,-3.365 9.96838,-4.30144 24.5,-9.03125 13.208,-4.16737 15.8721,-4.79736 23.78125,-6.46875 8.26034,-1.7456 10.635,-2.20061 26.125,-3.90625 14.30407,-1.40317 16.96055,-1.46875 25.15625,-1.46875 8.85831,0 10.62725,0.01 28.34375,1.78125 13.10212,1.46659 15.92269,1.98412 23.6875,3.625 8.06288,1.70388 10.58999,2.32122 24.5,6.71875 13.79956,4.49943 16.24747,5.47934 23.78125,8.78125 7.46078,3.27009 9.91548,4.40213 22.25,11.3125 13.73073,7.90899 15.6558,9.24299 22.5625,14.1875 6.76271,4.84166 8.78078,6.36063 20.03125,16.21875 10.96381,9.82023 12.75437,11.68862 18.34375,17.78125 5.9882,6.5276 7.20417,7.84084 17.875,22.09375 -6.7543,-17.8459 9.94974,-41.57614 39.59375,-74.78125 -33.81975,25.32037 -58.12733,39.7259 -75.21875,34.0625 -7.65797,-16.28458 3.70927,-42.1429 24.75,-78.75 -27.95029,31.80361 -48.80176,50.9368 -66.71875,48.8125 -11.02566,-14.30287 -5.25367,-41.9956 7.8125,-82.3125 -20.60326,36.59783 -36.94985,59.54509 -54.75,61.5 -13.32788,-11.95522 -13.26959,-40.13141 -8.71875,-81.875 -12.94605,40.70516 -24.44869,66.66946 -41.96875,71.59375 -16.04038,-8.50889 -21.91562,-36.28182 -26.15625,-78.6875 z m 2.875,99.96875 c -1.37635,-0.005 -2.74998,0.0116 -4.125,0.0312 -73.3345,1.04709 -144.47788,37.47275 -186.65625,100.09375 -64.58021,97.0834 -49.12115,239.6031 62.40625,315.125 97.5272,64.4282 188.99395,36.13015 245.03125,5.03125 l -28,-48 c -60.39979,31.845 -131.1568,35.6623 -185.6875,-1.4375 -83.8576,-55.5432 -100.3532,-164.68105 -48.6875,-241.09375 50.833,-76.6977 156.02335,-100.0685 239.21875,-45.125 87.58159,59.3819 82.48805,162.54275 60.78125,208.71875 -9.5889,-6.5965 -19.19235,-13.18475 -28.78125,-19.78125 24.9959,-64.76217 -0.4447,-128.6783 -50.5,-162.1875 C 400.92381,345.54616 315.4392,352.2459 267.625,423.5 c -9.3484,14.13429 -9.36225,14.1554 -14.53125,28.0625 l 298.09375,199 c 12.3337,-12.84288 12.33425,-12.8473 20.21875,-24.625 67.0184,-100.11068 43.6842,-243.6293 -62.125,-314 -38.5768,-25.99295 -81.80179,-38.17927 -124.46875,-38.34375 z m 199.21875,371.5625 C 573.36046,659.40917 572.1757,660.7224 566.1875,667.25 c -5.67597,6.18706 -7.37489,7.95144 -18.8125,18.1875 -10.78937,9.44575 -12.93545,11.04559 -19.59375,15.8125 -6.50994,4.6605 -8.81667,6.24434 -20.5,13 -14.45549,8.12762 -16.40361,9.00226 -24.3125,12.46875 -7.53219,3.30119 -9.95847,4.31559 -23.75,8.8125 -13.91784,4.40011 -16.46669,5.01452 -24.53125,6.71875 -7.85097,1.6591 -10.59954,2.15064 -24.09375,3.65625 -17.21414,1.71782 -19.13867,1.71873 -27.90625,1.71875 -8.3454,0 -10.85061,-0.0498 -25.875,-1.53125 -14.78143,-1.63437 -17.28607,-2.09654 -25.40625,-3.8125 -8.06456,-1.70423 -10.6134,-2.31866 -24.53125,-6.71875 -13.79154,-4.49691 -16.21783,-5.48003 -23.75,-8.78125 -7.61208,-3.3364 -9.91741,-4.41451 -22.9375,-11.71875 -13.0274,-7.51241 -15.13014,-8.93022 -21.90625,-13.78125 -6.76271,-4.84166 -8.78078,-6.36064 -20.03125,-16.21875 -10.96381,-9.82023 -12.75438,-11.68864 -18.34375,-17.78125 -5.9882,-6.5276 -7.17295,-7.84086 -17.84375,-22.09375 6.7543,17.8459 -9.94976,41.57613 -39.59375,74.78125 33.79501,-25.30185 58.09802,-39.72364 75.1875,-34.09375 7.68616,16.2828 -3.69629,42.15158 -24.75,78.78125 27.97352,-31.83003 48.85426,-50.9427 66.78125,-48.78125 10.98226,14.31504 5.17844,42.03478 -7.875,82.3125 20.60326,-36.59783 36.94985,-59.57633 54.75,-61.53125 13.32788,11.95522 13.26959,40.16269 8.71875,81.90625 12.83495,-40.35584 24.26333,-66.25976 41.53125,-71.5 15.8262,8.68509 21.65955,36.37632 25.875,78.53125 4.24063,-42.40568 10.11585,-70.1786 26.15625,-78.6875 17.51525,4.93035 29.02481,30.89523 41.96875,71.59375 -4.55046,-41.74012 -4.63704,-69.91807 8.6875,-81.875 17.8025,1.95036 34.14441,24.89803 54.75,61.5 -13.06398,-40.31026 -18.83081,-68.00757 -7.8125,-82.3125 17.92005,-2.1356 38.76138,17.00084 66.71875,48.8125 -21.04075,-36.6071 -32.40797,-62.46542 -24.75,-78.75 17.09141,-5.66339 41.399,8.74213 75.21875,34.0625 -29.64397,-33.20509 -46.34805,-56.93535 -39.59375,-74.78125 z"
         id="path3309"
         style="font-size:12px;fill:#000000;fill-opacity:1;fill-rule:evenodd;stroke:none"
         inkscape:connector-curvature="0" />
    </clipPath>
    <clipPath
       id="clipPath3311">
      <path
         d="m 381.9375,173.625 c -4.21332,42.13349 -10.03577,69.83124 -25.84375,78.53125 -17.27681,-5.22916 -28.69236,-31.13179 -41.53125,-71.5 4.55458,41.77797 4.61095,69.96794 -8.75,81.90625 -17.78835,-1.97776 -34.12725,-24.95431 -54.71875,-61.53125 13.0555,40.28403 18.83303,67.99943 7.84375,82.3125 -17.92384,2.14967 -38.78383,-16.95958 -66.75,-48.78125 21.06376,36.64714 32.42682,62.49985 24.71875,78.78125 -17.09049,5.60535 -41.41105,-8.8058 -75.1875,-34.09375 29.644,33.20511 46.34805,56.93535 39.59375,74.78125 10.6708,-14.25291 11.8868,-15.56615 17.875,-22.09375 5.58938,-6.09263 7.37985,-7.9614 18.34375,-17.78125 11.25046,-9.85812 13.26854,-11.37709 20.03125,-16.21875 6.9067,-4.94451 8.83177,-6.27851 22.5625,-14.1875 12.33451,-6.91037 14.78922,-8.04241 22.25,-11.3125 7.67774,-3.365 9.96838,-4.30144 24.5,-9.03125 13.208,-4.16737 15.8721,-4.79736 23.78125,-6.46875 8.26034,-1.7456 10.635,-2.20061 26.125,-3.90625 14.30407,-1.40317 16.96055,-1.46875 25.15625,-1.46875 8.85831,0 10.62725,0.01 28.34375,1.78125 13.10212,1.46659 15.92269,1.98412 23.6875,3.625 8.06288,1.70388 10.58999,2.32122 24.5,6.71875 13.79956,4.49943 16.24747,5.47934 23.78125,8.78125 7.46078,3.27009 9.91548,4.40213 22.25,11.3125 13.73073,7.90899 15.6558,9.24299 22.5625,14.1875 6.76271,4.84166 8.78078,6.36063 20.03125,16.21875 10.96381,9.82023 12.75437,11.68862 18.34375,17.78125 5.9882,6.5276 7.20417,7.84084 17.875,22.09375 -6.7543,-17.8459 9.94974,-41.57614 39.59375,-74.78125 -33.81975,25.32037 -58.12733,39.7259 -75.21875,34.0625 -7.65797,-16.28458 3.70927,-42.1429 24.75,-78.75 -27.95029,31.80361 -48.80176,50.9368 -66.71875,48.8125 -11.02566,-14.30287 -5.25367,-41.9956 7.8125,-82.3125 -20.60326,36.59783 -36.94985,59.54509 -54.75,61.5 -13.32788,-11.95522 -13.26959,-40.13141 -8.71875,-81.875 -12.94605,40.70516 -24.44869,66.66946 -41.96875,71.59375 -16.04038,-8.50889 -21.91562,-36.28182 -26.15625,-78.6875 z m 2.875,99.96875 c -1.37635,-0.005 -2.74998,0.0116 -4.125,0.0312 -73.3345,1.04709 -144.47788,37.47275 -186.65625,100.09375 -64.58021,97.0834 -49.12115,239.6031 62.40625,315.125 97.5272,64.4282 188.99395,36.13015 245.03125,5.03125 l -28,-48 c -60.39979,31.845 -131.1568,35.6623 -185.6875,-1.4375 -83.8576,-55.5432 -100.3532,-164.68105 -48.6875,-241.09375 50.833,-76.6977 156.02335,-100.0685 239.21875,-45.125 87.58159,59.3819 82.48805,162.54275 60.78125,208.71875 -9.5889,-6.5965 -19.19235,-13.18475 -28.78125,-19.78125 24.9959,-64.76217 -0.4447,-128.6783 -50.5,-162.1875 C 400.92381,345.54616 315.4392,352.2459 267.625,423.5 c -9.3484,14.13429 -9.36225,14.1554 -14.53125,28.0625 l 298.09375,199 c 12.3337,-12.84288 12.33425,-12.8473 20.21875,-24.625 67.0184,-100.11068 43.6842,-243.6293 -62.125,-314 -38.5768,-25.99295 -81.80179,-38.17927 -124.46875,-38.34375 z m 199.21875,371.5625 C 573.36046,659.40917 572.1757,660.7224 566.1875,667.25 c -5.67597,6.18706 -7.37489,7.95144 -18.8125,18.1875 -10.78937,9.44575 -12.93545,11.04559 -19.59375,15.8125 -6.50994,4.6605 -8.81667,6.24434 -20.5,13 -14.45549,8.12762 -16.40361,9.00226 -24.3125,12.46875 -7.53219,3.30119 -9.95847,4.31559 -23.75,8.8125 -13.91784,4.40011 -16.46669,5.01452 -24.53125,6.71875 -7.85097,1.6591 -10.59954,2.15064 -24.09375,3.65625 -17.21414,1.71782 -19.13867,1.71873 -27.90625,1.71875 -8.3454,0 -10.85061,-0.0498 -25.875,-1.53125 -14.78143,-1.63437 -17.28607,-2.09654 -25.40625,-3.8125 -8.06456,-1.70423 -10.6134,-2.31866 -24.53125,-6.71875 -13.79154,-4.49691 -16.21783,-5.48003 -23.75,-8.78125 -7.61208,-3.3364 -9.91741,-4.41451 -22.9375,-11.71875 -13.0274,-7.51241 -15.13014,-8.93022 -21.90625,-13.78125 -6.76271,-4.84166 -8.78078,-6.36064 -20.03125,-16.21875 -10.96381,-9.82023 -12.75438,-11.68864 -18.34375,-17.78125 -5.9882,-6.5276 -7.17295,-7.84086 -17.84375,-22.09375 6.7543,17.8459 -9.94976,41.57613 -39.59375,74.78125 33.79501,-25.30185 58.09802,-39.72364 75.1875,-34.09375 7.68616,16.2828 -3.69629,42.15158 -24.75,78.78125 27.97352,-31.83003 48.85426,-50.9427 66.78125,-48.78125 10.98226,14.31504 5.17844,42.03478 -7.875,82.3125 20.60326,-36.59783 36.94985,-59.57633 54.75,-61.53125 13.32788,11.95522 13.26959,40.16269 8.71875,81.90625 12.83495,-40.35584 24.26333,-66.25976 41.53125,-71.5 15.8262,8.68509 21.65955,36.37632 25.875,78.53125 4.24063,-42.40568 10.11585,-70.1786 26.15625,-78.6875 17.51525,4.93035 29.02481,30.89523 41.96875,71.59375 -4.55046,-41.74012 -4.63704,-69.91807 8.6875,-81.875 17.8025,1.95036 34.14441,24.89803 54.75,61.5 -13.06398,-40.31026 -18.83081,-68.00757 -7.8125,-82.3125 17.92005,-2.1356 38.76138,17.00084 66.71875,48.8125 -21.04075,-36.6071 -32.40797,-62.46542 -24.75,-78.75 17.09141,-5.66339 41.399,8.74213 75.21875,34.0625 -29.64397,-33.20509 -46.34805,-56.93535 -39.59375,-74.78125 z"
         id="path3313"
         style="font-size:12px;fill:#000000;fill-opacity:1;fill-rule:evenodd;stroke:none"
         inkscape:connector-curvature="0" />
    </clipPath>
    <filter
       color-interpolation-filters="sRGB"
       id="filter3366">
      <feGaussianBlur
         id="feGaussianBlur3368"
         stdDeviation="14.173227" />
    </filter>
    <linearGradient
       x1="382.54953"
       y1="280.10577"
       x2="382.54953"
       y2="557.28046"
       id="linearGradient3532"
       xlink:href="#linearGradient3509"
       gradientUnits="userSpaceOnUse"
       gradientTransform="translate(483.23468,-320.05191)" />
    <linearGradient
       x1="386.75247"
       y1="362.86322"
       x2="386.75247"
       y2="542.24011"
       id="linearGradient3542"
       xlink:href="#linearGradient3509"
       gradientUnits="userSpaceOnUse"
       gradientTransform="translate(609.2007,-383.81249)" />
    <radialGradient
       cx="524.92188"
       cy="558.96472"
       r="17.515625"
       fx="524.92188"
       fy="558.96472"
       id="radialGradient3550"
       xlink:href="#linearGradient3509"
       gradientUnits="userSpaceOnUse"
       gradientTransform="matrix(0.534932,-0.844895,1,0.633135,168.39468,510.467)" />
    <linearGradient
       x1="419.64124"
       y1="670.63263"
       x2="232.28918"
       y2="457.54633"
       id="linearGradient3558"
       xlink:href="#linearGradient3509"
       gradientUnits="userSpaceOnUse"
       gradientTransform="translate(-130.30422,-101.11715)" />
    <linearGradient
       x1="472.21875"
       y1="648.46875"
       x2="499.21875"
       y2="694.03125"
       id="linearGradient3566"
       xlink:href="#linearGradient3509"
       gradientUnits="userSpaceOnUse"
       gradientTransform="translate(556.32608,-246.96052)" />
    <linearGradient
       x1="381.34219"
       y1="191.93869"
       x2="383.04688"
       y2="247.90936"
       id="linearGradient3574"
       xlink:href="#linearGradient3509"
       gradientUnits="userSpaceOnUse"
       gradientTransform="translate(-107.717,-138.101)" />
    <linearGradient
       x1="318.69376"
       y1="198.74815"
       x2="318.86661"
       y2="255.63063"
       id="linearGradient3582"
       xlink:href="#linearGradient3509"
       gradientUnits="userSpaceOnUse"
       gradientTransform="translate(-107.717,-138.101)" />
    <linearGradient
       x1="445.7951"
       y1="198.44858"
       x2="438.59241"
       y2="255.81599"
       id="linearGradient3590"
       xlink:href="#linearGradient3509"
       gradientUnits="userSpaceOnUse"
       gradientTransform="translate(-107.717,-138.101)" />
    <linearGradient
       x1="257.7309"
       y1="240.82478"
       x2="300.71875"
       y2="240.82478"
       id="linearGradient3604"
       xlink:href="#linearGradient3509"
       gradientUnits="userSpaceOnUse"
       gradientTransform="translate(-107.717,-138.101)" />
    <linearGradient
       x1="202.37982"
       y1="249.44212"
       x2="245.95103"
       y2="286.28125"
       id="linearGradient3612"
       xlink:href="#linearGradient3509"
       gradientUnits="userSpaceOnUse"
       gradientTransform="translate(-107.717,-138.101)" />
    <linearGradient
       x1="154.62117"
       y1="291.5267"
       x2="210.60495"
       y2="315.24637"
       id="linearGradient3630"
       xlink:href="#linearGradient3509"
       gradientUnits="userSpaceOnUse"
       gradientTransform="translate(-107.717,-138.101)" />
    <linearGradient
       x1="506.375"
       y1="218.1875"
       x2="475.69058"
       y2="264.98077"
       id="linearGradient3640"
       xlink:href="#linearGradient3509"
       gradientUnits="userSpaceOnUse"
       gradientTransform="translate(-107.717,-138.101)" />
    <linearGradient
       x1="560.27661"
       y1="249.84375"
       x2="514.25"
       y2="285.78125"
       id="linearGradient3650"
       xlink:href="#linearGradient3509"
       gradientUnits="userSpaceOnUse"
       gradientTransform="translate(-107.717,-138.101)" />
    <linearGradient
       x1="609.40625"
       y1="291.875"
       x2="558.26556"
       y2="319.74561"
       id="linearGradient3658"
       xlink:href="#linearGradient3509"
       gradientUnits="userSpaceOnUse"
       gradientTransform="translate(-107.717,-138.101)" />
    <linearGradient
       x1="382.35052"
       y1="749.875"
       x2="382.35052"
       y2="779.81976"
       id="linearGradient3690"
       xlink:href="#linearGradient3509"
       gradientUnits="userSpaceOnUse"
       gradientTransform="translate(-107.717,-138.101)" />
    <linearGradient
       x1="433.34247"
       y1="743.75"
       x2="439.75153"
       y2="770.08527"
       id="linearGradient3692"
       xlink:href="#linearGradient3509"
       gradientUnits="userSpaceOnUse"
       gradientTransform="translate(-107.717,-138.101)" />
    <linearGradient
       x1="315.32422"
       y1="739.15625"
       x2="318.11243"
       y2="781.1015"
       id="linearGradient3694"
       xlink:href="#linearGradient3509"
       gradientUnits="userSpaceOnUse"
       gradientTransform="translate(-107.717,-138.101)" />
    <linearGradient
       x1="263.92017"
       y1="719.53125"
       x2="262.10007"
       y2="775.99207"
       id="linearGradient3696"
       xlink:href="#linearGradient3509"
       gradientUnits="userSpaceOnUse"
       gradientTransform="translate(-107.717,-138.101)" />
    <linearGradient
       x1="498.71881"
       y1="722.67517"
       x2="504.24789"
       y2="773.81586"
       id="linearGradient3698"
       xlink:href="#linearGradient3509"
       gradientUnits="userSpaceOnUse"
       gradientTransform="translate(-107.717,-138.101)" />
    <linearGradient
       x1="221.06584"
       y1="690.28125"
       x2="221.63947"
       y2="742.41943"
       id="linearGradient3700"
       xlink:href="#linearGradient3509"
       gradientUnits="userSpaceOnUse"
       gradientTransform="translate(-107.717,-138.101)" />
    <linearGradient
       x1="543.8891"
       y1="690.3689"
       x2="546.1084"
       y2="748.35437"
       id="linearGradient3702"
       xlink:href="#linearGradient3509"
       gradientUnits="userSpaceOnUse"
       gradientTransform="translate(-107.717,-138.101)" />
    <linearGradient
       x1="186.59787"
       y1="653.09375"
       x2="186.59787"
       y2="701.6875"
       id="linearGradient3704"
       xlink:href="#linearGradient3509"
       gradientUnits="userSpaceOnUse"
       gradientTransform="translate(-107.717,-138.101)" />
    <linearGradient
       x1="580.92993"
       y1="653.38116"
       x2="580.92993"
       y2="706.513"
       id="linearGradient3706"
       xlink:href="#linearGradient3262"
       gradientUnits="userSpaceOnUse"
       gradientTransform="translate(-107.717,-138.101)" />
    <radialGradient
       cx="382.67188"
       cy="70.85936"
       r="240.95312"
       fx="382.67188"
       fy="70.85936"
       id="radialGradient3241"
       xlink:href="#linearGradient3262"
       gradientUnits="userSpaceOnUse"
       gradientTransform="matrix(-3.61768,0,0,-1.87397,1767.06,306.414)" />
    <linearGradient
       inkscape:collect="always"
       xlink:href="#linearGradient3509"
       id="linearGradient4186"
       x1="-528.15625"
       y1="241.79688"
       x2="-117.8125"
       y2="241.79688"
       gradientUnits="userSpaceOnUse" />
    <linearGradient
       inkscape:collect="always"
       xlink:href="#linearGradient3509"
       id="linearGradient4188"
       gradientUnits="userSpaceOnUse"
       x1="-336.81763"
       y1="138.43004"
       x2="-337.74194"
       y2="314.3736" />
    <linearGradient
       inkscape:collect="always"
       xlink:href="#linearGradient3509"
       id="linearGradient4205"
       x1="277.94498"
       y1="706.17145"
       x2="273.60764"
       y2="441.79834"
       gradientUnits="userSpaceOnUse" />
    <linearGradient
       inkscape:collect="always"
       xlink:href="#linearGradient3262"
       id="linearGradient4257"
       x1="277.05917"
       y1="50.57579"
       x2="277.01678"
       y2="686.46735"
       gradientUnits="userSpaceOnUse" />
    <linearGradient
       inkscape:collect="always"
       xlink:href="#linearGradient3509"
       id="linearGradient4313"
       gradientUnits="userSpaceOnUse"
       gradientTransform="translate(-107.717,-138.101)"
       x1="381.34219"
       y1="191.93869"
       x2="383.04688"
       y2="247.90936" />
    <linearGradient
       inkscape:collect="always"
       xlink:href="#linearGradient3509"
       id="linearGradient4315"
       gradientUnits="userSpaceOnUse"
       gradientTransform="translate(-107.717,-138.101)"
       x1="318.69376"
       y1="198.74815"
       x2="318.86661"
       y2="255.63063" />
    <linearGradient
       inkscape:collect="always"
       xlink:href="#linearGradient3509"
       id="linearGradient4317"
       gradientUnits="userSpaceOnUse"
       gradientTransform="translate(-107.717,-138.101)"
       x1="445.7951"
       y1="198.44858"
       x2="438.59241"
       y2="255.81599" />
    <linearGradient
       inkscape:collect="always"
       xlink:href="#linearGradient3509"
       id="linearGradient4319"
       gradientUnits="userSpaceOnUse"
       gradientTransform="translate(-107.717,-138.101)"
       x1="257.7309"
       y1="240.82478"
       x2="300.71875"
       y2="240.82478" />
    <linearGradient
       inkscape:collect="always"
       xlink:href="#linearGradient3509"
       id="linearGradient4321"
       gradientUnits="userSpaceOnUse"
       gradientTransform="translate(-107.717,-138.101)"
       x1="506.375"
       y1="218.1875"
       x2="475.69058"
       y2="264.98077" />
    <linearGradient
       inkscape:collect="always"
       xlink:href="#linearGradient3509"
       id="linearGradient4323"
       gradientUnits="userSpaceOnUse"
       gradientTransform="translate(-107.717,-138.101)"
       x1="202.37982"
       y1="249.44212"
       x2="245.95103"
       y2="286.28125" />
    <linearGradient
       inkscape:collect="always"
       xlink:href="#linearGradient3509"
       id="linearGradient4325"
       gradientUnits="userSpaceOnUse"
       gradientTransform="translate(-107.717,-138.101)"
       x1="560.27661"
       y1="249.84375"
       x2="514.25"
       y2="285.78125" />
    <linearGradient
       inkscape:collect="always"
       xlink:href="#linearGradient3509"
       id="linearGradient4327"
       gradientUnits="userSpaceOnUse"
       gradientTransform="translate(-107.717,-138.101)"
       x1="154.62117"
       y1="291.5267"
       x2="210.60495"
       y2="315.24637" />
    <linearGradient
       inkscape:collect="always"
       xlink:href="#linearGradient3509"
       id="linearGradient4329"
       gradientUnits="userSpaceOnUse"
       gradientTransform="translate(-107.717,-138.101)"
       x1="609.40625"
       y1="291.875"
       x2="558.26556"
       y2="319.74561" />
    <linearGradient
       inkscape:collect="always"
       xlink:href="#linearGradient3262"
       id="linearGradient4331"
       gradientUnits="userSpaceOnUse"
       gradientTransform="translate(-107.717,-138.101)"
       x1="580.92993"
       y1="653.38116"
       x2="580.92993"
       y2="706.513" />
    <linearGradient
       inkscape:collect="always"
       xlink:href="#linearGradient3509"
       id="linearGradient4333"
       gradientUnits="userSpaceOnUse"
       gradientTransform="translate(-107.717,-138.101)"
       x1="186.59787"
       y1="653.09375"
       x2="186.59787"
       y2="701.6875" />
    <linearGradient
       inkscape:collect="always"
       xlink:href="#linearGradient3509"
       id="linearGradient4335"
       gradientUnits="userSpaceOnUse"
       gradientTransform="translate(-107.717,-138.101)"
       x1="543.8891"
       y1="690.3689"
       x2="546.1084"
       y2="748.35437" />
    <linearGradient
       inkscape:collect="always"
       xlink:href="#linearGradient3509"
       id="linearGradient4337"
       gradientUnits="userSpaceOnUse"
       gradientTransform="translate(-107.717,-138.101)"
       x1="221.06584"
       y1="690.28125"
       x2="221.63947"
       y2="742.41943" />
    <linearGradient
       inkscape:collect="always"
       xlink:href="#linearGradient3509"
       id="linearGradient4339"
       gradientUnits="userSpaceOnUse"
       gradientTransform="translate(-107.717,-138.101)"
       x1="498.71881"
       y1="722.67517"
       x2="504.24789"
       y2="773.81586" />
    <linearGradient
       inkscape:collect="always"
       xlink:href="#linearGradient3509"
       id="linearGradient4341"
       gradientUnits="userSpaceOnUse"
       gradientTransform="translate(-107.717,-138.101)"
       x1="263.92017"
       y1="719.53125"
       x2="262.10007"
       y2="775.99207" />
    <linearGradient
       inkscape:collect="always"
       xlink:href="#linearGradient3509"
       id="linearGradient4343"
       gradientUnits="userSpaceOnUse"
       gradientTransform="translate(-107.717,-138.101)"
       x1="315.32422"
       y1="739.15625"
       x2="318.11243"
       y2="781.1015" />
    <linearGradient
       inkscape:collect="always"
       xlink:href="#linearGradient3509"
       id="linearGradient4345"
       gradientUnits="userSpaceOnUse"
       gradientTransform="translate(-107.717,-138.101)"
       x1="433.34247"
       y1="743.75"
       x2="439.75153"
       y2="770.08527" />
    <linearGradient
       inkscape:collect="always"
       xlink:href="#linearGradient3509"
       id="linearGradient4347"
       gradientUnits="userSpaceOnUse"
       gradientTransform="translate(-107.717,-138.101)"
       x1="382.35052"
       y1="749.875"
       x2="382.35052"
       y2="779.81976" />
    <linearGradient
       inkscape:collect="always"
       xlink:href="#linearGradient3509"
       id="linearGradient4349"
       gradientUnits="userSpaceOnUse"
       x1="-336.81763"
       y1="138.43004"
       x2="-337.74194"
       y2="314.3736" />
    <linearGradient
       inkscape:collect="always"
       xlink:href="#linearGradient3509"
       id="linearGradient4351"
       gradientUnits="userSpaceOnUse"
       x1="-528.15625"
       y1="241.79688"
       x2="-117.8125"
       y2="241.79688" />
    <linearGradient
       inkscape:collect="always"
       xlink:href="#linearGradient3509"
       id="linearGradient4353"
       gradientUnits="userSpaceOnUse"
       x1="-528.15625"
       y1="241.79688"
       x2="-117.8125"
       y2="241.79688" />
    <linearGradient
       inkscape:collect="always"
       xlink:href="#linearGradient3509"
       id="linearGradient4355"
       gradientUnits="userSpaceOnUse"
       x1="277.94498"
       y1="706.17145"
       x2="273.60764"
       y2="441.79834" />
    <linearGradient
       inkscape:collect="always"
       xlink:href="#linearGradient3262"
       id="linearGradient4357"
       gradientUnits="userSpaceOnUse"
       x1="277.05917"
       y1="50.57579"
       x2="277.01678"
       y2="686.46735" />
    <linearGradient
       inkscape:collect="always"
       xlink:href="#linearGradient3262"
       id="linearGradient4643"
       gradientUnits="userSpaceOnUse"
       x1="277.05917"
       y1="50.57579"
       x2="277.01678"
       y2="686.46735"
       gradientTransform="translate(21.310663,6.9434737)" />
    <linearGradient
       inkscape:collect="always"
       xlink:href="#linearGradient3509"
       id="linearGradient4646"
       gradientUnits="userSpaceOnUse"
       x1="277.94498"
       y1="706.17145"
       x2="273.60764"
       y2="441.79834"
       gradientTransform="translate(21.310663,6.9434737)" />
    <linearGradient
       inkscape:collect="always"
       xlink:href="#linearGradient3509"
       id="linearGradient4652"
       gradientUnits="userSpaceOnUse"
       gradientTransform="translate(-86.406337,-131.15753)"
       x1="382.35052"
       y1="749.875"
       x2="382.35052"
       y2="779.81976" />
    <linearGradient
       inkscape:collect="always"
       xlink:href="#linearGradient3509"
       id="linearGradient4655"
       gradientUnits="userSpaceOnUse"
       gradientTransform="translate(-86.406337,-131.15753)"
       x1="433.34247"
       y1="743.75"
       x2="439.75153"
       y2="770.08527" />
    <linearGradient
       inkscape:collect="always"
       xlink:href="#linearGradient3509"
       id="linearGradient4658"
       gradientUnits="userSpaceOnUse"
       gradientTransform="translate(-86.406337,-131.15753)"
       x1="315.32422"
       y1="739.15625"
       x2="318.11243"
       y2="781.1015" />
    <linearGradient
       inkscape:collect="always"
       xlink:href="#linearGradient3509"
       id="linearGradient4661"
       gradientUnits="userSpaceOnUse"
       gradientTransform="translate(-86.406337,-131.15753)"
       x1="263.92017"
       y1="719.53125"
       x2="262.10007"
       y2="775.99207" />
    <linearGradient
       inkscape:collect="always"
       xlink:href="#linearGradient3509"
       id="linearGradient4664"
       gradientUnits="userSpaceOnUse"
       gradientTransform="translate(-86.406337,-131.15753)"
       x1="498.71881"
       y1="722.67517"
       x2="504.24789"
       y2="773.81586" />
    <linearGradient
       inkscape:collect="always"
       xlink:href="#linearGradient3509"
       id="linearGradient4667"
       gradientUnits="userSpaceOnUse"
       gradientTransform="translate(-86.406337,-131.15753)"
       x1="221.06584"
       y1="690.28125"
       x2="221.63947"
       y2="742.41943" />
    <linearGradient
       inkscape:collect="always"
       xlink:href="#linearGradient3509"
       id="linearGradient4670"
       gradientUnits="userSpaceOnUse"
       gradientTransform="translate(-86.406337,-131.15753)"
       x1="543.8891"
       y1="690.3689"
       x2="546.1084"
       y2="748.35437" />
    <linearGradient
       inkscape:collect="always"
       xlink:href="#linearGradient3509"
       id="linearGradient4673"
       gradientUnits="userSpaceOnUse"
       gradientTransform="translate(-86.406337,-131.15753)"
       x1="186.59787"
       y1="653.09375"
       x2="186.59787"
       y2="701.6875" />
    <linearGradient
       inkscape:collect="always"
       xlink:href="#linearGradient3262"
       id="linearGradient4676"
       gradientUnits="userSpaceOnUse"
       gradientTransform="translate(-86.406337,-131.15753)"
       x1="580.92993"
       y1="653.38116"
       x2="580.92993"
       y2="706.513" />
    <linearGradient
       inkscape:collect="always"
       xlink:href="#linearGradient3509"
       id="linearGradient4679"
       gradientUnits="userSpaceOnUse"
       gradientTransform="translate(-86.406337,-131.15753)"
       x1="609.40625"
       y1="291.875"
       x2="558.26556"
       y2="319.74561" />
    <linearGradient
       inkscape:collect="always"
       xlink:href="#linearGradient3509"
       id="linearGradient4682"
       gradientUnits="userSpaceOnUse"
       gradientTransform="translate(-86.406337,-131.15753)"
       x1="154.62117"
       y1="291.5267"
       x2="210.60495"
       y2="315.24637" />
    <linearGradient
       inkscape:collect="always"
       xlink:href="#linearGradient3509"
       id="linearGradient4685"
       gradientUnits="userSpaceOnUse"
       gradientTransform="translate(-86.406337,-131.15753)"
       x1="560.27661"
       y1="249.84375"
       x2="514.25"
       y2="285.78125" />
    <linearGradient
       inkscape:collect="always"
       xlink:href="#linearGradient3509"
       id="linearGradient4688"
       gradientUnits="userSpaceOnUse"
       gradientTransform="translate(-86.406337,-131.15753)"
       x1="202.37982"
       y1="249.44212"
       x2="245.95103"
       y2="286.28125" />
    <linearGradient
       inkscape:collect="always"
       xlink:href="#linearGradient3509"
       id="linearGradient4691"
       gradientUnits="userSpaceOnUse"
       gradientTransform="translate(-86.406337,-131.15753)"
       x1="506.375"
       y1="218.1875"
       x2="475.69058"
       y2="264.98077" />
    <linearGradient
       inkscape:collect="always"
       xlink:href="#linearGradient3509"
       id="linearGradient4694"
       gradientUnits="userSpaceOnUse"
       gradientTransform="translate(-86.406337,-131.15753)"
       x1="257.7309"
       y1="240.82478"
       x2="300.71875"
       y2="240.82478" />
    <linearGradient
       inkscape:collect="always"
       xlink:href="#linearGradient3509"
       id="linearGradient4697"
       gradientUnits="userSpaceOnUse"
       gradientTransform="translate(-86.406337,-131.15753)"
       x1="445.7951"
       y1="198.44858"
       x2="438.59241"
       y2="255.81599" />
    <linearGradient
       inkscape:collect="always"
       xlink:href="#linearGradient3509"
       id="linearGradient4700"
       gradientUnits="userSpaceOnUse"
       gradientTransform="translate(-86.406337,-131.15753)"
       x1="318.69376"
       y1="198.74815"
       x2="318.86661"
       y2="255.63063" />
    <linearGradient
       inkscape:collect="always"
       xlink:href="#linearGradient3509"
       id="linearGradient4703"
       gradientUnits="userSpaceOnUse"
       gradientTransform="translate(-86.406337,-131.15753)"
       x1="381.34219"
       y1="191.93869"
       x2="383.04688"
       y2="247.90936" />
    <linearGradient
       inkscape:collect="always"
       xlink:href="#linearGradient3509"
       id="linearGradient3081"
       gradientUnits="userSpaceOnUse"
       gradientTransform="translate(16.310663,30.943474)"
       x1="277.94498"
       y1="706.17145"
       x2="273.60764"
       y2="441.79834" />
    <radialGradient
       inkscape:collect="always"
       xlink:href="#linearGradient3088"
       id="radialGradient3864"
       cx="313.53436"
       cy="289.99045"
       fx="313.53436"
       fy="289.99045"
       r="229.53207"
       gradientTransform="matrix(1.7057836,0,0,1.000006,-221.28741,-0.00238337)"
       gradientUnits="userSpaceOnUse" />
    <radialGradient
       inkscape:collect="always"
       xlink:href="#linearGradient3088"
       id="radialGradient3874"
       gradientUnits="userSpaceOnUse"
       gradientTransform="matrix(1.7057836,0,0,1.000006,-221.28741,-0.00238337)"
       cx="313.53436"
       cy="289.99045"
       fx="313.53436"
       fy="289.99045"
       r="229.53207" />
    <linearGradient
       inkscape:collect="always"
       xlink:href="#linearGradient3509"
       id="linearGradient3876"
       gradientUnits="userSpaceOnUse"
       x1="-336.81763"
       y1="138.43004"
       x2="-337.74194"
       y2="314.3736" />
    <linearGradient
       inkscape:collect="always"
       xlink:href="#linearGradient3509"
       id="linearGradient3878"
       gradientUnits="userSpaceOnUse"
       x1="-528.15625"
       y1="241.79688"
       x2="-117.8125"
       y2="241.79688" />
    <linearGradient
       inkscape:collect="always"
       xlink:href="#linearGradient3509"
       id="linearGradient3880"
       gradientUnits="userSpaceOnUse"
       x1="-528.15625"
       y1="241.79688"
       x2="-117.8125"
       y2="241.79688" />
    <linearGradient
       inkscape:collect="always"
       xlink:href="#linearGradient3509"
       id="linearGradient3882"
       gradientUnits="userSpaceOnUse"
       gradientTransform="translate(16.310663,30.943474)"
       x1="277.94498"
       y1="706.17145"
       x2="273.60764"
       y2="441.79834" />
    <linearGradient
       inkscape:collect="always"
       xlink:href="#linearGradient3509"
       id="linearGradient3885"
       gradientUnits="userSpaceOnUse"
       gradientTransform="matrix(0.48397623,0,0,0.48397623,119.26884,103.58918)"
       x1="277.94498"
       y1="706.17145"
       x2="273.60764"
       y2="441.79834" />
    <radialGradient
       inkscape:collect="always"
       xlink:href="#linearGradient3088-0"
       id="radialGradient3891"
       gradientUnits="userSpaceOnUse"
       gradientTransform="matrix(0.9556104,0,0,0.56022119,-56.401027,94.827059)"
       cx="313.53436"
       cy="289.99045"
       fx="313.53436"
       fy="289.99045"
       r="229.53207" />
    <linearGradient
       id="linearGradient3088-0">
      <stop
         style="stop-color:#73d216;stop-opacity:1;"
         offset="0"
         id="stop3090-1" />
      <stop
         style="stop-color:#62b312;stop-opacity:1;"
         offset="1"
         id="stop3092-1" />
    </linearGradient>
    <radialGradient
       inkscape:collect="always"
       xlink:href="#linearGradient3088-4"
       id="radialGradient3891-7"
       gradientUnits="userSpaceOnUse"
       gradientTransform="matrix(0.9556104,0,0,0.56022119,-50.040202,94.827059)"
       cx="313.53436"
       cy="289.99045"
       fx="313.53436"
       fy="289.99045"
       r="229.53207" />
    <linearGradient
       id="linearGradient3088-4">
      <stop
         style="stop-color:#73d216;stop-opacity:1;"
         offset="0"
         id="stop3090-5" />
      <stop
         style="stop-color:#62b312;stop-opacity:1;"
         offset="1"
         id="stop3092-10" />
    </linearGradient>
    <linearGradient
       id="linearGradient3088-1">
      <stop
         style="stop-color:#73d216;stop-opacity:1;"
         offset="0"
         id="stop3090-6" />
      <stop
         style="stop-color:#62b312;stop-opacity:1;"
         offset="1"
         id="stop3092-9" />
    </linearGradient>
    <radialGradient
       inkscape:collect="always"
       xlink:href="#linearGradient3088-1"
       id="radialGradient4095"
       gradientUnits="userSpaceOnUse"
       gradientTransform="matrix(0.29118174,0,0,0.17070364,334.68607,-8.2108317)"
       cx="313.53436"
       cy="289.99045"
       fx="313.53436"
       fy="289.99045"
       r="229.53207" />
    <linearGradient
       id="linearGradient3088-3">
      <stop
         style="stop-color:#73d216;stop-opacity:1;"
         offset="0"
         id="stop3090-3" />
      <stop
         style="stop-color:#62b312;stop-opacity:1;"
         offset="1"
         id="stop3092-2" />
    </linearGradient>
    <radialGradient
       inkscape:collect="always"
       xlink:href="#linearGradient3088"
       id="radialGradient4434"
       gradientUnits="userSpaceOnUse"
       gradientTransform="matrix(0.29153492,0,0,0.1709107,-12.788455,-8.5719952)"
       cx="313.53436"
       cy="289.99045"
       fx="313.53436"
       fy="289.99045"
       r="229.53207" />
    <radialGradient
       inkscape:collect="always"
       xlink:href="#linearGradient3088"
       id="radialGradient4447"
       gradientUnits="userSpaceOnUse"
       gradientTransform="matrix(0.29153492,0,0,0.1709107,-12.788455,-8.5719952)"
       cx="313.53436"
       cy="289.99045"
       fx="313.53436"
       fy="289.99045"
       r="229.53207" />
    <radialGradient
       inkscape:collect="always"
       xlink:href="#linearGradient3088"
       id="radialGradient4750"
       gradientUnits="userSpaceOnUse"
       gradientTransform="matrix(0.29153492,0,0,0.1709107,107.07047,110.428)"
       cx="313.53436"
       cy="289.99045"
       fx="313.53436"
       fy="289.99045"
       r="229.53207" />
    <radialGradient
       inkscape:collect="always"
       xlink:href="#linearGradient3088"
       id="radialGradient5039"
       gradientUnits="userSpaceOnUse"
       gradientTransform="matrix(0.29153492,0,0,0.1709107,219.14256,110.428)"
       cx="313.53436"
       cy="289.99045"
       fx="313.53436"
       fy="289.99045"
       r="229.53207" />
    <radialGradient
       inkscape:collect="always"
       xlink:href="#linearGradient3088"
       id="radialGradient5486"
       gradientUnits="userSpaceOnUse"
       gradientTransform="matrix(0.29153492,0,0,0.1709107,107.07047,110.428)"
       cx="313.53436"
       cy="289.99045"
       fx="313.53436"
       fy="289.99045"
       r="229.53207" />
    <radialGradient
       inkscape:collect="always"
       xlink:href="#linearGradient3088"
       id="radialGradient5491"
       gradientUnits="userSpaceOnUse"
       gradientTransform="matrix(0.29153492,0,0,0.1709107,331.43855,110.428)"
       cx="313.53436"
       cy="289.99045"
       fx="313.53436"
       fy="289.99045"
       r="229.53207" />
    <radialGradient
       inkscape:collect="always"
       xlink:href="#linearGradient3088"
       id="radialGradient5504"
       gradientUnits="userSpaceOnUse"
       gradientTransform="matrix(0.29153492,0,0,0.1709107,331.43855,110.428)"
       cx="313.53436"
       cy="289.99045"
       fx="313.53436"
       fy="289.99045"
       r="229.53207" />
    <radialGradient
       inkscape:collect="always"
       xlink:href="#linearGradient3088-0"
       id="radialGradient5511"
       gradientUnits="userSpaceOnUse"
       gradientTransform="matrix(0.29196366,0,0,0.17116204,107.02856,-8.5679791)"
       cx="313.53436"
       cy="289.99045"
       fx="313.53436"
       fy="289.99045"
       r="229.53207" />
    <radialGradient
       inkscape:collect="always"
       xlink:href="#linearGradient3088-4"
       id="radialGradient5518"
       gradientUnits="userSpaceOnUse"
       gradientTransform="matrix(0.29153489,0,0,0.17091068,219.18504,-8.380723)"
       cx="313.53436"
       cy="289.99045"
       fx="313.53436"
       fy="289.99045"
       r="229.53207" />
    <radialGradient
       inkscape:collect="always"
       xlink:href="#linearGradient3088-1"
       id="radialGradient5525"
       gradientUnits="userSpaceOnUse"
       gradientTransform="matrix(0.29118174,0,0,0.17070364,334.68607,-8.2108317)"
       cx="313.53436"
       cy="289.99045"
       fx="313.53436"
       fy="289.99045"
       r="229.53207" />
    <radialGradient
       inkscape:collect="always"
       xlink:href="#linearGradient3088"
       id="radialGradient5528"
       gradientUnits="userSpaceOnUse"
       gradientTransform="matrix(0.29153492,0,0,0.1709107,-12.788455,110.428)"
       cx="313.53436"
       cy="289.99045"
       fx="313.53436"
       fy="289.99045"
       r="229.53207" />
    <radialGradient
       inkscape:collect="always"
       xlink:href="#linearGradient3088"
       id="radialGradient5534"
       gradientUnits="userSpaceOnUse"
       gradientTransform="matrix(0.29153492,0,0,0.1709107,107.07047,110.428)"
       cx="313.53436"
       cy="289.99045"
       fx="313.53436"
       fy="289.99045"
       r="229.53207" />
    <radialGradient
       inkscape:collect="always"
       xlink:href="#linearGradient3088"
       id="radialGradient5537"
       gradientUnits="userSpaceOnUse"
       gradientTransform="matrix(0.29153492,0,0,0.1709107,107.07047,110.428)"
       cx="313.53436"
       cy="289.99045"
       fx="313.53436"
       fy="289.99045"
       r="229.53207" />
    <radialGradient
       inkscape:collect="always"
       xlink:href="#linearGradient3088"
       id="radialGradient5544"
       gradientUnits="userSpaceOnUse"
       gradientTransform="matrix(0.29153492,0,0,0.1709107,219.14256,110.428)"
       cx="313.53436"
       cy="289.99045"
       fx="313.53436"
       fy="289.99045"
       r="229.53207" />
    <radialGradient
       inkscape:collect="always"
       xlink:href="#linearGradient3088"
       id="radialGradient5551"
       gradientUnits="userSpaceOnUse"
       gradientTransform="matrix(0.29153492,0,0,0.1709107,334.56654,110.428)"
       cx="313.53436"
       cy="289.99045"
       fx="313.53436"
       fy="289.99045"
       r="229.53207" />
    <radialGradient
       inkscape:collect="always"
       xlink:href="#linearGradient3088"
       id="radialGradient5600"
       gradientUnits="userSpaceOnUse"
       gradientTransform="matrix(0.29153492,0,0,0.1709107,-12.788455,-8.5719952)"
       cx="313.53436"
       cy="289.99045"
       fx="313.53436"
       fy="289.99045"
       r="229.53207" />
    <radialGradient
       inkscape:collect="always"
       xlink:href="#linearGradient3088-0"
       id="radialGradient5602"
       gradientUnits="userSpaceOnUse"
       gradientTransform="matrix(0.29196366,0,0,0.17116204,107.02856,-8.5679791)"
       cx="313.53436"
       cy="289.99045"
       fx="313.53436"
       fy="289.99045"
       r="229.53207" />
    <radialGradient
       inkscape:collect="always"
       xlink:href="#linearGradient3088-4"
       id="radialGradient5604"
       gradientUnits="userSpaceOnUse"
       gradientTransform="matrix(0.29153489,0,0,0.17091068,219.18504,-8.380723)"
       cx="313.53436"
       cy="289.99045"
       fx="313.53436"
       fy="289.99045"
       r="229.53207" />
    <radialGradient
       inkscape:collect="always"
       xlink:href="#linearGradient3088-1"
       id="radialGradient5606"
       gradientUnits="userSpaceOnUse"
       gradientTransform="matrix(0.29118174,0,0,0.17070364,334.68607,-8.2108317)"
       cx="313.53436"
       cy="289.99045"
       fx="313.53436"
       fy="289.99045"
       r="229.53207" />
    <radialGradient
       inkscape:collect="always"
       xlink:href="#linearGradient3088"
       id="radialGradient5608"
       gradientUnits="userSpaceOnUse"
       gradientTransform="matrix(0.29153492,0,0,0.1709107,-12.788455,110.428)"
       cx="313.53436"
       cy="289.99045"
       fx="313.53436"
       fy="289.99045"
       r="229.53207" />
    <radialGradient
       inkscape:collect="always"
       xlink:href="#linearGradient3088"
       id="radialGradient5610"
       gradientUnits="userSpaceOnUse"
       gradientTransform="matrix(0.29153492,0,0,0.1709107,107.07047,110.428)"
       cx="313.53436"
       cy="289.99045"
       fx="313.53436"
       fy="289.99045"
       r="229.53207" />
    <radialGradient
       inkscape:collect="always"
       xlink:href="#linearGradient3088"
       id="radialGradient5612"
       gradientUnits="userSpaceOnUse"
       gradientTransform="matrix(0.29153492,0,0,0.1709107,219.14256,110.428)"
       cx="313.53436"
       cy="289.99045"
       fx="313.53436"
       fy="289.99045"
       r="229.53207" />
    <radialGradient
       inkscape:collect="always"
       xlink:href="#linearGradient3088"
       id="radialGradient5614"
       gradientUnits="userSpaceOnUse"
       gradientTransform="matrix(0.29153492,0,0,0.1709107,334.56654,110.428)"
       cx="313.53436"
       cy="289.99045"
       fx="313.53436"
       fy="289.99045"
       r="229.53207" />
    <radialGradient
       inkscape:collect="always"
       xlink:href="#linearGradient3088"
       id="radialGradient5617"
       gradientUnits="userSpaceOnUse"
       gradientTransform="matrix(0.29153492,0,0,0.1709107,328.35178,110.55059)"
       cx="313.53436"
       cy="289.99045"
       fx="313.53436"
       fy="289.99045"
       r="229.53207" />
    <radialGradient
       inkscape:collect="always"
       xlink:href="#linearGradient3088"
       id="radialGradient5624"
       gradientUnits="userSpaceOnUse"
       gradientTransform="matrix(0.29153492,0,0,0.1709107,213.08718,110.55059)"
       cx="313.53436"
       cy="289.99045"
       fx="313.53436"
       fy="289.99045"
       r="229.53207" />
    <radialGradient
       inkscape:collect="always"
       xlink:href="#linearGradient3088"
       id="radialGradient5631"
       gradientUnits="userSpaceOnUse"
       gradientTransform="matrix(0.29153492,0,0,0.1709107,101.01509,110.55059)"
       cx="313.53436"
       cy="289.99045"
       fx="313.53436"
       fy="289.99045"
       r="229.53207" />
    <radialGradient
       inkscape:collect="always"
       xlink:href="#linearGradient3088"
       id="radialGradient5638"
       gradientUnits="userSpaceOnUse"
       gradientTransform="matrix(0.29153492,0,0,0.1709107,-18.843834,110.55059)"
       cx="313.53436"
       cy="289.99045"
       fx="313.53436"
       fy="289.99045"
       r="229.53207" />
    <radialGradient
       inkscape:collect="always"
       xlink:href="#linearGradient3088-1"
       id="radialGradient5649"
       gradientUnits="userSpaceOnUse"
       gradientTransform="matrix(0.29118174,0,0,0.17070364,328.63069,-8.0882437)"
       cx="313.53436"
       cy="289.99045"
       fx="313.53436"
       fy="289.99045"
       r="229.53207" />
    <radialGradient
       inkscape:collect="always"
       xlink:href="#linearGradient3088-4"
       id="radialGradient5656"
       gradientUnits="userSpaceOnUse"
       gradientTransform="matrix(0.29153489,0,0,0.17091068,213.12966,-8.258135)"
       cx="313.53436"
       cy="289.99045"
       fx="313.53436"
       fy="289.99045"
       r="229.53207" />
    <radialGradient
       inkscape:collect="always"
       xlink:href="#linearGradient3088-0"
       id="radialGradient5663"
       gradientUnits="userSpaceOnUse"
       gradientTransform="matrix(0.29196366,0,0,0.17116204,100.97318,-8.4453911)"
       cx="313.53436"
       cy="289.99045"
       fx="313.53436"
       fy="289.99045"
       r="229.53207" />
    <radialGradient
       inkscape:collect="always"
       xlink:href="#linearGradient3088"
       id="radialGradient5670"
       gradientUnits="userSpaceOnUse"
       gradientTransform="matrix(0.29153492,0,0,0.1709107,-18.843834,-8.4494072)"
       cx="313.53436"
       cy="289.99045"
       fx="313.53436"
       fy="289.99045"
       r="229.53207" />
    <radialGradient
       inkscape:collect="always"
       xlink:href="#linearGradient3088"
       id="radialGradient5714"
       gradientUnits="userSpaceOnUse"
       gradientTransform="matrix(0.29153492,0,0,0.1709107,-18.843834,-8.4494072)"
       cx="313.53436"
       cy="289.99045"
       fx="313.53436"
       fy="289.99045"
       r="229.53207" />
    <radialGradient
       inkscape:collect="always"
       xlink:href="#linearGradient3088-0"
       id="radialGradient5716"
       gradientUnits="userSpaceOnUse"
       gradientTransform="matrix(0.29196366,0,0,0.17116204,100.97318,-8.4453911)"
       cx="313.53436"
       cy="289.99045"
       fx="313.53436"
       fy="289.99045"
       r="229.53207" />
    <radialGradient
       inkscape:collect="always"
       xlink:href="#linearGradient3088-4"
       id="radialGradient5718"
       gradientUnits="userSpaceOnUse"
       gradientTransform="matrix(0.29153489,0,0,0.17091068,213.12966,-8.258135)"
       cx="313.53436"
       cy="289.99045"
       fx="313.53436"
       fy="289.99045"
       r="229.53207" />
    <radialGradient
       inkscape:collect="always"
       xlink:href="#linearGradient3088-1"
       id="radialGradient5720"
       gradientUnits="userSpaceOnUse"
       gradientTransform="matrix(0.29118174,0,0,0.17070364,328.63069,-8.0882437)"
       cx="313.53436"
       cy="289.99045"
       fx="313.53436"
       fy="289.99045"
       r="229.53207" />
    <radialGradient
       inkscape:collect="always"
       xlink:href="#linearGradient3088"
       id="radialGradient5722"
       gradientUnits="userSpaceOnUse"
       gradientTransform="matrix(0.29153492,0,0,0.1709107,-18.843834,110.55059)"
       cx="313.53436"
       cy="289.99045"
       fx="313.53436"
       fy="289.99045"
       r="229.53207" />
    <radialGradient
       inkscape:collect="always"
       xlink:href="#linearGradient3088"
       id="radialGradient5724"
       gradientUnits="userSpaceOnUse"
       gradientTransform="matrix(0.29153492,0,0,0.1709107,101.01509,110.55059)"
       cx="313.53436"
       cy="289.99045"
       fx="313.53436"
       fy="289.99045"
       r="229.53207" />
    <radialGradient
       inkscape:collect="always"
       xlink:href="#linearGradient3088"
       id="radialGradient5726"
       gradientUnits="userSpaceOnUse"
       gradientTransform="matrix(0.29153492,0,0,0.1709107,213.08718,110.55059)"
       cx="313.53436"
       cy="289.99045"
       fx="313.53436"
       fy="289.99045"
       r="229.53207" />
    <radialGradient
       inkscape:collect="always"
       xlink:href="#linearGradient3088"
       id="radialGradient5728"
       gradientUnits="userSpaceOnUse"
       gradientTransform="matrix(0.29153492,0,0,0.1709107,328.35178,110.55059)"
       cx="313.53436"
       cy="289.99045"
       fx="313.53436"
       fy="289.99045"
       r="229.53207" />
    <radialGradient
       inkscape:collect="always"
       xlink:href="#linearGradient3088"
       id="radialGradient5731"
       gradientUnits="userSpaceOnUse"
       gradientTransform="matrix(0.29153492,0,0,0.1709107,328.35178,110.55059)"
       cx="313.53436"
       cy="289.99045"
       fx="313.53436"
       fy="289.99045"
       r="229.53207" />
    <radialGradient
       inkscape:collect="always"
       xlink:href="#linearGradient3088"
       id="radialGradient5738"
       gradientUnits="userSpaceOnUse"
       gradientTransform="matrix(0.29153492,0,0,0.1709107,213.08718,110.55059)"
       cx="313.53436"
       cy="289.99045"
       fx="313.53436"
       fy="289.99045"
       r="229.53207" />
    <radialGradient
       inkscape:collect="always"
       xlink:href="#linearGradient3088"
       id="radialGradient5745"
       gradientUnits="userSpaceOnUse"
       gradientTransform="matrix(0.29153492,0,0,0.1709107,105.65165,110.55059)"
       cx="313.53436"
       cy="289.99045"
       fx="313.53436"
       fy="289.99045"
       r="229.53207" />
    <radialGradient
       inkscape:collect="always"
       xlink:href="#linearGradient3088"
       id="radialGradient5752"
       gradientUnits="userSpaceOnUse"
       gradientTransform="matrix(0.29153492,0,0,0.1709107,-18.843834,110.55059)"
       cx="313.53436"
       cy="289.99045"
       fx="313.53436"
       fy="289.99045"
       r="229.53207" />
    <radialGradient
       inkscape:collect="always"
       xlink:href="#linearGradient3088-1"
       id="radialGradient5763"
       gradientUnits="userSpaceOnUse"
       gradientTransform="matrix(0.29118174,0,0,0.17070364,328.63069,-8.0882437)"
       cx="313.53436"
       cy="289.99045"
       fx="313.53436"
       fy="289.99045"
       r="229.53207" />
    <radialGradient
       inkscape:collect="always"
       xlink:href="#linearGradient3088-4"
       id="radialGradient5770"
       gradientUnits="userSpaceOnUse"
       gradientTransform="matrix(0.29153489,0,0,0.17091068,213.12966,-8.258135)"
       cx="313.53436"
       cy="289.99045"
       fx="313.53436"
       fy="289.99045"
       r="229.53207" />
    <radialGradient
       inkscape:collect="always"
       xlink:href="#linearGradient3088-0"
       id="radialGradient5777"
       gradientUnits="userSpaceOnUse"
       gradientTransform="matrix(0.29196366,0,0,0.17116204,100.97318,-8.4453911)"
       cx="313.53436"
       cy="289.99045"
       fx="313.53436"
       fy="289.99045"
       r="229.53207" />
    <radialGradient
       inkscape:collect="always"
       xlink:href="#linearGradient3088"
       id="radialGradient5784"
       gradientUnits="userSpaceOnUse"
       gradientTransform="matrix(0.29153492,0,0,0.1709107,-18.843834,-8.4494072)"
       cx="313.53436"
       cy="289.99045"
       fx="313.53436"
       fy="289.99045"
       r="229.53207" />
    <radialGradient
       inkscape:collect="always"
       xlink:href="#linearGradient3088"
       id="radialGradient5793"
       gradientUnits="userSpaceOnUse"
       gradientTransform="matrix(0.29153492,0,0,0.1709107,105.65165,110.55059)"
       cx="313.53436"
       cy="289.99045"
       fx="313.53436"
       fy="289.99045"
       r="229.53207" />
    <radialGradient
       inkscape:collect="always"
       xlink:href="#linearGradient3088"
       id="radialGradient5796"
       gradientUnits="userSpaceOnUse"
       gradientTransform="matrix(0.29153492,0,0,0.1709107,101.16087,110.55059)"
       cx="313.53436"
       cy="289.99045"
       fx="313.53436"
       fy="289.99045"
       r="229.53207" />
  </defs>
  <path
     style="fill:#000000"
     d=""
     id="path3316"
     inkscape:connector-curvature="0" />
  <path
     style="fill:#000000"
     d=""
     id="path3314"
     inkscape:connector-curvature="0" />
  <flowRoot
     xml:space="preserve"
     id="flowRoot3242"
     style="font-size:40px;font-style:normal;font-variant:normal;font-weight:300;font-stretch:normal;line-height:125%;letter-spacing:0px;word-spacing:0px;fill:#000000;fill-opacity:1;stroke:none;font-family:Helvetica Neue LT Pro;-inkscape-font-specification:Helvetica Neue LT Pro Light"
     transform="translate(-0.05537895,0.122588)"><flowRegion
       id="flowRegion3244"><rect
         id="rect3246"
         width="144"
         height="66"
         x="43"
         y="439.98151" /></flowRegion><flowPara
       id="flowPara3248" /></flowRoot>  <path
     id="path3378"
     d="m 69.315335,20 c -21.664411,0 -39.229491,17.563201 -39.229491,39.229016 0,21.666297 17.565547,39.229962 39.229491,39.229962 21.663466,0 39.229015,-17.563665 39.229015,-39.229962 C 108.54435,37.563201 90.978801,20 69.315335,20 z m 0.18758,5.432634 c 18.666708,0 33.811405,15.132493 33.811405,33.796382 0,18.666708 -15.146564,33.796858 -33.811405,33.796858 -10.079249,0 -19.123485,-4.417295 -25.314925,-11.414908 2.545607,-1.976268 6.804862,-1.494164 12.050368,-0.896219 2.513723,0.286077 5.379643,0.613892 8.337018,0.679547 8.26339,0.04783 17.15473,-1.459925 22.642233,-3.858268 3.547336,-1.556077 5.819063,-2.580312 7.239132,-3.872817 0.51212,-0.419732 0.78038,-1.121318 1.05427,-1.849183 l 0.18758,-0.491019 c 0.22979,-0.588097 0.56042,-1.852932 0.70815,-2.54326 0.0661,-0.30202 0.099,-0.627031 -0.11536,-0.794455 l -0.76585,0.144448 c -2.408188,1.443982 -8.423297,4.193597 -14.05946,4.306152 -6.983546,0.146315 -21.058022,-7.030445 -22.525928,-7.78783 l -0.144448,-0.173537 c -0.351733,-0.839938 -2.45837,-5.840171 -2.904374,-6.892083 10.131317,6.671665 18.530707,10.364398 24.968357,10.937953 7.157535,0.63593 12.740236,-3.272054 15.128273,-4.941607 0.46616,-0.317963 0.82164,-0.567468 0.96797,-0.621399 l 0.15851,-0.260286 C 96.718611,60.181983 92.963051,48.007802 90.13558,45.08372 89.351453,44.281769 88.728653,43.500924 87.462884,42.757601 77.227924,36.792207 52.925504,33.199365 51.787773,33.033351 l -0.188061,0.05815 -0.07222,0.158982 c 0,0 -0.09098,5.046196 -0.101295,5.606159 C 50.592354,38.58088 48.006413,37.733906 44.302901,36.718103 49.136178,30.73817 56.542268,25.43263 69.502919,25.43263 z m 8.929813,17.888203 c 0.172104,-0.0047 0.346104,-0.0061 0.520093,0 5.733245,0.205876 10.237777,5.034939 10.041731,10.764435 -0.101762,2.771659 -1.270448,5.332743 -3.294562,7.224608 -2.029736,1.901696 -4.667723,2.893114 -7.45486,2.803062 -5.723867,-0.213838 -10.228398,-5.042901 -10.042682,-10.764429 0.09801,-2.775875 1.272797,-5.353369 3.309108,-7.239139 1.900765,-1.782572 4.333813,-2.749618 6.921172,-2.788537 z M 78.1579,46.384206 c -1.670032,0.101761 -3.24532,0.779893 -4.479195,1.936398 -1.405994,1.319715 -2.236088,3.106985 -2.29707,5.042916 -0.132714,3.999437 2.997243,7.365292 6.993397,7.51349 1.942033,0.05956 3.782783,-0.620454 5.200959,-1.936405 1.414441,-1.326274 2.237491,-3.129487 2.298,-5.056992 0.133651,-4.006002 -3.010834,-7.359191 -7.00794,-7.499407 -0.24153,-0.0089 -0.469907,-0.01449 -0.708151,0 z m 1.907324,3.626592 c 1.776025,0 3.20781,0.965161 3.20781,2.153086 0,1.18228 -1.431785,2.153066 -3.20781,2.153066 -1.781642,0 -3.222338,-0.972653 -3.222338,-2.153066 0,-1.187925 1.440696,-2.153086 3.222338,-2.153086 z"
     inkscape:connector-curvature="0"
     style="fill:url(#radialGradient5784);fill-opacity:1" />
  <flowRoot
     xml:space="preserve"
     id="flowRoot3894"
     style="font-size:40px;font-style:normal;font-variant:normal;font-weight:300;font-stretch:normal;line-height:125%;letter-spacing:0px;word-spacing:0px;fill:#000000;fill-opacity:1;stroke:none;font-family:Helvetica Neue LT Pro;-inkscape-font-specification:Helvetica Neue LT Pro Light"
     transform="matrix(0.30507717,0,0,0.30507717,-11.467842,-23.844156)"><flowRegion
       id="flowRegion3896"><rect
         id="rect3898"
         width="390"
         height="144"
         x="83"
         y="428.98151" /></flowRegion><flowPara
       id="flowPara3900"
       style="font-style:normal;font-variant:normal;font-weight:normal;font-stretch:normal;fill:#4e9a06;fill-opacity:1;font-family:Code Bold;-inkscape-font-specification:Code Bold">Fuck you I'm a cat</flowPara></flowRoot>  <path
     id="path3378-9"
     d="m 189.262,20.045855 c -21.69627,0 -39.28718,17.589031 -39.28718,39.286708 0,21.698161 17.59137,39.287655 39.28718,39.287655 21.69533,0 39.2867,-17.589494 39.2867,-39.287655 0,-21.697677 -17.59137,-39.286708 -39.2867,-39.286708 z m 0.18786,5.440624 c 18.69416,0 33.86113,15.154747 33.86113,33.846084 0,18.69416 -15.16884,33.846561 -33.86113,33.846561 -10.09408,0 -19.15161,-4.423791 -25.35216,-11.431695 2.54935,-1.979175 6.81487,-1.496362 12.06809,-0.897537 2.51742,0.286498 5.38756,0.614794 8.34928,0.680547 8.27554,0.0479 17.17996,-1.462073 22.67553,-3.863943 3.55256,-1.558365 5.82762,-2.584107 7.24978,-3.878513 0.51287,-0.420348 0.78153,-1.122966 1.05582,-1.851902 l 0.18786,-0.491741 c 0.23013,-0.588962 0.56124,-1.855657 0.70919,-2.547 0.0662,-0.302465 0.0991,-0.627954 -0.11553,-0.795623 l -0.76697,0.14466 c -2.41174,1.446106 -8.43569,4.199764 -14.08014,4.312485 -6.99382,0.14653 -21.08899,-7.040785 -22.55906,-7.799283 l -0.14466,-0.173792 c -0.35225,-0.841174 -2.46199,-5.848761 -2.90865,-6.90222 10.14622,6.681477 18.55796,10.379641 25.00508,10.954039 7.16806,0.636865 12.75897,-3.276865 15.15052,-4.948874 0.46684,-0.318431 0.82285,-0.568302 0.9694,-0.622313 l 0.15874,-0.260669 c -0.39641,-2.518819 -4.15749,-14.710903 -6.98912,-17.639286 -0.78528,-0.80313 -1.40899,-1.585123 -2.67662,-2.32954 -10.25002,-5.974166 -34.58818,-9.572292 -35.72758,-9.73855 l -0.18834,0.05824 -0.0723,0.159216 c 0,0 -0.0911,5.053617 -0.10144,5.614404 -0.83507,-0.276168 -3.42482,-1.124387 -7.13377,-2.141684 4.84038,-5.988728 12.25736,-11.30207 25.23707,-11.30207 z m 8.94294,17.91451 c 0.17236,-0.0047 0.34662,-0.0061 0.52086,0 5.74168,0.206178 10.25283,5.042343 10.0565,10.780265 -0.10191,2.775736 -1.27232,5.340586 -3.29941,7.235234 -2.03272,1.904492 -4.67459,2.897368 -7.46582,2.807183 -5.73229,-0.214152 -10.24344,-5.050317 -10.05745,-10.780259 0.0982,-2.779958 1.27467,-5.361242 3.31397,-7.249785 1.90356,-1.785194 4.34019,-2.753662 6.93135,-2.792638 z m -0.27523,3.067874 c -1.67249,0.101911 -3.25009,0.78104 -4.48578,1.939245 -1.40806,1.321656 -2.23938,3.111555 -2.30045,5.050333 -0.13291,4.005318 3.00165,7.376124 7.00368,7.524539 1.94489,0.05965 3.78835,-0.621366 5.20861,-1.939252 1.41652,-1.328224 2.24078,-3.13409 2.30138,-5.06443 0.13384,-4.011893 -3.01527,-7.370013 -7.01825,-7.510435 -0.24189,-0.0089 -0.4706,-0.01451 -0.70919,0 z m 1.91013,3.631926 c 1.77863,0 3.21252,0.966579 3.21252,2.156251 0,1.18402 -1.43389,2.156233 -3.21252,2.156233 -1.78426,0 -3.22708,-0.974083 -3.22708,-2.156233 0,-1.189672 1.44282,-2.156251 3.22708,-2.156251 z"
     inkscape:connector-curvature="0"
     style="fill:url(#radialGradient5777);fill-opacity:1" />
  <flowRoot
     xml:space="preserve"
     id="flowRoot3894-6"
     style="font-size:40px;font-style:normal;font-variant:normal;font-weight:300;font-stretch:normal;line-height:125%;letter-spacing:0px;word-spacing:0px;fill:#000000;fill-opacity:1;stroke:none;font-family:Helvetica Neue LT Pro;-inkscape-font-specification:Helvetica Neue LT Pro Light"
     transform="matrix(0.30552583,0,0,0.30552583,118.58598,-23.86278)"><flowRegion
       id="flowRegion3896-1"><rect
         id="rect3898-7"
         width="390"
         height="144"
         x="83"
         y="428.98151" /></flowRegion><flowPara
       id="flowPara3900-9"
       style="font-style:normal;font-variant:normal;font-weight:normal;font-stretch:normal;fill:#4e9a06;fill-opacity:1;font-family:Code Bold;-inkscape-font-specification:Code Bold">monster inside</flowPara></flowRoot>  <path
     id="path3378-5"
     d="m 301.28882,20.19127 c -21.66441,0 -39.22949,17.563199 -39.22949,39.229012 0,21.666294 17.56555,39.229958 39.22949,39.229958 21.66347,0 39.22901,-17.563664 39.22901,-39.229958 0,-21.665813 -17.56554,-39.229012 -39.22901,-39.229012 z m 0.18758,5.432633 c 18.66671,0 33.8114,15.132491 33.8114,33.796379 0,18.666706 -15.14656,33.796854 -33.8114,33.796854 -10.07925,0 -19.12348,-4.417294 -25.31492,-11.414907 2.54561,-1.976268 6.80486,-1.494164 12.05037,-0.896219 2.51372,0.286077 5.37964,0.613892 8.33701,0.679548 8.26339,0.04783 17.15473,-1.459926 22.64223,-3.858268 3.54734,-1.556077 5.81907,-2.580312 7.23914,-3.872817 0.51211,-0.419732 0.78038,-1.121317 1.05426,-1.849183 l 0.18758,-0.491018 c 0.2298,-0.588097 0.56043,-1.852932 0.70816,-2.543261 0.0661,-0.30202 0.099,-0.627031 -0.11536,-0.794454 l -0.76585,0.144448 c -2.40819,1.443982 -8.4233,4.193596 -14.05946,4.306152 -6.98355,0.146315 -21.05802,-7.030445 -22.52593,-7.78783 l -0.14445,-0.173537 c -0.35173,-0.839938 -2.45837,-5.840171 -2.90437,-6.892083 10.13131,6.671665 18.5307,10.364398 24.96835,10.937952 7.15754,0.63593 12.74024,-3.272053 15.12827,-4.941606 0.46616,-0.317963 0.82165,-0.567468 0.96798,-0.621399 l 0.1585,-0.260286 c -0.39582,-2.51512 -4.15138,-14.689299 -6.97885,-17.613381 -0.78412,-0.801951 -1.40692,-1.582796 -2.67269,-2.326119 -10.23496,-5.965393 -34.53738,-9.558235 -35.67511,-9.724248 l -0.18806,0.05815 -0.0722,0.158982 c 0,0 -0.091,5.046196 -0.10129,5.606159 -0.83384,-0.275763 -3.41979,-1.122736 -7.1233,-2.138539 4.83328,-5.979933 12.23937,-11.285472 25.20002,-11.285472 z m 8.92981,17.888201 c 0.1721,-0.0047 0.34611,-0.0061 0.5201,0 5.73324,0.205876 10.23777,5.034939 10.04173,10.764434 -0.10177,2.771659 -1.27045,5.332742 -3.29457,7.224608 -2.02973,1.901695 -4.66772,2.893113 -7.45485,2.803061 -5.72387,-0.213838 -10.2284,-5.042901 -10.04269,-10.764427 0.098,-2.775876 1.2728,-5.353369 3.30911,-7.239139 1.90077,-1.782572 4.33381,-2.749618 6.92117,-2.788537 z m -0.27482,3.063368 c -1.67004,0.101762 -3.24532,0.779894 -4.4792,1.936398 -1.40599,1.319715 -2.23609,3.106985 -2.29707,5.042916 -0.13271,3.999436 2.99724,7.365292 6.9934,7.513489 1.94203,0.05956 3.78278,-0.620454 5.20095,-1.936404 1.41444,-1.326274 2.23749,-3.129487 2.298,-5.056992 0.13365,-4.006002 -3.01083,-7.35919 -7.00794,-7.499407 -0.24153,-0.0089 -0.4699,-0.01449 -0.70815,0 z m 1.90732,3.626593 c 1.77602,0 3.20781,0.96516 3.20781,2.153085 0,1.18228 -1.43179,2.153066 -3.20781,2.153066 -1.78164,0 -3.22234,-0.972653 -3.22234,-2.153066 0,-1.187925 1.4407,-2.153085 3.22234,-2.153085 z"
     inkscape:connector-curvature="0"
     style="fill:url(#radialGradient5770);fill-opacity:1" />
  <flowRoot
     xml:space="preserve"
     id="flowRoot3894-62"
     style="font-size:40px;font-style:normal;font-variant:normal;font-weight:300;font-stretch:normal;line-height:125%;letter-spacing:0px;word-spacing:0px;fill:#000000;fill-opacity:1;stroke:none;font-family:Helvetica Neue LT Pro;-inkscape-font-specification:Helvetica Neue LT Pro Light"
     transform="matrix(0.30507714,0,0,0.30507714,228.77605,-23.652882)"><flowRegion
       id="flowRegion3896-3"><rect
         id="rect3898-0"
         width="390"
         height="144"
         x="83"
         y="428.98151" /></flowRegion><flowPara
       id="flowPara3900-5"
       style="font-style:normal;font-variant:normal;font-weight:normal;font-stretch:normal;fill:#4e9a06;fill-opacity:1;font-family:Code Bold;-inkscape-font-specification:Code Bold">Made in gemany</flowPara></flowRoot>  <path
     id="path3378-1"
     d="m 416.68305,20.326698 c -21.63816,0 -39.18196,17.541925 -39.18196,39.181492 0,21.640049 17.54426,39.182436 39.18196,39.182436 21.63723,0 39.18149,-17.542387 39.18149,-39.182436 0,-21.639567 -17.54426,-39.181492 -39.18149,-39.181492 z m 0.18736,5.426054 c 18.64409,0 33.77044,15.11416 33.77044,33.755438 0,18.644094 -15.12821,33.755914 -33.77044,33.755914 -10.06704,0 -19.10032,-4.411943 -25.28426,-11.401079 2.54253,-1.973874 6.79662,-1.492354 12.03577,-0.895133 2.51068,0.285731 5.37313,0.613147 8.32692,0.678724 8.25338,0.04777 17.13395,-1.458156 22.6148,-3.853595 3.54304,-1.55419 5.81202,-2.577185 7.23037,-3.868125 0.51149,-0.419222 0.77943,-1.119959 1.05298,-1.846943 l 0.18736,-0.490423 c 0.22952,-0.587384 0.55975,-1.850687 0.7073,-2.540179 0.0661,-0.301655 0.0988,-0.626272 -0.11523,-0.793493 l -0.76491,0.144273 c -2.40528,1.442234 -8.4131,4.188517 -14.04244,4.300936 -6.97508,0.146138 -21.03251,-7.021928 -22.49863,-7.778396 l -0.14428,-0.173326 c -0.35131,-0.838922 -2.45539,-5.833097 -2.90086,-6.883734 10.11904,6.663582 18.50826,10.351842 24.93812,10.924701 7.14885,0.635161 12.7248,-3.268089 15.10993,-4.93562 0.4656,-0.317578 0.82066,-0.56678 0.96681,-0.620646 l 0.15832,-0.259971 c -0.39535,-2.512073 -4.14635,-14.671505 -6.9704,-17.592045 -0.78318,-0.800979 -1.40522,-1.580878 -2.66945,-2.323301 -10.22257,-5.958167 -34.49555,-9.546656 -35.63191,-9.712469 l -0.18783,0.05808 -0.0721,0.15879 c 0,0 -0.0908,5.040082 -0.10122,5.599367 -0.83284,-0.275428 -3.41564,-1.121376 -7.11466,-2.135948 4.82742,-5.972689 12.22454,-11.2718 25.16949,-11.2718 z m 8.91899,17.866532 c 0.17189,-0.0047 0.34569,-0.0061 0.51946,0 5.7263,0.205626 10.22538,5.028838 10.02957,10.751393 -0.10164,2.768302 -1.2689,5.326283 -3.29057,7.215856 -2.02727,1.899392 -4.66206,2.88961 -7.44582,2.799665 -5.71694,-0.213578 -10.21601,-5.036791 -10.03052,-10.751387 0.0979,-2.772513 1.27125,-5.346884 3.30509,-7.230369 1.89847,-1.780413 4.32857,-2.746287 6.91279,-2.785158 z m -0.2745,3.059656 c -1.668,0.10164 -3.24138,0.778949 -4.47376,1.934053 -1.40429,1.318116 -2.23338,3.103221 -2.29428,5.036806 -0.13256,3.994592 2.9936,7.35637 6.98492,7.504388 1.93967,0.05949 3.7782,-0.619702 5.19465,-1.934058 1.41273,-1.324668 2.23479,-3.125696 2.29522,-5.050867 0.13349,-4.001149 -3.00719,-7.350275 -6.99946,-7.490322 -0.24123,-0.0089 -0.46933,-0.01448 -0.70729,0 z m 1.90502,3.6222 c 1.77388,0 3.20393,0.963991 3.20393,2.150476 0,1.180849 -1.43005,2.150459 -3.20393,2.150459 -1.77948,0 -3.21843,-0.971475 -3.21843,-2.150459 0,-1.186485 1.43895,-2.150476 3.21843,-2.150476 z"
     inkscape:connector-curvature="0"
     style="fill:url(#radialGradient5763);fill-opacity:1" />
  <flowRoot
     xml:space="preserve"
     id="flowRoot3894-4"
     style="font-size:40px;font-style:normal;font-variant:normal;font-weight:300;font-stretch:normal;line-height:125%;letter-spacing:0px;word-spacing:0px;fill:#000000;fill-opacity:1;stroke:none;font-family:Helvetica Neue LT Pro;-inkscape-font-specification:Helvetica Neue LT Pro Light"
     transform="matrix(0.31014071,0,0,0.31013301,356.92025,-25.985309)"><flowRegion
       id="flowRegion3896-4"><rect
         id="rect3898-04"
         width="390"
         height="144"
         x="83"
         y="428.98151" /></flowRegion><flowPara
       id="flowPara3900-3"
       style="font-style:normal;font-variant:normal;font-weight:normal;font-stretch:normal;fill:#4e9a06;fill-opacity:1;font-family:Code Bold;-inkscape-font-specification:Code Bold">WE FIX SHIT</flowPara></flowRoot>  <flowRoot
     xml:space="preserve"
     id="flowRoot3894-48"
     style="font-size:40px;font-style:normal;font-variant:normal;font-weight:300;font-stretch:normal;line-height:125%;letter-spacing:0px;word-spacing:0px;fill:#000000;fill-opacity:1;stroke:none;font-family:Helvetica Neue LT Pro;-inkscape-font-specification:Helvetica Neue LT Pro Light"
     transform="matrix(0.30879017,0,0,0.30879017,8.34138,93.582182)"><flowRegion
       id="flowRegion3896-6"><rect
         id="rect3898-3"
         width="390"
         height="144"
         x="83"
         y="428.98151" /></flowRegion><flowPara
       id="flowPara3900-8"
       style="font-style:normal;font-variant:normal;font-weight:normal;font-stretch:normal;fill:#4e9a06;fill-opacity:1;font-family:Code Bold;-inkscape-font-specification:Code Bold">DAMN GOOD</flowPara></flowRoot>  <path
     style="fill:url(#radialGradient5752);fill-opacity:1"
     inkscape:connector-curvature="0"
     d="m 69.315335,139 c -21.664411,0 -39.229491,17.5632 -39.229491,39.22902 0,21.66629 17.565547,39.22996 39.229491,39.22996 21.663466,0 39.229015,-17.56367 39.229015,-39.22996 C 108.54435,156.5632 90.978801,139 69.315335,139 z m 0.18758,5.43264 c 18.666708,0 33.811405,15.13249 33.811405,33.79638 0,18.66671 -15.146564,33.79686 -33.811405,33.79686 -10.079249,0 -19.123485,-4.4173 -25.314925,-11.41491 2.545607,-1.97627 6.804862,-1.49417 12.050368,-0.89622 2.513723,0.28608 5.379643,0.61389 8.337018,0.67955 8.26339,0.0478 17.15473,-1.45993 22.642233,-3.85827 3.547336,-1.55608 5.819063,-2.58031 7.239132,-3.87282 0.51212,-0.41973 0.78038,-1.12132 1.05427,-1.84918 l 0.18758,-0.49102 c 0.22979,-0.5881 0.56042,-1.85293 0.70815,-2.54326 0.0661,-0.30202 0.099,-0.62703 -0.11536,-0.79446 l -0.76585,0.14445 c -2.408188,1.44398 -8.423297,4.1936 -14.05946,4.30615 -6.983546,0.14632 -21.058022,-7.03044 -22.525928,-7.78783 l -0.144448,-0.17353 c -0.351733,-0.83994 -2.45837,-5.84017 -2.904374,-6.89209 10.131317,6.67167 18.530707,10.3644 24.968357,10.93796 7.157535,0.63593 12.740236,-3.27206 15.128273,-4.94161 0.46616,-0.31796 0.82164,-0.56747 0.96797,-0.6214 l 0.15851,-0.26028 c -0.39582,-2.51512 -4.15138,-14.68931 -6.978851,-17.61339 -0.784127,-0.80195 -1.406927,-1.58279 -2.672696,-2.32612 -10.23496,-5.96539 -34.53738,-9.55823 -35.675111,-9.72425 l -0.188061,0.0581 -0.07222,0.15899 c 0,0 -0.09098,5.04619 -0.101295,5.60615 -0.833843,-0.27576 -3.419784,-1.12273 -7.123296,-2.13853 4.833277,-5.97994 12.239367,-11.28548 25.200018,-11.28548 z m 8.929813,17.8882 c 0.172104,-0.005 0.346104,-0.006 0.520093,0 5.733245,0.20588 10.237777,5.03494 10.041731,10.76443 -0.101762,2.77166 -1.270448,5.33275 -3.294562,7.22461 -2.029736,1.9017 -4.667723,2.89312 -7.45486,2.80306 -5.723867,-0.21383 -10.228398,-5.0429 -10.042682,-10.76443 0.09801,-2.77587 1.272797,-5.35336 3.309108,-7.23913 1.900765,-1.78258 4.333813,-2.74962 6.921172,-2.78854 z m -0.274828,3.06337 c -1.670032,0.10176 -3.24532,0.77989 -4.479195,1.9364 -1.405994,1.31971 -2.236088,3.10698 -2.29707,5.04291 -0.132714,3.99944 2.997243,7.36529 6.993397,7.51349 1.942033,0.0596 3.782783,-0.62045 5.200959,-1.9364 1.414441,-1.32628 2.237491,-3.12949 2.298,-5.057 0.133651,-4.006 -3.010834,-7.35919 -7.00794,-7.4994 -0.24153,-0.009 -0.469907,-0.0145 -0.708151,0 z m 1.907324,3.62659 c 1.776025,0 3.20781,0.96516 3.20781,2.15309 0,1.18228 -1.431785,2.15306 -3.20781,2.15306 -1.781642,0 -3.222338,-0.97265 -3.222338,-2.15306 0,-1.18793 1.440696,-2.15309 3.222338,-2.15309 z"
     id="path4436" />
  <flowRoot
     transform="matrix(0.30227105,0,0,0.29635861,130.66635,99.40119)"
     style="font-size:40px;font-style:normal;font-variant:normal;font-weight:300;font-stretch:normal;line-height:125%;letter-spacing:0px;word-spacing:0px;fill:#000000;fill-opacity:1;stroke:none;font-family:Helvetica Neue LT Pro;-inkscape-font-specification:Helvetica Neue LT Pro Light"
     id="flowRoot4719"
     xml:space="preserve"><flowRegion
       id="flowRegion4721"><rect
         y="428.98151"
         x="83"
         height="144"
         width="390"
         id="rect4723" /></flowRegion><flowPara
       style="font-style:normal;font-variant:normal;font-weight:normal;font-stretch:normal;fill:#4e9a06;fill-opacity:1;font-family:Code Bold;-inkscape-font-specification:Code Bold"
       id="flowPara4725">WON'T SUCK</flowPara></flowRoot>  <path
     id="path4727"
     d="m 189.32003,139 c -21.66441,0 -39.22949,17.5632 -39.22949,39.22902 0,21.66629 17.56555,39.22996 39.22949,39.22996 21.66347,0 39.22902,-17.56367 39.22902,-39.22996 C 228.54905,156.5632 210.9835,139 189.32003,139 z m 0.18758,5.43264 c 18.66671,0 33.81141,15.13249 33.81141,33.79638 0,18.66671 -15.14657,33.79686 -33.81141,33.79686 -10.07925,0 -19.12348,-4.4173 -25.31492,-11.41491 2.54561,-1.97627 6.80486,-1.49417 12.05037,-0.89622 2.51372,0.28608 5.37964,0.61389 8.33701,0.67955 8.26339,0.0478 17.15473,-1.45993 22.64224,-3.85827 3.54733,-1.55608 5.81906,-2.58031 7.23913,-3.87282 0.51212,-0.41973 0.78038,-1.12132 1.05427,-1.84918 l 0.18758,-0.49102 c 0.22979,-0.5881 0.56042,-1.85293 0.70815,-2.54326 0.0661,-0.30202 0.099,-0.62703 -0.11536,-0.79446 l -0.76585,0.14445 c -2.40819,1.44398 -8.4233,4.1936 -14.05946,4.30615 -6.98355,0.14632 -21.05802,-7.03044 -22.52593,-7.78783 l -0.14445,-0.17353 c -0.35173,-0.83994 -2.45837,-5.84017 -2.90437,-6.89209 10.13132,6.67167 18.53071,10.3644 24.96836,10.93796 7.15753,0.63593 12.74023,-3.27206 15.12827,-4.94161 0.46616,-0.31796 0.82164,-0.56747 0.96797,-0.6214 l 0.15851,-0.26028 c -0.39582,-2.51512 -4.15138,-14.68931 -6.97885,-17.61339 -0.78413,-0.80195 -1.40693,-1.58279 -2.6727,-2.32612 -10.23496,-5.96539 -34.53738,-9.55823 -35.67511,-9.72425 l -0.18806,0.0581 -0.0722,0.15899 c 0,0 -0.091,5.04619 -0.10129,5.60615 -0.83385,-0.27576 -3.41979,-1.12273 -7.1233,-2.13853 4.83328,-5.97994 12.23937,-11.28548 25.20002,-11.28548 z m 8.92982,17.8882 c 0.1721,-0.005 0.3461,-0.006 0.52009,0 5.73324,0.20588 10.23778,5.03494 10.04173,10.76443 -0.10176,2.77166 -1.27045,5.33275 -3.29456,7.22461 -2.02974,1.9017 -4.66772,2.89312 -7.45486,2.80306 -5.72387,-0.21383 -10.2284,-5.0429 -10.04268,-10.76443 0.098,-2.77587 1.27279,-5.35336 3.3091,-7.23913 1.90077,-1.78258 4.33382,-2.74962 6.92118,-2.78854 z m -0.27483,3.06337 c -1.67003,0.10176 -3.24532,0.77989 -4.4792,1.9364 -1.40599,1.31971 -2.23608,3.10698 -2.29707,5.04291 -0.13271,3.99944 2.99725,7.36529 6.9934,7.51349 1.94203,0.0596 3.78278,-0.62045 5.20096,-1.9364 1.41444,-1.32628 2.23749,-3.12949 2.298,-5.057 0.13365,-4.006 -3.01083,-7.35919 -7.00794,-7.4994 -0.24153,-0.009 -0.46991,-0.0145 -0.70815,0 z m 1.90732,3.62659 c 1.77603,0 3.20781,0.96516 3.20781,2.15309 0,1.18228 -1.43178,2.15306 -3.20781,2.15306 -1.78164,0 -3.22234,-0.97265 -3.22234,-2.15306 0,-1.18793 1.4407,-2.15309 3.22234,-2.15309 z"
     inkscape:connector-curvature="0"
     style="fill:url(#radialGradient5796);fill-opacity:1" />
  <flowRoot
     transform="matrix(0.30879017,0,0,0.30879017,250.25937,93.582182)"
     style="font-size:40px;font-style:normal;font-variant:normal;font-weight:300;font-stretch:normal;line-height:125%;letter-spacing:0px;word-spacing:0px;fill:#000000;fill-opacity:1;stroke:none;font-family:Helvetica Neue LT Pro;-inkscape-font-specification:Helvetica Neue LT Pro Light"
     id="flowRoot5024"
     xml:space="preserve"><flowRegion
       id="flowRegion5026"><rect
         y="428.98151"
         x="83"
         height="144"
         width="390"
         id="rect5028" /></flowRegion><flowPara
       style="font-style:normal;font-variant:normal;font-weight:normal;font-stretch:normal;fill:#4e9a06;fill-opacity:1;font-family:Code Bold;-inkscape-font-specification:Code Bold"
       id="flowPara5030">I'm FRESH</flowPara></flowRoot>  <path
     id="path5032"
     d="m 301.24635,139 c -21.66441,0 -39.22949,17.5632 -39.22949,39.22902 0,21.66629 17.56555,39.22996 39.22949,39.22996 21.66347,0 39.22902,-17.56367 39.22902,-39.22996 C 340.47537,156.5632 322.90982,139 301.24635,139 z m 0.18758,5.43264 c 18.66671,0 33.81141,15.13249 33.81141,33.79638 0,18.66671 -15.14657,33.79686 -33.81141,33.79686 -10.07925,0 -19.12348,-4.4173 -25.31492,-11.41491 2.54561,-1.97627 6.80486,-1.49417 12.05037,-0.89622 2.51372,0.28608 5.37964,0.61389 8.33701,0.67955 8.26339,0.0478 17.15473,-1.45993 22.64224,-3.85827 3.54733,-1.55608 5.81906,-2.58031 7.23913,-3.87282 0.51212,-0.41973 0.78038,-1.12132 1.05427,-1.84918 l 0.18758,-0.49102 c 0.22979,-0.5881 0.56042,-1.85293 0.70815,-2.54326 0.0661,-0.30202 0.099,-0.62703 -0.11536,-0.79446 l -0.76585,0.14445 c -2.40819,1.44398 -8.4233,4.1936 -14.05946,4.30615 -6.98355,0.14632 -21.05802,-7.03044 -22.52593,-7.78783 l -0.14445,-0.17353 c -0.35173,-0.83994 -2.45837,-5.84017 -2.90437,-6.89209 10.13132,6.67167 18.53071,10.3644 24.96836,10.93796 7.15753,0.63593 12.74023,-3.27206 15.12827,-4.94161 0.46616,-0.31796 0.82164,-0.56747 0.96797,-0.6214 l 0.15851,-0.26028 c -0.39582,-2.51512 -4.15138,-14.68931 -6.97885,-17.61339 -0.78413,-0.80195 -1.40693,-1.58279 -2.6727,-2.32612 -10.23496,-5.96539 -34.53738,-9.55823 -35.67511,-9.72425 l -0.18806,0.0581 -0.0722,0.15899 c 0,0 -0.091,5.04619 -0.10129,5.60615 -0.83385,-0.27576 -3.41979,-1.12273 -7.1233,-2.13853 4.83328,-5.97994 12.23937,-11.28548 25.20002,-11.28548 z m 8.92982,17.8882 c 0.1721,-0.005 0.3461,-0.006 0.52009,0 5.73324,0.20588 10.23778,5.03494 10.04173,10.76443 -0.10176,2.77166 -1.27045,5.33275 -3.29456,7.22461 -2.02974,1.9017 -4.66772,2.89312 -7.45486,2.80306 -5.72387,-0.21383 -10.2284,-5.0429 -10.04268,-10.76443 0.098,-2.77587 1.27279,-5.35336 3.3091,-7.23913 1.90077,-1.78258 4.33382,-2.74962 6.92118,-2.78854 z m -0.27483,3.06337 c -1.67003,0.10176 -3.24532,0.77989 -4.4792,1.9364 -1.40599,1.31971 -2.23608,3.10698 -2.29707,5.04291 -0.13271,3.99944 2.99725,7.36529 6.9934,7.51349 1.94203,0.0596 3.78278,-0.62045 5.20096,-1.9364 1.41444,-1.32628 2.23749,-3.12949 2.298,-5.057 0.13365,-4.006 -3.01083,-7.35919 -7.00794,-7.4994 -0.24153,-0.009 -0.46991,-0.0145 -0.70815,0 z m 1.90732,3.62659 c 1.77603,0 3.20781,0.96516 3.20781,2.15309 0,1.18228 -1.43178,2.15306 -3.20781,2.15306 -1.78164,0 -3.22233,-0.97265 -3.22233,-2.15306 0,-1.18793 1.44069,-2.15309 3.22233,-2.15309 z"
     inkscape:connector-curvature="0"
     style="fill:url(#radialGradient5738);fill-opacity:1" />
  <flowRoot
     xml:space="preserve"
     id="flowRoot5476"
     style="font-size:40px;font-style:normal;font-variant:normal;font-weight:300;font-stretch:normal;line-height:125%;letter-spacing:0px;word-spacing:0px;fill:#000000;fill-opacity:1;stroke:none;font-family:Helvetica Neue LT Pro;-inkscape-font-specification:Helvetica Neue LT Pro Light"
     transform="matrix(0.30227105,0,0,0.29635861,355.32548,99.40119)"><flowRegion
       id="flowRegion5478"><rect
         id="rect5480"
         width="390"
         height="144"
         x="83"
         y="428.98151" /></flowRegion><flowPara
       id="flowPara5482"
       style="font-style:normal;font-variant:normal;font-weight:normal;font-stretch:normal;fill:#4e9a06;fill-opacity:1;font-family:Code Bold;-inkscape-font-specification:Code Bold">I hunt brain</flowPara></flowRoot>  <path
     style="fill:url(#radialGradient5731);fill-opacity:1"
     inkscape:connector-curvature="0"
     d="m 416.51094,139 c -21.66441,0 -39.22949,17.5632 -39.22949,39.22902 0,21.66629 17.56555,39.22996 39.22949,39.22996 21.66347,0 39.22902,-17.56367 39.22902,-39.22996 C 455.73996,156.5632 438.17441,139 416.51094,139 z m 0.18758,5.43264 c 18.66671,0 33.81141,15.13249 33.81141,33.79638 0,18.66671 -15.14657,33.79686 -33.81141,33.79686 -10.07925,0 -19.12348,-4.4173 -25.31492,-11.41491 2.54561,-1.97627 6.80486,-1.49417 12.05037,-0.89622 2.51372,0.28608 5.37964,0.61389 8.33701,0.67955 8.26339,0.0478 17.15473,-1.45993 22.64224,-3.85827 3.54733,-1.55608 5.81906,-2.58031 7.23913,-3.87282 0.51212,-0.41973 0.78038,-1.12132 1.05427,-1.84918 l 0.18758,-0.49102 c 0.22979,-0.5881 0.56042,-1.85293 0.70815,-2.54326 0.0661,-0.30202 0.099,-0.62703 -0.11536,-0.79446 l -0.76585,0.14445 c -2.40819,1.44398 -8.4233,4.1936 -14.05946,4.30615 -6.98355,0.14632 -21.05802,-7.03044 -22.52593,-7.78783 l -0.14445,-0.17353 c -0.35173,-0.83994 -2.45837,-5.84017 -2.90437,-6.89209 10.13132,6.67167 18.53071,10.3644 24.96836,10.93796 7.15753,0.63593 12.74023,-3.27206 15.12827,-4.94161 0.46616,-0.31796 0.82164,-0.56747 0.96797,-0.6214 l 0.15851,-0.26028 c -0.39582,-2.51512 -4.15138,-14.68931 -6.97885,-17.61339 -0.78413,-0.80195 -1.40693,-1.58279 -2.6727,-2.32612 -10.23496,-5.96539 -34.53738,-9.55823 -35.67511,-9.72425 l -0.18806,0.0581 -0.0722,0.15899 c 0,0 -0.091,5.04619 -0.10129,5.60615 -0.83385,-0.27576 -3.41979,-1.12273 -7.1233,-2.13853 4.83328,-5.97994 12.23937,-11.28548 25.20002,-11.28548 z m 8.92982,17.8882 c 0.1721,-0.005 0.3461,-0.006 0.52009,0 5.73324,0.20588 10.23778,5.03494 10.04173,10.76443 -0.10176,2.77166 -1.27045,5.33275 -3.29456,7.22461 -2.02974,1.9017 -4.66772,2.89312 -7.45486,2.80306 -5.72387,-0.21383 -10.2284,-5.0429 -10.04268,-10.76443 0.098,-2.77587 1.27279,-5.35336 3.3091,-7.23913 1.90077,-1.78258 4.33382,-2.74962 6.92118,-2.78854 z m -0.27483,3.06337 c -1.67003,0.10176 -3.24532,0.77989 -4.4792,1.9364 -1.40599,1.31971 -2.23608,3.10698 -2.29707,5.04291 -0.13271,3.99944 2.99725,7.36529 6.9934,7.51349 1.94203,0.0596 3.78278,-0.62045 5.20096,-1.9364 1.41444,-1.32628 2.23749,-3.12949 2.298,-5.057 0.13365,-4.006 -3.01083,-7.35919 -7.00794,-7.4994 -0.24153,-0.009 -0.46991,-0.0145 -0.70815,0 z m 1.90732,3.62659 c 1.77603,0 3.20781,0.96516 3.20781,2.15309 0,1.18228 -1.43178,2.15306 -3.20781,2.15306 -1.78164,0 -3.22234,-0.97265 -3.22234,-2.15306 0,-1.18793 1.4407,-2.15309 3.22234,-2.15309 z"
     id="path5484" />
</svg>
