<?xml version="1.0" encoding="UTF-8" standalone="no"?>
<!-- Created with Inkscape (http://www.inkscape.org/) -->

<svg
   xmlns:dc="http://purl.org/dc/elements/1.1/"
   xmlns:cc="http://creativecommons.org/ns#"
   xmlns:rdf="http://www.w3.org/1999/02/22-rdf-syntax-ns#"
   xmlns:svg="http://www.w3.org/2000/svg"
   xmlns="http://www.w3.org/2000/svg"
   xmlns:sodipodi="http://sodipodi.sourceforge.net/DTD/sodipodi-0.dtd"
   xmlns:inkscape="http://www.inkscape.org/namespaces/inkscape"
   width="1024"
   height="768"
   id="svg2"
   version="1.1"
   inkscape:version="0.48.4 r9939"
   inkscape:export-filename="/home/marguerite/bottle.png"
   inkscape:export-xdpi="43.950001"
   inkscape:export-ydpi="43.950001"
   sodipodi:docname="新建文档 1">
  <defs
     id="defs4" />
  <sodipodi:namedview
     id="base"
     pagecolor="#777777"
     bordercolor="#666666"
     borderopacity="1.0"
     inkscape:pageopacity="1"
     inkscape:pageshadow="2"
     inkscape:zoom="0.49497475"
     inkscape:cx="808.30892"
     inkscape:cy="389.71059"
     inkscape:document-units="px"
     inkscape:current-layer="layer1"
     showgrid="false"
     showguides="true"
     inkscape:guide-bbox="true"
     inkscape:window-width="1024"
     inkscape:window-height="718"
     inkscape:window-x="-2"
     inkscape:window-y="-3"
     inkscape:window-maximized="1" />
  <metadata
     id="metadata7">
    <rdf:RDF>
      <cc:Work
         rdf:about="">
        <dc:format>image/svg+xml</dc:format>
        <dc:type
           rdf:resource="http://purl.org/dc/dcmitype/StillImage" />
        <dc:title></dc:title>
      </cc:Work>
    </rdf:RDF>
  </metadata>
  <g
     inkscape:label="Layer 1"
     inkscape:groupmode="layer"
     id="layer1"
     transform="translate(0,-284.36218)">
    <g
       id="g3871"
       transform="translate(-24.243661,40.406102)">
      <path
         sodipodi:nodetypes="ccccc"
         inkscape:connector-curvature="0"
         id="path3818"
         d="m 355.87892,328.67884 24.25181,105.52249 260.70706,0 27.28329,-105.95755 C 613.68354,317.24016 411.8804,316.66783 355.87892,328.67884 z"
         style="fill:#552200;stroke:none" />
      <path
         sodipodi:nodetypes="scccsssssccss"
         inkscape:connector-curvature="0"
         id="rect2989"
         d="m 347.71875,416.47094 c -15.63736,4.19002 0,48.56696 0,48.56696 l 32.59375,5.71429 c 10.56373,76.28516 -45.17568,67.09813 -46.15625,100.4375 l 0,326.71875 c 0,28.53881 97.11166,40 135.71875,40 l 81.40625,0 c 39.57769,0 138.5625,-10.71003 138.5625,-40 l 0,-326.71875 c 0,-32.17337 -57.96171,-23.78301 -46.21875,-100.4375 l 32.65625,-4.99554 c 0,0 15.86878,-45.03368 0,-49.28571 -90.09826,-24.14176 -242.98464,-22.93052 -328.5625,0 z"
         style="fill:#c6cee0;fill-opacity:1;stroke:none" />
      <path
         sodipodi:nodetypes="ccccsccc"
         inkscape:connector-curvature="0"
         id="path3805"
         d="m 393.48371,456.64789 c 9.8223,76.29871 -46.29069,84.18604 -47.20244,117.53134 l 0,53.18295 c 113.80105,17.51372 204.18093,18.83674 330.72315,-0.64238 l 0,-52.54057 c 0,-32.17909 -63.17931,-40.38848 -49.40339,-117.5982 -33.66686,-25.52087 -195.92314,-29.32922 -234.11732,0.0669 z"
         style="fill:#0b90d1;fill-opacity:1;stroke:none" />
      <path
         id="path3798"
         transform="translate(0,284.36218)"
         d="m 510.3125,114.46875 c -60.18111,0.1514 -119.80482,6.15974 -162.59375,17.625 -15.63736,4.19002 0,48.59375 0,48.59375 l 32.34375,5.65625 0.25,-0.1875 c 0,0 8.26786,3.97768 96.125,5.40625 83.6381,1.35997 141.95861,-1.7898 167.09375,-4.5625 0.0314,-0.21093 0.0612,-0.41277 0.0937,-0.625 l 32.65625,-4.96875 c 0,0 15.86878,-45.06047 0,-49.3125 -45.04913,-12.07088 -105.78764,-17.7764 -165.96875,-17.625 z"
         style="fill:#c6cee0;fill-opacity:1;stroke:none"
         inkscape:connector-curvature="0" />
      <path
         inkscape:connector-curvature="0"
         style="fill:#719fcd;fill-opacity:1;stroke:none"
         d="m 510.66216,403.40169 c -46.30079,0.11648 -92.17274,4.73904 -125.09273,13.55992 -12.03072,3.22363 0,37.38597 0,37.38597 l 24.88391,4.35168 0.19234,-0.14425 c 0,0 6.36094,3.06025 73.95449,4.15934 64.34761,1.0463 109.21693,-1.377 128.55484,-3.5102 0.0242,-0.16228 0.0471,-0.31757 0.0721,-0.48085 l 25.12433,-3.82274 c 0,0 12.20877,-34.66762 0,-37.93895 -34.65888,-9.28682 -81.38852,-13.6764 -127.68931,-13.55992 z"
         id="path3803" />
      <path
         inkscape:connector-curvature="0"
         id="rect3016"
         d="m 345.58482,581.04968 0,302.625 c 0,28.53881 90.87109,40 126.99721,40 l 76.17493,0 c 37.03436,0 129.65822,-10.71003 129.65822,-40 l 0,-302.625 C 634.21895,592.44634 575.9247,599.39343 512,599.39343 c -63.9247,0 -122.21895,-6.94709 -166.41518,-18.34375 z"
         style="fill:#719fcd;fill-opacity:1;stroke:none" />
      <path
         style="fill:#803300;stroke:none"
         d="m 379.10906,335.64336 20.64324,62.50648 221.91498,0 23.22366,-62.76418 c -46.33748,-6.51803 -218.11317,-6.85704 -265.78188,0.2577 z"
         id="path3822"
         inkscape:connector-curvature="0"
         sodipodi:nodetypes="ccccc" />
      <path
         inkscape:connector-curvature="0"
         id="path3824"
         d="m 510.65625,403.39343 c -46.30079,0.11648 -92.17376,4.74162 -125.09375,13.5625 -5.41774,1.45168 -5.95146,9.19522 -4.90625,17.25 l 260.1875,0 2.625,-10.15625 c -0.5987,-3.598 -2.13443,-6.29243 -5.125,-7.09375 -34.65888,-9.28682 -81.38671,-13.67898 -127.6875,-13.5625 z"
         style="fill:#552200;fill-opacity:1;stroke:none" />
      <g
         transform="translate(0,-26)"
         id="g3857">
        <path
           inkscape:connector-curvature="0"
           style="fill:#e3226c;fill-opacity:1;stroke:none"
           d="m 513.15625,299.28125 c -71.99362,0 -133.24759,45.94272 -156.09375,110.09375 11.36938,-2.66117 23.6718,-5.50311 37.21875,-8.53125 121.42857,-27.14285 90.01785,7.15179 212.875,31.4375 22.50942,4.44953 45.82745,4.51901 68.78125,1.75 -14.4847,-76.7152 -81.85541,-134.75 -162.78125,-134.75 z"
           transform="translate(0,284.36218)"
           id="path3838" />
        <path
           inkscape:connector-curvature="0"
           style="fill:#8b2e52;fill-opacity:1;stroke:none"
           d="m 436.40625,510.375 c -26.70893,-0.0853 -53.6203,4.58051 -78.875,11.53125 23.22615,63.43359 84.14511,108.71875 155.625,108.71875 59.58309,0 111.81028,-31.47721 141,-78.6875 -83.57923,13.66882 -69.67997,-16.15477 -179.875,-37.9375 -12.43963,-2.459 -25.13448,-3.58431 -37.875,-3.625 z"
           transform="translate(0,284.36218)"
           id="path3843" />
        <path
           inkscape:connector-curvature="0"
           style="fill:#9d3268;fill-opacity:1;stroke:none"
           d="m 461.5,390.90625 c -16.04911,0.22321 -36.86161,3.15179 -67.21875,9.9375 -13.53257,3.02493 -25.82798,5.84128 -37.1875,8.5 -6.19616,17.38856 -9.59375,36.11029 -9.59375,55.625 0,20.01437 3.52793,39.17609 10.03125,56.9375 37.30153,-10.26634 78.23222,-15.52023 116.75,-7.90625 110.19503,21.78273 96.29577,51.60632 179.875,37.9375 15.63327,-25.28462 24.65625,-55.05758 24.65625,-86.96875 0,-10.57902 -1.01113,-20.90902 -2.90625,-30.9375 -22.94386,2.76524 -46.25066,2.69754 -68.75,-1.75 C 515.01339,414.06697 509.64732,390.23661 461.5,390.90625 z"
           transform="translate(0,284.36218)"
           id="path3832" />
        <path
           sodipodi:type="arc"
           style="fill:#e3226c;fill-opacity:1;stroke:none"
           id="path3851"
           sodipodi:cx="415.71429"
           sodipodi:cy="449.42856"
           sodipodi:rx="31.428572"
           sodipodi:ry="31.428572"
           d="m 447.14287,449.42856 c 0,17.35752 -14.07105,31.42857 -31.42858,31.42857 -17.35752,0 -31.42857,-14.07105 -31.42857,-31.42857 0,-17.35752 14.07105,-31.42857 31.42857,-31.42857 17.35753,0 31.42858,14.07105 31.42858,31.42857 z"
           transform="translate(0,284.36218)" />
        <path
           sodipodi:type="arc"
           style="fill:#e3226c;fill-opacity:1;stroke:none"
           id="path3853"
           sodipodi:cx="508.57144"
           sodipodi:cy="490.85715"
           sodipodi:rx="22.857143"
           sodipodi:ry="22.857143"
           d="m 531.42859,490.85715 c 0,12.62365 -10.2335,22.85714 -22.85715,22.85714 -12.62365,0 -22.85714,-10.23349 -22.85714,-22.85714 0,-12.62365 10.23349,-22.85715 22.85714,-22.85715 12.62365,0 22.85715,10.2335 22.85715,22.85715 z"
           transform="translate(0,284.36218)" />
        <path
           sodipodi:type="arc"
           style="fill:#e3226c;fill-opacity:1;stroke:none"
           id="path3855"
           sodipodi:cx="627.14288"
           sodipodi:cy="472.28571"
           sodipodi:rx="17.142857"
           sodipodi:ry="17.142857"
           d="m 644.28574,472.28571 c 0,9.46773 -7.67512,17.14285 -17.14286,17.14285 -9.46773,0 -17.14285,-7.67512 -17.14285,-17.14285 0,-9.46774 7.67512,-17.14286 17.14285,-17.14286 9.46774,0 17.14286,7.67512 17.14286,17.14286 z"
           transform="translate(0,284.36218)" />
      </g>
      <path
         sodipodi:nodetypes="ccscsc"
         inkscape:connector-curvature="0"
         id="path3865"
         d="m 375.18224,651.16775 67.16255,-2.34882 c 0,0 -15.31373,-52.97459 10.7891,-104.20704 26.10284,-51.23245 31.88184,-59.76038 31.88184,-59.76038 0,0 -61.83894,31.60205 -96.44686,96.41556 -11.17431,20.92718 -14.65297,48.46191 -13.38663,69.90068 z"
         style="fill:#ffffff;stroke:none" />
      <path
         style="fill:#ffffff;stroke:none"
         d="m 383.4493,722.53256 66.92833,-6.07648 c 0,0 -8.56238,54.47478 23.748,102.03696 32.31038,47.56218 39.11138,55.29967 39.11138,55.29967 0,0 -65.30825,-23.61302 -107.75679,-83.58486 -13.70591,-19.36388 -20.60378,-46.24663 -22.03092,-67.67529 z"
         id="path3867"
         inkscape:connector-curvature="0"
         sodipodi:nodetypes="ccscsc" />
      <path
         transform="translate(15.152289,272.24035)"
         d="m 474.77171,165.444 c 0,7.53154 -23.51756,13.63706 -52.52794,13.63706 -29.01037,0 -52.52793,-6.10552 -52.52793,-13.63706 0,-7.53154 23.51756,-13.63706 52.52793,-13.63706 29.01038,0 52.52794,6.10552 52.52794,13.63706 z"
         sodipodi:ry="13.637059"
         sodipodi:rx="52.527931"
         sodipodi:cy="165.444"
         sodipodi:cx="422.24377"
         id="path3869"
         style="fill:#ffffff;fill-opacity:1;stroke:none"
         sodipodi:type="arc" />
    </g>
  </g>
</svg>
