<?xml version="1.0" encoding="UTF-8" standalone="no"?>
<!-- Created with Inkscape (http://www.inkscape.org/) -->

<svg
   xmlns:dc="http://purl.org/dc/elements/1.1/"
   xmlns:cc="http://creativecommons.org/ns#"
   xmlns:rdf="http://www.w3.org/1999/02/22-rdf-syntax-ns#"
   xmlns:svg="http://www.w3.org/2000/svg"
   xmlns="http://www.w3.org/2000/svg"
   xmlns:xlink="http://www.w3.org/1999/xlink"
   xmlns:sodipodi="http://sodipodi.sourceforge.net/DTD/sodipodi-0.dtd"
   xmlns:inkscape="http://www.inkscape.org/namespaces/inkscape"
   width="359.85931"
   height="388.61746"
   id="svg3343"
   version="1.1"
   inkscape:version="0.48.4 r9939"
   sodipodi:docname="chameleon-front.svg"
   inkscape:export-filename="/home/marguerite/Public/openSUSE-zh-artwork/wallpapers/chameleon-front.png"
   inkscape:export-xdpi="3000"
   inkscape:export-ydpi="3000">
  <defs
     id="defs3345">
    <linearGradient
       inkscape:collect="always"
       xlink:href="#linearGradient4003-9"
       id="linearGradient9869"
       gradientUnits="userSpaceOnUse"
       gradientTransform="matrix(0.99350919,0,0,1.0082743,875.92095,-47.207503)"
       x1="454.67505"
       y1="328.97574"
       x2="454.67505"
       y2="443.58359" />
    <linearGradient
       id="linearGradient4003-9">
      <stop
         style="stop-color:#88c425;stop-opacity:1;"
         offset="0"
         id="stop4005-0" />
      <stop
         style="stop-color:#bef202;stop-opacity:1;"
         offset="1"
         id="stop4007-2" />
    </linearGradient>
    <radialGradient
       inkscape:collect="always"
       xlink:href="#linearGradient4113-0"
       id="radialGradient9871"
       gradientUnits="userSpaceOnUse"
       gradientTransform="matrix(1.8141145,0,0,1.4815763,571.68436,-238.45627)"
       cx="460.68442"
       cy="288.42877"
       fx="460.68442"
       fy="288.42877"
       r="36.498287" />
    <linearGradient
       id="linearGradient4113-0">
      <stop
         style="stop-color:#ffffff;stop-opacity:1"
         offset="0"
         id="stop4115-9" />
      <stop
         style="stop-color:#999999;stop-opacity:1"
         offset="1"
         id="stop4117-0" />
    </linearGradient>
    <radialGradient
       inkscape:collect="always"
       xlink:href="#linearGradient4103-41"
       id="radialGradient9873"
       gradientUnits="userSpaceOnUse"
       gradientTransform="matrix(1.9143657,-0.01979258,0.0139136,1.3860407,670.4354,-206.17055)"
       cx="298.88736"
       cy="291.56644"
       fx="298.88736"
       fy="291.56644"
       r="36.387356" />
    <linearGradient
       id="linearGradient4103-41">
      <stop
         style="stop-color:#ffffff;stop-opacity:1"
         offset="0"
         id="stop4105-9" />
      <stop
         style="stop-color:#999999;stop-opacity:1"
         offset="1"
         id="stop4107-8" />
    </linearGradient>
    <radialGradient
       inkscape:collect="always"
       xlink:href="#linearGradient4079-5"
       id="radialGradient9875"
       gradientUnits="userSpaceOnUse"
       gradientTransform="matrix(0,1.396918,-1.256007,0,1607.5387,-243.98432)"
       cx="305.3631"
       cy="282.19034"
       fx="305.3631"
       fy="282.19034"
       r="27.080351" />
    <linearGradient
       id="linearGradient4079-5">
      <stop
         style="stop-color:#000000;stop-opacity:1"
         offset="0"
         id="stop4081-7" />
      <stop
         style="stop-color:#333333;stop-opacity:1"
         offset="1"
         id="stop4083-1" />
    </linearGradient>
    <radialGradient
       inkscape:collect="always"
       xlink:href="#linearGradient4087-9"
       id="radialGradient9877"
       gradientUnits="userSpaceOnUse"
       gradientTransform="matrix(0,1.154463,-0.71690643,0,1597.381,-340.06793)"
       cx="450.27979"
       cy="279.39398"
       fx="450.27979"
       fy="279.39398"
       r="26.351183" />
    <linearGradient
       id="linearGradient4087-9">
      <stop
         style="stop-color:#000000;stop-opacity:1"
         offset="0"
         id="stop4089-3" />
      <stop
         style="stop-color:#1a1a1a;stop-opacity:1"
         offset="1"
         id="stop4091-8" />
    </linearGradient>
    <radialGradient
       inkscape:collect="always"
       xlink:href="#linearGradient4133-0"
       id="radialGradient9879"
       gradientUnits="userSpaceOnUse"
       cx="306.5813"
       cy="279.09042"
       fx="306.5813"
       fy="279.09042"
       r="6.5659914" />
    <linearGradient
       id="linearGradient4133-0">
      <stop
         style="stop-color:#ffffff;stop-opacity:1;"
         offset="0"
         id="stop4135-8" />
      <stop
         style="stop-color:#ffffff;stop-opacity:0;"
         offset="1"
         id="stop4137-1" />
    </linearGradient>
    <radialGradient
       inkscape:collect="always"
       xlink:href="#linearGradient4133-0"
       id="radialGradient9881"
       gradientUnits="userSpaceOnUse"
       cx="306.5813"
       cy="279.09042"
       fx="306.5813"
       fy="279.09042"
       r="6.5659914" />
    <linearGradient
       id="linearGradient3288">
      <stop
         style="stop-color:#ffffff;stop-opacity:1;"
         offset="0"
         id="stop3290" />
      <stop
         style="stop-color:#ffffff;stop-opacity:0;"
         offset="1"
         id="stop3292" />
    </linearGradient>
    <radialGradient
       inkscape:collect="always"
       xlink:href="#linearGradient4133-0"
       id="radialGradient9883"
       gradientUnits="userSpaceOnUse"
       cx="306.5813"
       cy="279.09042"
       fx="306.5813"
       fy="279.09042"
       r="6.5659914" />
    <linearGradient
       id="linearGradient3295">
      <stop
         style="stop-color:#ffffff;stop-opacity:1;"
         offset="0"
         id="stop3297" />
      <stop
         style="stop-color:#ffffff;stop-opacity:0;"
         offset="1"
         id="stop3299" />
    </linearGradient>
    <radialGradient
       inkscape:collect="always"
       xlink:href="#linearGradient4133-0"
       id="radialGradient9885"
       gradientUnits="userSpaceOnUse"
       cx="306.5813"
       cy="279.09042"
       fx="306.5813"
       fy="279.09042"
       r="6.5659914" />
    <linearGradient
       id="linearGradient3302">
      <stop
         style="stop-color:#ffffff;stop-opacity:1;"
         offset="0"
         id="stop3304" />
      <stop
         style="stop-color:#ffffff;stop-opacity:0;"
         offset="1"
         id="stop3306" />
    </linearGradient>
  </defs>
  <sodipodi:namedview
     id="base"
     pagecolor="#ffffff"
     bordercolor="#666666"
     borderopacity="1.0"
     inkscape:pageopacity="0.0"
     inkscape:pageshadow="2"
     inkscape:zoom="0.35"
     inkscape:cx="180.32348"
     inkscape:cy="295.72487"
     inkscape:document-units="px"
     inkscape:current-layer="layer1"
     showgrid="false"
     fit-margin-top="10"
     fit-margin-left="10"
     fit-margin-right="10"
     fit-margin-bottom="10"
     inkscape:window-width="1024"
     inkscape:window-height="718"
     inkscape:window-x="-2"
     inkscape:window-y="-3"
     inkscape:window-maximized="1" />
  <metadata
     id="metadata3348">
    <rdf:RDF>
      <cc:Work
         rdf:about="">
        <dc:format>image/svg+xml</dc:format>
        <dc:type
           rdf:resource="http://purl.org/dc/dcmitype/StillImage" />
        <dc:title></dc:title>
      </cc:Work>
    </rdf:RDF>
  </metadata>
  <g
     inkscape:label="Layer 1"
     inkscape:groupmode="layer"
     id="layer1"
     transform="translate(-194.67652,-439.46958)">
    <g
       transform="matrix(0.86878523,0,0,0.87986563,-737.43554,441.21561)"
       id="g9789">
      <g
         id="g9608"
         transform="translate(0,-33.493367)">
        <path
           sodipodi:type="arc"
           style="fill:#ffffff;fill-opacity:0.39215686;stroke:none"
           id="path3062-7"
           sodipodi:cx="480.83261"
           sodipodi:cy="299.79852"
           sodipodi:rx="4.0406103"
           sodipodi:ry="1.0101526"
           d="m 484.87322,299.79852 c 0,0.55789 -1.80904,1.01016 -4.04061,1.01016 -2.23157,0 -4.04061,-0.45227 -4.04061,-1.01016 0,-0.55789 1.80904,-1.01015 4.04061,-1.01015 2.23157,0 4.04061,0.45226 4.04061,1.01015 z"
           transform="matrix(0.99350919,0,0,1.0082743,875.92095,-47.207503)" />
        <path
           sodipodi:type="arc"
           style="fill:#ffffff;fill-opacity:0.39215686;stroke:none"
           id="path3064-3"
           sodipodi:cx="518.71332"
           sodipodi:cy="311.92038"
           sodipodi:rx="4.5456862"
           sodipodi:ry="2.0203052"
           d="m 523.259,311.92038 c 0,1.11578 -2.03517,2.0203 -4.54568,2.0203 -2.51052,0 -4.54569,-0.90452 -4.54569,-2.0203 0,-1.11578 2.03517,-2.02031 4.54569,-2.02031 2.51051,0 4.54568,0.90453 4.54568,2.02031 z"
           transform="matrix(0.99350919,0,0,1.0082743,875.92095,-47.207503)" />
        <path
           sodipodi:type="arc"
           style="fill:#ffffff;fill-opacity:0.39215686;stroke:none"
           id="path3066-5"
           sodipodi:cx="531.84534"
           sodipodi:cy="318.99142"
           sodipodi:rx="2.5253813"
           sodipodi:ry="2.0203052"
           d="m 534.37072,318.99142 c 0,0.40971 -0.15571,0.80973 -0.44646,1.147 l -2.07892,-1.147 z"
           sodipodi:start="0"
           sodipodi:end="0.60374931"
           transform="matrix(0.99350919,0,0,1.0082743,875.92095,-47.207503)" />
        <path
           style="fill:#88c425;fill-opacity:1;stroke:#547916;stroke-width:5.00432253;stroke-linecap:butt;stroke-linejoin:miter;stroke-miterlimit:4;stroke-opacity:1;stroke-dasharray:none"
           d="m 1433.7144,304.27067 c -4.5198,3.48434 -9.7738,6.4731 -15.8652,8.85387 -34.347,13.42432 -106.3678,37.68657 -186.6556,6.1127 -5.2614,-2.0691 -9.8486,-4.64805 -13.847,-7.65656 -0.1123,0.005 -2.2043,0.0943 -2.2043,0.0943 0,0 -11.5419,64.24137 26.8868,107.72786 -8.7132,2.79371 -13.9403,10.82234 -15.8962,16.85708 -0.8526,9.63278 11.8891,12.51075 21.2984,8.63333 5.4519,-2.13475 8.5307,-8.94642 14.1886,-10.42931 11.6559,-2.78459 38.0581,7.72217 47.5332,16.92008 7.0966,9.00244 10.5985,9.07019 15.6168,6.49077 4.3485,-2.23518 5.1999,-9.74843 3.5393,-14.39944 -11.237,-19.67444 -33.9352,-18.13705 -53.2148,-25.58495 -4.4282,-2.09718 -7.9914,-13.3719 -10.6492,-25.80548 35.5502,25.82659 109.4925,8.97806 131.7331,-0.91377 0.2424,11.7049 -0.1895,21.21819 -2.2043,21.33127 -13.6308,-1.99254 -36.6621,8.82282 -43.9938,20.51209 -2.5664,4.19113 -2.8786,11.87781 1.0556,14.77756 6.3676,4.69333 31.2622,-13.19243 47.5332,-11.87875 13.3141,1.07491 13.2959,-0.19906 36.915,15.84882 9.6297,6.54288 15.677,-8.95033 7.4514,-17.2982 -6.5932,-6.69119 -10.082,-5.11257 -19.1561,-10.42936 -0.3168,-0.18552 -0.6202,-0.41638 -0.9004,-0.66167 0.054,-0.003 0.9004,-0.063 0.9004,-0.063 0,0 45.5773,-71.87994 10.6492,-118.85031 -0.052,-0.0703 -0.3164,-0.13862 -0.7141,-0.18916 z"
           id="path3849-2"
           inkscape:connector-curvature="0"
           sodipodi:nodetypes="csscccccccsccccccsssssccsc" />
        <path
           style="fill:url(#linearGradient9869);fill-opacity:1;stroke:#547916;stroke-width:5.00432253;stroke-linecap:butt;stroke-linejoin:miter;stroke-miterlimit:4;stroke-opacity:1;stroke-dasharray:none"
           d="m 1328.1895,45.391719 c -11.9758,0.444512 -25.0551,9.893709 -25.0551,9.893709 l -31.4508,58.826492 c -35.7725,8.44563 -46.5087,23.8205 -46.5087,23.8205 0,0 -70.5369,142.1919 0.1859,178.65358 l -2.4217,0.12611 c 0,0 4.2535,44.63869 39.0264,73.44647 34.7728,28.80785 112.8387,10.80749 134.8378,0.72472 21.9992,-10.08272 37.6292,-85.32522 37.6292,-85.32522 l -2.639,0.12559 c 64.0407,-45.28116 -10.7353,-185.58506 -23.9684,-188.10617 -9.2885,-1.7696 -18.1323,-3.244 -26.5453,-4.44267 -0.01,-10e-4 -0.021,9.9e-4 -0.031,0 -3.4644,-4.83789 -21.866,-30.828261 -37.6601,-59.299148 -3.4324,-6.187112 -8.6717,-8.371893 -14.2507,-8.444328 -0.3836,-0.0045 -0.7625,-0.01563 -1.1488,0 z"
           id="path3074-9"
           inkscape:connector-curvature="0" />
        <rect
           style="fill:#ffffff;fill-opacity:0.39215686;stroke:none"
           id="rect3901-5"
           width="0.35482472"
           height="0.090024494"
           x="1266.1394"
           y="429.15326" />
        <path
           inkscape:connector-curvature="0"
           style="fill:#bef202;fill-opacity:1;stroke:#547916;stroke-width:5.00432253;stroke-miterlimit:4;stroke-opacity:1;stroke-dasharray:none"
           d="m 1396.1783,391.17132 c -20.8505,9.27353 -87.1569,24.65517 -124.6543,5.26192 -1.25,-0.64644 -2.4494,-1.3228 -3.6326,-2.04809 -1.1832,-0.72524 -2.3353,-1.49305 -3.4462,-2.3001 1.1628,5.43972 2.499,10.64198 4.005,14.96657 0.2152,0.61783 0.4303,1.24812 0.6521,1.8275 1.7765,4.63502 3.778,7.96287 5.9921,9.01146 12.7212,4.91434 26.9198,5.92447 38.3433,11.68969 12.9217,1.92714 26.364,2.54518 39.1815,0 8.9102,-9.95093 27.8705,-18.33637 40.2061,-17.20373 0.3882,0.0365 0.7739,0.0714 1.1487,0.12611 2.0146,-0.11308 2.4466,-9.62643 2.2043,-21.33133 z"
           id="rect3921-8" />
        <path
           inkscape:connector-curvature="0"
           style="fill:#88c425;fill-opacity:1;stroke:#547916;stroke-width:5.00432253;stroke-linecap:butt;stroke-linejoin:miter;stroke-miterlimit:4;stroke-opacity:1;stroke-dasharray:none"
           d="m 1216.5083,365.55485 -1.0245,0.50392 c 0,0 -7.6154,5.75709 -9.0348,14.39939 -1.4193,8.64235 1.7786,26.29168 10.6492,33.49361 2.7868,2.72289 10.8167,7.46317 3.3531,5.04139 0,0 -17.036,-3.97008 -20.5843,3.59195 -5.3336,13.12078 7.1137,17.87789 9.9351,17.26673 9.7111,0 15.9893,-6.11265 15.9893,-6.11265 l 1.7697,-0.94525 c 2.5818,-5.3292 7.3487,-11.10849 14.468,-13.39118 -14.5923,-16.51283 -21.9711,-36.00373 -25.5208,-53.84812 z"
           id="path3941-8" />
        <path
           inkscape:connector-curvature="0"
           style="fill:#88c425;fill-opacity:1;stroke:#547916;stroke-width:5.00432253;stroke-linecap:butt;stroke-linejoin:miter;stroke-miterlimit:4;stroke-opacity:1;stroke-dasharray:none"
           d="m 1446.9715,358.46543 c -3.8019,34.28936 -23.1922,64.84461 -23.1922,64.84461 0,0 -0.8462,0.0599 -0.9004,0.063 0.2804,0.24493 0.5836,0.4763 0.9004,0.66166 9.0741,5.3168 12.5629,3.73818 19.1561,10.42937 2.0732,2.104 3.2326,4.67076 3.6636,7.21543 l 0.8693,0.28349 c 10.5275,0.8737 26.666,-0.96167 25.5828,-12.22535 -5.39,-12.96021 -19.7964,-13.37539 -31.1092,-14.24185 29.5476,-10.87356 18.5962,-48.04756 5.0296,-57.03052 z"
           id="path3950-8" />
        <path
           inkscape:connector-curvature="0"
           style="fill:#88c425;fill-opacity:1;stroke:#547916;stroke-width:5.00432253;stroke-linecap:butt;stroke-linejoin:miter;stroke-miterlimit:4;stroke-opacity:1;stroke-dasharray:none"
           d="m 1151.4024,108.41336 c -42.4222,0 -97.9663,78.82455 -38.6226,111.00469 21.571,8.39003 55.8817,-9.33929 54.1772,25.45899 -1.5053,9.67583 -11.5426,15.78972 -24.5893,31.0674 -14.3951,18.97625 -13.3615,58.93437 6.0231,79.46464 13.2793,17.96877 56.1921,26.08646 57.903,26.40419 1.0031,-5.94339 5.9947,-14.03471 10.2145,-16.25842 -0.9392,-4.07263 -3.3503,-28.79163 -2.7321,-40.6461 -3.4555,-1.01065 -7.7027,-2.94425 -12.2015,-6.67982 -14.4388,-17.14447 -24.3874,-55.10974 -7.5135,-72.84781 0,0 0.1047,-0.84484 0.124,-0.97673 0.1932,-14.25686 5.4155,-26.44317 3.8809,-40.77211 -9.1939,-24.93552 -51.5547,-5.71529 -66.7204,-21.89846 -7.5269,-10.18511 -4.5414,-22.904 2.4838,-32.57989 4.2318,-5.24774 18.9562,-12.86928 30.6125,-1.03973 0,37.68855 42.5962,28.63014 29.1223,-22.40264 -3.9231,-14.85875 -18.5988,-17.2982 -42.1621,-17.2982 z"
           id="path3967-3"
           sodipodi:nodetypes="sccccccccccccccss" />
        <path
           style="fill:none;stroke:#547916;stroke-width:5.00432253;stroke-linecap:butt;stroke-linejoin:miter;stroke-miterlimit:4;stroke-opacity:1;stroke-dasharray:none"
           d="m 1212.6273,255.07169 c 0,0 17.0611,15.78697 31.1115,21.38876 14.0504,5.60179 27.0972,10.18507 44.6601,3.56475 17.563,-6.62032 21.5774,-14.76839 21.5774,-14.76839 l 32.6168,-1.01852 c 0,0 22.5809,20.37023 38.1367,21.89799 9.4909,-0.33977 27.9091,1.29643 68.2445,-39.21266"
           id="path3978-3"
           inkscape:connector-curvature="0"
           sodipodi:nodetypes="csscccc" />
        <path
           style="fill:none;stroke:#547916;stroke-width:5.00432253;stroke-linecap:butt;stroke-linejoin:miter;stroke-miterlimit:4;stroke-opacity:1;stroke-dasharray:none"
           d="m 1303.4529,228.59043 c -5.8727,-0.48933 -13.0546,13.15293 -10.036,14.76839 5.3549,2.86577 12.5449,-0.25431 12.5449,-6.36565 0,-6.11113 0.6232,-8.14166 -2.5089,-8.40274 z"
           id="path3980-9"
           inkscape:connector-curvature="0"
           sodipodi:nodetypes="ssss" />
        <path
           style="fill:none;stroke:#547916;stroke-width:5.00432253;stroke-linecap:butt;stroke-linejoin:miter;stroke-miterlimit:4;stroke-opacity:1;stroke-dasharray:none"
           d="m 1345.6039,232.15518 c 1.7803,8.90968 14.7761,17.45308 15.054,8.65736 -0.1952,-5.22326 -5.3954,-11.05002 -7.7779,-12.34942 -2.3886,-1.30274 -7.174,-3.66387 -7.2761,3.69206 z"
           id="path3982-5"
           inkscape:connector-curvature="0"
           sodipodi:nodetypes="ccsc" />
        <path
           style="fill:url(#radialGradient9871);fill-opacity:1;stroke:#547916;stroke-width:5.00432253;stroke-linecap:butt;stroke-linejoin:miter;stroke-miterlimit:4;stroke-opacity:1;stroke-dasharray:none"
           d="m 1374.9591,166.20664 c -2.2581,24.69889 -2.5806,41.17013 7.0252,58.05508 13.9081,24.44761 50.7856,23.69824 59.2121,-19.86094 -1.8102,-20.72799 -17.1451,-60.48292 -37.1331,-66.71245 -16.2953,-3.17334 -27.4204,14.74348 -29.1042,28.51831 z"
           id="path3986-3"
           inkscape:connector-curvature="0"
           sodipodi:nodetypes="csccc" />
        <path
           style="fill:none;stroke:#547916;stroke-width:5.00432253;stroke-linecap:butt;stroke-linejoin:miter;stroke-miterlimit:4;stroke-opacity:1;stroke-dasharray:none"
           d="m 1294.6142,207.24284 c 0,0 15.6123,-9.72263 32.6439,-9.00244 17.0316,0.72018 26.257,7.56202 26.257,7.56202 l 0,0 0,0"
           id="path3992-2"
           inkscape:connector-curvature="0"
           sodipodi:nodetypes="csccc" />
        <path
           style="fill:url(#radialGradient9873);fill-opacity:1;stroke:#547916;stroke-width:5.00432253;stroke-linecap:butt;stroke-linejoin:miter;stroke-miterlimit:4;stroke-opacity:1;stroke-dasharray:none"
           d="m 1247.4225,140.98481 c -17.0132,4.77462 -34.4181,39.66118 -34.4181,59.77628 0,28.45004 5.7759,36.69082 23.7733,42.13149 16.6768,5.04133 33.1624,-16.92034 37.9663,-27.36748 7.4513,-16.20443 5.6772,-35.64968 4.6127,-44.65213 -5.7138,-17.02951 -18.4185,-33.68121 -31.9342,-29.88816 z"
           id="path3994-7"
           inkscape:connector-curvature="0"
           sodipodi:nodetypes="sssscs" />
        <path
           style="fill:none;stroke:#547916;stroke-width:5.00432253;stroke-linecap:butt;stroke-linejoin:miter;stroke-miterlimit:4;stroke-opacity:1;stroke-dasharray:none"
           d="m 1324.4195,47.719442 0,88.223978"
           id="path3996-4"
           inkscape:connector-curvature="0"
           sodipodi:nodetypes="cc" />
        <path
           style="fill:url(#radialGradient9875);fill-opacity:1;stroke:#547916;stroke-width:5.00432253;stroke-linecap:butt;stroke-linejoin:miter;stroke-miterlimit:4;stroke-opacity:1;stroke-dasharray:none"
           d="m 1228.6849,184.79444 c 0.1468,20.59302 14.6751,40.32025 37.384,29.53678 19.7107,-9.35967 11.5961,-57.70995 -6.2725,-65.94854 -22.7151,-5.22972 -31.1527,25.39098 -31.1115,36.41176 z"
           id="path3998-4"
           inkscape:connector-curvature="0"
           sodipodi:nodetypes="cscc" />
        <path
           style="fill:url(#radialGradient9877);fill-opacity:1;stroke:#547916;stroke-width:6.02701235;stroke-linecap:butt;stroke-linejoin:miter;stroke-miterlimit:4;stroke-opacity:1;stroke-dasharray:none"
           d="m 1399.9604,142.16743 c 15.7251,1.1302 28.9687,41.93502 13.2475,64.83637 -15.8258,23.79199 -39.1391,2.02319 -39.315,-19.51596 1.3898,-15.48535 4.4138,-41.51418 26.0675,-45.32041 z"
           id="path4000-3"
           inkscape:connector-curvature="0"
           sodipodi:nodetypes="cccc" />
        <path
           style="fill:none;stroke:#547916;stroke-width:5.00432253;stroke-linecap:butt;stroke-linejoin:miter;stroke-miterlimit:4;stroke-opacity:1;stroke-dasharray:none"
           d="m 1360.156,328.91374 c 0,0 -45.9144,12.22217 -72.7607,-0.7639"
           id="path4026-5"
           inkscape:connector-curvature="0"
           sodipodi:nodetypes="cc" />
        <path
           sodipodi:type="arc"
           style="fill:url(#radialGradient9879);fill-opacity:1;stroke:none"
           id="path4131-4"
           sodipodi:cx="306.5813"
           sodipodi:cy="279.09042"
           sodipodi:rx="6.5659914"
           sodipodi:ry="6.5659914"
           d="m 313.14729,279.09042 c 0,3.6263 -2.93969,6.56599 -6.56599,6.56599 -3.6263,0 -6.56599,-2.93969 -6.56599,-6.56599 0,-3.62629 2.93969,-6.56599 6.56599,-6.56599 3.6263,0 6.56599,2.9397 6.56599,6.56599 z"
           transform="matrix(1.5609269,0,0,1.5841247,781.24676,-265.63291)" />
        <path
           transform="matrix(1.5609269,0,0,1.5841247,914.448,-267.64943)"
           d="m 313.14729,279.09042 c 0,3.6263 -2.93969,6.56599 -6.56599,6.56599 -3.6263,0 -6.56599,-2.93969 -6.56599,-6.56599 0,-3.62629 2.93969,-6.56599 6.56599,-6.56599 3.6263,0 6.56599,2.9397 6.56599,6.56599 z"
           sodipodi:ry="6.5659914"
           sodipodi:rx="6.5659914"
           sodipodi:cy="279.09042"
           sodipodi:cx="306.5813"
           id="path4148-1"
           style="fill:url(#radialGradient9881);fill-opacity:1;stroke:none"
           sodipodi:type="arc" />
        <path
           transform="matrix(0.77735011,0,0,0.78890278,1010.0869,-23.420567)"
           d="m 313.14729,279.09042 c 0,3.6263 -2.93969,6.56599 -6.56599,6.56599 -3.6263,0 -6.56599,-2.93969 -6.56599,-6.56599 0,-3.62629 2.93969,-6.56599 6.56599,-6.56599 3.6263,0 6.56599,2.9397 6.56599,6.56599 z"
           sodipodi:ry="6.5659914"
           sodipodi:rx="6.5659914"
           sodipodi:cy="279.09042"
           sodipodi:cx="306.5813"
           id="path4152-2"
           style="fill:url(#radialGradient9883);fill-opacity:1;stroke:none"
           sodipodi:type="arc" />
        <path
           sodipodi:type="arc"
           style="fill:url(#radialGradient9885);fill-opacity:1;stroke:none"
           id="path4160-3"
           sodipodi:cx="306.5813"
           sodipodi:cy="279.09042"
           sodipodi:rx="6.5659914"
           sodipodi:ry="6.5659914"
           d="m 313.14729,279.09042 c 0,3.6263 -2.93969,6.56599 -6.56599,6.56599 -3.6263,0 -6.56599,-2.93969 -6.56599,-6.56599 0,-3.62629 2.93969,-6.56599 6.56599,-6.56599 3.6263,0 6.56599,2.9397 6.56599,6.56599 z"
           transform="matrix(0.77735011,0,0,0.78890278,1166.0678,-25.43708)" />
        <path
           style="fill:#bef202;fill-opacity:1;stroke:#547916;stroke-width:2.00172901;stroke-linecap:butt;stroke-linejoin:miter;stroke-miterlimit:4;stroke-opacity:1;stroke-dasharray:none"
           d="m 1135.3897,185.56841 c 0,0 -18.5665,15.78691 -16.5593,23.93498 2.0072,8.14813 6.0216,1.52781 9.5342,-5.60179 3.5125,-7.12955 12.5449,-15.27768 12.5449,-15.27768 z"
           id="path4180-4-0"
           inkscape:connector-curvature="0" />
        <path
           inkscape:connector-curvature="0"
           id="path4182-2"
           d="m 1129.8699,212.04972 c 2.0072,8.14802 6.0216,1.52771 9.5342,-5.60184 3.5126,-7.12961 12.5449,-15.27768 12.5449,-15.27768 -9.4121,-7.50955 -22.9062,15.40947 -22.0791,20.87952 z"
           style="fill:#bef202;fill-opacity:1;stroke:#547916;stroke-width:2.00172901;stroke-linecap:butt;stroke-linejoin:miter;stroke-miterlimit:4;stroke-opacity:1;stroke-dasharray:none"
           sodipodi:nodetypes="cscc" />
        <path
           style="fill:#bef202;fill-opacity:1;stroke:#547916;stroke-width:2.00172901;stroke-linecap:butt;stroke-linejoin:miter;stroke-miterlimit:4;stroke-opacity:1;stroke-dasharray:none"
           d="m 1143.1676,212.81358 c 2.0072,8.14807 6.0215,1.52775 9.5341,-5.60185 3.5126,-7.12955 12.545,-15.27762 12.545,-15.27762 -9.4121,-7.50961 -22.9063,15.40941 -22.0791,20.87947 z"
           id="path4184-6"
           inkscape:connector-curvature="0"
           sodipodi:nodetypes="cscc" />
        <path
           inkscape:connector-curvature="0"
           id="path4190-3"
           d="m 1126.7068,156.34503 c 0,0 -17.6447,-10.41154 -15.7372,-15.7853 1.9075,-5.37365 5.7226,-1.00752 9.0608,3.69446 5.9106,9.27702 18.0196,7.73331 6.6764,12.09084 z"
           style="fill:#bef202;fill-opacity:1;stroke:#547916;stroke-width:2.00172901;stroke-linecap:butt;stroke-linejoin:miter;stroke-miterlimit:4;stroke-opacity:1;stroke-dasharray:none"
           sodipodi:nodetypes="cscc" />
        <path
           style="fill:#bef202;fill-opacity:1;stroke:#547916;stroke-width:2.00172901;stroke-linecap:butt;stroke-linejoin:miter;stroke-miterlimit:4;stroke-opacity:1;stroke-dasharray:none"
           d="m 1131.3955,148.76247 c 0,0 -16.3324,-12.42274 -13.8223,-17.535 2.5102,-5.11215 5.7992,-0.32569 8.5762,4.73846 4.8078,9.91143 17.0115,9.80684 5.2461,12.79654 z"
           id="path4192-2"
           inkscape:connector-curvature="0"
           sodipodi:nodetypes="cscc" />
        <path
           inkscape:connector-curvature="0"
           id="path4194-6"
           d="m 1138.5091,142.15383 c 0,0 -14.4382,-14.64093 -11.2411,-19.34171 3.197,-4.70078 5.7863,0.50965 7.83,5.92103 3.3791,10.50164 15.4748,12.14879 3.4111,13.42068 z"
           style="fill:#bef202;fill-opacity:1;stroke:#547916;stroke-width:2.00172901;stroke-linecap:butt;stroke-linejoin:miter;stroke-miterlimit:4;stroke-opacity:1;stroke-dasharray:none"
           sodipodi:nodetypes="cscc" />
        <path
           inkscape:connector-curvature="0"
           id="path4198-6-6"
           d="m 1183.5718,280.07002 c 0,0 -40.2708,10.56266 -42.7796,23.59761 -2.5088,13.03495 8.4316,6.13766 18.9352,-1.82047 11.5259,-11.50698 37.0958,-5.64265 23.8444,-21.77714 z"
           style="fill:#bef202;fill-opacity:1;stroke:#547916;stroke-width:3.00259352;stroke-linecap:butt;stroke-linejoin:miter;stroke-miterlimit:4;stroke-opacity:1;stroke-dasharray:none"
           sodipodi:nodetypes="cscc" />
        <path
           sodipodi:nodetypes="cscc"
           style="fill:#bef202;fill-opacity:1;stroke:#547916;stroke-width:3.00259352;stroke-linecap:butt;stroke-linejoin:miter;stroke-miterlimit:4;stroke-opacity:1;stroke-dasharray:none"
           d="m 1187.4578,297.83681 c 0,0 -38.6375,15.6301 -39.5073,28.88199 -0.8698,13.25189 9.1266,5.01012 18.558,-4.22823 10.0047,-12.88972 36.099,-10.34323 20.9493,-24.65376 z"
           id="path4200-2"
           inkscape:connector-curvature="0" />
        <path
           inkscape:connector-curvature="0"
           id="path4202-2"
           d="m 1195.5815,314.33572 c 0,0 -36.9436,19.39476 -36.5305,32.66942 0.4129,13.27461 9.5662,4.07904 18.0608,-6.05225 8.7129,-13.82199 34.9275,-13.88098 18.4697,-26.61717 z"
           style="fill:#bef202;fill-opacity:1;stroke:#547916;stroke-width:3.00259352;stroke-linecap:butt;stroke-linejoin:miter;stroke-miterlimit:4;stroke-opacity:1;stroke-dasharray:none"
           sodipodi:nodetypes="cscc" />
      </g>
    </g>
  </g>
</svg>
