<?xml version="1.0" encoding="UTF-8" standalone="no"?>
<!-- Created with Inkscape (http://www.inkscape.org/) -->

<svg
   xmlns:dc="http://purl.org/dc/elements/1.1/"
   xmlns:cc="http://creativecommons.org/ns#"
   xmlns:rdf="http://www.w3.org/1999/02/22-rdf-syntax-ns#"
   xmlns:svg="http://www.w3.org/2000/svg"
   xmlns="http://www.w3.org/2000/svg"
   xmlns:sodipodi="http://sodipodi.sourceforge.net/DTD/sodipodi-0.dtd"
   xmlns:inkscape="http://www.inkscape.org/namespaces/inkscape"
   width="1920"
   height="1440"
   id="svg2"
   version="1.1"
   inkscape:version="0.48.4 r9939"
   sodipodi:docname="failure.svg"
   inkscape:export-filename="/home/marguerite/failure.png"
   inkscape:export-xdpi="90"
   inkscape:export-ydpi="90">
  <defs
     id="defs4" />
  <sodipodi:namedview
     id="base"
     pagecolor="#ffffff"
     bordercolor="#666666"
     borderopacity="1.0"
     inkscape:pageopacity="0.0"
     inkscape:pageshadow="2"
     inkscape:zoom="0.3190267"
     inkscape:cx="1194.0241"
     inkscape:cy="797.7195"
     inkscape:document-units="px"
     inkscape:current-layer="layer1"
     showgrid="false"
     showguides="true"
     inkscape:guide-bbox="true"
     inkscape:window-width="1024"
     inkscape:window-height="718"
     inkscape:window-x="-2"
     inkscape:window-y="-3"
     inkscape:window-maximized="1" />
  <metadata
     id="metadata7">
    <rdf:RDF>
      <cc:Work
         rdf:about="">
        <dc:format>image/svg+xml</dc:format>
        <dc:type
           rdf:resource="http://purl.org/dc/dcmitype/StillImage" />
        <dc:title />
      </cc:Work>
    </rdf:RDF>
  </metadata>
  <g
     inkscape:label="Layer 1"
     inkscape:groupmode="layer"
     id="layer1"
     transform="translate(0,387.63782)">
    <g
       id="g3011"
       transform="matrix(1.875,0,0,1.875,0,-920.81691)">
      <rect
         y="284.36218"
         x="0"
         height="768"
         width="1024"
         id="rect2985"
         style="fill:#e5c07b;fill-opacity:1;stroke:none" />
      <g
         transform="translate(36.43393,-2.6595217e-7)"
         id="g3106">
        <g
           id="g3170"
           transform="matrix(0.26080474,-0.26080474,0.26080474,0.26080474,-194.48473,505.47742)">
          <path
             id="path2987"
             transform="translate(0,284.36218)"
             d="m 159,450 0,24 0.125,0 c 74.51681,0.0628 134.87041,60.49888 134.875,135 l 24,0 C 317.98911,521.25884 246.88589,450.07399 159.125,450 L 159,450 z m 0,48 0,24 0.0625,0 c 48.01748,0.0405 86.9273,38.99429 86.9375,87 l 24,0 C 270.001,547.73943 220.3661,498.05165 159.09375,498 L 159,498 z"
             style="fill:#ffffff;fill-opacity:1;stroke:none"
             inkscape:connector-curvature="0" />
          <path
             id="path2995"
             transform="translate(0,284.36218)"
             d="m 159,546 0,24 0.0312,0 c 21.52859,0.0182 38.96987,17.47537 38.96875,39 l 24,0 c -0.005,-34.76516 -28.16446,-62.97069 -62.9375,-63 L 159,546 z m 8,40 c -8.27872,8.6e-4 -14.99302,6.72128 -15,15 -0.007,8.28427 6.71573,14.99302 15,15 8.28427,0.007 14.99302,-6.71573 15,-15 0.007,-8.28427 -6.71573,-14.99302 -15,-15 z"
             style="fill:#000000;fill-opacity:1;stroke:none"
             inkscape:connector-curvature="0" />
        </g>
        <g
           id="g3008"
           transform="matrix(0.66666667,0,0,0.66666667,-40.963083,222.01656)">
          <path
             id="rect2986"
             transform="translate(0,284.36218)"
             d="m 335,355.15625 0,60 150,0 0,-60 -150,0 z m 6,6 138,0 0,48 -138,0 0,-48 z m -19.6875,9.09375 0,30 13.65625,0 0,-6 -7.65625,0 0,-18 7.65625,0 0,-6 -13.65625,0 z"
             style="fill:#ffffff;fill-opacity:1;stroke:none"
             inkscape:connector-curvature="0" />
          <rect
             y="645.51843"
             x="466.94849"
             height="48"
             width="12"
             id="rect3004"
             style="fill:#ff2a2a;fill-opacity:1;stroke:none" />
        </g>
        <g
           id="g3065"
           transform="matrix(0.99593503,0,0,0.99593503,-62.370448,2.2768025)">
          <rect
             style="fill:#4d4d4d;fill-opacity:1;stroke:none"
             id="rect2995"
             width="4"
             height="15.290043"
             x="434.01566"
             y="633.66119" />
          <rect
             y="688.65686"
             x="434.01566"
             height="15.290043"
             width="4"
             id="rect3033"
             style="fill:#ffffff;fill-opacity:1;stroke:none" />
          <rect
             transform="matrix(0,1,-1,0,0,0)"
             y="-471.15851"
             x="666.80402"
             height="15.290043"
             width="4"
             id="rect3041"
             style="fill:#e6e6e6;fill-opacity:1;stroke:none" />
          <rect
             transform="matrix(0,1,-1,0,0,0)"
             style="fill:#ffffff;fill-opacity:1;stroke:none"
             id="rect3043"
             width="4"
             height="15.290043"
             x="666.80402"
             y="-416.16284" />
          <rect
             transform="matrix(-0.70710678,0.70710678,-0.70710678,-0.70710678,0,0)"
             style="fill:#ffffff;fill-opacity:1;stroke:none"
             id="rect3047"
             width="4"
             height="15.290043"
             x="162.60622"
             y="-816.36841" />
          <rect
             transform="matrix(-0.70710678,0.70710678,-0.70710678,-0.70710678,0,0)"
             y="-761.37274"
             x="162.60622"
             height="15.290043"
             width="4"
             id="rect3049"
             style="fill:#000000;fill-opacity:1;stroke:none" />
          <rect
             transform="matrix(-0.70710678,-0.70710678,0.70710678,-0.70710678,0,0)"
             y="-199.74911"
             x="-783.22559"
             height="15.290043"
             width="4"
             id="rect3053"
             style="fill:#ffffff;fill-opacity:1;stroke:none" />
          <rect
             transform="matrix(-0.70710678,-0.70710678,0.70710678,-0.70710678,0,0)"
             style="fill:#999999;fill-opacity:1;stroke:none"
             id="rect3055"
             width="4"
             height="15.290043"
             x="-783.22559"
             y="-144.75345" />
        </g>
        <g
           id="g3087"
           transform="matrix(0.9375,0,0,0.9375,-11.425736,27.828324)">
          <g
             id="g3079">
            <path
               sodipodi:type="arc"
               style="fill:#ffffff;fill-opacity:1;stroke:none"
               id="path3075"
               sodipodi:cx="548.54346"
               sodipodi:cy="396.55774"
               sodipodi:rx="42.316208"
               sodipodi:ry="42.316208"
               d="m 548.57913,354.24155 c 23.37059,0.0197 42.30022,18.98127 42.28052,42.35186 -0.0197,23.37059 -18.98128,42.30022 -42.35187,42.28052 -23.37058,-0.0197 -42.30022,-18.98128 -42.28052,-42.35186 0.0197,-23.35494 18.95684,-42.2781 42.31178,-42.28054"
               transform="matrix(0.94526428,0,0,0.94526428,27.708701,308.38425)"
               sodipodi:start="4.713232"
               sodipodi:end="10.99547"
               sodipodi:open="true" />
            <path
               sodipodi:open="true"
               sodipodi:end="10.99547"
               sodipodi:start="4.713232"
               transform="matrix(0.80347464,0,0,0.80347464,105.48648,364.61203)"
               d="m 548.57913,354.24155 c 23.37059,0.0197 42.30022,18.98127 42.28052,42.35186 -0.0197,23.37059 -18.98128,42.30022 -42.35187,42.28052 -23.37058,-0.0197 -42.30022,-18.98128 -42.28052,-42.35186 0.0197,-23.35494 18.95684,-42.2781 42.31178,-42.28054"
               sodipodi:ry="42.316208"
               sodipodi:rx="42.316208"
               sodipodi:cy="396.55774"
               sodipodi:cx="548.54346"
               id="path3077"
               style="fill:#ff2a2a;fill-opacity:1;stroke:none"
               sodipodi:type="arc" />
          </g>
          <text
             sodipodi:linespacing="125%"
             id="text3083"
             y="704.22736"
             x="538.19989"
             style="font-size:16px;font-style:normal;font-variant:normal;font-weight:normal;font-stretch:normal;line-height:125%;letter-spacing:0px;word-spacing:0px;fill:#ffffff;fill-opacity:1;stroke:none;font-family:'文泉驿微米黑';-inkscape-font-specification:'文泉驿微米黑'"
             xml:space="preserve"><tspan
               style="font-size:60px;fill:#ffffff"
               y="704.22736"
               x="538.19989"
               id="tspan3085"
               sodipodi:role="line">!</tspan></text>
        </g>
        <flowRoot
           xml:space="preserve"
           id="flowRoot3094"
           style="font-size:16px;font-style:normal;font-variant:normal;font-weight:normal;font-stretch:normal;line-height:125%;letter-spacing:0px;word-spacing:0px;fill:#000000;fill-opacity:1;stroke:none;font-family:'文泉驿微米黑';-inkscape-font-specification:'文泉驿微米黑'"
           transform="translate(-48,292.74477)"><flowRegion
             id="flowRegion3096"><rect
               id="rect3098"
               width="232.72726"
               height="110.82251"
               x="638.33765"
               y="355.74026" /></flowRegion><flowPara
             id="flowPara3100"
             style="font-size:32px">404 not found</flowPara></flowRoot>        <text
           xml:space="preserve"
           style="font-size:16px;font-style:normal;font-variant:normal;font-weight:normal;font-stretch:normal;line-height:125%;letter-spacing:0px;word-spacing:0px;fill:#ff2a2a;fill-opacity:1;stroke:none;font-family:'方正喵鸣';-inkscape-font-specification:'方正喵鸣'"
           x="844.46753"
           y="701.73718"
           id="text3102"
           sodipodi:linespacing="125%"><tspan
             sodipodi:role="line"
             id="tspan3104"
             x="844.46753"
             y="701.73718"
             style="font-size:96px;fill:#ff2a2a">59</tspan></text>
      </g>
    </g>
  </g>
</svg>
